<svg width="2944" height="1909" xmlns="http://www.w3.org/2000/svg" xmlns:xlink="http://www.w3.org/1999/xlink" xml:space="preserve" overflow="hidden"><g transform="translate(-412 -34)"><rect x="424.5" y="44.4998" width="671" height="347" stroke="#00B0F0" stroke-width="20.625" stroke-miterlimit="8" fill="#FFFFFF"/><text font-family="Calibri,Calibri_MSFontService,sans-serif" font-weight="400" font-size="202" transform="matrix(1 0 0 1 600.155 285)">a</text><rect x="1040.5" y="545.5" width="599" height="407" stroke="#000000" stroke-width="22.9167" stroke-miterlimit="8" fill="#FFFFFF"/><rect x="1639.5" y="545.5" width="600" height="407" stroke="#000000" stroke-width="22.9167" stroke-miterlimit="8" fill="#FFFFFF"/><rect x="2239.5" y="545.5" width="599" height="407" stroke="#000000" stroke-width="22.9167" stroke-miterlimit="8" fill="#FFFFFF"/><text font-family="Calibri,Calibri_MSFontService,sans-serif" font-weight="400" font-size="165" transform="matrix(1 0 0 1 2475.52 803)">...</text><path d="M885.501 210.272 914.069 265.986 911.318 276.513 909.124 283.147 904.162 295.055 901.401 300.668 898.712 305.679 896.131 310.131 893.739 313.959 891.591 317.13 889.023 320.535 886.533 322.444 884.41 323.58 882.486 324.461 880.366 325.349 877.965 326.3 875.249 327.333 869.056 329.594 861.885 332.118 853.997 334.827 845.633 337.65 837.059 340.507 828.491 343.333 820.203 346.045 812.451 348.565 805.489 350.818 799.573 352.725 797.086 353.525 794.96 354.208 793.226 354.766 791.917 355.188 791.075 355.461 791.162 355.432 790.785 355.558 791.422 355.325 778.975 360.308 779.313 360.166 767.065 365.53 754.469 370.894 741.295 375.716 731.87 378.723 723.291 381.398 715.32 383.822 707.911 386.017 701.022 387.999 694.61 389.79 688.631 391.407 683.025 392.875 672.888 395.408 663.806 397.557 655.471 399.469 647.51 401.306 647.624 401.279 639.618 403.212 639.814 403.163 631.423 405.347 631.665 405.281 622.534 407.872 622.785 407.797 612.562 410.952 612.737 410.896 607.105 412.734 607.214 412.697 601.176 414.735 601.277 414.7 594.789 416.957 594.881 416.924 587.898 419.42 587.982 419.389 580.46 422.143 580.536 422.115 572.431 425.147 572.499 425.122 563.768 428.451 563.828 428.428 554.425 432.075 554.512 432.041 544.229 436.125 544.369 436.069 535.191 439.854 535.365 439.781 527.164 443.323 527.375 443.23 520.02 446.584 520.268 446.467 513.628 449.69 513.908 449.549 507.853 452.695 508.154 452.533 502.555 455.657 502.859 455.481 497.585 458.639 497.996 458.381 487.905 465.02 488.295 464.752 477.945 472.193 478.09 472.086 472.492 476.246 466.467 480.751 459.793 485.726 452.416 491.169 456.279 486.137 455.138 489.043 453.787 492.457 452.283 496.257 450.659 500.379 450.68 500.325 447.181 509.338 447.226 509.22 443.649 518.741 443.718 518.554 440.35 528.016 440.453 527.715 437.581 536.553 437.69 536.198 436.53 540.205 436.626 539.851 435.698 543.489 435.817 542.974 435.157 546.172 435.294 545.364 434.937 548.051 435.031 546.898 434.954 549.37 434.949 548.532 435.072 551.43 435.004 550.583 435.801 557.408 435.682 556.625 437.144 564.419 437.008 563.791 439.047 572.069 438.879 571.461 441.408 579.739 441.174 579.051 444.106 586.842 443.727 585.952 446.974 592.772 446.487 591.857 448.202 594.751 447.673 593.939 449.434 596.408 448.546 595.313 454.536 601.838 453.699 601.015 460.557 607.101 460.095 606.712 467.415 612.547 467.338 612.486 474.762 618.3 482.373 624.392 482.296 624.331 489.274 629.818 489.042 629.64 495.728 634.628 495.326 634.341 502.015 638.896 501.459 638.541 508.446 642.732 507.788 642.366 515.367 646.259 514.682 645.936 523.149 649.6 522.507 649.345 532.156 652.847 531.354 652.589 539.471 654.876 538.833 654.715 547.187 656.559 547.119 656.544 555.753 658.395 564.658 660.726 573.686 663.902 582.046 667.292 581.934 667.248 590.088 670.455 589.36 670.197 597.819 672.882 596.795 672.608 607.664 674.979 607.082 674.867 618.176 676.692 618.091 676.679 629.427 678.456 640.808 680.668 648.065 682.345 654.326 683.823 659.821 685.15 664.608 686.339 668.746 687.399 672.295 688.342 675.314 689.18 677.868 689.926 680.02 690.594 681.917 691.227 684.729 692.297 686.75 693.251 687.92 693.896 687.326 693.591 688.182 694 686.803 693.447 688.105 693.874 687.193 693.616 689.386 694.138 689.032 694.06 690.6 694.381 690.455 694.352 692.412 694.726 692.313 694.707 694.714 695.144 694.646 695.132 697.547 695.642 697.499 695.634 700.956 696.226 704.989 696.905 709.698 697.688 715.136 698.584 721.355 699.603 728.41 700.754 735.52 701.902 742.058 702.94 742.022 702.934 748.108 703.88 748.067 703.873 753.743 704.734 753.675 704.724 764.087 706.24 763.991 706.226 773.638 707.547 773.552 707.536 783.017 708.76 782.957 708.752 792.826 709.974 798.071 710.612 803.654 711.289 809.637 712.014 817.145 712.928 824.517 715.254 830.148 717.048 835.075 718.631 839.352 720.016 843.032 721.212 846.168 722.232 848.808 723.084 848.752 723.066 850.997 723.778 850.803 723.719 854.271 724.751 853.666 724.589 856.153 725.184 854.978 724.967 856.94 725.224 855.575 725.128 857.47 725.148 856.766 725.162 859.05 725.047 862.32 724.889 864.554 724.825 867.15 724.794 870.18 724.808 873.695 724.878 877.749 725.017 882.632 725.247 895.05 726.487 892.773 749.29 880.654 748.08 881.253 748.124 876.743 747.912 876.891 747.918 872.992 747.784 873.155 747.789 869.811 747.722 869.988 747.724 867.14 747.711 867.328 747.71 864.92 747.739 865.109 747.735 863.084 747.793 863.312 747.784 860.209 747.934 857.573 748.067 854.641 748.036 851.405 747.611 848.031 746.804 844.164 745.653 841.794 744.901 839.083 744.025 835.948 743.006 832.295 741.819 828.064 740.449 823.192 738.884 817.62 737.108 811.259 735.101 813.323 735.548 806.88 734.764 800.898 734.039 795.303 733.361 790.009 732.717 780.109 731.491 770.571 730.258 760.834 728.924 750.34 727.397 744.61 726.528 738.486 725.576 731.865 724.526 724.721 723.372 717.651 722.218 711.41 721.196 705.94 720.295 701.184 719.504 697.084 718.814 693.604 718.217 690.645 717.697 688.159 717.245 686.079 716.847 684.26 716.475 681.429 715.802 678.969 714.996 677.14 714.122 675.996 713.49 676.641 713.821 675.349 713.211 676.165 713.558 673.99 712.731 674.436 712.89 672.879 712.37 673.109 712.444 671.165 711.84 671.35 711.896 668.963 711.199 669.111 711.241 666.227 710.44 666.348 710.473 662.91 709.56 663.009 709.586 658.963 708.549 659.045 708.57 654.335 707.4 654.404 707.417 648.974 706.106 649.033 706.12 642.828 704.656 642.879 704.667 635.843 703.041 636.238 703.125 625.26 700.992 625.67 701.064 614.498 699.312 603.07 697.432 591.392 694.885 582.059 691.922 573.49 688.552 565.324 685.24 565.828 685.431 557.498 682.501 558.397 682.776 550.197 680.629 550.698 680.748 542.283 678.944 533.573 677.023 524.733 674.532 514.364 670.768 505.233 666.817 496.981 662.578 489.389 658.024 482.223 653.144 475.223 647.922 468.091 642.314 460.489 636.23 460.584 636.305 453.169 630.498 445.574 624.443 438.05 617.767 431.186 610.289 428.733 606.85 426.507 603.092 422.828 595.367 419.598 586.782 416.87 577.856 414.679 568.959 413.085 560.459 412.193 552.819 412.035 549.078 412.143 545.607 412.631 541.939 413.428 538.08 414.466 534.009 415.729 529.647 418.707 520.483 422.161 510.776 425.795 501.102 429.327 492.005 430.974 487.824 432.477 484.027 433.807 480.666 436.155 474.688 446.164 467.302 446.119 467.336 452.744 462.398 458.824 457.851 464.495 453.638 475.111 446.006 485.603 439.103 491.236 435.73 497.137 432.437 503.482 429.141 510.386 425.791 517.971 422.331 526.365 418.705 535.699 414.855 546.095 410.726 555.572 407.05 564.367 403.696 572.543 400.637 580.144 397.855 587.215 395.328 593.8 393.038 599.942 390.965 605.717 389.081 616.153 385.861 625.53 383.2 634.14 380.96 642.301 378.989 650.347 377.133 658.645 375.229 658.568 375.247 667.542 373.124 667.402 373.158 677.407 370.658 677.281 370.69 682.781 369.25 682.691 369.273 688.581 367.68 688.492 367.705 694.816 365.939 694.728 365.964 701.531 364.006 701.446 364.031 708.772 361.861 708.691 361.885 716.584 359.484 716.508 359.508 725.012 356.856 724.94 356.879 734.101 353.956 733.645 354.112 746.315 349.475 745.763 349.694 758.032 344.469 757.925 344.515 770.287 339.101 783.22 333.923 783.963 333.676 784.888 333.376 786.209 332.95 787.945 332.392 790.068 331.709 792.543 330.913 798.435 329.014 805.365 326.772 813.077 324.264 821.313 321.569 829.816 318.765 838.369 315.916 838.326 315.93 846.639 313.124 846.582 313.144 854.4 310.458 854.318 310.487 861.384 307.999 861.26 308.044 867.318 305.832 867.173 305.887 869.745 304.908 869.601 304.964 871.824 304.084 871.613 304.17 873.456 303.398 873.115 303.547 874.546 302.892 873.91 303.207 874.896 302.679 873.332 303.688 873.843 303.297 871.665 305.492 873.118 303.564 872.781 304.036 874.648 301.281 874.417 301.635 876.596 298.148 876.401 298.472 878.792 294.348 878.608 294.678 881.111 290.013 880.926 290.372 883.44 285.261 883.146 285.91 887.804 274.731 887.502 275.54 889.446 269.664 889.239 270.365 890.791 264.425 891.681 272.55 865.109 220.728ZM824.659 242.283C809.867 214.312 820.551 179.646 848.522 164.854 876.493 150.062 911.159 160.746 925.951 188.717 940.743 216.688 930.059 251.354 902.088 266.146 874.117 280.938 839.451 270.254 824.659 242.283ZM888.351 679.728 996.5 748.396 876.675 793.715Z" fill="#172C51"/><rect x="1546.5" y="1045.5" width="599" height="407" stroke="#000000" stroke-width="22.9167" stroke-miterlimit="8" fill="#FFFFFF"/><rect x="2145.5" y="1045.5" width="600" height="407" stroke="#000000" stroke-width="22.9167" stroke-miterlimit="8" fill="#FFFFFF"/><rect x="2745.5" y="1045.5" width="599" height="407" stroke="#000000" stroke-width="22.9167" stroke-miterlimit="8" fill="#FFFFFF"/><rect x="1546.5" y="1524.5" width="599" height="407" stroke="#000000" stroke-width="22.9167" stroke-miterlimit="8" fill="#FFFFFF"/><rect x="2145.5" y="1524.5" width="600" height="407" stroke="#000000" stroke-width="22.9167" stroke-miterlimit="8" fill="#FFFFFF"/><rect x="2745.5" y="1524.5" width="599" height="407" stroke="#000000" stroke-width="22.9167" stroke-miterlimit="8" fill="#FFFFFF"/><path d="M1407.72 727.279 1436.23 782.989 1433.49 793.508 1431.3 800.141 1426.34 812.048 1423.59 817.661 1420.9 822.672 1418.33 827.124 1415.94 830.951 1413.8 834.122 1411.23 837.528 1408.74 839.439 1406.62 840.577 1404.7 841.458 1402.58 842.347 1400.19 843.298 1397.47 844.331 1391.29 846.592 1384.13 849.116 1376.26 851.825 1367.91 854.649 1359.35 857.505 1350.8 860.331 1342.52 863.043 1334.78 865.564 1327.83 867.816 1321.93 869.723 1319.45 870.523 1317.32 871.207 1315.59 871.764 1314.29 872.186 1313.44 872.459 1313.53 872.43 1313.16 872.556 1313.79 872.322 1301.37 877.305 1301.71 877.163 1289.48 882.527 1276.91 887.892 1263.75 892.714 1254.34 895.721 1245.78 898.396 1237.82 900.821 1230.43 903.015 1223.55 904.998 1217.15 906.788 1211.18 908.406 1205.58 909.874 1195.46 912.407 1186.4 914.556 1178.07 916.468 1170.13 918.305 1170.24 918.278 1162.25 920.211 1162.45 920.162 1154.07 922.346 1154.31 922.28 1145.2 924.87 1145.45 924.796 1135.24 927.95 1135.42 927.894 1129.8 929.732 1129.91 929.695 1123.88 931.733 1123.98 931.698 1117.5 933.955 1117.59 933.922 1110.62 936.417 1110.71 936.387 1103.2 939.141 1103.27 939.113 1095.18 942.145 1095.25 942.119 1086.54 945.449 1086.6 945.426 1077.21 949.072 1077.3 949.038 1067.03 953.123 1067.17 953.066 1058.01 956.852 1058.18 956.778 1050 960.32 1050.21 960.226 1042.87 963.581 1043.11 963.464 1036.49 966.686 1036.77 966.546 1030.72 969.691 1031.02 969.529 1025.43 972.653 1025.74 972.477 1020.47 975.635 1020.88 975.376 1010.81 982.015 1011.2 981.747 1000.87 989.187 1001.01 989.081 995.426 993.24 989.411 997.745 982.749 1002.72 975.385 1008.16 979.243 1003.13 978.103 1006.04 976.755 1009.45 975.254 1013.25 973.633 1017.37 973.653 1017.32 970.161 1026.33 970.205 1026.21 966.635 1035.74 966.703 1035.55 963.341 1045.01 963.444 1044.71 960.577 1053.55 960.686 1053.19 959.528 1057.2 959.624 1056.85 958.697 1060.48 958.816 1059.97 958.156 1063.17 958.293 1062.36 957.937 1065.05 958.031 1063.9 957.954 1066.37 957.949 1065.53 958.071 1068.43 958.004 1067.59 958.8 1074.41 958.681 1073.63 960.14 1081.42 960.005 1080.8 962.04 1089.07 961.873 1088.47 964.398 1096.74 964.164 1096.06 967.091 1103.85 966.713 1102.96 969.955 1109.78 969.468 1108.86 971.18 1111.76 970.652 1110.95 972.41 1113.42 971.523 1112.32 977.503 1118.85 976.667 1118.02 983.513 1124.11 983.051 1123.72 990.359 1129.55 990.281 1129.49 997.692 1135.31 1005.29 1141.4 1005.21 1141.34 1012.18 1146.82 1011.95 1146.65 1018.62 1151.63 1018.22 1151.35 1024.9 1155.9 1024.34 1155.55 1031.32 1159.74 1030.66 1159.37 1038.22 1163.26 1037.54 1162.94 1045.99 1166.6 1045.35 1166.35 1054.98 1169.85 1054.18 1169.59 1062.28 1171.88 1061.64 1171.72 1069.98 1173.56 1069.91 1173.54 1078.53 1175.4 1087.42 1177.73 1096.44 1180.9 1104.78 1184.29 1104.67 1184.25 1112.81 1187.46 1112.08 1187.2 1120.53 1189.88 1119.5 1189.61 1130.35 1191.98 1129.77 1191.87 1140.84 1193.69 1140.76 1193.68 1152.07 1195.46 1163.44 1197.67 1170.68 1199.35 1176.93 1200.82 1182.42 1202.15 1187.2 1203.34 1191.33 1204.4 1194.87 1205.34 1197.89 1206.18 1200.43 1206.93 1202.58 1207.6 1204.48 1208.23 1207.29 1209.3 1209.31 1210.25 1210.48 1210.9 1209.88 1210.59 1210.74 1211 1209.35 1210.45 1210.66 1210.88 1209.74 1210.62 1211.93 1211.14 1211.58 1211.06 1213.14 1211.38 1213 1211.35 1214.95 1211.73 1214.85 1211.71 1217.25 1212.15 1217.18 1212.13 1220.08 1212.64 1220.03 1212.63 1223.48 1213.23 1227.5 1213.91 1232.21 1214.69 1237.63 1215.58 1243.84 1216.6 1250.88 1217.75 1257.98 1218.9 1264.51 1219.94 1264.47 1219.93 1270.55 1220.88 1270.51 1220.87 1276.17 1221.73 1276.1 1221.72 1286.5 1223.24 1286.4 1223.23 1296.03 1224.55 1295.95 1224.54 1305.39 1225.76 1305.33 1225.75 1315.19 1226.97 1320.42 1227.61 1325.99 1228.29 1331.97 1229.01 1339.47 1229.93 1346.83 1232.26 1352.45 1234.05 1357.37 1235.63 1361.64 1237.02 1365.31 1238.21 1368.44 1239.23 1371.08 1240.09 1371.02 1240.07 1373.26 1240.78 1373.07 1240.72 1376.53 1241.75 1375.92 1241.59 1378.41 1242.19 1377.23 1241.97 1379.19 1242.22 1377.82 1242.13 1379.71 1242.15 1379.01 1242.16 1381.29 1242.05 1384.55 1241.89 1386.78 1241.83 1389.38 1241.79 1392.4 1241.81 1395.91 1241.88 1399.96 1242.02 1404.84 1242.25 1417.06 1243.48 1414.77 1266.28 1402.85 1265.08 1403.45 1265.12 1398.95 1264.91 1399.1 1264.92 1395.21 1264.78 1395.37 1264.79 1392.03 1264.72 1392.21 1264.72 1389.37 1264.71 1389.55 1264.71 1387.15 1264.74 1387.34 1264.74 1385.32 1264.79 1385.55 1264.78 1382.45 1264.93 1379.82 1265.07 1376.89 1265.04 1373.65 1264.61 1370.28 1263.8 1366.42 1262.65 1364.05 1261.9 1361.35 1261.02 1358.22 1260 1354.57 1258.82 1350.35 1257.45 1345.48 1255.88 1339.92 1254.11 1333.57 1252.1 1335.64 1252.55 1329.21 1251.76 1323.23 1251.04 1317.65 1250.36 1312.36 1249.72 1302.48 1248.49 1292.96 1247.26 1283.24 1245.92 1272.76 1244.4 1267.04 1243.53 1260.93 1242.58 1254.32 1241.53 1247.19 1240.37 1240.13 1239.22 1233.9 1238.2 1228.44 1237.29 1223.69 1236.5 1219.6 1235.81 1216.13 1235.22 1213.17 1234.7 1210.69 1234.24 1208.61 1233.85 1206.8 1233.47 1203.97 1232.8 1201.51 1231.99 1199.68 1231.12 1198.54 1230.49 1199.18 1230.82 1197.89 1230.21 1198.71 1230.56 1196.54 1229.73 1196.99 1229.89 1195.43 1229.37 1195.66 1229.44 1193.72 1228.84 1193.91 1228.89 1191.52 1228.2 1191.67 1228.24 1188.79 1227.44 1188.91 1227.47 1185.48 1226.56 1185.58 1226.58 1181.54 1225.55 1181.62 1225.57 1176.92 1224.4 1176.99 1224.42 1171.57 1223.1 1171.63 1223.12 1165.44 1221.65 1165.49 1221.67 1158.46 1220.04 1158.86 1220.12 1147.9 1217.99 1148.31 1218.06 1137.16 1216.31 1125.75 1214.43 1114.09 1211.88 1104.77 1208.92 1096.21 1205.55 1088.06 1202.24 1088.57 1202.43 1080.25 1199.5 1081.15 1199.78 1072.97 1197.63 1073.47 1197.75 1065.07 1195.94 1056.37 1194.02 1047.54 1191.53 1037.19 1187.77 1028.07 1183.81 1019.84 1179.57 1012.26 1175.02 1005.1 1170.14 998.112 1164.92 990.993 1159.31 983.404 1153.22 983.499 1153.3 976.097 1147.49 968.515 1141.44 961.004 1134.76 954.15 1127.28 951.702 1123.84 949.48 1120.08 945.808 1112.36 942.583 1103.78 939.861 1094.85 937.674 1085.95 936.083 1077.46 935.193 1069.82 935.035 1066.08 935.143 1062.61 935.629 1058.94 936.425 1055.08 937.461 1051.01 938.721 1046.65 941.694 1037.49 945.142 1027.78 948.77 1018.11 952.296 1009.01 953.94 1004.83 955.44 1001.03 956.768 997.672 959.111 991.695 969.105 984.308 969.06 984.341 975.673 979.404 981.743 974.857 987.404 970.644 998.002 963.012 1008.48 956.108 1014.1 952.734 1019.99 949.441 1026.33 946.145 1033.22 942.794 1040.79 939.334 1049.17 935.708 1058.49 931.858 1068.87 927.728 1078.33 924.053 1087.11 920.699 1095.27 917.64 1102.86 914.857 1109.92 912.33 1116.49 910.04 1122.62 907.967 1128.39 906.083 1138.81 902.863 1148.17 900.202 1156.76 897.961 1164.91 895.99 1172.94 894.133 1181.23 892.23 1181.15 892.248 1190.11 890.125 1189.97 890.159 1199.95 887.659 1199.83 887.691 1205.32 886.251 1205.23 886.275 1211.11 884.682 1211.02 884.706 1217.33 882.94 1217.24 882.965 1224.03 881.008 1223.95 881.032 1231.26 878.863 1231.18 878.887 1239.06 876.486 1238.98 876.51 1247.47 873.858 1247.4 873.88 1256.55 870.958 1256.09 871.114 1268.74 866.478 1268.19 866.697 1280.43 861.472 1280.33 861.518 1292.67 856.104 1305.58 850.926 1306.32 850.678 1307.25 850.378 1308.56 849.952 1310.3 849.393 1312.42 848.711 1314.89 847.915 1320.77 846.016 1327.69 843.774 1335.39 841.266 1343.61 838.571 1352.09 835.767 1360.63 832.918 1360.59 832.932 1368.89 830.126 1368.83 830.146 1376.64 827.46 1376.55 827.489 1383.61 825.002 1383.48 825.046 1389.53 822.835 1389.39 822.889 1391.95 821.911 1391.81 821.967 1394.03 821.086 1393.82 821.173 1395.66 820.4 1395.32 820.55 1396.74 819.895 1396.11 820.211 1397.09 819.683 1395.53 820.694 1396.04 820.302 1393.86 822.499 1395.31 820.572 1394.97 821.044 1396.84 818.288 1396.61 818.643 1398.78 815.155 1398.59 815.48 1400.98 811.355 1400.79 811.686 1403.29 807.02 1403.11 807.38 1405.62 802.268 1405.32 802.917 1409.97 791.737 1409.67 792.546 1411.61 786.67 1411.41 787.37 1412.95 781.43 1413.84 789.543 1387.32 737.721ZM1346.84 759.232C1332.08 731.246 1342.8 696.59 1370.78 681.827 1398.77 667.064 1433.43 677.783 1448.19 705.769 1462.95 733.755 1452.23 768.41 1424.25 783.173 1396.26 797.937 1361.61 787.218 1346.84 759.232ZM1410.36 1196.72 1518.5 1265.4 1398.67 1310.7Z" fill="#172C51"/><path d="M1939.03 752.413 1935.55 817.54 1930.7 829.273 1925.41 839.672 1919.35 849.965 1912.68 860.082 1905.59 869.937 1898.24 879.436 1890.8 888.478 1883.45 896.958 1876.36 904.769 1869.69 911.801 1863.62 917.949 1858.33 923.086 1855.98 925.29 1853.89 927.195 1852.03 928.826 1849.65 930.835 1846.9 932.305 1844.17 933.202 1841.63 933.822 1838.89 934.364 1835.86 934.879 1832.47 935.386 1824.89 936.37 1816.22 937.346 1806.75 938.302 1796.77 939.229 1786.55 940.116 1776.4 940.95 1766.61 941.719 1757.46 942.411 1749.24 943.014 1742.27 943.514 1739.34 943.721 1736.84 943.898 1734.8 944.042 1733.26 944.152 1732.28 944.225 1732.42 944.214 1731.97 944.253 1732.75 944.159 1725 945.368 1725.41 945.295 1717.62 946.809 1717.9 946.75 1702.17 950.225 1686.21 953.519 1677.9 954.83 1669.71 955.684 1658.69 956.423 1648.64 956.994 1639.35 957.419 1630.76 957.712 1622.82 957.885 1615.48 957.95 1608.68 957.921 1602.32 957.81 1590.98 957.397 1580.94 956.819 1571.81 956.186 1563.12 955.602 1563.32 955.614 1554.49 955.175 1554.83 955.187 1545.43 954.998 1545.84 954.999 1535.42 955.162 1535.83 955.148 1523.93 955.768 1524.21 955.75 1517.56 956.263 1517.74 956.249 1510.54 956.915 1510.7 956.899 1502.91 957.731 1503.06 957.715 1494.61 958.726 1494.74 958.709 1485.58 959.912 1485.7 959.896 1475.77 961.303 1475.87 961.288 1465.12 962.912 1465.21 962.898 1453.57 964.753 1453.7 964.732 1440.89 966.926 1441.1 966.888 1429.53 969.088 1429.78 969.037 1419.3 971.278 1419.6 971.209 1410.03 973.525 1410.38 973.436 1401.56 975.861 1401.94 975.751 1393.71 978.318 1394.1 978.19 1386.29 980.935 1386.67 980.795 1379.11 983.752 1379.46 983.612 1371.99 986.815 1372.28 986.687 1364.74 990.17 1364.96 990.066 1357.18 993.863 1357.33 993.788 1349.14 997.935 1349.23 997.891 1340.47 1002.42 1331 1007.35 1320.56 1012.77 1309.06 1018.67 1312.68 1015.76 1309 1020.23 1304.68 1025.44 1299.86 1031.28 1294.62 1037.63 1289.06 1044.4 1283.27 1051.47 1283.3 1051.43 1271.38 1066.14 1271.45 1066.06 1259.77 1080.77 1259.85 1080.68 1254.34 1087.77 1254.4 1087.68 1249.24 1094.46 1249.33 1094.34 1244.62 1100.7 1244.74 1100.54 1240.57 1106.37 1240.73 1106.14 1237.2 1111.34 1237.43 1110.98 1234.64 1115.44 1234.95 1114.93 1232.6 1119.15 1232.8 1118.77 1230.24 1123.82 1230.38 1123.54 1227.65 1129.3 1227.75 1129.08 1224.89 1135.45 1224.97 1135.27 1222.04 1142.13 1222.11 1141.96 1219.15 1149.21 1219.24 1148.98 1213.41 1164.2 1213.53 1163.88 1208.13 1179.33 1208.22 1179.06 1205.8 1186.59 1205.87 1186.37 1203.69 1193.64 1203.77 1193.37 1201.89 1200.26 1201.97 1199.92 1200.43 1206.31 1200.53 1205.87 1199.37 1211.66 1199.48 1211.04 1198.76 1216.12 1198.86 1215.1 1198.12 1229.16 1198.13 1228.2 1198.56 1241.91 1198.53 1241.37 1199.6 1254.87 1199.59 1254.78 1200.77 1268.26 1201.86 1282.3 1201.85 1282.21 1202.94 1294.95 1202.91 1294.67 1204.2 1306.41 1204.14 1305.92 1205.83 1316.92 1205.7 1316.22 1207.99 1326.73 1207.77 1325.87 1210.85 1336.15 1210.53 1335.22 1214.61 1345.52 1214.22 1344.63 1219.48 1355.21 1219.04 1354.41 1221.45 1358.4 1221.03 1357.75 1223.66 1361.51 1223.23 1360.94 1228.89 1368.05 1228.81 1367.96 1234.82 1375.34 1240.64 1383.73 1243.49 1388.9 1245.95 1393.99 1250.15 1403.68 1250.08 1403.53 1254.3 1412.89 1253.98 1412.24 1256.33 1416.67 1255.91 1415.95 1258.53 1420.11 1257.99 1419.33 1261.56 1424.08 1261.1 1423.5 1264.92 1427.95 1264.46 1427.45 1272.54 1435.82 1272.43 1435.71 1280.78 1444.11 1285.09 1448.8 1289.16 1453.73 1294 1460.04 1298.18 1465.56 1301.82 1470.47 1304.96 1474.81 1307.66 1478.63 1309.95 1481.97 1311.88 1484.9 1313.49 1487.46 1314.82 1489.71 1315.97 1491.81 1317.53 1495.13 1318.45 1497.78 1318.88 1499.43 1318.64 1498.64 1319.02 1499.75 1318.17 1497.84 1318.92 1499.19 1318.09 1497.9 1319.54 1499.83 1319.15 1499.34 1320.23 1500.63 1320.06 1500.43 1321.44 1502 1321.32 1501.86 1323.03 1503.75 1322.95 1503.66 1325.03 1505.9 1324.97 1505.84 1327.47 1508.48 1327.43 1508.44 1330.38 1511.53 1330.35 1511.5 1333.79 1515.09 1337.74 1519.18 1342.27 1523.86 1347.42 1529.16 1352.61 1534.47 1352.57 1534.43 1357.39 1539.32 1357.35 1539.27 1361.83 1543.77 1361.78 1543.71 1365.98 1547.87 1365.89 1547.78 1373.66 1555.29 1373.53 1555.17 1380.81 1561.99 1380.69 1561.88 1387.9 1568.44 1387.81 1568.37 1395.37 1575.12 1395.34 1575.09 1399.39 1578.67 1403.68 1582.46 1408.28 1586.53 1414.62 1592.15 1419.31 1600.22 1422.62 1605.97 1425.51 1611.03 1427.99 1615.42 1430.13 1619.21 1431.95 1622.45 1433.49 1625.15 1433.44 1625.07 1434.76 1627.36 1434.6 1627.08 1436.7 1630.49 1436.12 1629.64 1437.76 1631.84 1436.33 1630.25 1437.82 1631.62 1435.7 1630.08 1437.34 1631.01 1436.11 1630.41 1438.25 1631.29 1441.37 1632.6 1443.58 1633.63 1446.05 1634.88 1448.86 1636.41 1452.03 1638.27 1455.6 1640.5 1459.94 1643.36 1471.01 1652.25 1456.67 1670.12 1446.01 1661.57 1446.88 1662.19 1443.1 1659.71 1443.34 1659.86 1440.03 1657.8 1440.31 1657.96 1437.42 1656.27 1437.72 1656.44 1435.23 1655.08 1435.55 1655.25 1433.41 1654.16 1433.74 1654.33 1431.91 1653.47 1432.31 1653.65 1429.42 1652.44 1429.46 1652.46 1426.71 1651.32 1423.31 1649.41 1420.05 1646.42 1417.46 1642.95 1415 1638.96 1413.58 1636.5 1411.99 1633.7 1410.17 1630.47 1408.05 1626.71 1405.57 1622.33 1405.59 1622.36 1402.73 1617.35 1402.75 1617.38 1399.46 1611.67 1399.49 1611.71 1395.74 1605.26 1398.04 1608.08 1393.1 1603.7 1388.5 1599.64 1384.2 1595.83 1380.13 1592.23 1372.51 1585.42 1365.2 1578.77 1357.8 1571.83 1349.92 1564.21 1345.64 1559.99 1341.1 1555.44 1336.24 1550.51 1330.98 1545.12 1325.81 1539.8 1321.25 1535.1 1317.26 1530.96 1313.8 1527.36 1310.82 1524.23 1308.27 1521.53 1306.11 1519.21 1304.3 1517.21 1302.77 1515.48 1301.4 1513.84 1299.3 1511.05 1297.66 1508.12 1296.81 1505.63 1296.39 1504.02 1296.65 1504.87 1296.08 1503.22 1296.53 1504.34 1295.38 1501.89 1295.7 1502.51 1294.81 1500.88 1294.99 1501.21 1293.84 1499.25 1294 1499.51 1292.54 1497.19 1292.67 1497.4 1290.87 1494.66 1290.98 1494.83 1288.8 1491.64 1288.9 1491.78 1286.29 1488.09 1286.37 1488.21 1283.3 1483.97 1283.37 1484.07 1279.8 1479.25 1279.86 1479.34 1275.75 1473.89 1275.8 1473.96 1271.11 1467.85 1271.36 1468.17 1267.61 1463.63 1268 1464.08 1264.05 1459.77 1264.36 1460.1 1256.12 1451.8 1247.74 1443.13 1243.46 1438.14 1239.38 1432.71 1236.29 1427.78 1233.56 1422.65 1229.15 1412.88 1225.01 1403.31 1225.2 1403.73 1222.99 1399.14 1223.28 1399.71 1220.86 1395.33 1221.47 1396.32 1216.23 1388.76 1216.76 1389.46 1211 1382.37 1205.08 1374.94 1202.02 1370.56 1199.18 1365.84 1193.49 1354.41 1189.05 1343.21 1185.69 1332.04 1183.23 1320.75 1181.45 1309.16 1180.11 1297.04 1179.01 1284.12 1177.92 1270.08 1177.93 1270.19 1176.76 1256.72 1175.66 1242.91 1175.21 1228.44 1176 1213.39 1176.84 1207.49 1178.1 1201.16 1179.74 1194.38 1181.7 1187.2 1183.95 1179.69 1186.45 1171.91 1191.95 1156.16 1197.89 1140.66 1200.93 1133.21 1203.94 1126.17 1206.88 1119.6 1209.73 1113.59 1212.46 1108.21 1215.06 1103.54 1218.12 1098.64 1221.84 1093.15 1226.15 1087.13 1230.97 1080.64 1236.2 1073.76 1241.78 1066.57 1253.54 1051.76 1265.51 1036.98 1271.35 1029.84 1276.94 1023.05 1282.2 1016.68 1287.02 1010.84 1291.31 1005.65 1296.5 999.356 1310.08 992.391 1310.03 992.416 1320.42 987.026 1329.94 982.063 1338.75 977.512 1347.05 973.306 1355.02 969.418 1362.81 965.818 1370.59 962.48 1378.5 959.383 1386.69 956.503 1395.3 953.816 1404.47 951.293 1414.36 948.9 1425.12 946.6 1436.92 944.355 1449.9 942.132 1461.65 940.26 1472.5 938.62 1482.54 937.198 1491.82 935.979 1500.41 934.952 1508.35 934.103 1515.71 933.422 1522.59 932.89 1534.85 932.252 1545.69 932.081 1555.46 932.278 1564.56 932.731 1573.4 933.324 1582.46 933.952 1582.32 933.944 1592.18 934.512 1591.94 934.5 1603.05 934.904 1602.83 934.898 1609 935.007 1608.85 935.005 1615.5 935.034 1615.35 935.034 1622.55 934.97 1622.4 934.972 1630.19 934.802 1630.05 934.806 1638.5 934.518 1638.36 934.523 1647.52 934.104 1647.4 934.11 1657.33 933.546 1657.21 933.554 1667.97 932.832 1667.55 932.868 1675.23 932.068 1674.63 932.147 1682.38 930.925 1681.84 931.022 1697.46 927.797 1697.31 927.83 1713.1 924.341 1721.25 922.758 1729.6 921.456 1730.51 921.377 1731.63 921.294 1733.19 921.182 1735.23 921.038 1737.73 920.862 1740.64 920.656 1747.57 920.159 1755.73 919.56 1764.82 918.872 1774.58 918.106 1774.54 918.109 1784.65 917.279 1784.6 917.283 1794.75 916.401 1794.68 916.408 1804.59 915.488 1804.49 915.497 1813.85 914.552 1813.72 914.566 1822.24 913.608 1822.04 913.632 1829.41 912.675 1829.19 912.706 1832.35 912.232 1832.14 912.266 1834.9 911.797 1834.59 911.854 1836.93 911.391 1836.44 911.499 1838.3 911.044 1837.44 911.29 1838.8 910.845 1836.96 911.63 1837.77 911.196 1835.81 912.527 1837.19 911.37 1836.99 911.542 1838.67 910.062 1838.52 910.192 1840.48 908.405 1840.37 908.512 1842.59 906.431 1842.44 906.572 1847.57 901.59 1847.4 901.76 1853.31 895.781 1853.14 895.95 1859.64 889.091 1859.48 889.27 1866.4 881.649 1866.22 881.848 1873.39 873.58 1873.2 873.807 1880.43 865.011 1880.22 865.277 1887.34 856.07 1887.11 856.388 1893.95 846.886 1893.68 847.276 1900.05 837.597 1899.75 838.085 1905.49 828.346 1905.15 828.969 1910.07 819.287 1909.69 820.102 1913.63 810.594 1912.77 814.361 1916.15 751.19ZM1870.32 750.195C1871.21 718.566 1897.57 693.645 1929.2 694.533 1960.83 695.42 1985.75 721.78 1984.86 753.409 1983.97 785.038 1957.61 809.958 1925.98 809.071 1894.35 808.183 1869.43 781.824 1870.32 750.195ZM1491.47 1609.7 1543.38 1726.82 1418.54 1698.08Z" fill="#172C51"/></g></svg>