<svg width="4143" height="1909" xmlns="http://www.w3.org/2000/svg" xmlns:xlink="http://www.w3.org/1999/xlink" xml:space="preserve" overflow="hidden"><g transform="translate(-95 -34)"><rect x="106.5" y="44.4998" width="671" height="347" stroke="#00B0F0" stroke-width="20.625" stroke-miterlimit="8" fill="#FFFFFF"/><text font-family="Calibri,Calibri_MSFontService,sans-serif" font-weight="400" font-size="202" transform="matrix(1 0 0 1 283.013 285)">a</text><rect x="722.5" y="545.5" width="600" height="407" stroke="#000000" stroke-width="22.9167" stroke-miterlimit="8" fill="#FFFFFF"/><rect x="1322.5" y="545.5" width="599" height="407" stroke="#000000" stroke-width="22.9167" stroke-miterlimit="8" fill="#FFFFFF"/><rect x="1921.5" y="545.5" width="600" height="407" stroke="#000000" stroke-width="22.9167" stroke-miterlimit="8" fill="#FFFFFF"/><text font-family="Calibri,Calibri_MSFontService,sans-serif" font-weight="400" font-size="165" transform="matrix(1 0 0 1 2158.37 803)">...</text><path d="M567.716 210.279 596.232 265.988 593.488 276.508 591.298 283.141 586.344 295.048 583.588 300.661 580.905 305.672 578.328 310.124 575.94 313.951 573.796 317.122 571.232 320.528 568.744 322.439 566.621 323.577 564.7 324.458 562.583 325.347 560.186 326.298 557.474 327.331 551.291 329.592 544.133 332.116 536.258 334.825 527.909 337.648 519.35 340.505 510.796 343.331 502.523 346.043 494.784 348.564 487.834 350.816 481.929 352.723 479.446 353.523 477.323 354.207 475.592 354.764 474.286 355.186 473.445 355.459 473.534 355.43 473.157 355.556 473.794 355.322 461.368 360.305 461.706 360.163 449.48 365.527 436.906 370.892 423.753 375.714 414.343 378.721 405.78 381.396 397.821 383.821 390.426 386.015 383.549 387.998 377.147 389.788 371.179 391.406 365.582 392.874 355.462 395.407 346.396 397.556 338.075 399.468 330.128 401.305 330.242 401.278 322.25 403.211 322.446 403.162 314.07 405.346 314.312 405.28 305.198 407.87 305.448 407.796 295.243 410.95 295.419 410.894 289.797 412.732 289.906 412.695 283.878 414.733 283.979 414.698 277.502 416.955 277.595 416.922 270.624 419.417 270.708 419.387 263.199 422.141 263.275 422.113 255.185 425.145 255.252 425.119 246.536 428.449 246.597 428.426 237.21 432.072 237.297 432.038 227.032 436.123 227.172 436.066 218.011 439.852 218.185 439.778 209.998 443.32 210.209 443.226 202.867 446.581 203.115 446.464 196.486 449.686 196.767 449.545 190.723 452.691 191.023 452.529 185.434 455.653 185.738 455.477 180.474 458.635 180.885 458.376 170.812 465.015 171.202 464.747 160.869 472.187 161.015 472.081 155.426 476.24 149.412 480.745 142.749 485.721 135.386 491.163 139.243 486.131 138.104 489.037 136.755 492.451 135.254 496.251 133.633 500.372 133.654 500.319 130.161 509.331 130.206 509.214 126.635 518.735 126.704 518.548 123.342 528.01 123.444 527.71 120.577 536.547 120.686 536.193 119.528 540.2 119.624 539.847 118.698 543.485 118.816 542.97 118.157 546.168 118.293 545.361 117.937 548.048 118.031 546.897 117.954 549.37 117.95 548.533 118.071 551.431 118.004 550.585 118.8 557.41 118.682 556.628 120.141 564.423 120.005 563.795 122.04 572.074 121.873 571.467 124.398 579.744 124.164 579.057 127.091 586.849 126.713 585.959 129.955 592.779 129.469 591.865 131.18 594.759 130.653 593.947 132.41 596.416 131.524 595.32 137.503 601.845 136.667 601.022 143.513 607.107 143.051 606.718 150.359 612.553 150.282 612.492 157.692 618.306 165.291 624.398 165.213 624.337 172.179 629.824 171.947 629.646 178.621 634.633 178.22 634.347 184.897 638.902 184.341 638.546 191.316 642.736 190.657 642.37 198.223 646.263 197.538 645.939 205.99 649.603 205.347 649.347 214.979 652.849 214.176 652.59 222.279 654.877 221.64 654.716 229.979 656.56 229.912 656.545 238.531 658.396 247.423 660.728 256.437 663.905 264.783 667.295 264.672 667.25 272.811 670.457 272.082 670.198 280.527 672.883 279.501 672.609 290.351 674.979 289.768 674.868 300.842 676.693 300.758 676.679 312.074 678.457 323.437 680.669 330.682 682.346 336.932 683.824 342.418 685.151 347.197 686.34 351.328 687.4 354.871 688.343 357.885 689.181 360.435 689.927 362.584 690.596 364.479 691.229 367.287 692.3 369.307 693.254 370.476 693.901 369.881 693.594 370.735 694.003 369.355 693.449 370.655 693.875 369.742 693.617 371.931 694.139 371.576 694.06 373.142 694.381 372.996 694.352 374.95 694.727 374.85 694.708 377.248 695.145 377.179 695.133 380.075 695.643 380.028 695.634 383.478 696.227 387.504 696.906 392.205 697.689 397.633 698.585 403.842 699.604 410.884 700.754 417.982 701.903 424.509 702.94 424.472 702.935 430.548 703.88 430.507 703.874 436.172 704.735 436.105 704.725 446.498 706.24 446.403 706.227 456.032 707.548 455.946 707.536 465.395 708.76 465.334 708.752 475.187 709.975 480.422 710.613 485.995 711.289 491.968 712.014 499.466 712.928 506.828 715.256 512.45 717.05 517.368 718.633 521.638 720.017 525.312 721.214 528.442 722.233 531.078 723.086 531.021 723.068 533.263 723.78 533.068 723.72 536.53 724.753 535.924 724.59 538.407 725.185 537.23 724.967 539.189 725.225 537.821 725.128 539.713 725.148 539.008 725.162 541.288 725.047 544.553 724.889 546.783 724.825 549.375 724.794 552.401 724.808 555.91 724.878 559.958 725.017 564.837 725.248 577.06 726.477 574.766 749.279 562.846 748.08 563.452 748.124 558.95 747.912 559.098 747.918 555.206 747.784 555.37 747.789 552.031 747.722 552.208 747.724 549.366 747.711 549.554 747.71 547.15 747.739 547.34 747.735 545.318 747.793 545.546 747.784 542.449 747.934 539.817 748.067 536.885 748.036 533.651 747.611 530.28 746.803 526.419 745.651 524.052 744.899 521.346 744.024 518.216 743.004 514.57 741.817 510.346 740.448 505.482 738.882 499.921 737.107 493.571 735.099 495.638 735.548 489.206 734.764 483.235 734.039 477.649 733.361 472.365 732.717 462.482 731.491 452.96 730.258 443.239 728.924 432.764 727.396 427.044 726.527 420.929 725.576 414.321 724.525 407.189 723.371 400.131 722.218 393.901 721.196 388.44 720.294 383.693 719.503 379.6 718.813 376.126 718.216 373.171 717.696 370.69 717.244 368.613 716.846 366.796 716.474 363.969 715.8 361.509 714.994 359.681 714.119 358.538 713.486 359.184 713.817 357.894 713.208 358.711 713.556 356.54 712.728 356.986 712.888 355.431 712.368 355.662 712.442 353.721 711.839 353.906 711.895 351.524 711.197 351.672 711.24 348.793 710.439 348.914 710.472 345.482 709.558 345.582 709.584 341.542 708.548 341.625 708.569 336.922 707.399 336.992 707.416 331.571 706.104 331.631 706.119 325.436 704.655 325.487 704.667 318.464 703.04 318.86 703.125 307.901 700.991 308.311 701.064 297.159 699.311 285.75 697.431 274.09 694.884 264.769 691.92 256.214 688.549 248.062 685.238 248.567 685.429 240.251 682.499 241.152 682.775 232.966 680.628 233.468 680.747 225.067 678.944 216.372 677.022 207.545 674.53 197.192 670.766 188.075 666.813 179.836 662.574 172.255 658.019 165.101 653.139 158.113 647.916 150.994 642.308 143.404 636.223 143.499 636.299 136.097 630.492 128.515 624.437 121.004 617.76 114.151 610.282 111.702 606.842 109.48 603.085 105.808 595.36 102.584 586.776 99.8615 577.851 97.6743 568.955 96.0834 560.456 95.1928 552.817 95.0355 549.078 95.1431 545.609 95.6294 541.942 96.4248 538.084 97.4616 534.013 98.7216 529.653 101.694 520.488 105.143 510.782 108.77 501.109 112.296 492.011 113.94 487.83 115.441 484.033 116.768 480.672 119.111 474.695 129.105 467.308 129.06 467.341 135.673 462.404 141.743 457.857 147.404 453.643 158.002 446.011 168.477 439.108 174.1 435.734 179.992 432.441 186.326 429.145 193.219 425.794 200.791 422.334 209.171 418.708 218.49 414.858 228.868 410.728 238.328 407.053 247.108 403.699 255.27 400.64 262.858 397.857 269.917 395.33 276.49 393.04 282.623 390.967 288.387 389.083 298.806 385.862 308.167 383.202 316.763 380.961 324.91 378.99 332.943 377.133 341.226 375.23 341.149 375.248 350.107 373.125 349.967 373.159 359.954 370.659 359.829 370.691 365.318 369.251 365.229 369.275 371.108 367.682 371.019 367.706 377.332 365.94 377.244 365.965 384.035 364.008 383.95 364.032 391.263 361.863 391.182 361.887 399.061 359.486 398.985 359.51 407.475 356.858 407.403 356.88 416.547 353.958 416.091 354.114 428.738 349.478 428.186 349.697 440.433 344.472 440.326 344.518 452.668 339.104 465.578 333.926 466.321 333.678 467.245 333.378 468.564 332.952 470.298 332.393 472.416 331.711 474.887 330.915 480.769 329.016 487.687 326.774 495.385 324.266 503.607 321.571 512.095 318.767 520.633 315.918 520.59 315.932 528.889 313.126 528.831 313.146 536.635 310.46 536.553 310.489 543.608 308.001 543.483 308.046 549.531 305.835 549.386 305.889 551.953 304.911 551.809 304.967 554.028 304.086 553.816 304.173 555.656 303.4 555.315 303.55 556.744 302.895 556.107 303.211 557.092 302.683 555.528 303.694 556.037 303.302 553.861 305.499 555.312 303.572 554.975 304.044 556.839 301.288 556.608 301.643 558.784 298.155 558.589 298.48 560.976 294.355 560.792 294.686 563.291 290.02 563.106 290.379 565.616 285.268 565.322 285.916 569.973 274.737 569.672 275.546 571.612 269.67 571.405 270.37 572.955 264.43 573.842 272.543 547.317 220.721ZM506.843 242.232C492.08 214.246 502.799 179.59 530.785 164.827 558.771 150.064 593.426 160.783 608.19 188.769 622.953 216.755 612.234 251.41 584.248 266.173 556.262 280.937 521.607 270.217 506.843 242.232ZM570.358 679.717 678.5 748.396 558.671 793.702Z" fill="#172C51"/><rect x="1228.5" y="1045.5" width="600" height="407" stroke="#000000" stroke-width="22.9167" stroke-miterlimit="8" fill="#FFFFFF"/><rect x="1828.5" y="1045.5" width="599" height="407" stroke="#000000" stroke-width="22.9167" stroke-miterlimit="8" fill="#FFFFFF"/><rect x="2427.5" y="1045.5" width="600" height="407" stroke="#000000" stroke-width="22.9167" stroke-miterlimit="8" fill="#FFFFFF"/><rect x="1228.5" y="1524.5" width="600" height="407" stroke="#000000" stroke-width="22.9167" stroke-miterlimit="8" fill="#FFFFFF"/><rect x="1828.5" y="1524.5" width="599" height="407" stroke="#000000" stroke-width="22.9167" stroke-miterlimit="8" fill="#FFFFFF"/><rect x="2427.5" y="1524.5" width="600" height="407" stroke="#000000" stroke-width="22.9167" stroke-miterlimit="8" fill="#FFFFFF"/><path d="M1090.72 727.279 1119.23 782.989 1116.49 793.508 1114.3 800.141 1109.34 812.048 1106.59 817.661 1103.9 822.672 1101.33 827.124 1098.94 830.951 1096.8 834.122 1094.23 837.528 1091.74 839.439 1089.62 840.577 1087.7 841.458 1085.58 842.347 1083.19 843.298 1080.47 844.331 1074.29 846.592 1067.13 849.116 1059.26 851.825 1050.91 854.649 1042.35 857.505 1033.8 860.331 1025.52 863.043 1017.78 865.564 1010.83 867.816 1004.93 869.723 1002.45 870.523 1000.32 871.207 998.592 871.764 997.285 872.186 996.444 872.459 996.533 872.43 996.157 872.556 996.794 872.322 984.368 877.305 984.706 877.163 972.48 882.527 959.905 887.892 946.753 892.714 937.343 895.721 928.78 898.396 920.821 900.821 913.426 903.015 906.548 904.998 900.147 906.788 894.178 908.406 888.582 909.874 878.462 912.407 869.396 914.556 861.075 916.468 853.128 918.305 853.242 918.278 845.25 920.211 845.446 920.162 837.069 922.346 837.312 922.28 828.197 924.87 828.448 924.796 818.243 927.95 818.419 927.894 812.796 929.732 812.906 929.695 806.878 931.733 806.979 931.698 800.502 933.955 800.594 933.922 793.624 936.417 793.707 936.387 786.199 939.141 786.275 939.113 778.184 942.145 778.252 942.119 769.536 945.449 769.597 945.426 760.21 949.072 760.297 949.038 750.032 953.123 750.172 953.066 741.011 956.852 741.185 956.778 732.998 960.32 733.209 960.226 725.866 963.581 726.115 963.464 719.486 966.686 719.766 966.546 713.723 969.691 714.023 969.529 708.434 972.653 708.738 972.477 703.474 975.635 703.885 975.376 693.811 982.015 694.201 981.747 683.869 989.187 684.014 989.081 678.426 993.24 672.412 997.745 665.749 1002.72 658.385 1008.16 662.243 1003.13 661.103 1006.04 659.755 1009.45 658.254 1013.25 656.633 1017.37 656.653 1017.32 653.161 1026.33 653.205 1026.21 649.635 1035.74 649.703 1035.55 646.342 1045.01 646.444 1044.71 643.577 1053.55 643.686 1053.19 642.528 1057.2 642.624 1056.85 641.697 1060.48 641.816 1059.97 641.156 1063.17 641.293 1062.36 640.937 1065.05 641.031 1063.9 640.954 1066.37 640.949 1065.53 641.071 1068.43 641.004 1067.59 641.8 1074.41 641.681 1073.63 643.14 1081.42 643.005 1080.8 645.04 1089.07 644.873 1088.47 647.398 1096.74 647.164 1096.06 650.091 1103.85 649.713 1102.96 652.955 1109.78 652.468 1108.86 654.18 1111.76 653.652 1110.95 655.41 1113.42 654.524 1112.32 660.503 1118.85 659.667 1118.02 666.513 1124.11 666.051 1123.72 673.359 1129.55 673.281 1129.49 680.692 1135.31 688.29 1141.4 688.213 1141.34 695.179 1146.82 694.947 1146.65 701.621 1151.63 701.22 1151.35 707.897 1155.9 707.341 1155.55 714.316 1159.74 713.657 1159.37 721.223 1163.26 720.538 1162.94 728.99 1166.6 728.347 1166.35 737.979 1169.85 737.176 1169.59 745.279 1171.88 744.64 1171.72 752.979 1173.56 752.912 1173.54 761.531 1175.4 770.422 1177.73 779.437 1180.9 787.783 1184.29 787.672 1184.25 795.811 1187.46 795.082 1187.2 803.527 1189.88 802.5 1189.61 813.351 1191.98 812.768 1191.87 823.842 1193.69 823.758 1193.68 835.074 1195.46 846.436 1197.67 853.682 1199.35 859.932 1200.82 865.418 1202.15 870.197 1203.34 874.328 1204.4 877.871 1205.34 880.885 1206.18 883.435 1206.93 885.584 1207.6 887.479 1208.23 890.287 1209.3 892.307 1210.25 893.475 1210.9 892.881 1210.59 893.735 1211 892.355 1210.45 893.655 1210.88 892.742 1210.62 894.931 1211.14 894.576 1211.06 896.142 1211.38 895.996 1211.35 897.95 1211.73 897.85 1211.71 900.248 1212.15 900.179 1212.13 903.075 1212.64 903.028 1212.63 906.478 1213.23 910.504 1213.91 915.205 1214.69 920.633 1215.58 926.842 1216.6 933.884 1217.75 940.982 1218.9 947.508 1219.94 947.472 1219.93 953.547 1220.88 953.506 1220.87 959.172 1221.73 959.104 1221.72 969.498 1223.24 969.402 1223.23 979.032 1224.55 978.946 1224.54 988.395 1225.76 988.334 1225.75 998.187 1226.97 1003.42 1227.61 1008.99 1228.29 1014.97 1229.01 1022.47 1229.93 1029.83 1232.26 1035.45 1234.05 1040.37 1235.63 1044.64 1237.02 1048.31 1238.21 1051.44 1239.23 1054.08 1240.09 1054.02 1240.07 1056.26 1240.78 1056.07 1240.72 1059.53 1241.75 1058.92 1241.59 1061.41 1242.19 1060.23 1241.97 1062.19 1242.22 1060.82 1242.13 1062.71 1242.15 1062.01 1242.16 1064.29 1242.05 1067.55 1241.89 1069.78 1241.83 1072.38 1241.79 1075.4 1241.81 1078.91 1241.88 1082.96 1242.02 1087.84 1242.25 1100.06 1243.48 1097.77 1266.28 1085.85 1265.08 1086.45 1265.12 1081.95 1264.91 1082.1 1264.92 1078.21 1264.78 1078.37 1264.79 1075.03 1264.72 1075.21 1264.72 1072.37 1264.71 1072.55 1264.71 1070.15 1264.74 1070.34 1264.74 1068.32 1264.79 1068.55 1264.78 1065.45 1264.93 1062.82 1265.07 1059.89 1265.04 1056.65 1264.61 1053.28 1263.8 1049.42 1262.65 1047.05 1261.9 1044.35 1261.02 1041.22 1260 1037.57 1258.82 1033.35 1257.45 1028.48 1255.88 1022.92 1254.11 1016.57 1252.1 1018.64 1252.55 1012.21 1251.76 1006.23 1251.04 1000.65 1250.36 995.365 1249.72 985.482 1248.49 975.96 1247.26 966.239 1245.92 955.764 1244.4 950.044 1243.53 943.929 1242.58 937.32 1241.53 930.189 1240.37 923.131 1239.22 916.901 1238.2 911.44 1237.29 906.692 1236.5 902.599 1235.81 899.126 1235.22 896.171 1234.7 893.69 1234.24 891.613 1233.85 889.796 1233.47 886.969 1232.8 884.509 1231.99 882.681 1231.12 881.538 1230.49 882.184 1230.82 880.894 1230.21 881.711 1230.56 879.539 1229.73 879.986 1229.89 878.431 1229.37 878.662 1229.44 876.721 1228.84 876.906 1228.89 874.523 1228.2 874.672 1228.24 871.792 1227.44 871.914 1227.47 868.482 1226.56 868.581 1226.58 864.542 1225.55 864.625 1225.57 859.922 1224.4 859.992 1224.42 854.571 1223.1 854.631 1223.12 848.436 1221.65 848.487 1221.67 841.464 1220.04 841.859 1220.12 830.9 1217.99 831.311 1218.06 820.159 1216.31 808.749 1214.43 797.089 1211.88 787.769 1208.92 779.214 1205.55 771.062 1202.24 771.567 1202.43 763.251 1199.5 764.152 1199.78 755.966 1197.63 756.467 1197.75 748.067 1195.94 739.372 1194.02 730.545 1191.53 720.192 1187.77 711.074 1183.81 702.836 1179.57 695.255 1175.02 688.101 1170.14 681.112 1164.92 673.994 1159.31 666.404 1153.22 666.499 1153.3 659.097 1147.49 651.515 1141.44 644.004 1134.76 637.151 1127.28 634.702 1123.84 632.48 1120.08 628.808 1112.36 625.584 1103.78 622.861 1094.85 620.674 1085.95 619.083 1077.46 618.193 1069.82 618.035 1066.08 618.143 1062.61 618.629 1058.94 619.425 1055.08 620.461 1051.01 621.721 1046.65 624.694 1037.49 628.142 1027.78 631.77 1018.11 635.296 1009.01 636.94 1004.83 638.44 1001.03 639.768 997.672 642.111 991.695 652.105 984.308 652.06 984.341 658.673 979.404 664.743 974.857 670.404 970.644 681.002 963.012 691.476 956.108 697.1 952.734 702.991 949.441 709.326 946.145 716.219 942.794 723.791 939.334 732.171 935.708 741.489 931.858 751.868 927.728 761.328 924.053 770.108 920.699 778.27 917.64 785.858 914.857 792.916 912.33 799.49 910.04 805.623 907.967 811.387 906.083 821.806 902.863 831.167 900.202 839.763 897.961 847.91 895.99 855.943 894.133 864.225 892.23 864.149 892.248 873.107 890.125 872.967 890.159 882.954 887.659 882.829 887.691 888.318 886.251 888.229 886.275 894.108 884.682 894.019 884.706 900.332 882.94 900.244 882.965 907.035 881.008 906.95 881.032 914.263 878.863 914.182 878.887 922.061 876.486 921.985 876.51 930.474 873.858 930.403 873.88 939.547 870.958 939.091 871.114 951.738 866.478 951.186 866.697 963.433 861.472 963.326 861.518 975.668 856.104 988.578 850.926 989.321 850.678 990.245 850.378 991.564 849.952 993.297 849.393 995.416 848.711 997.887 847.915 1003.77 846.016 1010.69 843.774 1018.39 841.266 1026.61 838.571 1035.09 835.767 1043.63 832.918 1043.59 832.932 1051.89 830.126 1051.83 830.146 1059.64 827.46 1059.55 827.489 1066.61 825.002 1066.48 825.046 1072.53 822.835 1072.39 822.889 1074.95 821.911 1074.81 821.967 1077.03 821.086 1076.82 821.173 1078.66 820.4 1078.32 820.55 1079.74 819.895 1079.11 820.211 1080.09 819.683 1078.53 820.694 1079.04 820.302 1076.86 822.499 1078.31 820.572 1077.97 821.044 1079.84 818.288 1079.61 818.643 1081.78 815.155 1081.59 815.48 1083.98 811.355 1083.79 811.686 1086.29 807.02 1086.11 807.38 1088.62 802.268 1088.32 802.917 1092.97 791.737 1092.67 792.546 1094.61 786.67 1094.41 787.37 1095.95 781.43 1096.84 789.543 1070.32 737.721ZM1029.84 759.232C1015.08 731.246 1025.8 696.59 1053.78 681.827 1081.77 667.064 1116.43 677.783 1131.19 705.769 1145.95 733.755 1135.23 768.41 1107.25 783.173 1079.26 797.937 1044.61 787.218 1029.84 759.232ZM1093.36 1196.72 1201.5 1265.4 1081.67 1310.7Z" fill="#172C51"/><path d="M1621.89 752.413 1618.41 817.54 1613.56 829.273 1608.27 839.672 1602.21 849.965 1595.54 860.082 1588.45 869.937 1581.1 879.436 1573.66 888.478 1566.31 896.958 1559.22 904.769 1552.55 911.801 1546.48 917.949 1541.19 923.086 1538.83 925.29 1536.74 927.195 1534.89 928.826 1532.5 930.835 1529.76 932.305 1527.03 933.202 1524.49 933.822 1521.75 934.364 1518.72 934.879 1515.33 935.386 1507.75 936.37 1499.08 937.346 1489.61 938.302 1479.62 939.229 1469.41 940.116 1459.25 940.95 1449.47 941.719 1440.31 942.411 1432.1 943.014 1425.13 943.514 1422.2 943.721 1419.7 943.898 1417.66 944.042 1416.12 944.152 1415.14 944.225 1415.28 944.214 1414.83 944.253 1415.61 944.159 1407.85 945.368 1408.27 945.295 1400.47 946.809 1400.76 946.75 1385.03 950.225 1369.07 953.519 1360.76 954.83 1352.57 955.684 1341.55 956.423 1331.49 956.994 1322.2 957.419 1313.62 957.712 1305.68 957.885 1298.34 957.95 1291.53 957.921 1285.18 957.81 1273.84 957.397 1263.8 956.819 1254.67 956.186 1245.98 955.602 1246.18 955.614 1237.35 955.175 1237.69 955.187 1228.29 954.998 1228.7 954.999 1218.27 955.162 1218.69 955.148 1206.78 955.768 1207.07 955.75 1200.42 956.263 1200.59 956.249 1193.4 956.915 1193.56 956.899 1185.77 957.731 1185.91 957.715 1177.47 958.726 1177.6 958.709 1168.44 959.912 1168.56 959.896 1158.63 961.303 1158.73 961.288 1147.98 962.912 1148.07 962.898 1136.43 964.753 1136.56 964.732 1123.74 966.926 1123.95 966.888 1112.39 969.088 1112.64 969.037 1102.16 971.278 1102.46 971.209 1092.89 973.525 1093.23 973.436 1084.42 975.861 1084.79 975.751 1076.57 978.318 1076.95 978.19 1069.15 980.935 1069.52 980.795 1061.97 983.752 1062.31 983.612 1054.85 986.815 1055.14 986.687 1047.6 990.17 1047.82 990.066 1040.04 993.863 1040.19 993.788 1032 997.935 1032.09 997.891 1023.33 1002.42 1013.86 1007.35 1003.42 1012.77 991.921 1018.67 995.535 1015.76 991.853 1020.23 987.542 1025.44 982.719 1031.28 977.477 1037.63 971.914 1044.4 966.124 1051.47 966.16 1051.43 954.24 1066.14 954.31 1066.06 942.628 1080.77 942.703 1080.68 937.194 1087.77 937.262 1087.68 932.102 1094.46 932.19 1094.34 927.477 1100.7 927.593 1100.54 923.425 1106.37 923.585 1106.14 920.058 1111.34 920.292 1110.98 917.502 1115.44 917.804 1114.93 915.458 1119.15 915.659 1118.77 913.098 1123.82 913.234 1123.54 910.503 1129.3 910.605 1129.08 907.75 1135.45 907.832 1135.27 904.901 1142.13 904.97 1141.96 902.008 1149.21 902.101 1148.98 896.27 1164.2 896.387 1163.88 890.988 1179.33 891.08 1179.06 888.659 1186.59 888.727 1186.37 886.552 1193.64 886.628 1193.37 884.746 1200.26 884.832 1199.92 883.29 1206.31 883.388 1205.87 882.232 1211.66 882.339 1211.04 881.614 1216.12 881.713 1215.1 880.975 1229.16 880.985 1228.2 881.418 1241.91 881.388 1241.37 882.457 1254.87 882.449 1254.78 883.626 1268.26 884.713 1282.3 884.705 1282.21 885.794 1294.95 885.767 1294.67 887.058 1306.41 886.994 1305.92 888.686 1316.92 888.557 1316.22 890.848 1326.73 890.626 1325.87 893.712 1336.15 893.391 1335.22 897.47 1345.52 897.073 1344.63 902.341 1355.21 901.901 1354.41 904.309 1358.4 903.883 1357.75 906.515 1361.51 906.091 1360.94 911.747 1368.05 911.673 1367.96 917.673 1375.34 923.494 1383.73 926.352 1388.9 928.803 1393.99 933.005 1403.68 932.937 1403.53 937.161 1412.89 936.839 1412.24 939.192 1416.67 938.771 1415.95 941.391 1420.11 940.851 1419.33 944.419 1424.08 943.956 1423.5 947.774 1427.95 947.315 1427.45 955.401 1435.82 955.292 1435.71 963.641 1444.11 967.944 1448.8 972.015 1453.73 976.862 1460.04 981.035 1465.56 984.674 1470.47 987.822 1474.81 990.52 1478.63 992.812 1481.97 994.739 1484.9 996.346 1487.46 997.674 1489.71 998.825 1491.81 1000.39 1495.13 1001.31 1497.78 1001.74 1499.43 1001.5 1498.64 1001.88 1499.75 1001.03 1497.84 1001.78 1499.19 1000.95 1497.9 1002.4 1499.83 1002 1499.34 1003.09 1500.63 1002.92 1500.43 1004.3 1502 1004.18 1501.86 1005.89 1503.75 1005.8 1503.66 1007.89 1505.9 1007.83 1505.84 1010.33 1508.48 1010.28 1508.44 1013.23 1511.53 1013.2 1511.5 1016.65 1515.09 1020.6 1519.18 1025.13 1523.86 1030.28 1529.16 1035.47 1534.47 1035.43 1534.43 1040.25 1539.32 1040.2 1539.27 1044.69 1543.77 1044.64 1543.71 1048.84 1547.87 1048.75 1547.78 1056.52 1555.29 1056.39 1555.17 1063.67 1561.99 1063.55 1561.88 1070.75 1568.44 1070.67 1568.37 1078.23 1575.12 1078.2 1575.09 1082.25 1578.67 1086.53 1582.46 1091.13 1586.53 1097.48 1592.15 1102.17 1600.22 1105.48 1605.97 1108.36 1611.03 1110.85 1615.42 1112.99 1619.21 1114.81 1622.45 1116.35 1625.15 1116.3 1625.07 1117.62 1627.36 1117.46 1627.08 1119.56 1630.49 1118.98 1629.64 1120.62 1631.84 1119.19 1630.25 1120.68 1631.62 1118.55 1630.08 1120.2 1631.01 1118.97 1630.41 1121.11 1631.29 1124.23 1632.6 1126.44 1633.63 1128.91 1634.88 1131.72 1636.41 1134.89 1638.27 1138.46 1640.5 1142.8 1643.36 1153.87 1652.25 1139.53 1670.12 1128.87 1661.57 1129.73 1662.19 1125.96 1659.71 1126.2 1659.86 1122.89 1657.8 1123.16 1657.96 1120.28 1656.27 1120.58 1656.44 1118.09 1655.08 1118.41 1655.25 1116.27 1654.16 1116.6 1654.33 1114.76 1653.47 1115.17 1653.65 1112.27 1652.44 1112.32 1652.46 1109.57 1651.32 1106.17 1649.41 1102.91 1646.42 1100.32 1642.95 1097.86 1638.96 1096.44 1636.5 1094.85 1633.7 1093.03 1630.47 1090.91 1626.71 1088.43 1622.33 1088.45 1622.36 1085.59 1617.35 1085.61 1617.38 1082.32 1611.67 1082.34 1611.71 1078.59 1605.26 1080.9 1608.08 1075.96 1603.7 1071.36 1599.64 1067.05 1595.83 1062.99 1592.23 1055.36 1585.42 1048.06 1578.77 1040.66 1571.83 1032.78 1564.21 1028.5 1559.99 1023.96 1555.44 1019.09 1550.51 1013.84 1545.12 1008.67 1539.8 1004.11 1535.1 1000.12 1530.96 996.66 1527.36 993.675 1524.23 991.127 1521.53 988.97 1519.21 987.156 1517.21 985.631 1515.48 984.259 1513.84 982.159 1511.05 980.518 1508.12 979.672 1505.63 979.251 1504.02 979.511 1504.87 978.935 1503.22 979.392 1504.34 978.239 1501.89 978.557 1502.51 977.665 1500.88 977.85 1501.21 976.695 1499.25 976.854 1499.51 975.394 1497.19 975.529 1497.4 973.727 1494.66 973.842 1494.83 971.657 1491.64 971.754 1491.78 969.146 1488.09 969.23 1488.21 966.16 1483.97 966.231 1484.07 962.659 1479.25 962.721 1479.34 958.607 1473.89 958.661 1473.96 953.965 1467.85 954.218 1468.17 950.467 1463.63 950.858 1464.08 946.91 1459.77 947.222 1460.1 938.976 1451.8 930.6 1443.13 926.319 1438.14 922.242 1432.71 919.143 1427.78 916.421 1422.65 912.012 1412.88 907.868 1403.31 908.06 1403.73 905.848 1399.14 906.142 1399.71 903.72 1395.33 904.331 1396.32 899.089 1388.76 899.615 1389.46 893.853 1382.37 887.938 1374.94 884.879 1370.56 882.033 1365.84 876.343 1354.41 871.905 1343.21 868.551 1332.04 866.09 1320.75 864.306 1309.16 862.972 1297.04 861.868 1284.12 860.782 1270.08 860.791 1270.19 859.615 1256.72 858.521 1242.91 858.065 1228.44 858.855 1213.39 859.696 1207.49 860.959 1201.16 862.595 1194.38 864.558 1187.2 866.805 1179.69 869.306 1171.91 874.809 1156.16 880.746 1140.66 883.79 1133.21 886.796 1126.17 889.742 1119.6 892.591 1113.59 895.32 1108.21 897.914 1103.54 900.975 1098.64 904.702 1093.15 909.009 1087.13 913.824 1080.64 919.061 1073.76 924.642 1066.57 936.397 1051.76 948.37 1036.98 954.212 1029.84 959.8 1023.05 965.054 1016.68 969.876 1010.84 974.166 1005.65 979.355 999.356 992.935 992.391 992.886 992.416 1003.27 987.026 1012.8 982.063 1021.61 977.512 1029.91 973.306 1037.88 969.418 1045.67 965.818 1053.44 962.48 1061.35 959.383 1069.54 956.503 1078.15 953.816 1087.33 951.293 1097.22 948.9 1107.98 946.6 1119.77 944.355 1132.76 942.132 1144.51 940.26 1155.36 938.62 1165.4 937.198 1174.68 935.979 1183.26 934.952 1191.21 934.103 1198.57 933.422 1205.45 932.89 1217.71 932.252 1228.54 932.081 1238.32 932.278 1247.42 932.731 1256.26 933.324 1265.32 933.952 1265.18 933.944 1275.04 934.512 1274.8 934.5 1285.91 934.904 1285.69 934.898 1291.86 935.007 1291.71 935.005 1298.36 935.034 1298.21 935.034 1305.4 934.97 1305.26 934.972 1313.05 934.802 1312.91 934.806 1321.36 934.518 1321.22 934.523 1330.38 934.104 1330.26 934.11 1340.19 933.546 1340.07 933.554 1350.83 932.832 1350.41 932.868 1358.09 932.068 1357.49 932.147 1365.23 930.925 1364.7 931.022 1380.32 927.797 1380.16 927.83 1395.96 924.341 1404.11 922.758 1412.46 921.456 1413.37 921.377 1414.49 921.294 1416.04 921.182 1418.09 921.038 1420.58 920.862 1423.49 920.656 1430.42 920.159 1438.58 919.56 1447.68 918.872 1457.44 918.106 1457.4 918.109 1467.51 917.279 1467.45 917.283 1477.61 916.401 1477.54 916.408 1487.44 915.488 1487.35 915.497 1496.71 914.552 1496.58 914.566 1505.09 913.608 1504.9 913.632 1512.27 912.675 1512.05 912.706 1515.21 912.232 1514.99 912.266 1517.76 911.797 1517.45 911.854 1519.78 911.391 1519.3 911.499 1521.16 911.044 1520.3 911.29 1521.66 910.845 1519.82 911.63 1520.63 911.196 1518.67 912.527 1520.04 911.37 1519.84 911.542 1521.52 910.062 1521.38 910.192 1523.34 908.405 1523.22 908.512 1525.44 906.431 1525.3 906.572 1530.43 901.59 1530.26 901.76 1536.16 895.781 1536 895.95 1542.5 889.091 1542.34 889.27 1549.26 881.649 1549.08 881.848 1556.25 873.58 1556.06 873.807 1563.29 865.011 1563.08 865.277 1570.2 856.07 1569.96 856.388 1576.8 846.886 1576.54 847.276 1582.91 837.597 1582.61 838.085 1588.35 828.346 1588 828.969 1592.93 819.287 1592.55 820.102 1596.48 810.594 1595.63 814.361 1599.01 751.19ZM1553.18 750.195C1554.07 718.566 1580.43 693.645 1612.06 694.533 1643.68 695.42 1668.61 721.78 1667.72 753.409 1666.83 785.038 1640.47 809.958 1608.84 809.071 1577.21 808.183 1552.29 781.824 1553.18 750.195ZM1174.33 1609.7 1226.24 1726.82 1101.39 1698.08Z" fill="#172C51"/><rect x="3027.5" y="1045.5" width="599" height="407" stroke="#000000" stroke-width="22.9167" stroke-miterlimit="8" fill="#FFFFFF"/><rect x="3027.5" y="1524.5" width="599" height="407" stroke="#000000" stroke-width="22.9167" stroke-miterlimit="8" fill="#FFFFFF"/><rect x="3626.5" y="1045.5" width="600" height="407" stroke="#000000" stroke-width="22.9167" stroke-miterlimit="8" fill="#FFFFFF"/><rect x="3626.5" y="1524.5" width="600" height="407" stroke="#000000" stroke-width="22.9167" stroke-miterlimit="8" fill="#FFFFFF"/></g></svg>