<?xml version="1.0" encoding="UTF-8" standalone="no"?>
<svg
   version="1.1"
   viewBox="0 0 889.83856 198.17979"
   fill="none"
   stroke="none"
   stroke-linecap="square"
   stroke-miterlimit="10"
   id="svg85"
   sodipodi:docname="immutable-list-2.svg"
   width="889.83856"
   height="198.17979"
   inkscape:version="1.1.2 (0a00cf5339, 2022-02-04)"
   xmlns:inkscape="http://www.inkscape.org/namespaces/inkscape"
   xmlns:sodipodi="http://sodipodi.sourceforge.net/DTD/sodipodi-0.dtd"
   xmlns="http://www.w3.org/2000/svg"
   xmlns:svg="http://www.w3.org/2000/svg">
  <defs
     id="defs89" />
  <sodipodi:namedview
     id="namedview87"
     pagecolor="#ffffff"
     bordercolor="#666666"
     borderopacity="1.0"
     inkscape:pageshadow="2"
     inkscape:pageopacity="0.0"
     inkscape:pagecheckerboard="0"
     showgrid="false"
     fit-margin-top="0"
     fit-margin-left="0"
     fit-margin-right="0"
     fit-margin-bottom="0"
     inkscape:zoom="1.2125"
     inkscape:cx="458.96907"
     inkscape:cy="203.71134"
     inkscape:window-width="2490"
     inkscape:window-height="1403"
     inkscape:window-x="70"
     inkscape:window-y="0"
     inkscape:window-maximized="1"
     inkscape:current-layer="svg85" />
  <clipPath
     id="p.0">
    <path
       d="M 0,0 H 960 V 720 H 0 Z"
       clip-rule="nonzero"
       id="path2" />
  </clipPath>
  <path
     fill="#000000"
     fill-opacity="0"
     d="M -20.585302,-155.9685 H 939.4147 v 720 H -20.585302 Z"
     fill-rule="evenodd"
     id="path5" />
  <path
     fill="#cfe2f3"
     d="m 112.8557,91.2861 h 160.8189 v 53.19685 H 112.8557 Z"
     fill-rule="evenodd"
     id="path7" />
  <path
     stroke="#000000"
     stroke-width="1"
     stroke-linejoin="round"
     stroke-linecap="butt"
     d="m 112.8557,91.2861 h 160.8189 v 53.19685 H 112.8557 Z"
     fill-rule="evenodd"
     id="path9" />
  <path
     fill="#000000"
     d="m 142.5216,120.117 1.76562,0.45313 q -0.5625,2.17187 -2,3.32812 -1.4375,1.14063 -3.53125,1.14063 -2.15625,0 -3.51562,-0.875 -1.34375,-0.89063 -2.0625,-2.54688 -0.70313,-1.67187 -0.70313,-3.59375 0,-2.07812 0.79688,-3.625 0.79687,-1.5625 2.26562,-2.35937 1.48438,-0.8125 3.25,-0.8125 2,0 3.35938,1.01562 1.375,1.01563 1.90625,2.875 l -1.73438,0.40625 q -0.46875,-1.45312 -1.35937,-2.10937 -0.875,-0.67188 -2.20313,-0.67188 -1.54687,0 -2.57812,0.73438 -1.03125,0.73437 -1.45313,1.98437 -0.42187,1.23438 -0.42187,2.5625 0,1.70313 0.5,2.96875 0.5,1.26563 1.54687,1.90625 1.04688,0.625 2.26563,0.625 1.48437,0 2.51562,-0.85937 1.03125,-0.85938 1.39063,-2.54688 z m 3.1292,-0.15625 q 0,-2.6875 1.48437,-3.96875 1.25,-1.07812 3.04688,-1.07812 2,0 3.26562,1.3125 1.26563,1.29687 1.26563,3.60937 0,1.85938 -0.5625,2.9375 -0.5625,1.0625 -1.64063,1.65625 -1.0625,0.59375 -2.32812,0.59375 -2.03125,0 -3.28125,-1.29687 -1.25,-1.3125 -1.25,-3.76563 z m 1.6875,0 q 0,1.85938 0.79687,2.79688 0.8125,0.92187 2.04688,0.92187 1.21875,0 2.03125,-0.92187 0.8125,-0.9375 0.8125,-2.84375 0,-1.79688 -0.8125,-2.71875 -0.8125,-0.92188 -2.03125,-0.92188 -1.23438,0 -2.04688,0.92188 -0.79687,0.90625 -0.79687,2.76562 z m 9.29759,4.84375 v -9.67187 h 1.46875 v 1.375 q 1.0625,-1.59375 3.07812,-1.59375 0.875,0 1.60938,0.3125 0.73437,0.3125 1.09375,0.82812 0.375,0.5 0.51562,1.20313 0.0937,0.45312 0.0937,1.59375 v 5.95312 h -1.64062 v -5.89062 q 0,-1 -0.20313,-1.48438 -0.1875,-0.5 -0.67187,-0.79687 -0.48438,-0.29688 -1.14063,-0.29688 -1.04687,0 -1.8125,0.67188 -0.75,0.65625 -0.75,2.51562 v 5.28125 z m 9.71947,-2.89062 1.625,-0.25 q 0.125,0.96875 0.75,1.5 0.625,0.51562 1.75,0.51562 1.125,0 1.67187,-0.45312 0.54688,-0.46875 0.54688,-1.09375 0,-0.54688 -0.48438,-0.875 -0.32812,-0.21875 -1.67187,-0.54688 -1.8125,-0.46875 -2.51563,-0.79687 -0.6875,-0.32813 -1.04687,-0.90625 -0.35938,-0.59375 -0.35938,-1.3125 0,-0.64063 0.29688,-1.1875 0.29687,-0.5625 0.8125,-0.92188 0.375,-0.28125 1.03125,-0.46875 0.67187,-0.20312 1.42187,-0.20312 1.14063,0 2,0.32812 0.85938,0.32813 1.26563,0.89063 0.42187,0.5625 0.57812,1.5 l -1.60937,0.21875 q -0.10938,-0.75 -0.64063,-1.17188 -0.51562,-0.42187 -1.46875,-0.42187 -1.14062,0 -1.625,0.375 -0.46875,0.375 -0.46875,0.875 0,0.3125 0.1875,0.57812 0.20313,0.26563 0.64063,0.4375 0.23437,0.0937 1.4375,0.42188 1.75,0.45312 2.4375,0.75 0.6875,0.29687 1.07812,0.85937 0.39063,0.5625 0.39063,1.40625 0,0.82813 -0.48438,1.54688 -0.46875,0.71875 -1.375,1.125 -0.90625,0.39062 -2.04687,0.39062 -1.875,0 -2.875,-0.78125 -0.98438,-0.78125 -1.25,-2.32812 z m 9.76562,-2.95313 v -1.53125 l 8.84375,-3.73437 v 1.64062 l -7.01562,2.875 7.01562,2.90625 v 1.625 z m 11.61371,5.84375 v -13.35937 h 1.76562 v 13.35937 z m 4.6833,0 v -9.67187 h 1.46875 v 1.375 q 1.0625,-1.59375 3.07813,-1.59375 0.875,0 1.60937,0.3125 0.73438,0.3125 1.09375,0.82812 0.375,0.5 0.51563,1.20313 0.0937,0.45312 0.0937,1.59375 v 5.95312 h -1.64063 v -5.89062 q 0,-1 -0.20312,-1.48438 -0.1875,-0.5 -0.67188,-0.79687 -0.48437,-0.29688 -1.14062,-0.29688 -1.04688,0 -1.8125,0.67188 -0.75,0.65625 -0.75,2.51562 v 5.28125 z m 13.95384,-1.46875 0.23438,1.45313 q -0.6875,0.14062 -1.23438,0.14062 -0.89062,0 -1.39062,-0.28125 -0.48438,-0.28125 -0.6875,-0.73437 -0.20313,-0.46875 -0.20313,-1.9375 v -5.57813 h -1.20312 v -1.26562 h 1.20312 V 112.742 l 1.625,-0.98437 v 3.375 h 1.65625 v 1.26562 h -1.65625 v 5.67188 q 0,0.6875 0.0781,0.89062 0.0937,0.20313 0.28125,0.32813 0.20312,0.10937 0.57812,0.10937 0.26563,0 0.71875,-0.0625 z m 8.23018,-1.64062 1.6875,0.20312 q -0.40625,1.48438 -1.48437,2.3125 -1.07813,0.8125 -2.76563,0.8125 -2.125,0 -3.375,-1.29687 -1.23437,-1.3125 -1.23437,-3.67188 0,-2.45312 1.25,-3.79687 1.26562,-1.34375 3.26562,-1.34375 1.9375,0 3.15625,1.32812 1.23438,1.3125 1.23438,3.70313 0,0.15625 0,0.4375 h -7.21875 q 0.0937,1.59375 0.90625,2.45312 0.8125,0.84375 2.01562,0.84375 0.90625,0 1.54688,-0.46875 0.64062,-0.48437 1.01562,-1.51562 z m -5.39062,-2.65625 h 5.40625 q -0.10938,-1.21875 -0.625,-1.82813 -0.78125,-0.95312 -2.03125,-0.95312 -1.125,0 -1.90625,0.76562 -0.76563,0.75 -0.84375,2.01563 z m 8.82884,6.5625 1.59375,0.23437 q 0.10938,0.75 0.5625,1.07813 0.60938,0.45312 1.67188,0.45312 1.14062,0 1.75,-0.45312 0.625,-0.45313 0.84375,-1.26563 0.125,-0.5 0.10937,-2.10937 -1.0625,1.26562 -2.67187,1.26562 -2,0 -3.09375,-1.4375 -1.09375,-1.4375 -1.09375,-3.45312 0,-1.39063 0.5,-2.5625 0.51562,-1.17188 1.45312,-1.79688 0.95313,-0.64062 2.25,-0.64062 1.70313,0 2.8125,1.375 v -1.15625 h 1.51563 v 8.35937 q 0,2.26563 -0.46875,3.20313 -0.45313,0.9375 -1.45313,1.48437 -0.98437,0.54688 -2.45312,0.54688 -1.71875,0 -2.79688,-0.78125 -1.0625,-0.76563 -1.03125,-2.34375 z m 1.35938,-5.8125 q 0,1.90625 0.75,2.78125 0.76562,0.875 1.90625,0.875 1.125,0 1.89062,-0.85938 0.76563,-0.875 0.76563,-2.73437 0,-1.78125 -0.79688,-2.67188 -0.78125,-0.90625 -1.89062,-0.90625 -1.09375,0 -1.85938,0.89063 -0.76562,0.875 -0.76562,2.625 z m 15.95384,1.90625 1.6875,0.20312 q -0.40625,1.48438 -1.48438,2.3125 -1.07812,0.8125 -2.76562,0.8125 -2.125,0 -3.375,-1.29687 -1.23438,-1.3125 -1.23438,-3.67188 0,-2.45312 1.25,-3.79687 1.26563,-1.34375 3.26563,-1.34375 1.9375,0 3.15625,1.32812 1.23437,1.3125 1.23437,3.70313 0,0.15625 0,0.4375 h -7.21875 q 0.0937,1.59375 0.90625,2.45312 0.8125,0.84375 2.01563,0.84375 0.90625,0 1.54687,-0.46875 0.64063,-0.48437 1.01563,-1.51562 z m -5.39063,-2.65625 h 5.40625 q -0.10937,-1.21875 -0.625,-1.82813 -0.78125,-0.95312 -2.03125,-0.95312 -1.125,0 -1.90625,0.76562 -0.76562,0.75 -0.84375,2.01563 z m 9.1257,5.76562 v -9.67187 h 1.46875 v 1.46875 q 0.5625,-1.03125 1.03125,-1.35938 0.48438,-0.32812 1.0625,-0.32812 0.82813,0 1.6875,0.53125 l -0.5625,1.51562 q -0.60937,-0.35937 -1.20312,-0.35937 -0.54688,0 -0.96875,0.32812 -0.42188,0.32813 -0.60938,0.89063 -0.28125,0.875 -0.28125,1.92187 v 5.0625 z m 14.85331,-5.84375 -8.84375,3.78125 v -1.625 l 7.01562,-2.90625 -7.01562,-2.875 v -1.64062 l 8.84375,3.73437 z"
     fill-rule="nonzero"
     id="path11" />
  <path
     fill="#cfe2f3"
     d="m 737.59054,91.2861 h 151.74805 v 53.19685 H 737.59054 Z"
     fill-rule="evenodd"
     id="path13" />
  <path
     stroke="#000000"
     stroke-width="1"
     stroke-linejoin="round"
     stroke-linecap="butt"
     d="m 737.59054,91.2861 h 151.74805 v 53.19685 H 737.59054 Z"
     fill-rule="evenodd"
     id="path15" />
  <path
     fill="#000000"
     d="m 764.0691,124.8045 v -13.35937 h 1.8125 l 7.01562,10.48437 v -10.48437 h 1.6875 v 13.35937 h -1.8125 l -7.01562,-10.5 v 10.5 z m 13.28546,-11.46875 v -1.89062 h 1.64063 v 1.89062 z m 0,11.46875 v -9.67187 h 1.64063 v 9.67187 z m 4.0979,0 v -13.35937 h 1.64063 v 13.35937 z m 3.97296,-5.84375 v -1.53125 l 8.84375,-3.73437 v 1.64062 l -7.01562,2.875 7.01562,2.90625 v 1.625 z m 11.61371,5.84375 v -13.35937 h 1.76563 v 13.35937 z m 4.68329,0 v -9.67187 h 1.46875 v 1.375 q 1.0625,-1.59375 3.07812,-1.59375 0.875,0 1.60938,0.3125 0.73437,0.3125 1.09375,0.82812 0.375,0.5 0.51562,1.20313 0.0937,0.45312 0.0937,1.59375 v 5.95312 h -1.64062 v -5.89062 q 0,-1 -0.20313,-1.48438 -0.1875,-0.5 -0.67187,-0.79687 -0.48438,-0.29688 -1.14063,-0.29688 -1.04687,0 -1.8125,0.67188 -0.75,0.65625 -0.75,2.51562 v 5.28125 z m 13.95386,-1.46875 0.23437,1.45313 q -0.6875,0.14062 -1.23437,0.14062 -0.89063,0 -1.39063,-0.28125 -0.48437,-0.28125 -0.6875,-0.73437 -0.20312,-0.46875 -0.20312,-1.9375 v -5.57813 h -1.20313 v -1.26562 h 1.20313 V 112.742 l 1.625,-0.98437 v 3.375 h 1.65625 v 1.26562 h -1.65625 v 5.67188 q 0,0.6875 0.0781,0.89062 0.0937,0.20313 0.28125,0.32813 0.20313,0.10937 0.57813,0.10937 0.26562,0 0.71875,-0.0625 z m 8.23016,-1.64062 1.6875,0.20312 q -0.40625,1.48438 -1.48437,2.3125 -1.07813,0.8125 -2.76563,0.8125 -2.125,0 -3.375,-1.29687 -1.23437,-1.3125 -1.23437,-3.67188 0,-2.45312 1.25,-3.79687 1.26562,-1.34375 3.26562,-1.34375 1.9375,0 3.15625,1.32812 1.23438,1.3125 1.23438,3.70313 0,0.15625 0,0.4375 h -7.21875 q 0.0937,1.59375 0.90625,2.45312 0.8125,0.84375 2.01562,0.84375 0.90625,0 1.54688,-0.46875 0.64062,-0.48437 1.01562,-1.51562 z m -5.39062,-2.65625 h 5.40625 q -0.10938,-1.21875 -0.625,-1.82813 -0.78125,-0.95312 -2.03125,-0.95312 -1.125,0 -1.90625,0.76562 -0.76563,0.75 -0.84375,2.01563 z m 8.82885,6.5625 1.59375,0.23437 q 0.10938,0.75 0.5625,1.07813 0.60938,0.45312 1.67188,0.45312 1.14062,0 1.75,-0.45312 0.625,-0.45313 0.84375,-1.26563 0.125,-0.5 0.10937,-2.10937 -1.0625,1.26562 -2.67187,1.26562 -2,0 -3.09375,-1.4375 -1.09375,-1.4375 -1.09375,-3.45312 0,-1.39063 0.5,-2.5625 0.51562,-1.17188 1.45312,-1.79688 0.95313,-0.64062 2.25,-0.64062 1.70313,0 2.8125,1.375 v -1.15625 h 1.51563 v 8.35937 q 0,2.26563 -0.46875,3.20313 -0.45313,0.9375 -1.45313,1.48437 -0.98437,0.54688 -2.45312,0.54688 -1.71875,0 -2.79688,-0.78125 -1.0625,-0.76563 -1.03125,-2.34375 z m 1.35938,-5.8125 q 0,1.90625 0.75,2.78125 0.76562,0.875 1.90625,0.875 1.125,0 1.89062,-0.85938 0.76563,-0.875 0.76563,-2.73437 0,-1.78125 -0.79688,-2.67188 -0.78125,-0.90625 -1.89062,-0.90625 -1.09375,0 -1.85938,0.89063 -0.76562,0.875 -0.76562,2.625 z m 15.95385,1.90625 1.6875,0.20312 q -0.40625,1.48438 -1.48437,2.3125 -1.07813,0.8125 -2.76563,0.8125 -2.125,0 -3.375,-1.29687 -1.23437,-1.3125 -1.23437,-3.67188 0,-2.45312 1.25,-3.79687 1.26562,-1.34375 3.26562,-1.34375 1.9375,0 3.15625,1.32812 1.23438,1.3125 1.23438,3.70313 0,0.15625 0,0.4375 h -7.21875 q 0.0937,1.59375 0.90625,2.45312 0.8125,0.84375 2.01562,0.84375 0.90625,0 1.54688,-0.46875 0.64062,-0.48437 1.01562,-1.51562 z m -5.39062,-2.65625 h 5.40625 q -0.10938,-1.21875 -0.625,-1.82813 -0.78125,-0.95312 -2.03125,-0.95312 -1.125,0 -1.90625,0.76562 -0.76563,0.75 -0.84375,2.01563 z m 9.12573,5.76562 v -9.67187 h 1.46875 v 1.46875 q 0.5625,-1.03125 1.03125,-1.35938 0.48438,-0.32812 1.0625,-0.32812 0.82813,0 1.6875,0.53125 l -0.5625,1.51562 q -0.60937,-0.35937 -1.20312,-0.35937 -0.54688,0 -0.96875,0.32812 -0.42188,0.32813 -0.60938,0.89063 -0.28125,0.875 -0.28125,1.92187 v 5.0625 z m 14.85327,-5.84375 -8.84375,3.78125 v -1.625 l 7.01563,-2.90625 -7.01563,-2.875 v -1.64062 l 8.84375,3.73437 z"
     fill-rule="nonzero"
     id="path17" />
  <path
     fill="#cfe2f3"
     d="m 112.85045,144.48295 h 160.8189 v 53.19684 h -160.8189 z"
     fill-rule="evenodd"
     id="path19" />
  <path
     stroke="#000000"
     stroke-width="1"
     stroke-linejoin="round"
     stroke-linecap="butt"
     d="m 112.85045,144.48295 h 160.8189 v 53.19684 h -160.8189 z"
     fill-rule="evenodd"
     id="path21" />
  <path
     fill="#000000"
     d="m 126.89732,167.16138 h -1.04688 l -2.53125,-5.71875 h -0.625 q -0.21875,0 -0.3125,-0.0781 -0.0937,-0.0937 -0.0937,-0.23438 0,-0.14062 0.0937,-0.21875 0.0937,-0.0937 0.3125,-0.0937 h 2.3125 q 0.21875,0 0.3125,0.0937 0.0937,0.0781 0.0937,0.21875 0,0.14063 -0.0937,0.23438 -0.0937,0.0781 -0.3125,0.0781 h -1.03125 l 2.26563,5.10938 h 0.26562 l 2.21875,-5.10938 h -1.03125 q -0.21875,0 -0.3125,-0.0781 -0.0937,-0.0937 -0.0937,-0.23438 0,-0.14062 0.0937,-0.21875 0.0937,-0.0937 0.3125,-0.0937 h 2.3125 q 0.23438,0 0.3125,0.0937 0.0937,0.0781 0.0937,0.21875 0,0.14063 -0.0937,0.23438 -0.0781,0.0781 -0.3125,0.0781 h -0.625 z m 10.22021,0 v -0.89062 q -1.34375,1.125 -2.85937,1.125 -1.10938,0 -1.73438,-0.54688 -0.60937,-0.5625 -0.60937,-1.375 0,-0.89062 0.8125,-1.5625 0.82812,-0.67187 2.39062,-0.67187 0.42188,0 0.92188,0.0625 0.5,0.0469 1.07812,0.17187 v -1 q 0,-0.5 -0.46875,-0.875 -0.46875,-0.375 -1.40625,-0.375 -0.71875,0 -2.01562,0.42188 -0.23438,0.0625 -0.29688,0.0625 -0.10937,0 -0.20312,-0.0781 -0.0781,-0.0937 -0.0781,-0.21875 0,-0.125 0.0781,-0.20312 0.0937,-0.10938 0.82812,-0.29688 1.14063,-0.3125 1.71875,-0.3125 1.17188,0 1.8125,0.57813 0.65625,0.57812 0.65625,1.29687 v 4.07813 h 0.82813 q 0.21875,0 0.3125,0.0781 0.0937,0.0781 0.0937,0.21875 0,0.14063 -0.0937,0.23438 -0.0937,0.0781 -0.3125,0.0781 z m 0,-3.0625 q -0.42187,-0.125 -0.90625,-0.17187 -0.48437,-0.0625 -1.01562,-0.0625 -1.34375,0 -2.10938,0.57812 -0.5625,0.42188 -0.5625,1.03125 0,0.54688 0.4375,0.9375 0.4375,0.375 1.26563,0.375 0.79687,0 1.48437,-0.3125 0.6875,-0.32812 1.40625,-1.01562 z m 7.54834,-6.125 v 8.57813 h 2.42188 q 0.21875,0 0.3125,0.0781 0.0937,0.0781 0.0937,0.21875 0,0.14063 -0.0937,0.23438 -0.0937,0.0781 -0.3125,0.0781 h -5.45313 q -0.21875,0 -0.3125,-0.0781 -0.0937,-0.0937 -0.0937,-0.23438 0,-0.14062 0.0937,-0.21875 0.0937,-0.0781 0.3125,-0.0781 h 2.42188 v -7.95313 h -1.78125 q -0.21875,0 -0.32813,-0.0937 -0.0937,-0.0937 -0.0937,-0.23437 0,-0.125 0.0937,-0.20313 0.10938,-0.0937 0.32813,-0.0937 z m 10.79834,9.1875 v -0.90625 q -1.26562,1.14063 -2.73437,1.14063 -0.89063,0 -1.35938,-0.48438 -0.60937,-0.64062 -0.60937,-1.5 v -3.96875 h -0.82813 q -0.21875,0 -0.3125,-0.0781 -0.0937,-0.0937 -0.0937,-0.23438 0,-0.14062 0.0937,-0.21875 0.0937,-0.0937 0.3125,-0.0937 h 1.4375 v 4.59375 q 0,0.59375 0.375,0.98438 0.39063,0.39062 0.96875,0.39062 1.5,0 2.75,-1.375 v -3.96875 h -1.14062 q -0.21875,0 -0.3125,-0.0781 -0.0937,-0.0937 -0.0937,-0.23438 0,-0.14062 0.0937,-0.21875 0.0937,-0.0937 0.3125,-0.0937 h 1.75 v 5.73438 h 0.51562 q 0.23438,0 0.32813,0.0781 0.0937,0.0781 0.0937,0.21875 0,0.14063 -0.0937,0.23438 -0.0937,0.0781 -0.32813,0.0781 z m 10.22022,-3.03125 h -6.26563 q 0.15625,1.20313 1,1.9375 0.84375,0.71875 2.07813,0.71875 0.6875,0 1.4375,-0.21875 0.75,-0.23437 1.23437,-0.60937 0.14063,-0.10938 0.23438,-0.10938 0.125,0 0.20312,0.0937 0.0937,0.0937 0.0937,0.21875 0,0.125 -0.10937,0.23438 -0.35938,0.375 -1.26563,0.6875 -0.89062,0.3125 -1.82812,0.3125 -1.59375,0 -2.65625,-1.03125 -1.04688,-1.03125 -1.04688,-2.5 0,-1.34375 0.98438,-2.29688 1,-0.96875 2.46875,-0.96875 1.5,0 2.46875,0.98438 0.98437,0.98437 0.96875,2.54687 z m -0.625,-0.60937 q -0.17188,-1.03125 -0.95313,-1.65625 -0.78125,-0.64063 -1.85937,-0.64063 -1.07813,0 -1.85938,0.625 -0.76562,0.625 -0.96875,1.67188 z m 18.65918,-1.45313 h -6.70313 q -0.21875,0 -0.32812,-0.0781 -0.0937,-0.0937 -0.0937,-0.23438 0,-0.125 0.0937,-0.21875 0.10937,-0.0937 0.32812,-0.0937 h 6.70313 q 0.21875,0 0.3125,0.0937 0.0937,0.0937 0.0937,0.23438 0,0.125 -0.0937,0.21875 -0.0937,0.0781 -0.3125,0.0781 z m 0,2.20313 h -6.70313 q -0.21875,0 -0.32812,-0.0781 -0.0937,-0.0781 -0.0937,-0.21875 0,-0.14062 0.0937,-0.21875 0.10937,-0.0937 0.32812,-0.0937 h 6.70313 q 0.21875,0 0.3125,0.0937 0.0937,0.0781 0.0937,0.21875 0,0.14063 -0.0937,0.21875 -0.0937,0.0781 -0.3125,0.0781 z m 14.95605,-6.42188 v 8.70313 h 2.10938 q 0.21875,0 0.3125,0.0781 0.0937,0.0781 0.0937,0.21875 0,0.14063 -0.0937,0.23438 -0.0937,0.0781 -0.3125,0.0781 h -4.84375 q -0.21875,0 -0.3125,-0.0781 -0.0937,-0.0937 -0.0937,-0.23438 0,-0.14062 0.0937,-0.21875 0.0937,-0.0781 0.3125,-0.0781 h 2.10937 v -7.85938 l -2,0.625 q -0.15625,0.0469 -0.21875,0.0469 -0.10937,0 -0.20312,-0.0781 -0.0937,-0.0937 -0.0937,-0.21875 0,-0.10937 0.0781,-0.21875 0.0625,-0.0469 0.25,-0.125 z m 11.51709,3.95313 v 1.53125 q 0,1.98437 -0.95312,3.14062 -0.73438,0.90625 -1.85938,0.90625 -0.54687,0 -1.03125,-0.21875 -0.46875,-0.21875 -0.8125,-0.59375 -0.20312,-0.25 -0.46875,-0.78125 -0.25,-0.53125 -0.35937,-0.98437 -0.17188,-0.625 -0.17188,-1.46875 v -1.53125 q 0,-1.98438 0.95313,-3.14063 0.73437,-0.90625 1.85937,-0.90625 0.5625,0 1.03125,0.21875 0.46875,0.20313 0.8125,0.59375 0.21875,0.25 0.46875,0.79688 0.25,0.53125 0.35938,0.96875 0.17187,0.625 0.17187,1.46875 z m -0.625,0.0781 q 0,-0.85937 -0.25,-1.60937 -0.23437,-0.75 -0.54687,-1.20313 -0.17188,-0.25 -0.46875,-0.4375 -0.42188,-0.26562 -0.9375,-0.26562 -1.03125,0 -1.625,1.0625 -0.57813,1.04687 -0.57813,2.45312 v 1.35938 q 0,0.875 0.23438,1.64062 0.25,0.75 0.5625,1.1875 0.1875,0.25 0.46875,0.4375 0.42187,0.26563 0.95312,0.26563 1.01563,0 1.59375,-1.0625 0.59375,-1.0625 0.59375,-2.46875 z m 6.65772,-1.0625 h 0.28125 q 0.40625,0 0.6875,0.29688 0.29687,0.29687 0.29687,0.6875 0,0.4375 -0.29687,0.73437 -0.28125,0.28125 -0.6875,0.28125 h -0.28125 q -0.40625,0 -0.70313,-0.29687 -0.28125,-0.29688 -0.28125,-0.70313 0,-0.42187 0.29688,-0.70312 0.29687,-0.29688 0.6875,-0.29688 z m -1.0625,4.125 h 1.9375 l -2.07813,3.40625 q -0.15625,0.25 -0.25,0.3125 -0.0937,0.0625 -0.20312,0.0625 -0.1875,0 -0.3125,-0.10937 -0.10938,-0.10938 -0.10938,-0.26563 0,-0.0781 0.0469,-0.21875 z"
     fill-rule="nonzero"
     id="path23" />
  <path
     fill="#000000"
     d="m 124.36607,178.81763 v 0.9375 q 0.64062,-0.65625 1.15625,-0.90625 0.53125,-0.25 1.17187,-0.25 0.70313,0 1.28125,0.29688 0.42188,0.21875 0.75,0.73437 0.32813,0.5 0.32813,1.04688 v 3.875 h 0.53125 q 0.21875,0 0.3125,0.0781 0.0937,0.0781 0.0937,0.21875 0,0.14063 -0.0937,0.23438 -0.0937,0.0781 -0.3125,0.0781 h -1.65625 q -0.21875,0 -0.32813,-0.0781 -0.0937,-0.0937 -0.0937,-0.23438 0,-0.14062 0.0937,-0.21875 0.10938,-0.0781 0.32813,-0.0781 h 0.51562 v -3.78125 q 0,-0.65625 -0.48437,-1.09375 -0.46875,-0.45313 -1.26563,-0.45313 -0.60937,0 -1.0625,0.25 -0.4375,0.23438 -1.26562,1.21875 v 3.85938 h 0.6875 q 0.21875,0 0.3125,0.0781 0.10937,0.0781 0.10937,0.21875 0,0.14063 -0.10937,0.23438 -0.0937,0.0781 -0.3125,0.0781 h -2 q -0.21875,0 -0.3125,-0.0781 -0.0937,-0.0937 -0.0937,-0.23438 0,-0.14062 0.0937,-0.21875 0.0937,-0.0781 0.3125,-0.0781 h 0.6875 v -5.10938 h -0.51563 q -0.21875,0 -0.3125,-0.0781 -0.0937,-0.0937 -0.0937,-0.23438 0,-0.14062 0.0937,-0.21875 0.0937,-0.0937 0.3125,-0.0937 z m 14.31396,3.3125 h -6.26562 q 0.15625,1.20313 1,1.9375 0.84375,0.71875 2.07812,0.71875 0.6875,0 1.4375,-0.21875 0.75,-0.23437 1.23438,-0.60937 0.14062,-0.10938 0.23437,-0.10938 0.125,0 0.20313,0.0937 0.0937,0.0937 0.0937,0.21875 0,0.125 -0.10938,0.23438 -0.35937,0.375 -1.26562,0.6875 -0.89063,0.3125 -1.82813,0.3125 -1.59375,0 -2.65625,-1.03125 -1.04687,-1.03125 -1.04687,-2.5 0,-1.34375 0.98437,-2.29688 1,-0.96875 2.46875,-0.96875 1.5,0 2.46875,0.98438 0.98438,0.98437 0.96875,2.54687 z m -0.625,-0.60937 q -0.17187,-1.03125 -0.95312,-1.65625 -0.78125,-0.64063 -1.85938,-0.64063 -1.07812,0 -1.85937,0.625 -0.76563,0.625 -0.96875,1.67188 z m 6.72022,0.32812 2.8125,2.70313 q 0.28125,0 0.35937,0.0312 0.0781,0.0156 0.125,0.0937 0.0625,0.0781 0.0625,0.17187 0,0.14063 -0.0937,0.23438 -0.0937,0.0781 -0.32812,0.0781 h -1.98438 q -0.21875,0 -0.3125,-0.0781 -0.0937,-0.0937 -0.0937,-0.23438 0,-0.14062 0.0937,-0.21875 0.0937,-0.0781 0.3125,-0.0781 h 1.03125 l -2.40625,-2.29688 -2.375,2.29688 h 1.03125 q 0.21875,0 0.3125,0.0781 0.0937,0.0781 0.0937,0.21875 0,0.14063 -0.0937,0.23438 -0.0937,0.0781 -0.3125,0.0781 h -2 q -0.21875,0 -0.32812,-0.0781 -0.0937,-0.0937 -0.0937,-0.23438 0,-0.0937 0.0469,-0.17187 0.0625,-0.0781 0.125,-0.0937 0.0781,-0.0312 0.35938,-0.0312 l 2.82812,-2.70313 -2.51562,-2.40625 q -0.26563,0 -0.34375,-0.0312 -0.0625,-0.0312 -0.125,-0.10937 -0.0469,-0.0781 -0.0469,-0.17188 0,-0.14062 0.0937,-0.21875 0.10938,-0.0937 0.32813,-0.0937 h 1.6875 q 0.21875,0 0.3125,0.0937 0.0937,0.0781 0.0937,0.21875 0,0.14063 -0.0937,0.23438 -0.0937,0.0781 -0.3125,0.0781 h -0.73438 l 2.0625,2 2.09375,-2 h -0.73437 q -0.21875,0 -0.32813,-0.0781 -0.0937,-0.0937 -0.0937,-0.23438 0,-0.14062 0.0937,-0.21875 0.0937,-0.0937 0.32813,-0.0937 h 1.67187 q 0.21875,0 0.3125,0.0937 0.10938,0.0781 0.10938,0.21875 0,0.0937 -0.0625,0.17188 -0.0469,0.0781 -0.125,0.10937 -0.0625,0.0312 -0.32813,0.0312 z m 7.31396,-3.03125 h 3.34375 q 0.21875,0 0.3125,0.0937 0.0937,0.0781 0.0937,0.21875 0,0.14063 -0.0937,0.23438 -0.0937,0.0781 -0.3125,0.0781 h -3.34375 v 4.09375 q 0,0.53125 0.42188,0.89063 0.4375,0.35937 1.26562,0.35937 0.625,0 1.34375,-0.1875 0.73438,-0.1875 1.125,-0.42187 0.15625,-0.0937 0.25,-0.0937 0.10938,0 0.20313,0.0937 0.0937,0.0937 0.0937,0.21875 0,0.10937 -0.0937,0.20312 -0.23438,0.23438 -1.14063,0.51563 -0.90625,0.28125 -1.73437,0.28125 -1.07813,0 -1.71875,-0.5 -0.64063,-0.5 -0.64063,-1.35938 v -4.09375 h -1.125 q -0.21875,0 -0.32812,-0.0781 -0.0937,-0.0937 -0.0937,-0.23438 0,-0.14062 0.0937,-0.21875 0.10937,-0.0937 0.32812,-0.0937 h 1.125 v -1.8125 q 0,-0.21875 0.0937,-0.3125 0.0937,-0.0937 0.21875,-0.0937 0.14063,0 0.21875,0.0937 0.0937,0.0937 0.0937,0.3125 z m 22.62793,1.25 h -6.70312 q -0.21875,0 -0.32813,-0.0781 -0.0937,-0.0937 -0.0937,-0.23438 0,-0.125 0.0937,-0.21875 0.10938,-0.0937 0.32813,-0.0937 h 6.70312 q 0.21875,0 0.3125,0.0937 0.0937,0.0937 0.0937,0.23438 0,0.125 -0.0937,0.21875 -0.0937,0.0781 -0.3125,0.0781 z m 0,2.20313 h -6.70312 q -0.21875,0 -0.32813,-0.0781 -0.0937,-0.0781 -0.0937,-0.21875 0,-0.14062 0.0937,-0.21875 0.10938,-0.0937 0.32813,-0.0937 h 6.70312 q 0.21875,0 0.3125,0.0937 0.0937,0.0781 0.0937,0.21875 0,0.14063 -0.0937,0.21875 -0.0937,0.0781 -0.3125,0.0781 z"
     fill-rule="nonzero"
     id="path25" />
  <path
     fill="#cfe2f3"
     d="m 321.09716,91.2861 h 160.81891 v 53.19685 H 321.09716 Z"
     fill-rule="evenodd"
     id="path27" />
  <path
     stroke="#000000"
     stroke-width="1"
     stroke-linejoin="round"
     stroke-linecap="butt"
     d="m 321.09716,91.2861 h 160.81891 v 53.19685 H 321.09716 Z"
     fill-rule="evenodd"
     id="path29" />
  <path
     fill="#000000"
     d="m 350.76306,120.117 1.76563,0.45313 q -0.5625,2.17187 -2,3.32812 -1.4375,1.14063 -3.53125,1.14063 -2.15625,0 -3.51563,-0.875 -1.34375,-0.89063 -2.0625,-2.54688 -0.70312,-1.67187 -0.70312,-3.59375 0,-2.07812 0.79687,-3.625 0.79688,-1.5625 2.26563,-2.35937 1.48437,-0.8125 3.25,-0.8125 2,0 3.35937,1.01562 1.375,1.01563 1.90625,2.875 l -1.73437,0.40625 q -0.46875,-1.45312 -1.35938,-2.10937 -0.875,-0.67188 -2.20312,-0.67188 -1.54688,0 -2.57813,0.73438 -1.03125,0.73437 -1.45312,1.98437 -0.42188,1.23438 -0.42188,2.5625 0,1.70313 0.5,2.96875 0.5,1.26563 1.54688,1.90625 1.04687,0.625 2.26562,0.625 1.48438,0 2.51563,-0.85937 1.03125,-0.85938 1.39062,-2.54688 z m 3.12921,-0.15625 q 0,-2.6875 1.48438,-3.96875 1.25,-1.07812 3.04687,-1.07812 2,0 3.26563,1.3125 1.26562,1.29687 1.26562,3.60937 0,1.85938 -0.5625,2.9375 -0.5625,1.0625 -1.64062,1.65625 -1.0625,0.59375 -2.32813,0.59375 -2.03125,0 -3.28125,-1.29687 -1.25,-1.3125 -1.25,-3.76563 z m 1.6875,0 q 0,1.85938 0.79688,2.79688 0.8125,0.92187 2.04687,0.92187 1.21875,0 2.03125,-0.92187 0.8125,-0.9375 0.8125,-2.84375 0,-1.79688 -0.8125,-2.71875 -0.8125,-0.92188 -2.03125,-0.92188 -1.23437,0 -2.04687,0.92188 -0.79688,0.90625 -0.79688,2.76562 z m 9.29758,4.84375 v -9.67187 h 1.46875 v 1.375 q 1.0625,-1.59375 3.07812,-1.59375 0.875,0 1.60938,0.3125 0.73437,0.3125 1.09375,0.82812 0.375,0.5 0.51562,1.20313 0.0937,0.45312 0.0937,1.59375 v 5.95312 h -1.64062 v -5.89062 q 0,-1 -0.20313,-1.48438 -0.1875,-0.5 -0.67187,-0.79687 -0.48438,-0.29688 -1.14063,-0.29688 -1.04687,0 -1.8125,0.67188 -0.75,0.65625 -0.75,2.51562 v 5.28125 z m 9.71948,-2.89062 1.625,-0.25 q 0.125,0.96875 0.75,1.5 0.625,0.51562 1.75,0.51562 1.125,0 1.67188,-0.45312 0.54687,-0.46875 0.54687,-1.09375 0,-0.54688 -0.48437,-0.875 -0.32813,-0.21875 -1.67188,-0.54688 -1.8125,-0.46875 -2.51562,-0.79687 -0.6875,-0.32813 -1.04688,-0.90625 -0.35937,-0.59375 -0.35937,-1.3125 0,-0.64063 0.29687,-1.1875 0.29688,-0.5625 0.8125,-0.92188 0.375,-0.28125 1.03125,-0.46875 0.67188,-0.20312 1.42188,-0.20312 1.14062,0 2,0.32812 0.85937,0.32813 1.26562,0.89063 0.42188,0.5625 0.57813,1.5 l -1.60938,0.21875 q -0.10937,-0.75 -0.64062,-1.17188 -0.51563,-0.42187 -1.46875,-0.42187 -1.14063,0 -1.625,0.375 -0.46875,0.375 -0.46875,0.875 0,0.3125 0.1875,0.57812 0.20312,0.26563 0.64062,0.4375 0.23438,0.0937 1.4375,0.42188 1.75,0.45312 2.4375,0.75 0.6875,0.29687 1.07813,0.85937 0.39062,0.5625 0.39062,1.40625 0,0.82813 -0.48437,1.54688 -0.46875,0.71875 -1.375,1.125 -0.90625,0.39062 -2.04688,0.39062 -1.875,0 -2.875,-0.78125 -0.98437,-0.78125 -1.25,-2.32812 z m 9.76563,-2.95313 v -1.53125 l 8.84375,-3.73437 v 1.64062 l -7.01563,2.875 7.01563,2.90625 v 1.625 z m 11.6137,5.84375 v -13.35937 h 1.76563 v 13.35937 z m 4.68329,0 v -9.67187 h 1.46875 v 1.375 q 1.0625,-1.59375 3.07813,-1.59375 0.875,0 1.60937,0.3125 0.73438,0.3125 1.09375,0.82812 0.375,0.5 0.51563,1.20313 0.0937,0.45312 0.0937,1.59375 v 5.95312 h -1.64063 v -5.89062 q 0,-1 -0.20312,-1.48438 -0.1875,-0.5 -0.67188,-0.79687 -0.48437,-0.29688 -1.14062,-0.29688 -1.04688,0 -1.8125,0.67188 -0.75,0.65625 -0.75,2.51562 v 5.28125 z m 13.95386,-1.46875 0.23437,1.45313 q -0.6875,0.14062 -1.23437,0.14062 -0.89063,0 -1.39063,-0.28125 -0.48437,-0.28125 -0.6875,-0.73437 -0.20312,-0.46875 -0.20312,-1.9375 v -5.57813 h -1.20313 v -1.26562 h 1.20313 V 112.742 l 1.625,-0.98437 v 3.375 h 1.65625 v 1.26562 h -1.65625 v 5.67188 q 0,0.6875 0.0781,0.89062 0.0937,0.20313 0.28125,0.32813 0.20313,0.10937 0.57813,0.10937 0.26562,0 0.71875,-0.0625 z m 8.23016,-1.64062 1.6875,0.20312 q -0.40625,1.48438 -1.48437,2.3125 -1.07813,0.8125 -2.76563,0.8125 -2.125,0 -3.375,-1.29687 -1.23437,-1.3125 -1.23437,-3.67188 0,-2.45312 1.25,-3.79687 1.26562,-1.34375 3.26562,-1.34375 1.9375,0 3.15625,1.32812 1.23438,1.3125 1.23438,3.70313 0,0.15625 0,0.4375 h -7.21875 q 0.0937,1.59375 0.90625,2.45312 0.8125,0.84375 2.01562,0.84375 0.90625,0 1.54688,-0.46875 0.64062,-0.48437 1.01562,-1.51562 z m -5.39062,-2.65625 h 5.40625 q -0.10938,-1.21875 -0.625,-1.82813 -0.78125,-0.95312 -2.03125,-0.95312 -1.125,0 -1.90625,0.76562 -0.76563,0.75 -0.84375,2.01563 z m 8.82886,6.5625 1.59375,0.23437 q 0.10937,0.75 0.5625,1.07813 0.60937,0.45312 1.67187,0.45312 1.14063,0 1.75,-0.45312 0.625,-0.45313 0.84375,-1.26563 0.125,-0.5 0.10938,-2.10937 -1.0625,1.26562 -2.67188,1.26562 -2,0 -3.09375,-1.4375 -1.09375,-1.4375 -1.09375,-3.45312 0,-1.39063 0.5,-2.5625 0.51563,-1.17188 1.45313,-1.79688 0.95312,-0.64062 2.25,-0.64062 1.70312,0 2.8125,1.375 v -1.15625 h 1.51562 v 8.35937 q 0,2.26563 -0.46875,3.20313 -0.45312,0.9375 -1.45312,1.48437 -0.98438,0.54688 -2.45313,0.54688 -1.71875,0 -2.79687,-0.78125 -1.0625,-0.76563 -1.03125,-2.34375 z m 1.35937,-5.8125 q 0,1.90625 0.75,2.78125 0.76563,0.875 1.90625,0.875 1.125,0 1.89063,-0.85938 0.76562,-0.875 0.76562,-2.73437 0,-1.78125 -0.79687,-2.67188 -0.78125,-0.90625 -1.89063,-0.90625 -1.09375,0 -1.85937,0.89063 -0.76563,0.875 -0.76563,2.625 z m 15.95383,1.90625 1.6875,0.20312 q -0.40625,1.48438 -1.48438,2.3125 -1.07812,0.8125 -2.76562,0.8125 -2.125,0 -3.375,-1.29687 -1.23438,-1.3125 -1.23438,-3.67188 0,-2.45312 1.25,-3.79687 1.26563,-1.34375 3.26563,-1.34375 1.9375,0 3.15625,1.32812 1.23437,1.3125 1.23437,3.70313 0,0.15625 0,0.4375 h -7.21875 q 0.0937,1.59375 0.90625,2.45312 0.8125,0.84375 2.01563,0.84375 0.90625,0 1.54687,-0.46875 0.64063,-0.48437 1.01563,-1.51562 z m -5.39063,-2.65625 h 5.40625 q -0.10937,-1.21875 -0.625,-1.82813 -0.78125,-0.95312 -2.03125,-0.95312 -1.125,0 -1.90625,0.76562 -0.76562,0.75 -0.84375,2.01563 z m 9.12573,5.76562 v -9.67187 h 1.46875 v 1.46875 q 0.5625,-1.03125 1.03125,-1.35938 0.48438,-0.32812 1.0625,-0.32812 0.82813,0 1.6875,0.53125 l -0.5625,1.51562 q -0.60937,-0.35937 -1.20312,-0.35937 -0.54688,0 -0.96875,0.32812 -0.42188,0.32813 -0.60938,0.89063 -0.28125,0.875 -0.28125,1.92187 v 5.0625 z m 14.85331,-5.84375 -8.84375,3.78125 v -1.625 l 7.01562,-2.90625 -7.01562,-2.875 v -1.64062 l 8.84375,3.73437 z"
     fill-rule="nonzero"
     id="path31" />
  <path
     fill="#cfe2f3"
     d="M 321.09192,144.48295 H 481.9108 v 53.19684 H 321.09192 Z"
     fill-rule="evenodd"
     id="path33" />
  <path
     stroke="#000000"
     stroke-width="1"
     stroke-linejoin="round"
     stroke-linecap="butt"
     d="M 321.09192,144.48295 H 481.9108 v 53.19684 H 321.09192 Z"
     fill-rule="evenodd"
     id="path35" />
  <path
     fill="#000000"
     d="m 335.1388,167.16138 h -1.04687 l -2.53125,-5.71875 h -0.625 q -0.21875,0 -0.3125,-0.0781 -0.0937,-0.0937 -0.0937,-0.23438 0,-0.14062 0.0937,-0.21875 0.0937,-0.0937 0.3125,-0.0937 h 2.3125 q 0.21875,0 0.3125,0.0937 0.0937,0.0781 0.0937,0.21875 0,0.14063 -0.0937,0.23438 -0.0937,0.0781 -0.3125,0.0781 h -1.03125 l 2.26562,5.10938 h 0.26563 l 2.21875,-5.10938 h -1.03125 q -0.21875,0 -0.3125,-0.0781 -0.0937,-0.0937 -0.0937,-0.23438 0,-0.14062 0.0937,-0.21875 0.0937,-0.0937 0.3125,-0.0937 h 2.3125 q 0.23437,0 0.3125,0.0937 0.0937,0.0781 0.0937,0.21875 0,0.14063 -0.0937,0.23438 -0.0781,0.0781 -0.3125,0.0781 h -0.625 z m 10.22022,0 v -0.89062 q -1.34375,1.125 -2.85938,1.125 -1.10937,0 -1.73437,-0.54688 -0.60938,-0.5625 -0.60938,-1.375 0,-0.89062 0.8125,-1.5625 0.82813,-0.67187 2.39063,-0.67187 0.42187,0 0.92187,0.0625 0.5,0.0469 1.07813,0.17187 v -1 q 0,-0.5 -0.46875,-0.875 -0.46875,-0.375 -1.40625,-0.375 -0.71875,0 -2.01563,0.42188 -0.23437,0.0625 -0.29687,0.0625 -0.10938,0 -0.20313,-0.0781 -0.0781,-0.0937 -0.0781,-0.21875 0,-0.125 0.0781,-0.20312 0.0937,-0.10938 0.82813,-0.29688 1.14062,-0.3125 1.71875,-0.3125 1.17187,0 1.8125,0.57813 0.65625,0.57812 0.65625,1.29687 v 4.07813 h 0.82812 q 0.21875,0 0.3125,0.0781 0.0937,0.0781 0.0937,0.21875 0,0.14063 -0.0937,0.23438 -0.0937,0.0781 -0.3125,0.0781 z m 0,-3.0625 q -0.42188,-0.125 -0.90625,-0.17187 -0.48438,-0.0625 -1.01563,-0.0625 -1.34375,0 -2.10937,0.57812 -0.5625,0.42188 -0.5625,1.03125 0,0.54688 0.4375,0.9375 0.4375,0.375 1.26562,0.375 0.79688,0 1.48438,-0.3125 0.6875,-0.32812 1.40625,-1.01562 z m 7.54834,-6.125 v 8.57813 h 2.42187 q 0.21875,0 0.3125,0.0781 0.0937,0.0781 0.0937,0.21875 0,0.14063 -0.0937,0.23438 -0.0937,0.0781 -0.3125,0.0781 h -5.45312 q -0.21875,0 -0.3125,-0.0781 -0.0937,-0.0937 -0.0937,-0.23438 0,-0.14062 0.0937,-0.21875 0.0937,-0.0781 0.3125,-0.0781 h 2.42187 v -7.95313 h -1.78125 q -0.21875,0 -0.32812,-0.0937 -0.0937,-0.0937 -0.0937,-0.23437 0,-0.125 0.0937,-0.20313 0.10937,-0.0937 0.32812,-0.0937 z m 10.79833,9.1875 v -0.90625 q -1.26562,1.14063 -2.73437,1.14063 -0.89063,0 -1.35938,-0.48438 -0.60937,-0.64062 -0.60937,-1.5 v -3.96875 h -0.82813 q -0.21875,0 -0.3125,-0.0781 -0.0937,-0.0937 -0.0937,-0.23438 0,-0.14062 0.0937,-0.21875 0.0937,-0.0937 0.3125,-0.0937 h 1.4375 v 4.59375 q 0,0.59375 0.375,0.98438 0.39063,0.39062 0.96875,0.39062 1.5,0 2.75,-1.375 v -3.96875 h -1.14062 q -0.21875,0 -0.3125,-0.0781 -0.0937,-0.0937 -0.0937,-0.23438 0,-0.14062 0.0937,-0.21875 0.0937,-0.0937 0.3125,-0.0937 h 1.75 v 5.73438 h 0.51562 q 0.23438,0 0.32813,0.0781 0.0937,0.0781 0.0937,0.21875 0,0.14063 -0.0937,0.23438 -0.0937,0.0781 -0.32813,0.0781 z m 10.22022,-3.03125 h -6.26563 q 0.15625,1.20313 1,1.9375 0.84375,0.71875 2.07813,0.71875 0.6875,0 1.4375,-0.21875 0.75,-0.23437 1.23437,-0.60937 0.14063,-0.10938 0.23438,-0.10938 0.125,0 0.20312,0.0937 0.0937,0.0937 0.0937,0.21875 0,0.125 -0.10937,0.23438 -0.35938,0.375 -1.26563,0.6875 -0.89062,0.3125 -1.82812,0.3125 -1.59375,0 -2.65625,-1.03125 -1.04688,-1.03125 -1.04688,-2.5 0,-1.34375 0.98438,-2.29688 1,-0.96875 2.46875,-0.96875 1.5,0 2.46875,0.98438 0.98437,0.98437 0.96875,2.54687 z m -0.625,-0.60937 q -0.17188,-1.03125 -0.95313,-1.65625 -0.78125,-0.64063 -1.85937,-0.64063 -1.07813,0 -1.85938,0.625 -0.76562,0.625 -0.96875,1.67188 z m 18.65918,-1.45313 h -6.70313 q -0.21875,0 -0.32812,-0.0781 -0.0937,-0.0937 -0.0937,-0.23438 0,-0.125 0.0937,-0.21875 0.10937,-0.0937 0.32812,-0.0937 h 6.70313 q 0.21875,0 0.3125,0.0937 0.0937,0.0937 0.0937,0.23438 0,0.125 -0.0937,0.21875 -0.0937,0.0781 -0.3125,0.0781 z m 0,2.20313 h -6.70313 q -0.21875,0 -0.32812,-0.0781 -0.0937,-0.0781 -0.0937,-0.21875 0,-0.14062 0.0937,-0.21875 0.10937,-0.0937 0.32812,-0.0937 h 6.70313 q 0.21875,0 0.3125,0.0937 0.0937,0.0781 0.0937,0.21875 0,0.14063 -0.0937,0.21875 -0.0937,0.0781 -0.3125,0.0781 z m 12.00293,2.28125 h 4.71875 v -0.25 q 0,-0.21875 0.0781,-0.3125 0.0937,-0.0937 0.23438,-0.0937 0.14062,0 0.21875,0.0937 0.0937,0.0937 0.0937,0.3125 v 0.85937 h -5.95313 v -0.90625 q 1.875,-1.6875 3.65625,-3.4375 0.82813,-0.8125 1.125,-1.1875 0.3125,-0.375 0.42188,-0.65625 0.10937,-0.29687 0.10937,-0.59375 0,-0.79687 -0.64062,-1.40625 -0.625,-0.60937 -1.53125,-0.60937 -0.79688,0 -1.42188,0.46875 -0.625,0.46875 -0.8125,1.14062 -0.0469,0.17188 -0.10937,0.23438 -0.0781,0.0625 -0.20313,0.0625 -0.125,0 -0.21875,-0.0781 -0.0781,-0.0781 -0.0781,-0.20312 0,-0.34375 0.39062,-0.9375 0.39063,-0.60938 1.0625,-0.95313 0.67188,-0.34375 1.39063,-0.34375 1.14062,0 1.96875,0.79688 0.82812,0.79687 0.82812,1.8125 0,0.42187 -0.14062,0.78125 -0.125,0.34375 -0.46875,0.76562 -0.32813,0.42188 -1.1875,1.26563 -2.17188,2.14062 -3.53125,3.32812 z m 14.47021,-4.75 v 1.53125 q 0,1.98437 -0.95312,3.14062 -0.73438,0.90625 -1.85938,0.90625 -0.54687,0 -1.03125,-0.21875 -0.46875,-0.21875 -0.8125,-0.59375 -0.20312,-0.25 -0.46875,-0.78125 -0.25,-0.53125 -0.35937,-0.98437 -0.17188,-0.625 -0.17188,-1.46875 v -1.53125 q 0,-1.98438 0.95313,-3.14063 0.73437,-0.90625 1.85937,-0.90625 0.5625,0 1.03125,0.21875 0.46875,0.20313 0.8125,0.59375 0.21875,0.25 0.46875,0.79688 0.25,0.53125 0.35938,0.96875 0.17187,0.625 0.17187,1.46875 z m -0.625,0.0781 q 0,-0.85937 -0.25,-1.60937 -0.23437,-0.75 -0.54687,-1.20313 -0.17188,-0.25 -0.46875,-0.4375 -0.42188,-0.26562 -0.9375,-0.26562 -1.03125,0 -1.625,1.0625 -0.57813,1.04687 -0.57813,2.45312 v 1.35938 q 0,0.875 0.23438,1.64062 0.25,0.75 0.5625,1.1875 0.1875,0.25 0.46875,0.4375 0.42187,0.26563 0.95312,0.26563 1.01563,0 1.59375,-1.0625 0.59375,-1.0625 0.59375,-2.46875 z m 6.65772,-1.0625 h 0.28125 q 0.40625,0 0.6875,0.29688 0.29687,0.29687 0.29687,0.6875 0,0.4375 -0.29687,0.73437 -0.28125,0.28125 -0.6875,0.28125 h -0.28125 q -0.40625,0 -0.70313,-0.29687 -0.28125,-0.29688 -0.28125,-0.70313 0,-0.42187 0.29688,-0.70312 0.29687,-0.29688 0.6875,-0.29688 z m -1.0625,4.125 h 1.9375 l -2.07813,3.40625 q -0.15625,0.25 -0.25,0.3125 -0.0937,0.0625 -0.20312,0.0625 -0.1875,0 -0.3125,-0.10937 -0.10938,-0.10938 -0.10938,-0.26563 0,-0.0781 0.0469,-0.21875 z"
     fill-rule="nonzero"
     id="path37" />
  <path
     fill="#000000"
     d="m 332.60754,178.81763 v 0.9375 q 0.64062,-0.65625 1.15625,-0.90625 0.53125,-0.25 1.17187,-0.25 0.70313,0 1.28125,0.29688 0.42188,0.21875 0.75,0.73437 0.32813,0.5 0.32813,1.04688 v 3.875 h 0.53125 q 0.21875,0 0.3125,0.0781 0.0937,0.0781 0.0937,0.21875 0,0.14063 -0.0937,0.23438 -0.0937,0.0781 -0.3125,0.0781 h -1.65625 q -0.21875,0 -0.32813,-0.0781 -0.0937,-0.0937 -0.0937,-0.23438 0,-0.14062 0.0937,-0.21875 0.10938,-0.0781 0.32813,-0.0781 h 0.51562 v -3.78125 q 0,-0.65625 -0.48437,-1.09375 -0.46875,-0.45313 -1.26563,-0.45313 -0.60937,0 -1.0625,0.25 -0.4375,0.23438 -1.26562,1.21875 v 3.85938 h 0.6875 q 0.21875,0 0.3125,0.0781 0.10937,0.0781 0.10937,0.21875 0,0.14063 -0.10937,0.23438 -0.0937,0.0781 -0.3125,0.0781 h -2 q -0.21875,0 -0.3125,-0.0781 -0.0937,-0.0937 -0.0937,-0.23438 0,-0.14062 0.0937,-0.21875 0.0937,-0.0781 0.3125,-0.0781 h 0.6875 v -5.10938 h -0.51563 q -0.21875,0 -0.3125,-0.0781 -0.0937,-0.0937 -0.0937,-0.23438 0,-0.14062 0.0937,-0.21875 0.0937,-0.0937 0.3125,-0.0937 z m 14.31396,3.3125 h -6.26562 q 0.15625,1.20313 1,1.9375 0.84375,0.71875 2.07812,0.71875 0.6875,0 1.4375,-0.21875 0.75,-0.23437 1.23438,-0.60937 0.14062,-0.10938 0.23437,-0.10938 0.125,0 0.20313,0.0937 0.0937,0.0937 0.0937,0.21875 0,0.125 -0.10938,0.23438 -0.35937,0.375 -1.26562,0.6875 -0.89063,0.3125 -1.82813,0.3125 -1.59375,0 -2.65625,-1.03125 -1.04687,-1.03125 -1.04687,-2.5 0,-1.34375 0.98437,-2.29688 1,-0.96875 2.46875,-0.96875 1.5,0 2.46875,0.98438 0.98438,0.98437 0.96875,2.54687 z m -0.625,-0.60937 q -0.17187,-1.03125 -0.95312,-1.65625 -0.78125,-0.64063 -1.85938,-0.64063 -1.07812,0 -1.85937,0.625 -0.76563,0.625 -0.96875,1.67188 z m 6.72022,0.32812 2.8125,2.70313 q 0.28125,0 0.35937,0.0312 0.0781,0.0156 0.125,0.0937 0.0625,0.0781 0.0625,0.17187 0,0.14063 -0.0937,0.23438 -0.0937,0.0781 -0.32812,0.0781 h -1.98438 q -0.21875,0 -0.3125,-0.0781 -0.0937,-0.0937 -0.0937,-0.23438 0,-0.14062 0.0937,-0.21875 0.0937,-0.0781 0.3125,-0.0781 h 1.03125 l -2.40625,-2.29688 -2.375,2.29688 h 1.03125 q 0.21875,0 0.3125,0.0781 0.0937,0.0781 0.0937,0.21875 0,0.14063 -0.0937,0.23438 -0.0937,0.0781 -0.3125,0.0781 h -2 q -0.21875,0 -0.32812,-0.0781 -0.0937,-0.0937 -0.0937,-0.23438 0,-0.0937 0.0469,-0.17187 0.0625,-0.0781 0.125,-0.0937 0.0781,-0.0312 0.35938,-0.0312 l 2.82812,-2.70313 -2.51562,-2.40625 q -0.26563,0 -0.34375,-0.0312 -0.0625,-0.0312 -0.125,-0.10937 -0.0469,-0.0781 -0.0469,-0.17188 0,-0.14062 0.0937,-0.21875 0.10938,-0.0937 0.32813,-0.0937 h 1.6875 q 0.21875,0 0.3125,0.0937 0.0937,0.0781 0.0937,0.21875 0,0.14063 -0.0937,0.23438 -0.0937,0.0781 -0.3125,0.0781 h -0.73438 l 2.0625,2 2.09375,-2 h -0.73437 q -0.21875,0 -0.32813,-0.0781 -0.0937,-0.0937 -0.0937,-0.23438 0,-0.14062 0.0937,-0.21875 0.0937,-0.0937 0.32813,-0.0937 h 1.67187 q 0.21875,0 0.3125,0.0937 0.10938,0.0781 0.10938,0.21875 0,0.0937 -0.0625,0.17188 -0.0469,0.0781 -0.125,0.10937 -0.0625,0.0312 -0.32813,0.0312 z m 7.31396,-3.03125 h 3.34375 q 0.21875,0 0.3125,0.0937 0.0937,0.0781 0.0937,0.21875 0,0.14063 -0.0937,0.23438 -0.0937,0.0781 -0.3125,0.0781 h -3.34375 v 4.09375 q 0,0.53125 0.42188,0.89063 0.4375,0.35937 1.26562,0.35937 0.625,0 1.34375,-0.1875 0.73438,-0.1875 1.125,-0.42187 0.15625,-0.0937 0.25,-0.0937 0.10938,0 0.20313,0.0937 0.0937,0.0937 0.0937,0.21875 0,0.10937 -0.0937,0.20312 -0.23438,0.23438 -1.14063,0.51563 -0.90625,0.28125 -1.73437,0.28125 -1.07813,0 -1.71875,-0.5 -0.64063,-0.5 -0.64063,-1.35938 v -4.09375 h -1.125 q -0.21875,0 -0.32812,-0.0781 -0.0937,-0.0937 -0.0937,-0.23438 0,-0.14062 0.0937,-0.21875 0.10937,-0.0937 0.32812,-0.0937 h 1.125 v -1.8125 q 0,-0.21875 0.0937,-0.3125 0.0937,-0.0937 0.21875,-0.0937 0.14063,0 0.21875,0.0937 0.0937,0.0937 0.0937,0.3125 z m 22.62793,1.25 h -6.70312 q -0.21875,0 -0.32813,-0.0781 -0.0937,-0.0937 -0.0937,-0.23438 0,-0.125 0.0937,-0.21875 0.10938,-0.0937 0.32813,-0.0937 h 6.70312 q 0.21875,0 0.3125,0.0937 0.0937,0.0937 0.0937,0.23438 0,0.125 -0.0937,0.21875 -0.0937,0.0781 -0.3125,0.0781 z m 0,2.20313 h -6.70312 q -0.21875,0 -0.32813,-0.0781 -0.0937,-0.0781 -0.0937,-0.21875 0,-0.14062 0.0937,-0.21875 0.10938,-0.0937 0.32813,-0.0937 h 6.70312 q 0.21875,0 0.3125,0.0937 0.0937,0.0781 0.0937,0.21875 0,0.14063 -0.0937,0.21875 -0.0937,0.0781 -0.3125,0.0781 z"
     fill-rule="nonzero"
     id="path39" />
  <path
     fill="#cfe2f3"
     d="m 529.3439,91.2861 h 160.81891 v 53.19685 H 529.3439 Z"
     fill-rule="evenodd"
     id="path41" />
  <path
     stroke="#000000"
     stroke-width="1"
     stroke-linejoin="round"
     stroke-linecap="butt"
     d="m 529.3439,91.2861 h 160.81891 v 53.19685 H 529.3439 Z"
     fill-rule="evenodd"
     id="path43" />
  <path
     fill="#000000"
     d="m 559.0098,120.117 1.76562,0.45313 q -0.5625,2.17187 -2,3.32812 -1.4375,1.14063 -3.53125,1.14063 -2.15625,0 -3.51562,-0.875 -1.34375,-0.89063 -2.0625,-2.54688 -0.70313,-1.67187 -0.70313,-3.59375 0,-2.07812 0.79688,-3.625 0.79687,-1.5625 2.26562,-2.35937 1.48438,-0.8125 3.25,-0.8125 2,0 3.35938,1.01562 1.375,1.01563 1.90625,2.875 l -1.73438,0.40625 q -0.46875,-1.45312 -1.35937,-2.10937 -0.875,-0.67188 -2.20313,-0.67188 -1.54687,0 -2.57812,0.73438 -1.03125,0.73437 -1.45313,1.98437 -0.42187,1.23438 -0.42187,2.5625 0,1.70313 0.5,2.96875 0.5,1.26563 1.54687,1.90625 1.04688,0.625 2.26563,0.625 1.48437,0 2.51562,-0.85937 1.03125,-0.85938 1.39063,-2.54688 z m 3.12921,-0.15625 q 0,-2.6875 1.48438,-3.96875 1.25,-1.07812 3.04687,-1.07812 2,0 3.26563,1.3125 1.26562,1.29687 1.26562,3.60937 0,1.85938 -0.5625,2.9375 -0.5625,1.0625 -1.64062,1.65625 -1.0625,0.59375 -2.32813,0.59375 -2.03125,0 -3.28125,-1.29687 -1.25,-1.3125 -1.25,-3.76563 z m 1.6875,0 q 0,1.85938 0.79688,2.79688 0.8125,0.92187 2.04687,0.92187 1.21875,0 2.03125,-0.92187 0.8125,-0.9375 0.8125,-2.84375 0,-1.79688 -0.8125,-2.71875 -0.8125,-0.92188 -2.03125,-0.92188 -1.23437,0 -2.04687,0.92188 -0.79688,0.90625 -0.79688,2.76562 z m 9.29755,4.84375 v -9.67187 h 1.46875 v 1.375 q 1.0625,-1.59375 3.07812,-1.59375 0.875,0 1.60938,0.3125 0.73437,0.3125 1.09375,0.82812 0.375,0.5 0.51562,1.20313 0.0937,0.45312 0.0937,1.59375 v 5.95312 h -1.64062 v -5.89062 q 0,-1 -0.20313,-1.48438 -0.1875,-0.5 -0.67187,-0.79687 -0.48438,-0.29688 -1.14063,-0.29688 -1.04687,0 -1.8125,0.67188 -0.75,0.65625 -0.75,2.51562 v 5.28125 z m 9.71948,-2.89062 1.625,-0.25 q 0.125,0.96875 0.75,1.5 0.625,0.51562 1.75,0.51562 1.125,0 1.67187,-0.45312 0.54688,-0.46875 0.54688,-1.09375 0,-0.54688 -0.48438,-0.875 -0.32812,-0.21875 -1.67187,-0.54688 -1.8125,-0.46875 -2.51563,-0.79687 -0.6875,-0.32813 -1.04687,-0.90625 -0.35938,-0.59375 -0.35938,-1.3125 0,-0.64063 0.29688,-1.1875 0.29687,-0.5625 0.8125,-0.92188 0.375,-0.28125 1.03125,-0.46875 0.67187,-0.20312 1.42187,-0.20312 1.14063,0 2,0.32812 0.85938,0.32813 1.26563,0.89063 0.42187,0.5625 0.57812,1.5 l -1.60937,0.21875 q -0.10938,-0.75 -0.64063,-1.17188 -0.51562,-0.42187 -1.46875,-0.42187 -1.14062,0 -1.625,0.375 -0.46875,0.375 -0.46875,0.875 0,0.3125 0.1875,0.57812 0.20313,0.26563 0.64063,0.4375 0.23437,0.0937 1.4375,0.42188 1.75,0.45312 2.4375,0.75 0.6875,0.29687 1.07812,0.85937 0.39063,0.5625 0.39063,1.40625 0,0.82813 -0.48438,1.54688 -0.46875,0.71875 -1.375,1.125 -0.90625,0.39062 -2.04687,0.39062 -1.875,0 -2.875,-0.78125 -0.98438,-0.78125 -1.25,-2.32812 z m 9.76562,-2.95313 v -1.53125 l 8.84375,-3.73437 v 1.64062 l -7.01562,2.875 7.01562,2.90625 v 1.625 z m 11.61371,5.84375 v -13.35937 h 1.76563 v 13.35937 z m 4.68329,0 v -9.67187 h 1.46875 v 1.375 q 1.0625,-1.59375 3.07813,-1.59375 0.875,0 1.60937,0.3125 0.73438,0.3125 1.09375,0.82812 0.375,0.5 0.51563,1.20313 0.0937,0.45312 0.0937,1.59375 v 5.95312 h -1.64063 v -5.89062 q 0,-1 -0.20312,-1.48438 -0.1875,-0.5 -0.67188,-0.79687 -0.48437,-0.29688 -1.14062,-0.29688 -1.04688,0 -1.8125,0.67188 -0.75,0.65625 -0.75,2.51562 v 5.28125 z m 13.95386,-1.46875 0.23437,1.45313 q -0.6875,0.14062 -1.23437,0.14062 -0.89063,0 -1.39063,-0.28125 -0.48437,-0.28125 -0.6875,-0.73437 -0.20312,-0.46875 -0.20312,-1.9375 v -5.57813 h -1.20313 v -1.26562 h 1.20313 V 112.742 l 1.625,-0.98437 v 3.375 h 1.65625 v 1.26562 h -1.65625 v 5.67188 q 0,0.6875 0.0781,0.89062 0.0937,0.20313 0.28125,0.32813 0.20313,0.10937 0.57813,0.10937 0.26562,0 0.71875,-0.0625 z m 8.23016,-1.64062 1.6875,0.20312 q -0.40625,1.48438 -1.48437,2.3125 -1.07813,0.8125 -2.76563,0.8125 -2.125,0 -3.375,-1.29687 -1.23437,-1.3125 -1.23437,-3.67188 0,-2.45312 1.25,-3.79687 1.26562,-1.34375 3.26562,-1.34375 1.9375,0 3.15625,1.32812 1.23438,1.3125 1.23438,3.70313 0,0.15625 0,0.4375 h -7.21875 q 0.0937,1.59375 0.90625,2.45312 0.8125,0.84375 2.01562,0.84375 0.90625,0 1.54688,-0.46875 0.64062,-0.48437 1.01562,-1.51562 z m -5.39062,-2.65625 h 5.40625 q -0.10938,-1.21875 -0.625,-1.82813 -0.78125,-0.95312 -2.03125,-0.95312 -1.125,0 -1.90625,0.76562 -0.76563,0.75 -0.84375,2.01563 z m 8.82885,6.5625 1.59375,0.23437 q 0.10938,0.75 0.5625,1.07813 0.60938,0.45312 1.67188,0.45312 1.14062,0 1.75,-0.45312 0.625,-0.45313 0.84375,-1.26563 0.125,-0.5 0.10937,-2.10937 -1.0625,1.26562 -2.67187,1.26562 -2,0 -3.09375,-1.4375 -1.09375,-1.4375 -1.09375,-3.45312 0,-1.39063 0.5,-2.5625 0.51562,-1.17188 1.45312,-1.79688 0.95313,-0.64062 2.25,-0.64062 1.70313,0 2.8125,1.375 v -1.15625 h 1.51563 v 8.35937 q 0,2.26563 -0.46875,3.20313 -0.45313,0.9375 -1.45313,1.48437 -0.98437,0.54688 -2.45312,0.54688 -1.71875,0 -2.79688,-0.78125 -1.0625,-0.76563 -1.03125,-2.34375 z m 1.35938,-5.8125 q 0,1.90625 0.75,2.78125 0.76562,0.875 1.90625,0.875 1.125,0 1.89062,-0.85938 0.76563,-0.875 0.76563,-2.73437 0,-1.78125 -0.79688,-2.67188 -0.78125,-0.90625 -1.89062,-0.90625 -1.09375,0 -1.85938,0.89063 -0.76562,0.875 -0.76562,2.625 z m 15.95386,1.90625 1.6875,0.20312 q -0.40625,1.48438 -1.48438,2.3125 -1.07812,0.8125 -2.76562,0.8125 -2.125,0 -3.375,-1.29687 -1.23438,-1.3125 -1.23438,-3.67188 0,-2.45312 1.25,-3.79687 1.26563,-1.34375 3.26563,-1.34375 1.9375,0 3.15625,1.32812 1.23437,1.3125 1.23437,3.70313 0,0.15625 0,0.4375 h -7.21875 q 0.0937,1.59375 0.90625,2.45312 0.8125,0.84375 2.01563,0.84375 0.90625,0 1.54687,-0.46875 0.64063,-0.48437 1.01563,-1.51562 z m -5.39063,-2.65625 h 5.40625 q -0.10937,-1.21875 -0.625,-1.82813 -0.78125,-0.95312 -2.03125,-0.95312 -1.125,0 -1.90625,0.76562 -0.76562,0.75 -0.84375,2.01563 z m 9.12573,5.76562 v -9.67187 h 1.46875 v 1.46875 q 0.5625,-1.03125 1.03125,-1.35938 0.48438,-0.32812 1.0625,-0.32812 0.82813,0 1.6875,0.53125 l -0.5625,1.51562 q -0.60937,-0.35937 -1.20312,-0.35937 -0.54688,0 -0.96875,0.32812 -0.42188,0.32813 -0.60938,0.89063 -0.28125,0.875 -0.28125,1.92187 v 5.0625 z m 14.85327,-5.84375 -8.84375,3.78125 v -1.625 l 7.01563,-2.90625 -7.01563,-2.875 v -1.64062 l 8.84375,3.73437 z"
     fill-rule="nonzero"
     id="path45" />
  <path
     fill="#cfe2f3"
     d="M 529.33865,144.48295 H 690.1575 v 53.19684 H 529.33865 Z"
     fill-rule="evenodd"
     id="path47" />
  <path
     stroke="#000000"
     stroke-width="1"
     stroke-linejoin="round"
     stroke-linecap="butt"
     d="M 529.33865,144.48295 H 690.1575 v 53.19684 H 529.33865 Z"
     fill-rule="evenodd"
     id="path49" />
  <path
     fill="#000000"
     d="m 543.3855,167.16138 h -1.04687 l -2.53125,-5.71875 h -0.625 q -0.21875,0 -0.3125,-0.0781 -0.0937,-0.0937 -0.0937,-0.23438 0,-0.14062 0.0937,-0.21875 0.0937,-0.0937 0.3125,-0.0937 h 2.3125 q 0.21875,0 0.3125,0.0937 0.0937,0.0781 0.0937,0.21875 0,0.14063 -0.0937,0.23438 -0.0937,0.0781 -0.3125,0.0781 h -1.03125 l 2.26562,5.10938 h 0.26563 l 2.21875,-5.10938 h -1.03125 q -0.21875,0 -0.3125,-0.0781 -0.0937,-0.0937 -0.0937,-0.23438 0,-0.14062 0.0937,-0.21875 0.0937,-0.0937 0.3125,-0.0937 h 2.3125 q 0.23437,0 0.3125,0.0937 0.0937,0.0781 0.0937,0.21875 0,0.14063 -0.0937,0.23438 -0.0781,0.0781 -0.3125,0.0781 h -0.625 z m 10.22022,0 v -0.89062 q -1.34375,1.125 -2.85938,1.125 -1.10937,0 -1.73437,-0.54688 -0.60938,-0.5625 -0.60938,-1.375 0,-0.89062 0.8125,-1.5625 0.82813,-0.67187 2.39063,-0.67187 0.42187,0 0.92187,0.0625 0.5,0.0469 1.07813,0.17187 v -1 q 0,-0.5 -0.46875,-0.875 -0.46875,-0.375 -1.40625,-0.375 -0.71875,0 -2.01563,0.42188 -0.23437,0.0625 -0.29687,0.0625 -0.10938,0 -0.20313,-0.0781 -0.0781,-0.0937 -0.0781,-0.21875 0,-0.125 0.0781,-0.20312 0.0937,-0.10938 0.82813,-0.29688 1.14062,-0.3125 1.71875,-0.3125 1.17187,0 1.8125,0.57813 0.65625,0.57812 0.65625,1.29687 v 4.07813 h 0.82812 q 0.21875,0 0.3125,0.0781 0.0937,0.0781 0.0937,0.21875 0,0.14063 -0.0937,0.23438 -0.0937,0.0781 -0.3125,0.0781 z m 0,-3.0625 q -0.42188,-0.125 -0.90625,-0.17187 -0.48438,-0.0625 -1.01563,-0.0625 -1.34375,0 -2.10937,0.57812 -0.5625,0.42188 -0.5625,1.03125 0,0.54688 0.4375,0.9375 0.4375,0.375 1.26562,0.375 0.79688,0 1.48438,-0.3125 0.6875,-0.32812 1.40625,-1.01562 z m 7.54834,-6.125 v 8.57813 h 2.42187 q 0.21875,0 0.3125,0.0781 0.0937,0.0781 0.0937,0.21875 0,0.14063 -0.0937,0.23438 -0.0937,0.0781 -0.3125,0.0781 h -5.45312 q -0.21875,0 -0.3125,-0.0781 -0.0937,-0.0937 -0.0937,-0.23438 0,-0.14062 0.0937,-0.21875 0.0937,-0.0781 0.3125,-0.0781 h 2.42187 v -7.95313 h -1.78125 q -0.21875,0 -0.32812,-0.0937 -0.0937,-0.0937 -0.0937,-0.23437 0,-0.125 0.0937,-0.20313 0.10937,-0.0937 0.32812,-0.0937 z m 10.79834,9.1875 v -0.90625 q -1.26563,1.14063 -2.73438,1.14063 -0.89062,0 -1.35937,-0.48438 -0.60938,-0.64062 -0.60938,-1.5 v -3.96875 h -0.82812 q -0.21875,0 -0.3125,-0.0781 -0.0937,-0.0937 -0.0937,-0.23438 0,-0.14062 0.0937,-0.21875 0.0937,-0.0937 0.3125,-0.0937 h 1.4375 v 4.59375 q 0,0.59375 0.375,0.98438 0.39062,0.39062 0.96875,0.39062 1.5,0 2.75,-1.375 v -3.96875 h -1.14063 q -0.21875,0 -0.3125,-0.0781 -0.0937,-0.0937 -0.0937,-0.23438 0,-0.14062 0.0937,-0.21875 0.0937,-0.0937 0.3125,-0.0937 h 1.75 v 5.73438 h 0.51563 q 0.23437,0 0.32812,0.0781 0.0937,0.0781 0.0937,0.21875 0,0.14063 -0.0937,0.23438 -0.0937,0.0781 -0.32812,0.0781 z m 10.22021,-3.03125 h -6.26562 q 0.15625,1.20313 1,1.9375 0.84375,0.71875 2.07812,0.71875 0.6875,0 1.4375,-0.21875 0.75,-0.23437 1.23438,-0.60937 0.14062,-0.10938 0.23437,-0.10938 0.125,0 0.20313,0.0937 0.0937,0.0937 0.0937,0.21875 0,0.125 -0.10938,0.23438 -0.35937,0.375 -1.26562,0.6875 -0.89063,0.3125 -1.82813,0.3125 -1.59375,0 -2.65625,-1.03125 -1.04687,-1.03125 -1.04687,-2.5 0,-1.34375 0.98437,-2.29688 1,-0.96875 2.46875,-0.96875 1.5,0 2.46875,0.98438 0.98438,0.98437 0.96875,2.54687 z m -0.625,-0.60937 q -0.17187,-1.03125 -0.95312,-1.65625 -0.78125,-0.64063 -1.85938,-0.64063 -1.07812,0 -1.85937,0.625 -0.76563,0.625 -0.96875,1.67188 z m 18.65918,-1.45313 h -6.70312 q -0.21875,0 -0.32813,-0.0781 -0.0937,-0.0937 -0.0937,-0.23438 0,-0.125 0.0937,-0.21875 0.10938,-0.0937 0.32813,-0.0937 h 6.70312 q 0.21875,0 0.3125,0.0937 0.0937,0.0937 0.0937,0.23438 0,0.125 -0.0937,0.21875 -0.0937,0.0781 -0.3125,0.0781 z m 0,2.20313 h -6.70312 q -0.21875,0 -0.32813,-0.0781 -0.0937,-0.0781 -0.0937,-0.21875 0,-0.14062 0.0937,-0.21875 0.10938,-0.0937 0.32813,-0.0937 h 6.70312 q 0.21875,0 0.3125,0.0937 0.0937,0.0781 0.0937,0.21875 0,0.14063 -0.0937,0.21875 -0.0937,0.0781 -0.3125,0.0781 z m 15.90918,-2.10938 q 0.84375,0.375 1.28125,1.04688 0.45313,0.65625 0.45313,1.375 0,1.10937 -0.89063,1.95312 -0.89062,0.84375 -2.25,0.84375 -0.78125,0 -1.64062,-0.32812 -0.84375,-0.34375 -1.1875,-0.70313 -0.10938,-0.10937 -0.10938,-0.25 0,-0.10937 0.0781,-0.1875 0.0937,-0.0937 0.21875,-0.0937 0.10937,0 0.26562,0.10938 1.125,0.84375 2.39063,0.84375 1.07812,0 1.79687,-0.67188 0.71875,-0.67187 0.71875,-1.5 0,-0.54687 -0.35937,-1.0625 -0.34375,-0.53125 -1.01563,-0.82812 -0.67187,-0.3125 -1.34375,-0.3125 -0.21875,0 -0.32812,-0.0781 -0.0937,-0.0937 -0.0937,-0.23437 0,-0.125 0.0937,-0.21875 0.0937,-0.0937 0.28125,-0.0937 l 0.53125,0.0156 q 0.82812,0 1.35937,-0.5 0.54688,-0.51562 0.54688,-1.17187 0,-0.6875 -0.57813,-1.21875 -0.5625,-0.53125 -1.46875,-0.53125 -0.64062,0 -1.17187,0.21875 -0.53125,0.21875 -0.85938,0.60937 -0.10937,0.14063 -0.17187,0.17188 -0.0625,0.0312 -0.14063,0.0312 -0.125,0 -0.21875,-0.0781 -0.0781,-0.0937 -0.0781,-0.20312 0,-0.29688 0.625,-0.75 0.89062,-0.60938 2.01562,-0.60938 1.17188,0 1.90625,0.70313 0.75,0.6875 0.75,1.65625 0,0.60937 -0.35937,1.17187 -0.35938,0.54688 -1.04688,0.875 z m 10.56397,-0.35937 v 1.53125 q 0,1.98437 -0.95313,3.14062 -0.73437,0.90625 -1.85937,0.90625 -0.54688,0 -1.03125,-0.21875 -0.46875,-0.21875 -0.8125,-0.59375 -0.20313,-0.25 -0.46875,-0.78125 -0.25,-0.53125 -0.35938,-0.98437 -0.17187,-0.625 -0.17187,-1.46875 v -1.53125 q 0,-1.98438 0.95312,-3.14063 0.73438,-0.90625 1.85938,-0.90625 0.5625,0 1.03125,0.21875 0.46875,0.20313 0.8125,0.59375 0.21875,0.25 0.46875,0.79688 0.25,0.53125 0.35937,0.96875 0.17188,0.625 0.17188,1.46875 z m -0.625,0.0781 q 0,-0.85937 -0.25,-1.60937 -0.23438,-0.75 -0.54688,-1.20313 -0.17187,-0.25 -0.46875,-0.4375 -0.42187,-0.26562 -0.9375,-0.26562 -1.03125,0 -1.625,1.0625 -0.57812,1.04687 -0.57812,2.45312 v 1.35938 q 0,0.875 0.23437,1.64062 0.25,0.75 0.5625,1.1875 0.1875,0.25 0.46875,0.4375 0.42188,0.26563 0.95313,0.26563 1.01562,0 1.59375,-1.0625 0.59375,-1.0625 0.59375,-2.46875 z m 6.65771,-1.0625 h 0.28125 q 0.40625,0 0.6875,0.29688 0.29688,0.29687 0.29688,0.6875 0,0.4375 -0.29688,0.73437 -0.28125,0.28125 -0.6875,0.28125 h -0.28125 q -0.40625,0 -0.70312,-0.29687 -0.28125,-0.29688 -0.28125,-0.70313 0,-0.42187 0.29687,-0.70312 0.29688,-0.29688 0.6875,-0.29688 z m -1.0625,4.125 h 1.9375 l -2.07812,3.40625 q -0.15625,0.25 -0.25,0.3125 -0.0937,0.0625 -0.20313,0.0625 -0.1875,0 -0.3125,-0.10937 -0.10937,-0.10938 -0.10937,-0.26563 0,-0.0781 0.0469,-0.21875 z"
     fill-rule="nonzero"
     id="path51" />
  <path
     fill="#000000"
     d="m 540.8543,178.81763 v 0.9375 q 0.64063,-0.65625 1.15625,-0.90625 0.53125,-0.25 1.17188,-0.25 0.70312,0 1.28125,0.29688 0.42187,0.21875 0.75,0.73437 0.32812,0.5 0.32812,1.04688 v 3.875 h 0.53125 q 0.21875,0 0.3125,0.0781 0.0937,0.0781 0.0937,0.21875 0,0.14063 -0.0937,0.23438 -0.0937,0.0781 -0.3125,0.0781 h -1.65625 q -0.21875,0 -0.32812,-0.0781 -0.0937,-0.0937 -0.0937,-0.23438 0,-0.14062 0.0937,-0.21875 0.10937,-0.0781 0.32812,-0.0781 h 0.51563 v -3.78125 q 0,-0.65625 -0.48438,-1.09375 -0.46875,-0.45313 -1.26562,-0.45313 -0.60938,0 -1.0625,0.25 -0.4375,0.23438 -1.26563,1.21875 v 3.85938 h 0.6875 q 0.21875,0 0.3125,0.0781 0.10938,0.0781 0.10938,0.21875 0,0.14063 -0.10938,0.23438 -0.0937,0.0781 -0.3125,0.0781 h -2 q -0.21875,0 -0.3125,-0.0781 -0.0937,-0.0937 -0.0937,-0.23438 0,-0.14062 0.0937,-0.21875 0.0937,-0.0781 0.3125,-0.0781 h 0.6875 v -5.10938 h -0.51562 q -0.21875,0 -0.3125,-0.0781 -0.0937,-0.0937 -0.0937,-0.23438 0,-0.14062 0.0937,-0.21875 0.0937,-0.0937 0.3125,-0.0937 z m 14.31397,3.3125 h -6.26563 q 0.15625,1.20313 1,1.9375 0.84375,0.71875 2.07813,0.71875 0.6875,0 1.4375,-0.21875 0.75,-0.23437 1.23437,-0.60937 0.14063,-0.10938 0.23438,-0.10938 0.125,0 0.20312,0.0937 0.0937,0.0937 0.0937,0.21875 0,0.125 -0.10937,0.23438 -0.35938,0.375 -1.26563,0.6875 -0.89062,0.3125 -1.82812,0.3125 -1.59375,0 -2.65625,-1.03125 -1.04688,-1.03125 -1.04688,-2.5 0,-1.34375 0.98438,-2.29688 1,-0.96875 2.46875,-0.96875 1.5,0 2.46875,0.98438 0.98437,0.98437 0.96875,2.54687 z m -0.625,-0.60937 q -0.17188,-1.03125 -0.95313,-1.65625 -0.78125,-0.64063 -1.85937,-0.64063 -1.07813,0 -1.85938,0.625 -0.76562,0.625 -0.96875,1.67188 z m 6.72021,0.32812 2.8125,2.70313 q 0.28125,0 0.35938,0.0312 0.0781,0.0156 0.125,0.0937 0.0625,0.0781 0.0625,0.17187 0,0.14063 -0.0937,0.23438 -0.0937,0.0781 -0.32813,0.0781 h -1.98437 q -0.21875,0 -0.3125,-0.0781 -0.0937,-0.0937 -0.0937,-0.23438 0,-0.14062 0.0937,-0.21875 0.0937,-0.0781 0.3125,-0.0781 h 1.03125 l -2.40625,-2.29688 -2.375,2.29688 h 1.03125 q 0.21875,0 0.3125,0.0781 0.0937,0.0781 0.0937,0.21875 0,0.14063 -0.0937,0.23438 -0.0937,0.0781 -0.3125,0.0781 h -2 q -0.21875,0 -0.32813,-0.0781 -0.0937,-0.0937 -0.0937,-0.23438 0,-0.0937 0.0469,-0.17187 0.0625,-0.0781 0.125,-0.0937 0.0781,-0.0312 0.35937,-0.0312 l 2.82813,-2.70313 -2.51563,-2.40625 q -0.26562,0 -0.34375,-0.0312 -0.0625,-0.0312 -0.125,-0.10937 -0.0469,-0.0781 -0.0469,-0.17188 0,-0.14062 0.0937,-0.21875 0.10937,-0.0937 0.32812,-0.0937 h 1.6875 q 0.21875,0 0.3125,0.0937 0.0937,0.0781 0.0937,0.21875 0,0.14063 -0.0937,0.23438 -0.0937,0.0781 -0.3125,0.0781 h -0.73437 l 2.0625,2 2.09375,-2 h -0.73438 q -0.21875,0 -0.32812,-0.0781 -0.0937,-0.0937 -0.0937,-0.23438 0,-0.14062 0.0937,-0.21875 0.0937,-0.0937 0.32812,-0.0937 h 1.67188 q 0.21875,0 0.3125,0.0937 0.10937,0.0781 0.10937,0.21875 0,0.0937 -0.0625,0.17188 -0.0469,0.0781 -0.125,0.10937 -0.0625,0.0312 -0.32812,0.0312 z m 7.31397,-3.03125 h 3.34375 q 0.21875,0 0.3125,0.0937 0.0937,0.0781 0.0937,0.21875 0,0.14063 -0.0937,0.23438 -0.0937,0.0781 -0.3125,0.0781 h -3.34375 v 4.09375 q 0,0.53125 0.42187,0.89063 0.4375,0.35937 1.26563,0.35937 0.625,0 1.34375,-0.1875 0.73437,-0.1875 1.125,-0.42187 0.15625,-0.0937 0.25,-0.0937 0.10937,0 0.20312,0.0937 0.0937,0.0937 0.0937,0.21875 0,0.10937 -0.0937,0.20312 -0.23437,0.23438 -1.14062,0.51563 -0.90625,0.28125 -1.73438,0.28125 -1.07812,0 -1.71875,-0.5 -0.64062,-0.5 -0.64062,-1.35938 v -4.09375 h -1.125 q -0.21875,0 -0.32813,-0.0781 -0.0937,-0.0937 -0.0937,-0.23438 0,-0.14062 0.0937,-0.21875 0.10938,-0.0937 0.32813,-0.0937 h 1.125 v -1.8125 q 0,-0.21875 0.0937,-0.3125 0.0937,-0.0937 0.21875,-0.0937 0.14062,0 0.21875,0.0937 0.0937,0.0937 0.0937,0.3125 z m 22.62793,1.25 h -6.70313 q -0.21875,0 -0.32812,-0.0781 -0.0937,-0.0937 -0.0937,-0.23438 0,-0.125 0.0937,-0.21875 0.10937,-0.0937 0.32812,-0.0937 h 6.70313 q 0.21875,0 0.3125,0.0937 0.0937,0.0937 0.0937,0.23438 0,0.125 -0.0937,0.21875 -0.0937,0.0781 -0.3125,0.0781 z m 0,2.20313 h -6.70313 q -0.21875,0 -0.32812,-0.0781 -0.0937,-0.0781 -0.0937,-0.21875 0,-0.14062 0.0937,-0.21875 0.10937,-0.0937 0.32812,-0.0937 h 6.70313 q 0.21875,0 0.3125,0.0937 0.0937,0.0781 0.0937,0.21875 0,0.14063 -0.0937,0.21875 -0.0937,0.0781 -0.3125,0.0781 z"
     fill-rule="nonzero"
     id="path53" />
  <path
     fill="#000000"
     fill-opacity="0"
     d="m 181.88456,180.15223 c 51.38963,0 85.3777,-15.56693 102.77928,-31.13385 17.40155,-15.56693 18.21664,-31.13385 36.43332,-31.13385"
     fill-rule="evenodd"
     id="path55" />
  <path
     stroke="#000000"
     stroke-width="1"
     stroke-linejoin="round"
     stroke-linecap="butt"
     d="m 181.88456,180.15223 c 51.38963,0 85.3777,-15.56693 102.77928,-31.13385 8.70078,-7.78348 13.25494,-15.56693 17.91101,-21.40454 2.328,-2.91879 4.68149,-5.35111 7.59155,-7.05374 1.45502,-0.85132 3.04914,-1.52024 4.84882,-1.97629 0.44992,-0.11401 0.91269,-0.21472 1.38931,-0.30164 0.23831,-0.0435 0.48013,-0.0835 0.7255,-0.12002 0.12271,-0.0183 0.2463,-0.0357 0.37081,-0.0522 l 0.17527,-0.0218"
     fill-rule="evenodd"
     id="path57" />
  <path
     fill="#000000"
     stroke="#000000"
     stroke-width="1"
     stroke-linecap="butt"
     d="m 317.6761,118.08817 -1.05576,1.18942 3.01749,-1.30621 -3.15115,-0.93897 z"
     fill-rule="evenodd"
     id="path59" />
  <path
     fill="#000000"
     fill-opacity="0"
     d="m 389.2494,180.75065 c 51.98978,0 86.46771,-15.71652 103.97952,-31.43304 17.51184,-15.71656 18.05749,-31.43308 36.11499,-31.43308"
     fill-rule="evenodd"
     id="path61" />
  <path
     stroke="#000000"
     stroke-width="1"
     stroke-linejoin="round"
     stroke-linecap="butt"
     d="m 389.2494,180.75065 c 51.98978,0 86.46771,-15.71652 103.97952,-31.43304 8.75592,-7.85828 13.27026,-15.71656 17.85284,-21.61026 2.29132,-2.94684 4.59967,-5.40256 7.46375,-7.12156 1.43207,-0.85949 3.00305,-1.53482 4.78039,-1.99527 0.44428,-0.11511 0.90149,-0.21679 1.37262,-0.30456 0.2356,-0.0439 0.47467,-0.0843 0.71735,-0.12116 0.12134,-0.0184 0.24359,-0.036 0.36676,-0.0526 l 0.14063,-0.0179"
     fill-rule="evenodd"
     id="path63" />
  <path
     fill="#000000"
     stroke="#000000"
     stroke-width="1"
     stroke-linecap="butt"
     d="m 525.92324,118.0943 -1.05365,1.19131 3.01514,-1.31161 -3.15284,-0.93335 z"
     fill-rule="evenodd"
     id="path65" />
  <path
     fill="#000000"
     fill-opacity="0"
     d="m 597.2126,180.15223 c 51.98828,0 86.42926,-15.56693 103.97656,-31.13385 17.54724,-15.56693 18.20068,-31.13385 36.40137,-31.13385"
     fill-rule="evenodd"
     id="path67" />
  <path
     stroke="#000000"
     stroke-width="1"
     stroke-linejoin="round"
     stroke-linecap="butt"
     d="m 597.2126,180.15223 c 51.98828,0 86.42926,-15.56693 103.9765,-31.13385 8.77362,-7.78348 13.32385,-15.56693 17.95563,-21.40454 2.31598,-2.91879 4.65234,-5.35111 7.54724,-7.05374 1.44745,-0.85132 3.03454,-1.52024 4.82855,-1.97629 0.44855,-0.11401 0.90991,-0.21472 1.38538,-0.30164 0.23773,-0.0435 0.47894,-0.0835 0.72375,-0.12002 0.12238,-0.0183 0.24573,-0.0357 0.36994,-0.0522 l 0.16992,-0.0212"
     fill-rule="evenodd"
     id="path69" />
  <path
     fill="#000000"
     stroke="#000000"
     stroke-width="1"
     stroke-linecap="butt"
     d="m 734.1696,118.08878 -1.0556,1.18964 3.01727,-1.30677 -3.15131,-0.93841 z"
     fill-rule="evenodd"
     id="path71" />
  <path
     fill="#000000"
     fill-opacity="0"
     d="M 0,0 H 386.51968 V 42.01575 H 0 Z"
     fill-rule="evenodd"
     id="path73" />
  <path
     fill="#000000"
     d="m 15.093748,16.84188 v 9.29687 h 2.671875 q 0.28125,0 0.390625,0.10938 0.125,0.10937 0.125,0.28125 0,0.17187 -0.125,0.28125 Q 18.046873,26.92 17.765623,26.92 h -6.125 q -0.281248,0 -0.406248,-0.10937 Q 11.125,26.70125 11.125,26.52938 q 0,-0.17188 0.109375,-0.28125 0.125,-0.10938 0.406248,-0.10938 h 2.671875 v -9.29687 h -2.671875 q -0.281248,0 -0.406248,-0.0937 Q 11.125,16.6388 11.125,16.4513 q 0,-0.17187 0.109375,-0.28125 0.125,-0.10937 0.406248,-0.10937 h 6.125 q 0.28125,0 0.390625,0.10937 0.125,0.10938 0.125,0.28125 0,0.1875 -0.125,0.29688 -0.109375,0.0937 -0.390625,0.0937 z m 7.464355,2.04687 V 19.67 q 0.984375,-1.0625 1.984375,-1.0625 0.609375,0 1.0625,0.32813 0.453125,0.3125 0.765625,0.96875 0.515625,-0.65625 1.046875,-0.96875 0.53125,-0.32813 1.078125,-0.32813 0.84375,0 1.34375,0.54688 0.65625,0.70312 0.65625,1.54687 v 5.4375 h 0.65625 q 0.28125,0 0.390625,0.10938 0.125,0.10937 0.125,0.28125 0,0.17187 -0.125,0.28125 Q 31.433103,26.92 31.151853,26.92 h -1.4375 v -6.15625 q 0,-0.59375 -0.359375,-0.98437 -0.359375,-0.39063 -0.828125,-0.39063 -0.4375,0 -0.90625,0.32813 -0.46875,0.3125 -1.078125,1.25 v 5.17187 h 0.65625 q 0.265625,0 0.390625,0.10938 0.125,0.10937 0.125,0.28125 0,0.17187 -0.125,0.28125 -0.125,0.10937 -0.390625,0.10937 h -1.4375 v -6.09375 q 0,-0.625 -0.375,-1.03125 -0.359375,-0.40625 -0.8125,-0.40625 -0.421875,0 -0.828125,0.28125 -0.5625,0.375 -1.1875,1.29688 v 5.17187 h 0.65625 q 0.28125,0 0.390625,0.10938 0.125,0.10937 0.125,0.28125 0,0.17187 -0.125,0.28125 Q 23.495603,26.92 23.214353,26.92 h -2.09375 q -0.28125,0 -0.40625,-0.10937 -0.125,-0.10938 -0.125,-0.28125 0,-0.17188 0.125,-0.28125 0.125,-0.10938 0.40625,-0.10938 h 0.65625 V 19.67 h -0.65625 q -0.28125,0 -0.40625,-0.10937 -0.125,-0.10938 -0.125,-0.28125 0,-0.17188 0.125,-0.28125 0.125,-0.10938 0.40625,-0.10938 z m 11.401855,0 V 19.67 q 0.984375,-1.0625 1.984375,-1.0625 0.609375,0 1.0625,0.32813 0.453125,0.3125 0.765625,0.96875 0.515625,-0.65625 1.046875,-0.96875 0.53125,-0.32813 1.078125,-0.32813 0.84375,0 1.34375,0.54688 0.65625,0.70312 0.65625,1.54687 v 5.4375 h 0.65625 q 0.28125,0 0.390625,0.10938 0.125,0.10937 0.125,0.28125 0,0.17187 -0.125,0.28125 Q 42.834958,26.92 42.553708,26.92 h -1.4375 v -6.15625 q 0,-0.59375 -0.359375,-0.98437 -0.359375,-0.39063 -0.828125,-0.39063 -0.4375,0 -0.90625,0.32813 -0.46875,0.3125 -1.078125,1.25 v 5.17187 h 0.65625 q 0.265625,0 0.390625,0.10938 0.125,0.10937 0.125,0.28125 0,0.17187 -0.125,0.28125 -0.125,0.10937 -0.390625,0.10937 h -1.4375 v -6.09375 q 0,-0.625 -0.375,-1.03125 -0.359375,-0.40625 -0.8125,-0.40625 -0.421875,0 -0.828125,0.28125 -0.5625,0.375 -1.1875,1.29688 v 5.17187 h 0.65625 q 0.28125,0 0.390625,0.10938 0.125,0.10937 0.125,0.28125 0,0.17187 -0.125,0.28125 Q 34.897458,26.92 34.616208,26.92 h -2.09375 q -0.28125,0 -0.40625,-0.10937 -0.125,-0.10938 -0.125,-0.28125 0,-0.17188 0.125,-0.28125 0.125,-0.10938 0.40625,-0.10938 h 0.65625 V 19.67 h -0.65625 q -0.28125,0 -0.40625,-0.10937 -0.125,-0.10938 -0.125,-0.28125 0,-0.17188 0.125,-0.28125 0.125,-0.10938 0.40625,-0.10938 z M 51.580568,26.92 v -1.14062 q -1.609375,1.45312 -3.453125,1.45312 -1.140625,0 -1.734375,-0.625 -0.78125,-0.8125 -0.78125,-1.90625 V 19.67 h -1.046875 q -0.28125,0 -0.40625,-0.10937 -0.109375,-0.10938 -0.109375,-0.28125 0,-0.17188 0.109375,-0.28125 0.125,-0.10938 0.40625,-0.10938 h 1.828125 v 5.8125 q 0,0.76563 0.484375,1.26563 0.484375,0.48437 1.203125,0.48437 1.90625,0 3.5,-1.75 V 19.67 h -1.4375 q -0.28125,0 -0.40625,-0.10937 -0.125,-0.10938 -0.125,-0.28125 0,-0.17188 0.125,-0.28125 0.125,-0.10938 0.40625,-0.10938 h 2.203125 v 7.25 h 0.671875 q 0.265625,0 0.390625,0.10938 0.125,0.10937 0.125,0.28125 0,0.17187 -0.125,0.28125 -0.125,0.10937 -0.390625,0.10937 z m 7.120606,-8.03125 h 4.234375 q 0.28125,0 0.390625,0.10938 0.125,0.10937 0.125,0.28125 0,0.17187 -0.125,0.28125 Q 63.216799,19.67 62.935549,19.67 h -4.234375 v 5.1875 q 0,0.6875 0.546875,1.14063 0.546875,0.45312 1.59375,0.45312 0.78125,0 1.703125,-0.23437 0.921875,-0.25 1.4375,-0.54688 0.1875,-0.10937 0.296875,-0.10937 0.15625,0 0.265625,0.125 0.109375,0.10937 0.109375,0.26562 0,0.14063 -0.125,0.25 -0.296875,0.3125 -1.4375,0.67188 -1.140625,0.35937 -2.1875,0.35937 -1.375,0 -2.1875,-0.64062 -0.796875,-0.64063 -0.796875,-1.73438 V 19.67 h -1.4375 q -0.28125,0 -0.40625,-0.10937 -0.109375,-0.10938 -0.109375,-0.28125 0,-0.17188 0.109375,-0.28125 0.125,-0.10938 0.40625,-0.10938 h 1.4375 v -2.29687 q 0,-0.28125 0.109375,-0.40625 0.109375,-0.125 0.28125,-0.125 0.171875,0 0.28125,0.125 0.109375,0.125 0.109375,0.40625 z M 73.946779,26.92 v -1.125 q -1.6875,1.4375 -3.625,1.4375 -1.40625,0 -2.1875,-0.70312 -0.78125,-0.71875 -0.78125,-1.75 0,-1.14063 1.03125,-1.98438 1.046875,-0.84375 3.03125,-0.84375 0.546875,0 1.171875,0.0781 0.625,0.0625 1.359375,0.21875 v -1.2656 q 0,-0.64062 -0.59375,-1.10937 -0.59375,-0.48438 -1.78125,-0.48438 -0.90625,0 -2.546875,0.53125 -0.296875,0.0937 -0.375,0.0937 -0.15625,0 -0.265625,-0.10937 -0.109375,-0.10938 -0.109375,-0.28125 0,-0.15625 0.09375,-0.25 0.140625,-0.14063 1.0625,-0.375 1.4375,-0.39063 2.1875,-0.39063 1.46875,0 2.296875,0.73438 0.828125,0.71875 0.828125,1.64062 v 5.15625 h 1.03125 q 0.296875,0 0.40625,0.10938 0.125,0.10937 0.125,0.28125 0,0.17187 -0.125,0.28125 -0.109375,0.10937 -0.40625,0.10937 z m 0,-3.875 q -0.546875,-0.15625 -1.15625,-0.23437 -0.609375,-0.0781 -1.28125,-0.0781 -1.703125,0 -2.65625,0.73438 -0.734375,0.54687 -0.734375,1.3125 0,0.70312 0.546875,1.1875 0.5625,0.48437 1.625,0.48437 1,0 1.859375,-0.40625 0.875,-0.40625 1.796875,-1.28125 z m 6.229979,-7.76562 v 5.17187 q 1.40625,-1.84375 3.40625,-1.84375 1.70313,0 2.92188,1.25 1.21875,1.23438 1.21875,3.03125 0,1.8125 -1.23438,3.07813 -1.23437,1.26562 -2.90625,1.26562 -2.04687,0 -3.40625,-1.84375 V 26.92 h -1.828124 q -0.28125,0 -0.40625,-0.10937 -0.109375,-0.10938 -0.109375,-0.28125 0,-0.17188 0.109375,-0.28125 0.125,-0.10938 0.40625,-0.10938 h 1.046875 V 16.06063 h -1.046875 q -0.28125,0 -0.40625,-0.10938 -0.109375,-0.10937 -0.109375,-0.28125 0,-0.17187 0.109375,-0.28125 0.125,-0.10937 0.40625,-0.10937 z m 6.76563,7.64062 q 0,-1.46875 -1.01563,-2.5 -1.01562,-1.03125 -2.35937,-1.03125 -1.35938,0 -2.375,1.03125 -1,1.03125 -1,2.5 0,1.46875 1,2.5 1.01562,1.03125 2.375,1.03125 1.34375,0 2.35937,-1.03125 1.01563,-1.03125 1.01563,-2.5 z m 7.96435,-7.64062 v 10.85937 h 3.0625 q 0.28125,0 0.40625,0.10938 0.125,0.10937 0.125,0.28125 0,0.17187 -0.125,0.28125 -0.125,0.10937 -0.40625,0.10937 h -6.90625 q -0.28125,0 -0.40625,-0.10937 -0.10937,-0.10938 -0.10937,-0.28125 0,-0.17188 0.10937,-0.28125 0.125,-0.10938 0.40625,-0.10938 h 3.0625 V 16.06063 h -2.23437 q -0.28125,0 -0.40625,-0.10938 -0.125,-0.10937 -0.125,-0.28125 0,-0.17187 0.10937,-0.28125 0.125,-0.10937 0.42188,-0.10937 z m 15.229972,7.8125 h -7.95311 q 0.21875,1.51562 1.28125,2.4375 1.0625,0.92187 2.625,0.92187 0.875,0 1.82811,-0.28125 0.95313,-0.29687 1.5625,-0.76562 0.17188,-0.14063 0.29688,-0.14063 0.15625,0 0.26562,0.125 0.10938,0.10938 0.10938,0.26563 0,0.15625 -0.15625,0.29687 -0.4375,0.46875 -1.57813,0.875 -1.14061,0.40625 -2.32811,0.40625 -2,0 -3.34375,-1.3125 -1.34375,-1.3125 -1.34375,-3.1875 0,-1.6875 1.25,-2.90625 1.26562,-1.21875 3.125,-1.21875 1.90624,0 3.14061,1.25 1.23438,1.25 1.21875,3.23438 z M 109.33984,22.295 q -0.23438,-1.28125 -1.21875,-2.09375 -0.98437,-0.8125 -2.34374,-0.8125 -1.375,0 -2.35938,0.8125 -0.96875,0.79688 -1.21875,2.09375 z m 6.62061,-5.45312 v 9.29687 h 5.1875 V 23.045 q 0,-0.28125 0.10937,-0.39062 0.10938,-0.125 0.28125,-0.125 0.17188,0 0.28125,0.10937 0.10938,0.10938 0.10938,0.40625 v 3.875 h -8.60938 q -0.28125,0 -0.40625,-0.10937 -0.10937,-0.10938 -0.10937,-0.28125 0,-0.17188 0.10937,-0.28125 0.125,-0.10938 0.40625,-0.10938 h 1.85938 v -9.29687 h -1.85938 q -0.28125,0 -0.40625,-0.0937 -0.10937,-0.10938 -0.10937,-0.29688 0,-0.17187 0.10937,-0.28125 0.125,-0.10937 0.40625,-0.10937 h 4.5 q 0.28125,0 0.39063,0.10937 0.125,0.10938 0.125,0.28125 0,0.1875 -0.125,0.29688 -0.10938,0.0937 -0.39063,0.0937 z m 13.15185,-1.95313 v 2.01563 h -1.15625 v -2.01563 z m 0.0156,4 v 7.25 h 3.0625 q 0.29687,0 0.40625,0.10938 0.125,0.10937 0.125,0.28125 0,0.17187 -0.125,0.28125 Q 132.48727,26.92 132.1904,26.92 h -6.90625 q -0.26563,0 -0.39063,-0.10937 -0.125,-0.10938 -0.125,-0.28125 0,-0.17188 0.125,-0.28125 0.125,-0.10938 0.39063,-0.10938 h 3.0625 V 19.67 h -2.26563 q -0.28125,0 -0.40625,-0.10937 -0.125,-0.10938 -0.125,-0.28125 0,-0.17188 0.125,-0.28125 0.125,-0.10938 0.40625,-0.10938 z m 13.57373,0.5 q 0,-0.26562 0.10937,-0.375 0.10938,-0.125 0.28125,-0.125 0.17188,0 0.28125,0.125 0.10938,0.10938 0.10938,0.40625 v 1.32813 q 0,0.28125 -0.10938,0.40625 -0.10937,0.10937 -0.28125,0.10937 -0.17187,0 -0.28125,-0.0937 -0.0937,-0.10937 -0.10937,-0.34375 -0.0625,-0.54687 -0.57813,-0.90625 -0.76562,-0.53125 -2.01562,-0.53125 -1.3125,0 -2.03125,0.53125 -0.54688,0.40625 -0.54688,0.89063 0,0.5625 0.64063,0.9375 0.45312,0.25 1.70312,0.39062 1.60938,0.17188 2.25,0.40625 0.89063,0.32813 1.32813,0.90625 0.45312,0.5625 0.45312,1.23438 0,0.98437 -0.95312,1.76562 -0.95313,0.78125 -2.8125,0.78125 -1.84375,0 -3.01563,-0.9375 0,0.3125 -0.0469,0.40625 -0.0312,0.0937 -0.125,0.15625 -0.0937,0.0625 -0.21875,0.0625 -0.17188,0 -0.28125,-0.10937 -0.10938,-0.125 -0.10938,-0.40625 v -1.60938 q 0,-0.28125 0.10938,-0.39062 0.10937,-0.125 0.28125,-0.125 0.17187,0 0.28125,0.125 0.10937,0.10937 0.10937,0.29687 0,0.42188 0.21875,0.71875 0.32813,0.4375 1.03125,0.73438 0.71875,0.29687 1.75,0.29687 1.51563,0 2.25,-0.5625 0.75,-0.57812 0.75,-1.20312 0,-0.71875 -0.75,-1.15625 -0.76562,-0.4375 -2.21875,-0.57813 -1.45312,-0.15625 -2.07812,-0.39062 -0.625,-0.25 -0.98438,-0.73438 -0.35937,-0.48437 -0.35937,-1.03125 0,-1.01562 0.98437,-1.59375 0.98438,-0.59375 2.35938,-0.59375 1.60937,0 2.625,0.78125 z m 7.21435,-0.5 h 4.23438 q 0.28125,0 0.39062,0.10938 0.125,0.10937 0.125,0.28125 0,0.17187 -0.125,0.28125 -0.10937,0.10937 -0.39062,0.10937 h -4.23438 v 5.1875 q 0,0.6875 0.54688,1.14063 0.54687,0.45312 1.59375,0.45312 0.78125,0 1.70312,-0.23437 0.92188,-0.25 1.4375,-0.54688 0.1875,-0.10937 0.29688,-0.10937 0.15625,0 0.26562,0.125 0.10938,0.10937 0.10938,0.26562 0,0.14063 -0.125,0.25 -0.29688,0.3125 -1.4375,0.67188 -1.14063,0.35937 -2.1875,0.35937 -1.375,0 -2.1875,-0.64062 -0.79688,-0.64063 -0.79688,-1.73438 V 19.67 h -1.4375 q -0.28125,0 -0.40625,-0.10937 -0.10937,-0.10938 -0.10937,-0.28125 0,-0.17188 0.10937,-0.28125 0.125,-0.10938 0.40625,-0.10938 h 1.4375 v -2.29687 q 0,-0.28125 0.10938,-0.40625 0.10937,-0.125 0.28125,-0.125 0.17187,0 0.28125,0.125 0.10937,0.125 0.10937,0.40625 z m 8.21436,2.625 8.42187,-4.70312 q 0.20313,-0.10938 0.3125,-0.10938 0.15625,0 0.26563,0.125 0.125,0.10938 0.125,0.26563 0,0.23437 -0.3125,0.40625 l -7.21875,4.01562 7.20312,4 q 0.3125,0.1875 0.3125,0.40625 0,0.17188 -0.125,0.28125 -0.10937,0.10938 -0.26562,0.10938 -0.0937,0 -0.29688,-0.10938 z m 16.58935,-4.67187 v 9.29687 h 2.67188 q 0.28125,0 0.39062,0.10938 0.125,0.10937 0.125,0.28125 0,0.17187 -0.125,0.28125 -0.10937,0.10937 -0.39062,0.10937 h -6.125 q -0.28125,0 -0.40625,-0.10937 -0.10938,-0.10938 -0.10938,-0.28125 0,-0.17188 0.10938,-0.28125 0.125,-0.10938 0.40625,-0.10938 h 2.67187 v -9.29687 h -2.67187 q -0.28125,0 -0.40625,-0.0937 -0.10938,-0.10938 -0.10938,-0.29688 0,-0.17187 0.10938,-0.28125 0.125,-0.10937 0.40625,-0.10937 h 6.125 q 0.28125,0 0.39062,0.10937 0.125,0.10938 0.125,0.28125 0,0.1875 -0.125,0.29688 -0.10937,0.0937 -0.39062,0.0937 z m 8.49561,2.04687 v 1.17188 q 0.8125,-0.82813 1.46875,-1.14063 0.65625,-0.3125 1.48437,-0.3125 0.89063,0 1.625,0.375 0.51563,0.28125 0.9375,0.9375 0.42188,0.64063 0.42188,1.3125 v 4.90625 h 0.65625 q 0.28125,0 0.40625,0.10938 0.125,0.10937 0.125,0.28125 0,0.17187 -0.125,0.28125 -0.125,0.10937 -0.40625,0.10937 h -2.07813 q -0.29687,0 -0.42187,-0.10937 -0.10938,-0.10938 -0.10938,-0.28125 0,-0.17188 0.10938,-0.28125 0.125,-0.10938 0.42187,-0.10938 h 0.64063 V 21.3575 q 0,-0.82812 -0.60938,-1.39062 -0.59375,-0.57813 -1.60937,-0.57813 -0.76563,0 -1.32813,0.3125 -0.5625,0.3125 -1.60937,1.54688 v 4.89062 h 0.875 q 0.28125,0 0.39062,0.10938 0.125,0.10937 0.125,0.28125 0,0.17187 -0.125,0.28125 Q 184.37155,26.92 184.0903,26.92 h -2.54688 q -0.26562,0 -0.39062,-0.10937 -0.125,-0.10938 -0.125,-0.28125 0,-0.17188 0.125,-0.28125 0.125,-0.10938 0.39062,-0.10938 h 0.89063 V 19.67 h -0.65625 q -0.28125,0 -0.40625,-0.10937 -0.125,-0.10938 -0.125,-0.28125 0,-0.17188 0.125,-0.28125 0.125,-0.10938 0.40625,-0.10938 z m 12.3081,0 h 4.23438 q 0.28125,0 0.39062,0.10938 0.125,0.10937 0.125,0.28125 0,0.17187 -0.125,0.28125 -0.10937,0.10937 -0.39062,0.10937 h -4.23438 v 5.1875 q 0,0.6875 0.54688,1.14063 0.54687,0.45312 1.59375,0.45312 0.78125,0 1.70312,-0.23437 0.92188,-0.25 1.4375,-0.54688 0.1875,-0.10937 0.29688,-0.10937 0.15625,0 0.26562,0.125 0.10938,0.10937 0.10938,0.26562 0,0.14063 -0.125,0.25 -0.29688,0.3125 -1.4375,0.67188 -1.14063,0.35937 -2.1875,0.35937 -1.375,0 -2.1875,-0.64062 -0.79688,-0.64063 -0.79688,-1.73438 V 19.67 h -1.4375 q -0.28125,0 -0.40625,-0.10937 -0.10937,-0.10938 -0.10937,-0.28125 0,-0.17188 0.10937,-0.28125 0.125,-0.10938 0.40625,-0.10938 h 1.4375 v -2.29687 q 0,-0.28125 0.10938,-0.40625 0.10937,-0.125 0.28125,-0.125 0.17187,0 0.28125,0.125 0.10937,0.125 0.10937,0.40625 z m 17.22998,4.20313 h -7.95312 q 0.21875,1.51562 1.28125,2.4375 1.0625,0.92187 2.625,0.92187 0.875,0 1.82812,-0.28125 0.95313,-0.29687 1.5625,-0.76562 0.17188,-0.14063 0.29688,-0.14063 0.15625,0 0.26562,0.125 0.10938,0.10938 0.10938,0.26563 0,0.15625 -0.15625,0.29687 -0.4375,0.46875 -1.57813,0.875 -1.14062,0.40625 -2.32812,0.40625 -2,0 -3.34375,-1.3125 -1.34375,-1.3125 -1.34375,-3.1875 0,-1.6875 1.25,-2.90625 1.26562,-1.21875 3.125,-1.21875 1.90625,0 3.14062,1.25 1.23438,1.25 1.21875,3.23438 z M 211.95651,22.295 q -0.23438,-1.28125 -1.21875,-2.09375 -0.98438,-0.8125 -2.34375,-0.8125 -1.375,0 -2.35938,0.8125 -0.96875,0.79688 -1.21875,2.09375 z m 10.60498,-1.98437 v -1.42188 h 1.82812 q 0.26563,0 0.39063,0.10938 0.125,0.10937 0.125,0.28125 0,0.17187 -0.125,0.28125 -0.125,0.10937 -0.39063,0.10937 h -1.0625 v 7.78125 q 0,0.78125 -0.32812,1.40625 -0.21875,0.40625 -0.75,0.82813 -0.51563,0.4375 -0.9375,0.625 -0.42188,0.1875 -1.14063,0.1875 h -2.20312 q -0.28125,0 -0.40625,-0.10938 -0.125,-0.0937 -0.125,-0.28125 0,-0.17187 0.125,-0.28125 0.125,-0.10937 0.40625,-0.10937 h 2.23437 q 0.6875,0 1.23438,-0.35938 0.54687,-0.34375 0.92187,-1.01562 0.20313,-0.39063 0.20313,-1 v -2.32813 q -1.26563,1.71875 -3.23438,1.71875 -1.60937,0 -2.78125,-1.1875 -1.15625,-1.20312 -1.15625,-2.89062 0,-1.67188 1.15625,-2.85938 1.17188,-1.1875 2.78125,-1.1875 1.96875,0 3.23438,1.70313 z m 0,2.34375 q 0,-1.35938 -0.95313,-2.3125 -0.9375,-0.95313 -2.25,-0.95313 -1.29687,0 -2.23437,0.95313 -0.9375,0.95312 -0.9375,2.3125 0,1.375 0.9375,2.32812 0.9375,0.95313 2.23437,0.95313 1.3125,0 2.25,-0.95313 0.95313,-0.95312 0.95313,-2.32812 z m 12.9956,0.4375 h -7.95312 q 0.21875,1.51562 1.28125,2.4375 1.0625,0.92187 2.625,0.92187 0.875,0 1.82812,-0.28125 0.95313,-0.29687 1.5625,-0.76562 0.17188,-0.14063 0.29688,-0.14063 0.15625,0 0.26562,0.125 0.10938,0.10938 0.10938,0.26563 0,0.15625 -0.15625,0.29687 -0.4375,0.46875 -1.57813,0.875 -1.14062,0.40625 -2.32812,0.40625 -2,0 -3.34375,-1.3125 -1.34375,-1.3125 -1.34375,-3.1875 0,-1.6875 1.25,-2.90625 1.26562,-1.21875 3.125,-1.21875 1.90625,0 3.14062,1.25 1.23438,1.25 1.21875,3.23438 z M 234.76022,22.295 q -0.23438,-1.28125 -1.21875,-2.09375 -0.98438,-0.8125 -2.34375,-0.8125 -1.375,0 -2.35938,0.8125 -0.96875,0.79688 -1.21875,2.09375 z m 7.04248,-3.40625 v 1.96875 q 1.53125,-1.375 2.28125,-1.76562 0.75,-0.40625 1.39062,-0.40625 0.70313,0 1.29688,0.46875 0.59375,0.46875 0.59375,0.71875 0,0.17187 -0.10938,0.29687 -0.10937,0.10938 -0.29687,0.10938 -0.0937,0 -0.15625,-0.0312 -0.0625,-0.0312 -0.23438,-0.21875 -0.32812,-0.3125 -0.57812,-0.4375 -0.23438,-0.125 -0.46875,-0.125 -0.5,0 -1.21875,0.40625 -0.71875,0.40625 -2.5,2 v 4.26562 h 3.45312 q 0.28125,0 0.40625,0.10938 0.125,0.10937 0.125,0.28125 0,0.17187 -0.125,0.28125 -0.125,0.10937 -0.40625,0.10937 h -6.10937 q -0.28125,0 -0.40625,-0.10937 -0.10938,-0.10938 -0.10938,-0.26563 0,-0.15625 0.10938,-0.26562 0.10937,-0.10938 0.40625,-0.10938 h 1.875 v -6.5 h -1.4375 q -0.28125,0 -0.40625,-0.10937 -0.10938,-0.10938 -0.10938,-0.28125 0,-0.17188 0.10938,-0.28125 0.125,-0.10938 0.40625,-0.10938 z m 17.13623,2.625 -8.4375,4.6875 q -0.20313,0.10938 -0.29688,0.10938 -0.15625,0 -0.28125,-0.10938 -0.10937,-0.10937 -0.10937,-0.28125 0,-0.21875 0.3125,-0.40625 l 7.21875,-4 -7.20313,-4.01562 q -0.32812,-0.17188 -0.32812,-0.40625 0,-0.15625 0.10937,-0.26563 0.125,-0.125 0.28125,-0.125 0.10938,0 0.3125,0.10938 z m 14.45996,-2.625 V 19.67 q 0.98437,-1.0625 1.98437,-1.0625 0.60938,0 1.0625,0.32813 0.45313,0.3125 0.76563,0.96875 0.51562,-0.65625 1.04687,-0.96875 0.53125,-0.32813 1.07813,-0.32813 0.84375,0 1.34375,0.54688 0.65625,0.70312 0.65625,1.54687 v 5.4375 h 0.65625 q 0.28125,0 0.39062,0.10938 0.125,0.10937 0.125,0.28125 0,0.17187 -0.125,0.28125 -0.10937,0.10937 -0.39062,0.10937 h -1.4375 v -6.15625 q 0,-0.59375 -0.35938,-0.98437 -0.35937,-0.39063 -0.82812,-0.39063 -0.4375,0 -0.90625,0.32813 -0.46875,0.3125 -1.07813,1.25 v 5.17187 h 0.65625 q 0.26563,0 0.39063,0.10938 0.125,0.10937 0.125,0.28125 0,0.17187 -0.125,0.28125 -0.125,0.10937 -0.39063,0.10937 h -1.4375 v -6.09375 q 0,-0.625 -0.375,-1.03125 -0.35937,-0.40625 -0.8125,-0.40625 -0.42187,0 -0.82812,0.28125 -0.5625,0.375 -1.1875,1.29688 v 5.17187 h 0.65625 q 0.28125,0 0.39062,0.10938 0.125,0.10937 0.125,0.28125 0,0.17187 -0.125,0.28125 -0.10937,0.10937 -0.39062,0.10937 h -2.09375 q -0.28125,0 -0.40625,-0.10937 -0.125,-0.10938 -0.125,-0.28125 0,-0.17188 0.125,-0.28125 0.125,-0.10938 0.40625,-0.10938 h 0.65625 V 19.67 h -0.65625 q -0.28125,0 -0.40625,-0.10937 -0.125,-0.10938 -0.125,-0.28125 0,-0.17188 0.125,-0.28125 0.125,-0.10938 0.40625,-0.10938 z m 14.9956,8.03125 -3.60937,-7.25 h -0.23438 q -0.28125,0 -0.40625,-0.10937 -0.125,-0.10938 -0.125,-0.28125 0,-0.10938 0.0625,-0.20313 0.0625,-0.10937 0.15625,-0.14062 0.10938,-0.0469 0.3125,-0.0469 h 2.125 q 0.28125,0 0.40625,0.10938 0.125,0.10937 0.125,0.28125 0,0.17187 -0.125,0.28125 -0.125,0.10937 -0.40625,0.10937 h -1.04687 l 3.1875,6.39063 3.14062,-6.39063 h -1.0625 q -0.26562,0 -0.39062,-0.10937 -0.125,-0.10938 -0.125,-0.28125 0,-0.17188 0.125,-0.28125 0.125,-0.10938 0.39062,-0.10938 h 2.125 q 0.29688,0 0.40625,0.10938 0.125,0.10937 0.125,0.28125 0,0.125 -0.0781,0.23437 -0.0625,0.0937 -0.15625,0.125 -0.0937,0.0312 -0.51563,0.0312 l -4.9375,10.04688 h 1.20313 q 0.28125,0 0.40625,0.10937 0.125,0.10938 0.125,0.28125 0,0.17188 -0.125,0.28125 -0.125,0.10938 -0.40625,0.10938 h -4.48438 q -0.28125,0 -0.40625,-0.10938 -0.10937,-0.0937 -0.10937,-0.28125 0,-0.17187 0.10937,-0.28125 0.125,-0.10937 0.40625,-0.10937 h 2.4375 z m 9.99561,-10.07812 v 9.29687 h 5.1875 V 23.045 q 0,-0.28125 0.10937,-0.39062 0.10938,-0.125 0.28125,-0.125 0.17188,0 0.28125,0.10937 0.10938,0.10938 0.10938,0.40625 v 3.875 h -8.60938 q -0.28125,0 -0.40625,-0.10937 -0.10937,-0.10938 -0.10937,-0.28125 0,-0.17188 0.10937,-0.28125 0.125,-0.10938 0.40625,-0.10938 h 1.85938 v -9.29687 h -1.85938 q -0.28125,0 -0.40625,-0.0937 -0.10937,-0.10938 -0.10937,-0.29688 0,-0.17187 0.10937,-0.28125 0.125,-0.10937 0.40625,-0.10937 h 4.5 q 0.28125,0 0.39063,0.10937 0.125,0.10938 0.125,0.28125 0,0.1875 -0.125,0.29688 -0.10938,0.0937 -0.39063,0.0937 z m 13.15185,-1.95313 v 2.01563 h -1.15625 v -2.01563 z m 0.0156,4 v 7.25 h 3.0625 q 0.29687,0 0.40625,0.10938 0.125,0.10937 0.125,0.28125 0,0.17187 -0.125,0.28125 -0.10938,0.10937 -0.40625,0.10937 h -6.90625 q -0.26563,0 -0.39063,-0.10937 -0.125,-0.10938 -0.125,-0.28125 0,-0.17188 0.125,-0.28125 0.125,-0.10938 0.39063,-0.10938 h 3.0625 V 19.67 h -2.26563 q -0.28125,0 -0.40625,-0.10937 -0.125,-0.10938 -0.125,-0.28125 0,-0.17188 0.125,-0.28125 0.125,-0.10938 0.40625,-0.10938 z m 13.57373,0.5 q 0,-0.26562 0.10937,-0.375 0.10938,-0.125 0.28125,-0.125 0.17188,0 0.28125,0.125 0.10938,0.10938 0.10938,0.40625 v 1.32813 q 0,0.28125 -0.10938,0.40625 -0.10937,0.10937 -0.28125,0.10937 -0.17187,0 -0.28125,-0.0937 -0.0937,-0.10937 -0.10937,-0.34375 -0.0625,-0.54687 -0.57813,-0.90625 -0.76562,-0.53125 -2.01562,-0.53125 -1.3125,0 -2.03125,0.53125 -0.54688,0.40625 -0.54688,0.89063 0,0.5625 0.64063,0.9375 0.45312,0.25 1.70312,0.39062 1.60938,0.17188 2.25,0.40625 0.89063,0.32813 1.32813,0.90625 0.45312,0.5625 0.45312,1.23438 0,0.98437 -0.95312,1.76562 -0.95313,0.78125 -2.8125,0.78125 -1.84375,0 -3.01563,-0.9375 0,0.3125 -0.0469,0.40625 -0.0312,0.0937 -0.125,0.15625 -0.0937,0.0625 -0.21875,0.0625 -0.17188,0 -0.28125,-0.10937 -0.10938,-0.125 -0.10938,-0.40625 v -1.60938 q 0,-0.28125 0.10938,-0.39062 0.10937,-0.125 0.28125,-0.125 0.17187,0 0.28125,0.125 0.10937,0.10937 0.10937,0.29687 0,0.42188 0.21875,0.71875 0.32813,0.4375 1.03125,0.73438 0.71875,0.29687 1.75,0.29687 1.51563,0 2.25,-0.5625 0.75,-0.57812 0.75,-1.20312 0,-0.71875 -0.75,-1.15625 -0.76562,-0.4375 -2.21875,-0.57813 -1.45312,-0.15625 -2.07812,-0.39062 -0.625,-0.25 -0.98438,-0.73438 -0.35937,-0.48437 -0.35937,-1.03125 0,-1.01562 0.98437,-1.59375 0.98438,-0.59375 2.35938,-0.59375 1.60937,0 2.625,0.78125 z m 7.21435,-0.5 h 4.23438 q 0.28125,0 0.39062,0.10938 0.125,0.10937 0.125,0.28125 0,0.17187 -0.125,0.28125 -0.10937,0.10937 -0.39062,0.10937 h -4.23438 v 5.1875 q 0,0.6875 0.54688,1.14063 0.54687,0.45312 1.59375,0.45312 0.78125,0 1.70312,-0.23437 0.92188,-0.25 1.4375,-0.54688 0.1875,-0.10937 0.29688,-0.10937 0.15625,0 0.26562,0.125 0.10938,0.10937 0.10938,0.26562 0,0.14063 -0.125,0.25 -0.29688,0.3125 -1.4375,0.67188 -1.14063,0.35937 -2.1875,0.35937 -1.375,0 -2.1875,-0.64062 -0.79688,-0.64063 -0.79688,-1.73438 V 19.67 h -1.4375 q -0.28125,0 -0.40625,-0.10937 -0.10937,-0.10938 -0.10937,-0.28125 0,-0.17188 0.10937,-0.28125 0.125,-0.10938 0.40625,-0.10938 h 1.4375 v -2.29687 q 0,-0.28125 0.10938,-0.40625 0.10937,-0.125 0.28125,-0.125 0.17187,0 0.28125,0.125 0.10937,0.125 0.10937,0.40625 z m 12.83936,0 h 0.34375 q 0.51562,0 0.875,0.375 0.375,0.35938 0.375,0.875 0,0.54688 -0.375,0.90625 -0.35938,0.35938 -0.875,0.35938 h -0.34375 q -0.51563,0 -0.89063,-0.35938 -0.35937,-0.375 -0.35937,-0.89062 0,-0.54688 0.375,-0.90625 0.375,-0.35938 0.875,-0.35938 z m -1.35938,5.23438 h 2.45313 l -2.625,4.29687 q -0.20313,0.3125 -0.3125,0.39063 -0.10938,0.0937 -0.26563,0.0937 -0.23437,0 -0.39062,-0.14063 -0.14063,-0.14062 -0.14063,-0.32812 0,-0.10938 0.0625,-0.29688 z"
     fill-rule="nonzero"
     id="path75" />
  <path
     fill="#000000"
     fill-opacity="0"
     d="M 193.25984,42.01575 V 91.27559"
     fill-rule="evenodd"
     id="path77" />
  <path
     stroke="#000000"
     stroke-width="1"
     stroke-linejoin="round"
     stroke-linecap="butt"
     d="M 193.25984,42.01575 V 85.27559"
     fill-rule="evenodd"
     id="path79" />
  <path
     fill="#000000"
     stroke="#000000"
     stroke-width="1"
     stroke-linecap="butt"
     d="m 191.6081,85.2756 1.65173,4.5381 1.65174,-4.5381 z"
     fill-rule="evenodd"
     id="path81" />
</svg>
