<?xml version="1.0" encoding="UTF-8" standalone="no"?>
<svg
   version="1.1"
   viewBox="0 0 441.39633 234.6693"
   fill="none"
   stroke="none"
   stroke-linecap="square"
   stroke-miterlimit="10"
   id="svg47"
   sodipodi:docname="immutable-list-1.svg"
   width="441.39633"
   height="234.6693"
   inkscape:version="1.1.2 (0a00cf5339, 2022-02-04)"
   xmlns:inkscape="http://www.inkscape.org/namespaces/inkscape"
   xmlns:sodipodi="http://sodipodi.sourceforge.net/DTD/sodipodi-0.dtd"
   xmlns="http://www.w3.org/2000/svg"
   xmlns:svg="http://www.w3.org/2000/svg">
  <defs
     id="defs51" />
  <sodipodi:namedview
     id="namedview49"
     pagecolor="#ffffff"
     bordercolor="#666666"
     borderopacity="1.0"
     inkscape:pageshadow="2"
     inkscape:pageopacity="0.0"
     inkscape:pagecheckerboard="0"
     showgrid="false"
     fit-margin-top="0"
     fit-margin-left="0"
     fit-margin-right="0"
     fit-margin-bottom="0"
     inkscape:zoom="1.2125"
     inkscape:cx="295.6701"
     inkscape:cy="240"
     inkscape:window-width="2490"
     inkscape:window-height="1403"
     inkscape:window-x="70"
     inkscape:window-y="0"
     inkscape:window-maximized="1"
     inkscape:current-layer="svg47" />
  <clipPath
     id="p.0">
    <path
       d="M 0,0 H 960 V 720 H 0 Z"
       clip-rule="nonzero"
       id="path2" />
  </clipPath>
  <path
     fill="#000000"
     fill-opacity="0"
     d="m -183.88321,-119.479 h 960 v 720 h -960 z"
     fill-rule="evenodd"
     id="path5" />
  <path
     fill="#cfe2f3"
     d="M 0.51837,127.7756 H 224.2034 v 53.19685 H 0.51837 Z"
     fill-rule="evenodd"
     id="path7" />
  <path
     stroke="#000000"
     stroke-width="1"
     stroke-linejoin="round"
     stroke-linecap="butt"
     d="M 0.51837,127.7756 H 224.2034 v 53.19685 H 0.51837 Z"
     fill-rule="evenodd"
     id="path9" />
  <path
     fill="#000000"
     d="m 84.96045,156.6065 1.76562,0.45313 q -0.5625,2.17187 -2,3.32812 -1.4375,1.14063 -3.53125,1.14063 -2.15625,0 -3.51562,-0.875 -1.34375,-0.89063 -2.0625,-2.54688 -0.70313,-1.67187 -0.70313,-3.59375 0,-2.07812 0.79688,-3.625 0.79687,-1.5625 2.26562,-2.35937 1.48438,-0.8125 3.25,-0.8125 2,0 3.35938,1.01562 1.375,1.01563 1.90625,2.875 l -1.73438,0.40625 q -0.46875,-1.45312 -1.35937,-2.10937 -0.875,-0.67188 -2.20313,-0.67188 -1.54687,0 -2.57812,0.73438 -1.03125,0.73437 -1.45313,1.98437 -0.42187,1.23438 -0.42187,2.5625 0,1.70313 0.5,2.96875 0.5,1.26563 1.54687,1.90625 1.04688,0.625 2.26563,0.625 1.48437,0 2.51562,-0.85937 1.03125,-0.85938 1.39063,-2.54688 z m 3.12918,-0.15625 q 0,-2.6875 1.48438,-3.96875 1.25,-1.07812 3.04687,-1.07812 2,0 3.26563,1.3125 1.26562,1.29687 1.26562,3.60937 0,1.85938 -0.5625,2.9375 -0.5625,1.0625 -1.64062,1.65625 -1.0625,0.59375 -2.32813,0.59375 -2.03125,0 -3.28125,-1.29687 -1.25,-1.3125 -1.25,-3.76563 z m 1.6875,0 q 0,1.85938 0.79688,2.79688 0.8125,0.92187 2.04687,0.92187 1.21875,0 2.03125,-0.92187 0.8125,-0.9375 0.8125,-2.84375 0,-1.79688 -0.8125,-2.71875 -0.8125,-0.92188 -2.03125,-0.92188 -1.23437,0 -2.04687,0.92188 -0.79688,0.90625 -0.79688,2.76562 z m 9.29761,4.84375 v -9.67187 h 1.46875 v 1.375 q 1.0625,-1.59375 3.07812,-1.59375 0.875,0 1.60938,0.3125 0.73437,0.3125 1.09375,0.82812 0.375,0.5 0.51562,1.20313 0.0937,0.45312 0.0937,1.59375 v 5.95312 h -1.64062 v -5.89062 q 0,-1 -0.20313,-1.48438 -0.1875,-0.5 -0.67187,-0.79687 -0.48438,-0.29688 -1.14063,-0.29688 -1.04687,0 -1.8125,0.67188 -0.75,0.65625 -0.75,2.51562 v 5.28125 z m 9.71945,-2.89062 1.625,-0.25 q 0.125,0.96875 0.75,1.5 0.625,0.51562 1.75,0.51562 1.125,0 1.67187,-0.45312 0.54688,-0.46875 0.54688,-1.09375 0,-0.54688 -0.48438,-0.875 -0.32812,-0.21875 -1.67187,-0.54688 -1.8125,-0.46875 -2.51563,-0.79687 -0.6875,-0.32813 -1.04687,-0.90625 -0.35938,-0.59375 -0.35938,-1.3125 0,-0.64063 0.29688,-1.1875 0.29687,-0.5625 0.8125,-0.92188 0.375,-0.28125 1.03125,-0.46875 0.67187,-0.20312 1.42187,-0.20312 1.14063,0 2,0.32812 0.85938,0.32813 1.26563,0.89063 0.42187,0.5625 0.57812,1.5 l -1.60937,0.21875 q -0.10938,-0.75 -0.64063,-1.17188 -0.51562,-0.42187 -1.46875,-0.42187 -1.14062,0 -1.625,0.375 -0.46875,0.375 -0.46875,0.875 0,0.3125 0.1875,0.57812 0.20313,0.26563 0.64063,0.4375 0.23437,0.0937 1.4375,0.42188 1.75,0.45312 2.4375,0.75 0.6875,0.29687 1.07812,0.85937 0.39063,0.5625 0.39063,1.40625 0,0.82813 -0.48438,1.54688 -0.46875,0.71875 -1.375,1.125 -0.90625,0.39062 -2.04687,0.39062 -1.875,0 -2.875,-0.78125 -0.98438,-0.78125 -1.25,-2.32812 z m 9.76562,-2.95313 V 153.919 l 8.84375,-3.73437 v 1.64062 l -7.01562,2.875 7.01562,2.90625 v 1.625 z m 14.72309,5.84375 v -11.78125 h -4.40625 v -1.57812 h 10.57812 v 1.57812 h -4.40625 V 161.294 Z m 16.41162,-5.84375 -8.84375,3.78125 v -1.625 l 7.01562,-2.90625 -7.01562,-2.875 v -1.64062 l 8.84375,3.73437 z"
     fill-rule="nonzero"
     id="path11" />
  <path
     fill="#cfe2f3"
     d="m 289.14829,127.7756 h 151.74805 v 53.19685 H 289.14829 Z"
     fill-rule="evenodd"
     id="path13" />
  <path
     stroke="#000000"
     stroke-width="1"
     stroke-linejoin="round"
     stroke-linecap="butt"
     d="m 289.14829,127.7756 h 151.74805 v 53.19685 H 289.14829 Z"
     fill-rule="evenodd"
     id="path15" />
  <path
     fill="#000000"
     d="m 338.96994,161.294 v -13.35937 h 1.8125 l 7.01563,10.48437 v -10.48437 h 1.6875 V 161.294 h -1.8125 l -7.01563,-10.5 v 10.5 z m 13.28546,-11.46875 v -1.89062 h 1.64063 v 1.89062 z m 0,11.46875 v -9.67187 h 1.64063 v 9.67187 z m 4.0979,0 v -13.35937 h 1.64063 V 161.294 Z m 3.97296,-5.84375 V 153.919 l 8.84375,-3.73437 v 1.64062 l -7.01562,2.875 7.01562,2.90625 v 1.625 z m 14.72309,5.84375 v -11.78125 h -4.40625 v -1.57812 h 10.57812 v 1.57812 h -4.40625 V 161.294 Z m 16.41162,-5.84375 -8.84375,3.78125 v -1.625 l 7.01562,-2.90625 -7.01562,-2.875 v -1.64062 l 8.84375,3.73437 z"
     fill-rule="nonzero"
     id="path17" />
  <path
     fill="#cfe2f3"
     d="m 132.89109,0.5 h 188 v 53.19686 h -188 z"
     fill-rule="evenodd"
     id="path19" />
  <path
     stroke="#000000"
     stroke-width="1"
     stroke-linejoin="round"
     stroke-linecap="butt"
     d="m 132.89109,0.5 h 188 v 53.19686 h -188 z"
     fill-rule="evenodd"
     id="path21" />
  <path
     fill="#000000"
     d="M 153.96857,34.01842 V 20.65904 h 1.76563 v 13.35938 z m 4.68329,0 v -9.67188 h 1.46875 v 1.35938 q 0.45312,-0.71875 1.20312,-1.14063 0.76563,-0.4375 1.71875,-0.4375 1.07813,0 1.76563,0.45313 0.6875,0.4375 0.96875,1.23437 1.15625,-1.6875 2.98437,-1.6875 1.45313,0 2.21875,0.79688 0.78125,0.79687 0.78125,2.45312 v 6.64063 h -1.64062 v -6.09375 q 0,-0.98438 -0.15625,-1.40625 -0.15625,-0.4375 -0.57813,-0.70313 -0.42187,-0.26562 -0.98437,-0.26562 -1.01563,0 -1.6875,0.6875 -0.67188,0.67187 -0.67188,2.15625 v 5.625 h -1.64062 v -6.28125 q 0,-1.09375 -0.40625,-1.64063 -0.40625,-0.54687 -1.3125,-0.54687 -0.6875,0 -1.28125,0.35937 -0.59375,0.35938 -0.85938,1.0625 -0.25,0.70313 -0.25,2.03125 v 5.01563 z m 15.5408,0 v -9.67188 h 1.46875 v 1.35938 q 0.45313,-0.71875 1.20313,-1.14063 0.76562,-0.4375 1.71875,-0.4375 1.07812,0 1.76562,0.45313 0.6875,0.4375 0.96875,1.23437 1.15625,-1.6875 2.98438,-1.6875 1.45312,0 2.21875,0.79688 0.78125,0.79687 0.78125,2.45312 v 6.64063 h -1.64063 v -6.09375 q 0,-0.98438 -0.15625,-1.40625 -0.15625,-0.4375 -0.57812,-0.70313 -0.42188,-0.26562 -0.98438,-0.26562 -1.01562,0 -1.6875,0.6875 -0.67187,0.67187 -0.67187,2.15625 v 5.625 h -1.64063 v -6.28125 q 0,-1.09375 -0.40625,-1.64063 -0.40625,-0.54687 -1.3125,-0.54687 -0.6875,0 -1.28125,0.35937 -0.59375,0.35938 -0.85937,1.0625 -0.25,0.70313 -0.25,2.03125 v 5.01563 z m 21.86893,0 v -1.42188 q -1.125,1.64063 -3.0625,1.64063 -0.85938,0 -1.60938,-0.32813 -0.73437,-0.32812 -1.09375,-0.82812 -0.35937,-0.5 -0.5,-1.21875 -0.10937,-0.46875 -0.10937,-1.53125 v -5.98438 h 1.64062 v 5.35938 q 0,1.28125 0.10938,1.73437 0.15625,0.64063 0.65625,1.01563 0.5,0.375 1.23437,0.375 0.73438,0 1.375,-0.375 0.65625,-0.39063 0.92188,-1.03125 0.26562,-0.65625 0.26562,-1.89063 v -5.1875 h 1.64063 v 9.67188 z m 7.62573,-1.46875 0.23438,1.45312 q -0.6875,0.14063 -1.23438,0.14063 -0.89062,0 -1.39062,-0.28125 -0.48438,-0.28125 -0.6875,-0.73438 -0.20313,-0.46875 -0.20313,-1.9375 v -5.57812 h -1.20312 v -1.26563 h 1.20312 v -2.39062 l 1.625,-0.98438 v 3.375 h 1.65625 v 1.26563 h -1.65625 v 5.67187 q 0,0.6875 0.0781,0.89063 0.0937,0.20312 0.28125,0.32812 0.20312,0.10938 0.57812,0.10938 0.26563,0 0.71875,-0.0625 z m 7.91766,0.28125 q -0.92187,0.76562 -1.76562,1.09375 -0.82813,0.3125 -1.79688,0.3125 -1.59375,0 -2.45312,-0.78125 -0.85938,-0.78125 -0.85938,-1.98438 0,-0.71875 0.32813,-1.29687 0.32812,-0.59375 0.84375,-0.9375 0.53125,-0.35938 1.1875,-0.54688 0.46875,-0.125 1.45312,-0.25 1.98438,-0.23437 2.92188,-0.5625 0.0156,-0.34375 0.0156,-0.42187 0,-1 -0.46875,-1.42188 -0.625,-0.54687 -1.875,-0.54687 -1.15625,0 -1.70312,0.40625 -0.54688,0.40625 -0.8125,1.42187 l -1.60938,-0.21875 q 0.21875,-1.01562 0.71875,-1.64062 0.5,-0.64063 1.45313,-0.98438 0.95312,-0.34375 2.1875,-0.34375 1.25,0 2.01562,0.29688 0.78125,0.28125 1.14063,0.73437 0.375,0.4375 0.51562,1.10938 0.0781,0.42187 0.0781,1.51562 v 2.1875 q 0,2.28125 0.10937,2.89063 0.10938,0.59375 0.40625,1.15625 h -1.70312 q -0.26563,-0.51563 -0.32813,-1.1875 z m -0.14062,-3.67188 q -0.89063,0.375 -2.67188,0.625 -1.01562,0.14063 -1.4375,0.32813 -0.42187,0.1875 -0.65625,0.53125 -0.21875,0.34375 -0.21875,0.78125 0,0.65625 0.5,1.09375 0.5,0.4375 1.45313,0.4375 0.9375,0 1.67187,-0.40625 0.75,-0.42188 1.09375,-1.14063 0.26563,-0.5625 0.26563,-1.64062 z m 5.70386,4.85938 h -1.51563 V 20.65904 h 1.64063 v 4.76563 q 1.04687,-1.29688 2.65625,-1.29688 0.89062,0 1.6875,0.35938 0.79687,0.35937 1.3125,1.01562 0.51562,0.64063 0.79687,1.5625 0.29688,0.92188 0.29688,1.96875 0,2.48438 -1.23438,3.84375 -1.21875,1.35938 -2.95312,1.35938 -1.70313,0 -2.6875,-1.4375 z m -0.0156,-4.90625 q 0,1.73437 0.48438,2.51562 0.76562,1.26563 2.09375,1.26563 1.07812,0 1.85937,-0.9375 0.78125,-0.9375 0.78125,-2.78125 0,-1.89063 -0.75,-2.79688 -0.75,-0.90625 -1.82812,-0.90625 -1.0625,0 -1.85938,0.9375 -0.78125,0.9375 -0.78125,2.70313 z m 8.84445,4.90625 V 20.65904 h 1.64063 v 13.35938 z m 10.81671,-3.10938 1.6875,0.20313 q -0.40625,1.48437 -1.48437,2.3125 -1.07813,0.8125 -2.76563,0.8125 -2.125,0 -3.375,-1.29688 -1.23437,-1.3125 -1.23437,-3.67187 0,-2.45313 1.25,-3.79688 1.26562,-1.34375 3.26562,-1.34375 1.9375,0 3.15625,1.32813 1.23438,1.3125 1.23438,3.70312 0,0.15625 0,0.4375 h -7.21875 q 0.0937,1.59375 0.90625,2.45313 0.8125,0.84375 2.01562,0.84375 0.90625,0 1.54688,-0.46875 0.64062,-0.48438 1.01562,-1.51563 z m -5.39062,-2.65625 h 5.40625 q -0.10938,-1.21875 -0.625,-1.82812 -0.78125,-0.95313 -2.03125,-0.95313 -1.125,0 -1.90625,0.76563 -0.76563,0.75 -0.84375,2.01562 z m 9.26633,5.76563 V 20.65904 h 1.78125 v 11.78125 h 6.5625 v 1.57813 z m 10.25073,-11.46875 v -1.89063 h 1.64062 v 1.89063 z m 0,11.46875 v -9.67188 h 1.64062 v 9.67188 z m 3.48855,-2.89063 1.625,-0.25 q 0.125,0.96875 0.75,1.5 0.625,0.51563 1.75,0.51563 1.125,0 1.67188,-0.45313 0.54687,-0.46875 0.54687,-1.09375 0,-0.54687 -0.48437,-0.875 -0.32813,-0.21875 -1.67188,-0.54687 -1.8125,-0.46875 -2.51562,-0.79688 -0.6875,-0.32812 -1.04688,-0.90625 -0.35937,-0.59375 -0.35937,-1.3125 0,-0.64062 0.29687,-1.1875 0.29688,-0.5625 0.8125,-0.92187 0.375,-0.28125 1.03125,-0.46875 0.67188,-0.20313 1.42188,-0.20313 1.14062,0 2,0.32813 0.8594,0.32812 1.26565,0.89062 0.42188,0.5625 0.57813,1.5 l -1.60941,0.21875 q -0.10937,-0.75 -0.64062,-1.17187 -0.51563,-0.42188 -1.46875,-0.42188 -1.14063,0 -1.625,0.375 -0.46875,0.375 -0.46875,0.875 0,0.3125 0.1875,0.57813 0.20312,0.26562 0.64062,0.4375 0.23438,0.0937 1.4375,0.42187 1.75,0.45313 2.43753,0.75 0.6875,0.29688 1.07813,0.85938 0.39062,0.5625 0.39062,1.40625 0,0.82812 -0.48437,1.54687 -0.46875,0.71875 -1.37503,1.125 -0.90625,0.39063 -2.04688,0.39063 -1.875,0 -2.875,-0.78125 -0.98437,-0.78125 -1.25,-2.32813 z m 13.56253,1.42188 0.23438,1.45312 q -0.6875,0.14063 -1.23438,0.14063 -0.89062,0 -1.39062,-0.28125 -0.48438,-0.28125 -0.6875,-0.73438 -0.20313,-0.46875 -0.20313,-1.9375 v -5.57812 h -1.20312 v -1.26563 h 1.20312 v -2.39062 l 1.625,-0.98438 v 3.375 h 1.65625 v 1.26563 h -1.65625 v 5.67187 q 0,0.6875 0.0781,0.89063 0.0937,0.20312 0.28125,0.32812 0.20312,0.10938 0.57812,0.10938 0.26563,0 0.71875,-0.0625 z m 1.38642,-4.375 v -1.53125 l 8.84375,-3.73438 v 1.64063 l -7.01563,2.875 7.01563,2.90625 v 1.625 z m 14.72308,5.84375 V 22.23717 h -4.40625 v -1.57813 h 10.57813 v 1.57813 h -4.40625 v 11.78125 z m 16.41162,-5.84375 -8.84375,3.78125 v -1.625 l 7.01563,-2.90625 -7.01563,-2.875 v -1.64063 l 8.84375,3.73438 z"
     fill-rule="nonzero"
     id="path23" />
  <path
     fill="#cfe2f3"
     d="m 0.5,180.97245 h 223.68503 v 53.19684 H 0.5 Z"
     fill-rule="evenodd"
     id="path25" />
  <path
     stroke="#000000"
     stroke-width="1"
     stroke-linejoin="round"
     stroke-linecap="butt"
     d="m 0.5,180.97245 h 223.68503 v 53.19684 H 0.5 Z"
     fill-rule="evenodd"
     id="path27" />
  <path
     fill="#000000"
     d="m 14.3125,195.69776 v 7.34375 h 1.59375 q 0.21875,0 0.3125,0.0781 0.0937,0.0781 0.0937,0.21875 0,0.14063 -0.0937,0.23438 -0.0937,0.0781 -0.3125,0.0781 h -3.82813 q -0.21875,0 -0.3125,-0.0781 -0.0937,-0.0937 -0.0937,-0.23438 0,-0.14062 0.0937,-0.21875 0.0937,-0.0781 0.3125,-0.0781 h 1.60938 v -7.34375 h -2.53125 v 2.125 q 0,0.23437 -0.0781,0.32812 -0.0781,0.0937 -0.21875,0.0937 -0.14062,0 -0.23437,-0.0937 -0.0781,-0.0937 -0.0781,-0.32812 v -2.73438 h 6.89063 v 2.73438 q 0,0.23437 -0.0937,0.32812 -0.0781,0.0937 -0.21875,0.0937 -0.125,0 -0.21875,-0.0937 -0.0781,-0.0937 -0.0781,-0.32812 v -2.125 z m 18.2373,7.95312 h -1.04687 l -2.53125,-5.71875 h -0.625 q -0.21875,0 -0.3125,-0.0781 -0.0937,-0.0937 -0.0937,-0.23438 0,-0.14062 0.0937,-0.21875 0.0937,-0.0937 0.3125,-0.0937 h 2.3125 q 0.21875,0 0.3125,0.0937 0.0937,0.0781 0.0937,0.21875 0,0.14063 -0.0937,0.23438 -0.0937,0.0781 -0.3125,0.0781 h -1.03125 l 2.26562,5.10938 h 0.26563 l 2.21875,-5.10938 h -1.03125 q -0.21875,0 -0.3125,-0.0781 -0.0937,-0.0937 -0.0937,-0.23438 0,-0.14062 0.0937,-0.21875 0.0937,-0.0937 0.3125,-0.0937 h 2.3125 q 0.23437,0 0.3125,0.0937 0.0937,0.0781 0.0937,0.21875 0,0.14063 -0.0937,0.23438 -0.0781,0.0781 -0.3125,0.0781 h -0.625 z m 10.22022,0 v -0.89062 q -1.34375,1.125 -2.85938,1.125 -1.10937,0 -1.73437,-0.54688 -0.60938,-0.5625 -0.60938,-1.375 0,-0.89062 0.8125,-1.5625 0.82813,-0.67187 2.39063,-0.67187 0.42187,0 0.92187,0.0625 0.5,0.0469 1.07813,0.17187 v -1 q 0,-0.5 -0.46875,-0.875 -0.46875,-0.375 -1.40625,-0.375 -0.71875,0 -2.01563,0.42188 -0.23437,0.0625 -0.29687,0.0625 -0.10938,0 -0.20313,-0.0781 -0.0781,-0.0937 -0.0781,-0.21875 0,-0.125 0.0781,-0.20312 0.0937,-0.10938 0.82813,-0.29688 1.14062,-0.3125 1.71875,-0.3125 1.17187,0 1.8125,0.57813 0.65625,0.57812 0.65625,1.29687 v 4.07813 h 0.82812 q 0.21875,0 0.3125,0.0781 0.0937,0.0781 0.0937,0.21875 0,0.14063 -0.0937,0.23438 -0.0937,0.0781 -0.3125,0.0781 z m 0,-3.0625 q -0.42188,-0.125 -0.90625,-0.17187 -0.48438,-0.0625 -1.01563,-0.0625 -1.34375,0 -2.10937,0.57812 -0.5625,0.42188 -0.5625,1.03125 0,0.54688 0.4375,0.9375 0.4375,0.375 1.26562,0.375 0.79688,0 1.48438,-0.3125 0.6875,-0.32812 1.40625,-1.01562 z m 7.54834,-6.125 v 8.57813 h 2.42187 q 0.21875,0 0.3125,0.0781 0.0937,0.0781 0.0937,0.21875 0,0.14063 -0.0937,0.23438 -0.0937,0.0781 -0.3125,0.0781 h -5.45312 q -0.21875,0 -0.3125,-0.0781 -0.0937,-0.0937 -0.0937,-0.23438 0,-0.14062 0.0937,-0.21875 0.0937,-0.0781 0.3125,-0.0781 h 2.42187 v -7.95313 h -1.78125 q -0.21875,0 -0.32812,-0.0937 -0.0937,-0.0937 -0.0937,-0.23437 0,-0.125 0.0937,-0.20313 0.10937,-0.0937 0.32812,-0.0937 z m 10.79834,9.1875 v -0.90625 q -1.26563,1.14063 -2.73438,1.14063 -0.89062,0 -1.35937,-0.48438 -0.60938,-0.64062 -0.60938,-1.5 v -3.96875 h -0.82812 q -0.21875,0 -0.3125,-0.0781 -0.0937,-0.0937 -0.0937,-0.23438 0,-0.14062 0.0937,-0.21875 0.0937,-0.0937 0.3125,-0.0937 h 1.4375 v 4.59375 q 0,0.59375 0.375,0.98438 0.39062,0.39062 0.96875,0.39062 1.5,0 2.75,-1.375 v -3.96875 h -1.14063 q -0.21875,0 -0.3125,-0.0781 -0.0937,-0.0937 -0.0937,-0.23438 0,-0.14062 0.0937,-0.21875 0.0937,-0.0937 0.3125,-0.0937 h 1.75 v 5.73438 h 0.51563 q 0.23437,0 0.32812,0.0781 0.0937,0.0781 0.0937,0.21875 0,0.14063 -0.0937,0.23438 -0.0937,0.0781 -0.32812,0.0781 z m 10.22021,-3.03125 h -6.26562 q 0.15625,1.20313 1,1.9375 0.84375,0.71875 2.07812,0.71875 0.6875,0 1.4375,-0.21875 0.75,-0.23437 1.23438,-0.60937 0.14062,-0.10938 0.23437,-0.10938 0.125,0 0.20313,0.0937 0.0937,0.0937 0.0937,0.21875 0,0.125 -0.10938,0.23438 -0.35937,0.375 -1.26562,0.6875 -0.89063,0.3125 -1.82813,0.3125 -1.59375,0 -2.65625,-1.03125 -1.04687,-1.03125 -1.04687,-2.5 0,-1.34375 0.98437,-2.29688 1,-0.96875 2.46875,-0.96875 1.5,0 2.46875,0.98438 0.98438,0.98437 0.96875,2.54687 z m -0.625,-0.60937 q -0.17187,-1.03125 -0.95312,-1.65625 -0.78125,-0.64063 -1.85938,-0.64063 -1.07812,0 -1.85937,0.625 -0.76563,0.625 -0.96875,1.67188 z m 6.15772,-2.70313 h 0.28125 q 0.40625,0 0.6875,0.29688 0.29687,0.29687 0.29687,0.6875 0,0.4375 -0.29687,0.73437 -0.28125,0.28125 -0.6875,0.28125 h -0.28125 q -0.40625,0 -0.70313,-0.29687 -0.28125,-0.29688 -0.28125,-0.70313 0,-0.42187 0.29688,-0.70312 0.29687,-0.29688 0.6875,-0.29688 z m -1.0625,4.125 h 1.9375 l -2.07813,3.40625 q -0.15625,0.25 -0.25,0.3125 -0.0937,0.0625 -0.20312,0.0625 -0.1875,0 -0.3125,-0.10937 -0.10938,-0.10938 -0.10938,-0.26563 0,-0.0781 0.0469,-0.21875 z"
     fill-rule="nonzero"
     id="path29" />
  <path
     fill="#000000"
     d="m 14.3125,213.69776 v 7.34375 h 2.10937 q 0.21875,0 0.3125,0.0781 0.0937,0.0781 0.0937,0.21875 0,0.14063 -0.0937,0.23438 -0.0937,0.0781 -0.3125,0.0781 h -4.82812 q -0.21875,0 -0.32813,-0.0781 -0.0937,-0.0937 -0.0937,-0.23438 0,-0.14062 0.0937,-0.21875 0.10938,-0.0781 0.32813,-0.0781 h 2.10937 v -7.34375 h -2.10937 q -0.21875,0 -0.32813,-0.0781 -0.0937,-0.0937 -0.0937,-0.23437 0,-0.14063 0.0937,-0.21875 0.10938,-0.0781 0.32813,-0.0781 h 4.82812 q 0.21875,0 0.3125,0.0781 0.0937,0.0781 0.0937,0.21875 0,0.14062 -0.0937,0.23437 -0.0937,0.0781 -0.3125,0.0781 z m 5.89209,1.60937 v 0.625 q 0.78125,-0.84375 1.57812,-0.84375 0.46875,0 0.82813,0.25 0.35937,0.25 0.59375,0.76563 0.42187,-0.51563 0.84375,-0.76563 0.42187,-0.25 0.84375,-0.25 0.65625,0 1.0625,0.4375 0.51562,0.54688 0.51562,1.20313 v 4.3125 h 0.51563 q 0.21875,0 0.3125,0.0781 0.10937,0.0781 0.10937,0.21875 0,0.14063 -0.10937,0.23438 -0.0937,0.0781 -0.3125,0.0781 h -1.125 v -4.85937 q 0,-0.46875 -0.29688,-0.76563 -0.28125,-0.3125 -0.65625,-0.3125 -0.32812,0 -0.70312,0.25 -0.375,0.25 -0.85938,1 v 4.07813 h 0.51563 q 0.21875,0 0.3125,0.0781 0.0937,0.0781 0.0937,0.21875 0,0.14063 -0.0937,0.23438 -0.0937,0.0781 -0.3125,0.0781 h -1.14063 v -4.8125 q 0,-0.48437 -0.29687,-0.79687 -0.28125,-0.32813 -0.64063,-0.32813 -0.32812,0 -0.64062,0.20313 -0.45313,0.3125 -0.9375,1.04687 v 4.07813 h 0.51562 q 0.21875,0 0.3125,0.0781 0.0937,0.0781 0.0937,0.21875 0,0.14063 -0.0937,0.23438 -0.0937,0.0781 -0.3125,0.0781 h -1.65625 q -0.21875,0 -0.3125,-0.0781 -0.0937,-0.0937 -0.0937,-0.23438 0,-0.14062 0.0937,-0.21875 0.0937,-0.0781 0.3125,-0.0781 h 0.51563 v -5.10938 h -0.51563 q -0.21875,0 -0.3125,-0.0781 -0.0937,-0.0937 -0.0937,-0.23438 0,-0.14062 0.0937,-0.21875 0.0937,-0.0937 0.3125,-0.0937 z m 9.00146,0 v 0.625 q 0.78125,-0.84375 1.57813,-0.84375 0.46875,0 0.82812,0.25 0.35938,0.25 0.59375,0.76563 0.42188,-0.51563 0.84375,-0.76563 0.42188,-0.25 0.84375,-0.25 0.65625,0 1.0625,0.4375 0.51563,0.54688 0.51563,1.20313 v 4.3125 h 0.51562 q 0.21875,0 0.3125,0.0781 0.10938,0.0781 0.10938,0.21875 0,0.14063 -0.10938,0.23438 -0.0937,0.0781 -0.3125,0.0781 h -1.125 v -4.85937 q 0,-0.46875 -0.29687,-0.76563 -0.28125,-0.3125 -0.65625,-0.3125 -0.32813,0 -0.70313,0.25 -0.375,0.25 -0.85937,1 v 4.07813 h 0.51562 q 0.21875,0 0.3125,0.0781 0.0937,0.0781 0.0937,0.21875 0,0.14063 -0.0937,0.23438 -0.0937,0.0781 -0.3125,0.0781 h -1.14062 v -4.8125 q 0,-0.48437 -0.29688,-0.79687 -0.28125,-0.32813 -0.64062,-0.32813 -0.32813,0 -0.64063,0.20313 -0.45312,0.3125 -0.9375,1.04687 v 4.07813 h 0.51563 q 0.21875,0 0.3125,0.0781 0.0937,0.0781 0.0937,0.21875 0,0.14063 -0.0937,0.23438 -0.0937,0.0781 -0.3125,0.0781 h -1.65625 q -0.21875,0 -0.3125,-0.0781 -0.0937,-0.0937 -0.0937,-0.23438 0,-0.14062 0.0937,-0.21875 0.0937,-0.0781 0.3125,-0.0781 h 0.51562 v -5.10938 h -0.51562 q -0.21875,0 -0.3125,-0.0781 -0.0937,-0.0937 -0.0937,-0.23438 0,-0.14062 0.0937,-0.21875 0.0937,-0.0937 0.3125,-0.0937 z m 13.90772,6.34375 v -0.90625 q -1.26563,1.14063 -2.73438,1.14063 -0.89062,0 -1.35937,-0.48438 -0.60938,-0.64062 -0.60938,-1.5 v -3.96875 h -0.82812 q -0.21875,0 -0.3125,-0.0781 -0.0937,-0.0937 -0.0937,-0.23438 0,-0.14062 0.0937,-0.21875 0.0937,-0.0937 0.3125,-0.0937 h 1.4375 v 4.59375 q 0,0.59375 0.375,0.98438 0.39062,0.39062 0.96875,0.39062 1.5,0 2.75,-1.375 v -3.96875 h -1.14063 q -0.21875,0 -0.3125,-0.0781 -0.0937,-0.0937 -0.0937,-0.23438 0,-0.14062 0.0937,-0.21875 0.0937,-0.0937 0.3125,-0.0937 h 1.75 v 5.73438 h 0.51563 q 0.23437,0 0.32812,0.0781 0.0937,0.0781 0.0937,0.21875 0,0.14063 -0.0937,0.23438 -0.0937,0.0781 -0.32812,0.0781 z m 5.62646,-6.34375 h 3.34375 q 0.21875,0 0.3125,0.0937 0.0937,0.0781 0.0937,0.21875 0,0.14063 -0.0937,0.23438 -0.0937,0.0781 -0.3125,0.0781 h -3.34375 v 4.09375 q 0,0.53125 0.42188,0.89063 0.4375,0.35937 1.26562,0.35937 0.625,0 1.34375,-0.1875 0.73438,-0.1875 1.125,-0.42187 0.15625,-0.0937 0.25,-0.0937 0.10938,0 0.20313,0.0937 0.0937,0.0937 0.0937,0.21875 0,0.10937 -0.0937,0.20312 -0.23438,0.23438 -1.14063,0.51563 -0.90625,0.28125 -1.73437,0.28125 -1.07813,0 -1.71875,-0.5 -0.64063,-0.5 -0.64063,-1.35938 v -4.09375 h -1.125 q -0.21875,0 -0.32812,-0.0781 -0.0937,-0.0937 -0.0937,-0.23438 0,-0.14062 0.0937,-0.21875 0.10937,-0.0937 0.32812,-0.0937 h 1.125 v -1.8125 q 0,-0.21875 0.0937,-0.3125 0.0937,-0.0937 0.21875,-0.0937 0.14063,0 0.21875,0.0937 0.0937,0.0937 0.0937,0.3125 z m 12.03272,6.34375 v -0.89062 q -1.34375,1.125 -2.85938,1.125 -1.10937,0 -1.73437,-0.54688 -0.60938,-0.5625 -0.60938,-1.375 0,-0.89062 0.8125,-1.5625 0.82813,-0.67187 2.39063,-0.67187 0.42187,0 0.92187,0.0625 0.5,0.0469 1.07813,0.17187 v -1 q 0,-0.5 -0.46875,-0.875 -0.46875,-0.375 -1.40625,-0.375 -0.71875,0 -2.01563,0.42188 -0.23437,0.0625 -0.29687,0.0625 -0.10938,0 -0.20313,-0.0781 -0.0781,-0.0937 -0.0781,-0.21875 0,-0.125 0.0781,-0.20312 0.0937,-0.10938 0.82813,-0.29688 1.14062,-0.3125 1.71875,-0.3125 1.17187,0 1.8125,0.57813 0.65625,0.57812 0.65625,1.29687 v 4.07813 h 0.82812 q 0.21875,0 0.3125,0.0781 0.0937,0.0781 0.0937,0.21875 0,0.14063 -0.0937,0.23438 -0.0937,0.0781 -0.3125,0.0781 z m 0,-3.0625 q -0.42188,-0.125 -0.90625,-0.17187 -0.48438,-0.0625 -1.01563,-0.0625 -1.34375,0 -2.10937,0.57812 -0.5625,0.42188 -0.5625,1.03125 0,0.54688 0.4375,0.9375 0.4375,0.375 1.26562,0.375 0.79688,0 1.48438,-0.3125 0.6875,-0.32812 1.40625,-1.01562 z m 4.92334,-6.125 v 4.07813 q 1.10937,-1.45313 2.6875,-1.45313 1.34375,0 2.29687,0.98438 0.96875,0.96875 0.96875,2.39062 0,1.4375 -0.96875,2.4375 -0.96875,0.98438 -2.29687,0.98438 -1.60938,0 -2.6875,-1.4375 v 1.20312 h -1.45313 q -0.21875,0 -0.3125,-0.0781 -0.0937,-0.0937 -0.0937,-0.23438 0,-0.14062 0.0937,-0.21875 0.0937,-0.0781 0.3125,-0.0781 h 0.82813 v -7.95313 h -0.82813 q -0.21875,0 -0.3125,-0.0937 -0.0937,-0.0937 -0.0937,-0.23437 0,-0.125 0.0937,-0.20313 0.0937,-0.0937 0.3125,-0.0937 z m 5.32812,6.03125 q 0,-1.17187 -0.79687,-1.96875 -0.79688,-0.8125 -1.85938,-0.8125 -1.07812,0 -1.875,0.8125 -0.79687,0.79688 -0.79687,1.96875 0,1.15625 0.79687,1.96875 0.79688,0.8125 1.875,0.8125 1.0625,0 1.85938,-0.8125 0.79687,-0.8125 0.79687,-1.96875 z m 6.29834,-6.03125 v 8.57813 h 2.42188 q 0.21875,0 0.3125,0.0781 0.0937,0.0781 0.0937,0.21875 0,0.14063 -0.0937,0.23438 -0.0937,0.0781 -0.3125,0.0781 H 74.2915 q -0.21875,0 -0.3125,-0.0781 -0.0937,-0.0937 -0.0937,-0.23438 0,-0.14062 0.0937,-0.21875 0.0937,-0.0781 0.3125,-0.0781 h 2.42188 v -7.95313 h -1.78125 q -0.21875,0 -0.32813,-0.0937 -0.0937,-0.0937 -0.0937,-0.23437 0,-0.125 0.0937,-0.20313 0.10938,-0.0937 0.32813,-0.0937 z m 12.01709,6.15625 h -6.26562 q 0.15625,1.20313 1,1.9375 0.84375,0.71875 2.07812,0.71875 0.6875,0 1.4375,-0.21875 0.75,-0.23437 1.23438,-0.60937 0.14062,-0.10938 0.23437,-0.10938 0.125,0 0.20313,0.0937 0.0937,0.0937 0.0937,0.21875 0,0.125 -0.10938,0.23438 -0.35937,0.375 -1.26562,0.6875 -0.89063,0.3125 -1.82813,0.3125 -1.59375,0 -2.65625,-1.03125 -1.04687,-1.03125 -1.04687,-2.5 0,-1.34375 0.98437,-2.29688 1,-0.96875 2.46875,-0.96875 1.5,0 2.46875,0.98438 0.98438,0.98437 0.96875,2.54687 z m -0.625,-0.60937 q -0.17187,-1.03125 -0.95312,-1.65625 -0.78125,-0.64063 -1.85938,-0.64063 -1.07812,0 -1.85937,0.625 -0.76563,0.625 -0.96875,1.67188 z m 5.23584,-4.3125 v 7.34375 h 4.07813 v -2.45313 q 0,-0.21875 0.0937,-0.3125 0.0937,-0.0937 0.23437,-0.0937 0.125,0 0.20313,0.0937 0.0937,0.0937 0.0937,0.3125 v 3.0625 h -6.79688 q -0.21875,0 -0.3125,-0.0781 -0.0937,-0.0937 -0.0937,-0.23438 0,-0.14062 0.0937,-0.21875 0.0937,-0.0781 0.3125,-0.0781 h 1.46875 v -7.34375 h -1.46875 q -0.21875,0 -0.3125,-0.0781 -0.0937,-0.0937 -0.0937,-0.23437 0,-0.14063 0.0937,-0.21875 0.0937,-0.0781 0.3125,-0.0781 h 3.5625 q 0.21875,0 0.3125,0.0781 0.0937,0.0781 0.0937,0.21875 0,0.14062 -0.0937,0.23437 -0.0937,0.0781 -0.3125,0.0781 z m 10.37647,-1.54688 v 1.59375 h -0.92188 v -1.59375 z m 0.0156,3.15625 v 5.73438 h 2.42188 q 0.21875,0 0.3125,0.0781 0.0937,0.0781 0.0937,0.21875 0,0.14063 -0.0937,0.23438 -0.0937,0.0781 -0.3125,0.0781 h -5.45313 q -0.21875,0 -0.3125,-0.0781 -0.0937,-0.0937 -0.0937,-0.23438 0,-0.14062 0.0937,-0.21875 0.0937,-0.0781 0.3125,-0.0781 h 2.42188 v -5.10938 h -1.79688 q -0.21875,0 -0.32812,-0.0781 -0.0937,-0.0937 -0.0937,-0.23438 0,-0.14062 0.0937,-0.21875 0.0937,-0.0937 0.32812,-0.0937 z m 10.70459,0.40625 q 0,-0.21875 0.0781,-0.3125 0.0937,-0.0937 0.23437,-0.0937 0.14063,0 0.21875,0.0937 0.0937,0.0937 0.0937,0.32813 v 1.04687 q 0,0.21875 -0.0937,0.32813 -0.0781,0.0937 -0.21875,0.0937 -0.125,0 -0.21875,-0.0781 -0.0781,-0.0937 -0.0937,-0.28125 -0.0469,-0.4375 -0.45312,-0.71875 -0.59375,-0.40625 -1.59375,-0.40625 -1.03125,0 -1.59375,0.42188 -0.4375,0.3125 -0.4375,0.70312 0,0.4375 0.51562,0.71875 0.34375,0.21875 1.32813,0.32813 1.28125,0.125 1.78125,0.3125 0.71875,0.25 1.0625,0.70312 0.34375,0.45313 0.34375,0.98438 0,0.78125 -0.75,1.39062 -0.75,0.60938 -2.21875,0.60938 -1.45313,0 -2.39063,-0.73438 0,0.25 -0.0312,0.32813 -0.0156,0.0625 -0.0937,0.125 -0.0781,0.0469 -0.17187,0.0469 -0.14063,0 -0.23438,-0.0937 -0.0781,-0.0937 -0.0781,-0.3125 v -1.26562 q 0,-0.21875 0.0781,-0.3125 0.0937,-0.10938 0.23438,-0.10938 0.125,0 0.21875,0.0937 0.0937,0.0937 0.0937,0.25 0,0.34375 0.17187,0.5625 0.25,0.35938 0.8125,0.59375 0.5625,0.21875 1.375,0.21875 1.20313,0 1.78125,-0.4375 0.59375,-0.45312 0.59375,-0.95312 0,-0.57813 -0.59375,-0.92188 -0.60937,-0.34375 -1.75,-0.45312 -1.14062,-0.125 -1.64062,-0.3125 -0.5,-0.1875 -0.78125,-0.5625 -0.28125,-0.39063 -0.28125,-0.82813 0,-0.78125 0.78125,-1.25 0.78125,-0.46875 1.84375,-0.46875 1.28125,0 2.07812,0.625 z m 5.70459,-0.40625 h 3.34375 q 0.21875,0 0.3125,0.0937 0.0937,0.0781 0.0937,0.21875 0,0.14063 -0.0937,0.23438 -0.0937,0.0781 -0.3125,0.0781 h -3.34375 v 4.09375 q 0,0.53125 0.42188,0.89063 0.4375,0.35937 1.26562,0.35937 0.625,0 1.34375,-0.1875 0.73438,-0.1875 1.125,-0.42187 0.15625,-0.0937 0.25,-0.0937 0.10938,0 0.20313,0.0937 0.0937,0.0937 0.0937,0.21875 0,0.10937 -0.0937,0.20312 -0.23438,0.23438 -1.14063,0.51563 -0.90625,0.28125 -1.73437,0.28125 -1.07813,0 -1.71875,-0.5 -0.64063,-0.5 -0.64063,-1.35938 v -4.09375 h -1.125 q -0.21875,0 -0.32812,-0.0781 -0.0937,-0.0937 -0.0937,-0.23438 0,-0.14062 0.0937,-0.21875 0.10937,-0.0937 0.32812,-0.0937 h 1.125 v -1.8125 q 0,-0.21875 0.0937,-0.3125 0.0937,-0.0937 0.21875,-0.0937 0.14063,0 0.21875,0.0937 0.0937,0.0937 0.0937,0.3125 z m 6.48584,2.07813 6.65625,-3.70313 q 0.15625,-0.0937 0.23438,-0.0937 0.125,0 0.21875,0.0937 0.0937,0.0937 0.0937,0.21875 0,0.17188 -0.25,0.3125 l -5.70313,3.17188 5.6875,3.15625 q 0.25,0.14062 0.25,0.32812 0,0.125 -0.0937,0.21875 -0.0781,0.0937 -0.20312,0.0937 -0.0937,0 -0.25,-0.0937 z m 13.09522,-3.6875 v 7.34375 h 1.59375 q 0.21875,0 0.3125,0.0781 0.0937,0.0781 0.0937,0.21875 0,0.14063 -0.0937,0.23438 -0.0937,0.0781 -0.3125,0.0781 h -3.82813 q -0.21875,0 -0.3125,-0.0781 -0.0937,-0.0937 -0.0937,-0.23438 0,-0.14062 0.0937,-0.21875 0.0937,-0.0781 0.3125,-0.0781 h 1.60938 v -7.34375 h -2.53125 v 2.125 q 0,0.23437 -0.0781,0.32812 -0.0781,0.0937 -0.21875,0.0937 -0.14062,0 -0.23437,-0.0937 -0.0781,-0.0937 -0.0781,-0.32812 v -2.73438 h 6.89063 v 2.73438 q 0,0.23437 -0.0937,0.32812 -0.0781,0.0937 -0.21875,0.0937 -0.125,0 -0.21875,-0.0937 -0.0781,-0.0937 -0.0781,-0.32812 v -2.125 z m 12.47021,3.6875 -6.64062,3.70312 q -0.17188,0.0937 -0.25,0.0937 -0.125,0 -0.21875,-0.0937 -0.0937,-0.0937 -0.0937,-0.21875 0,-0.1875 0.25,-0.32812 l 5.70312,-3.15625 -5.6875,-3.17188 q -0.25,-0.14062 -0.25,-0.3125 0,-0.125 0.0937,-0.21875 0.0937,-0.0937 0.21875,-0.0937 0.0781,0 0.23438,0.0937 z m 12.23731,-2.07813 v 0.9375 q 0.64062,-0.65625 1.15625,-0.90625 0.53125,-0.25 1.17187,-0.25 0.70313,0 1.28125,0.29688 0.42188,0.21875 0.75,0.73437 0.32813,0.5 0.32813,1.04688 v 3.875 h 0.53125 q 0.21875,0 0.3125,0.0781 0.0937,0.0781 0.0937,0.21875 0,0.14063 -0.0937,0.23438 -0.0937,0.0781 -0.3125,0.0781 h -1.65625 q -0.21875,0 -0.32813,-0.0781 -0.0937,-0.0937 -0.0937,-0.23438 0,-0.14062 0.0937,-0.21875 0.10938,-0.0781 0.32813,-0.0781 h 0.51562 v -3.78125 q 0,-0.65625 -0.48437,-1.09375 -0.46875,-0.45313 -1.26563,-0.45313 -0.60937,0 -1.0625,0.25 -0.4375,0.23438 -1.26562,1.21875 v 3.85938 h 0.6875 q 0.21875,0 0.3125,0.0781 0.10937,0.0781 0.10937,0.21875 0,0.14063 -0.10937,0.23438 -0.0937,0.0781 -0.3125,0.0781 h -2 q -0.21875,0 -0.3125,-0.0781 -0.0937,-0.0937 -0.0937,-0.23438 0,-0.14062 0.0937,-0.21875 0.0937,-0.0781 0.3125,-0.0781 h 0.6875 v -5.10938 h -0.51563 q -0.21875,0 -0.3125,-0.0781 -0.0937,-0.0937 -0.0937,-0.23438 0,-0.14062 0.0937,-0.21875 0.0937,-0.0937 0.3125,-0.0937 z m 14.31396,3.3125 h -6.26562 q 0.15625,1.20313 1,1.9375 0.84375,0.71875 2.07812,0.71875 0.6875,0 1.4375,-0.21875 0.75,-0.23437 1.23438,-0.60937 0.14062,-0.10938 0.23437,-0.10938 0.125,0 0.20313,0.0937 0.0937,0.0937 0.0937,0.21875 0,0.125 -0.10938,0.23438 -0.35937,0.375 -1.26562,0.6875 -0.89063,0.3125 -1.82813,0.3125 -1.59375,0 -2.65625,-1.03125 -1.04687,-1.03125 -1.04687,-2.5 0,-1.34375 0.98437,-2.29688 1,-0.96875 2.46875,-0.96875 1.5,0 2.46875,0.98438 0.98438,0.98437 0.96875,2.54687 z m -0.625,-0.60937 q -0.17187,-1.03125 -0.95312,-1.65625 -0.78125,-0.64063 -1.85938,-0.64063 -1.07812,0 -1.85937,0.625 -0.76563,0.625 -0.96875,1.67188 z m 6.72022,0.32812 2.8125,2.70313 q 0.28125,0 0.35937,0.0312 0.0781,0.0156 0.125,0.0937 0.0625,0.0781 0.0625,0.17187 0,0.14063 -0.0937,0.23438 -0.0937,0.0781 -0.32812,0.0781 h -1.98438 q -0.21875,0 -0.3125,-0.0781 -0.0937,-0.0937 -0.0937,-0.23438 0,-0.14062 0.0937,-0.21875 0.0937,-0.0781 0.3125,-0.0781 h 1.03125 l -2.40625,-2.29688 -2.375,2.29688 h 1.03125 q 0.21875,0 0.3125,0.0781 0.0937,0.0781 0.0937,0.21875 0,0.14063 -0.0937,0.23438 -0.0937,0.0781 -0.3125,0.0781 h -2 q -0.21875,0 -0.32812,-0.0781 -0.0937,-0.0937 -0.0937,-0.23438 0,-0.0937 0.0469,-0.17187 0.0625,-0.0781 0.125,-0.0937 0.0781,-0.0312 0.35938,-0.0312 l 2.82812,-2.70313 -2.51562,-2.40625 q -0.26563,0 -0.34375,-0.0312 -0.0625,-0.0312 -0.125,-0.10937 -0.0469,-0.0781 -0.0469,-0.17188 0,-0.14062 0.0937,-0.21875 0.10938,-0.0937 0.32813,-0.0937 h 1.6875 q 0.21875,0 0.3125,0.0937 0.0937,0.0781 0.0937,0.21875 0,0.14063 -0.0937,0.23438 -0.0937,0.0781 -0.3125,0.0781 h -0.73438 l 2.0625,2 2.09375,-2 h -0.73437 q -0.21875,0 -0.32813,-0.0781 -0.0937,-0.0937 -0.0937,-0.23438 0,-0.14062 0.0937,-0.21875 0.0937,-0.0937 0.32813,-0.0937 h 1.67187 q 0.21875,0 0.3125,0.0937 0.10938,0.0781 0.10938,0.21875 0,0.0937 -0.0625,0.17188 -0.0469,0.0781 -0.125,0.10937 -0.0625,0.0312 -0.32813,0.0312 z m 7.31396,-3.03125 h 3.34375 q 0.21875,0 0.3125,0.0937 0.0937,0.0781 0.0937,0.21875 0,0.14063 -0.0937,0.23438 -0.0937,0.0781 -0.3125,0.0781 h -3.34375 v 4.09375 q 0,0.53125 0.42188,0.89063 0.4375,0.35937 1.26562,0.35937 0.625,0 1.34375,-0.1875 0.73438,-0.1875 1.125,-0.42187 0.15625,-0.0937 0.25,-0.0937 0.10938,0 0.20313,0.0937 0.0937,0.0937 0.0937,0.21875 0,0.10937 -0.0937,0.20312 -0.23438,0.23438 -1.14063,0.51563 -0.90625,0.28125 -1.73437,0.28125 -1.07813,0 -1.71875,-0.5 -0.64063,-0.5 -0.64063,-1.35938 v -4.09375 h -1.125 q -0.21875,0 -0.32812,-0.0781 -0.0937,-0.0937 -0.0937,-0.23438 0,-0.14062 0.0937,-0.21875 0.10937,-0.0937 0.32812,-0.0937 h 1.125 v -1.8125 q 0,-0.21875 0.0937,-0.3125 0.0937,-0.0937 0.21875,-0.0937 0.14063,0 0.21875,0.0937 0.0937,0.0937 0.0937,0.3125 z m 10.12647,0 h 0.28125 q 0.40625,0 0.6875,0.29688 0.29687,0.29687 0.29687,0.6875 0,0.4375 -0.29687,0.73437 -0.28125,0.28125 -0.6875,0.28125 h -0.28125 q -0.40625,0 -0.70313,-0.29687 -0.28125,-0.29688 -0.28125,-0.70313 0,-0.42187 0.29688,-0.70312 0.29687,-0.29688 0.6875,-0.29688 z m -1.0625,4.125 h 1.9375 l -2.07813,3.40625 q -0.15625,0.25 -0.25,0.3125 -0.0937,0.0625 -0.20312,0.0625 -0.1875,0 -0.3125,-0.10937 -0.10938,-0.10938 -0.10938,-0.26563 0,-0.0781 0.0469,-0.21875 z"
     fill-rule="nonzero"
     id="path31" />
  <path
     fill="#000000"
     fill-opacity="0"
     d="M 112.36087,127.7756 V 90.73623 H 226.88058 V 53.69686"
     fill-rule="evenodd"
     id="path33" />
  <path
     stroke="#000000"
     stroke-width="1"
     stroke-linejoin="round"
     stroke-linecap="butt"
     d="M 112.36087,127.7756 V 90.73623 H 226.88058 V 59.69686"
     fill-rule="evenodd"
     id="path35" />
  <path
     stroke="#000000"
     stroke-width="1"
     stroke-linecap="butt"
     d="m 228.53229,59.69686 -1.6517,-4.5381 -1.65174,4.5381 z"
     fill-rule="evenodd"
     id="path37" />
  <path
     fill="#000000"
     fill-opacity="0"
     d="M 365.02229,127.7756 V 90.73623 H 226.88057 V 53.69686"
     fill-rule="evenodd"
     id="path39" />
  <path
     stroke="#000000"
     stroke-width="1"
     stroke-linejoin="round"
     stroke-linecap="butt"
     d="M 365.02229,127.7756 V 90.73623 H 226.88057 V 59.69686"
     fill-rule="evenodd"
     id="path41" />
  <path
     stroke="#000000"
     stroke-width="1"
     stroke-linecap="butt"
     d="m 228.53229,59.69686 -1.6517,-4.5381 -1.65174,4.5381 z"
     fill-rule="evenodd"
     id="path43" />
</svg>
