<?xml version="1.0" encoding="UTF-8" standalone="no"?>
<svg
   version="1.1"
   viewBox="0 0 788.06293 447.11023"
   fill="none"
   stroke="none"
   stroke-linecap="square"
   stroke-miterlimit="10"
   id="svg321"
   sodipodi:docname="stream.svg"
   width="788.06293"
   height="447.11023"
   inkscape:version="1.1.2 (0a00cf5339, 2022-02-04)"
   xmlns:inkscape="http://www.inkscape.org/namespaces/inkscape"
   xmlns:sodipodi="http://sodipodi.sourceforge.net/DTD/sodipodi-0.dtd"
   xmlns="http://www.w3.org/2000/svg"
   xmlns:svg="http://www.w3.org/2000/svg">
  <defs
     id="defs325" />
  <sodipodi:namedview
     id="namedview323"
     pagecolor="#ffffff"
     bordercolor="#666666"
     borderopacity="1.0"
     inkscape:pageshadow="2"
     inkscape:pageopacity="0.0"
     inkscape:pagecheckerboard="0"
     showgrid="false"
     fit-margin-top="0"
     fit-margin-left="0"
     fit-margin-right="0"
     fit-margin-bottom="0"
     inkscape:zoom="1.2125"
     inkscape:cx="425.15464"
     inkscape:cy="281.23711"
     inkscape:window-width="2490"
     inkscape:window-height="1403"
     inkscape:window-x="70"
     inkscape:window-y="0"
     inkscape:window-maximized="1"
     inkscape:current-layer="svg321" />
  <clipPath
     id="p.0">
    <path
       d="M 0,0 H 960 V 720 H 0 Z"
       clip-rule="nonzero"
       id="path2" />
  </clipPath>
  <path
     fill="#000000"
     fill-opacity="0"
     d="m -54.48163,-78.22966 h 960 v 720 h -960 z"
     fill-rule="evenodd"
     id="path5" />
  <path
     fill="#000000"
     fill-opacity="0"
     d="m 268.50171,112.58661 h 43.52756"
     fill-rule="evenodd"
     id="path7" />
  <path
     stroke="#000000"
     stroke-width="1"
     stroke-linejoin="round"
     stroke-linecap="butt"
     d="m 268.50171,112.58661 h 43.52756"
     fill-rule="evenodd"
     id="path9" />
  <path
     fill="#000000"
     fill-opacity="0"
     d="M 364.02664,112.58661 H 407.5542"
     fill-rule="evenodd"
     id="path11" />
  <path
     stroke="#000000"
     stroke-width="1"
     stroke-linejoin="round"
     stroke-linecap="butt"
     d="M 364.02664,112.58661 H 407.5542"
     fill-rule="evenodd"
     id="path13" />
  <path
     fill="#000000"
     fill-opacity="0"
     d="m 459.55157,112.58661 h 43.52759"
     fill-rule="evenodd"
     id="path15" />
  <path
     stroke="#000000"
     stroke-width="1"
     stroke-linejoin="round"
     stroke-linecap="butt"
     d="m 459.55157,112.58661 h 43.52759"
     fill-rule="evenodd"
     id="path17" />
  <path
     fill="#000000"
     fill-opacity="0"
     d="m 268.50171,112.58661 v 78.17323"
     fill-rule="evenodd"
     id="path19" />
  <path
     stroke="#000000"
     stroke-width="1"
     stroke-linejoin="round"
     stroke-linecap="butt"
     d="m 268.50171,112.58661 v 78.17323"
     fill-rule="evenodd"
     id="path21" />
  <path
     fill="#000000"
     fill-opacity="0"
     d="m 503.07917,112.58661 -0.62994,77.54332"
     fill-rule="evenodd"
     id="path23" />
  <path
     stroke="#000000"
     stroke-width="1"
     stroke-linejoin="round"
     stroke-linecap="butt"
     d="m 503.07917,112.58661 -0.62994,77.54332"
     fill-rule="evenodd"
     id="path25" />
  <path
     fill="#000000"
     fill-opacity="0"
     d="m 268.50171,190.85432 h 43.52756"
     fill-rule="evenodd"
     id="path27" />
  <path
     stroke="#000000"
     stroke-width="1"
     stroke-linejoin="round"
     stroke-linecap="butt"
     d="m 268.50171,190.85432 h 43.52756"
     fill-rule="evenodd"
     id="path29" />
  <path
     fill="#000000"
     fill-opacity="0"
     d="M 364.02664,190.85432 H 407.5542"
     fill-rule="evenodd"
     id="path31" />
  <path
     stroke="#000000"
     stroke-width="1"
     stroke-linejoin="round"
     stroke-linecap="butt"
     d="M 364.02664,190.85432 H 407.5542"
     fill-rule="evenodd"
     id="path33" />
  <path
     fill="#000000"
     fill-opacity="0"
     d="m 459.55157,190.85432 h 43.52759"
     fill-rule="evenodd"
     id="path35" />
  <path
     stroke="#000000"
     stroke-width="1"
     stroke-linejoin="round"
     stroke-linecap="butt"
     d="m 459.55157,190.85432 h 43.52759"
     fill-rule="evenodd"
     id="path37" />
  <path
     fill="#000000"
     fill-opacity="0"
     d="M 268.81497,120.58661 H 502.7677 v 42.01575 H 268.81497 Z"
     fill-rule="evenodd"
     id="path39" />
  <path
     fill="#000000"
     d="m 337.95267,141.00661 q 0,-3.32813 1.78125,-5.20313 1.78125,-1.89062 4.60937,-1.89062 1.84375,0 3.32813,0.89062 1.48437,0.875 2.26562,2.46875 0.78125,1.57813 0.78125,3.57813 0,2.03125 -0.82812,3.64062 -0.8125,1.59375 -2.3125,2.42188 -1.5,0.82812 -3.25,0.82812 -1.875,0 -3.35938,-0.90625 -1.48437,-0.92187 -2.25,-2.5 -0.76562,-1.57812 -0.76562,-3.32812 z m 1.8125,0.0156 q 0,2.42188 1.29687,3.8125 1.29688,1.39063 3.26563,1.39063 2,0 3.28125,-1.40625 1.28125,-1.40625 1.28125,-3.98438 0,-1.625 -0.54688,-2.84375 -0.54687,-1.21875 -1.60937,-1.875 -1.0625,-0.67187 -2.375,-0.67187 -1.89063,0 -3.25,1.29687 -1.34375,1.28125 -1.34375,4.28125 z m 13.02707,10.1875 v -13.375 h 1.48437 v 1.25 q 0.53125,-0.73437 1.1875,-1.09375 0.67188,-0.375 1.625,-0.375 1.23438,0 2.17188,0.64063 0.95312,0.625 1.4375,1.79687 0.48437,1.15625 0.48437,2.54688 0,1.48437 -0.53125,2.67187 -0.53125,1.1875 -1.54687,1.82813 -1.01563,0.625 -2.14063,0.625 -0.8125,0 -1.46875,-0.34375 -0.65625,-0.34375 -1.0625,-0.875 v 4.70312 z m 1.48437,-8.48437 q 0,1.85937 0.75,2.76562 0.76563,0.89063 1.82813,0.89063 1.09375,0 1.875,-0.92188 0.78125,-0.9375 0.78125,-2.875 0,-1.84375 -0.76563,-2.76562 -0.75,-0.92188 -1.8125,-0.92188 -1.04687,0 -1.85937,0.98438 -0.79688,0.96875 -0.79688,2.84375 z m 15.51633,1.67187 1.6875,0.20313 q -0.40625,1.48437 -1.48437,2.3125 -1.07813,0.8125 -2.76563,0.8125 -2.125,0 -3.375,-1.29688 -1.23437,-1.3125 -1.23437,-3.67187 0,-2.45313 1.25,-3.79688 1.26562,-1.34375 3.26562,-1.34375 1.9375,0 3.15625,1.32813 1.23438,1.3125 1.23438,3.70312 0,0.15625 0,0.4375 h -7.21875 q 0.0937,1.59375 0.90625,2.45313 0.8125,0.84375 2.01562,0.84375 0.90625,0 1.54688,-0.46875 0.64062,-0.48438 1.01562,-1.51563 z m -5.39062,-2.65625 h 5.40625 q -0.10938,-1.21875 -0.625,-1.82812 -0.78125,-0.95313 -2.03125,-0.95313 -1.125,0 -1.90625,0.76563 -0.76563,0.75 -0.84375,2.01562 z m 9.12573,5.76563 v -9.67188 h 1.46875 v 1.46875 q 0.5625,-1.03125 1.03125,-1.35937 0.48437,-0.32813 1.0625,-0.32813 0.82812,0 1.6875,0.53125 l -0.5625,1.51563 q -0.60938,-0.35938 -1.20313,-0.35938 -0.54687,0 -0.96875,0.32813 -0.42187,0.32812 -0.60937,0.89062 -0.28125,0.875 -0.28125,1.92188 v 5.0625 z m 12.5408,-1.1875 q -0.92188,0.76562 -1.76563,1.09375 -0.82812,0.3125 -1.79687,0.3125 -1.59375,0 -2.45313,-0.78125 -0.85937,-0.78125 -0.85937,-1.98438 0,-0.71875 0.32812,-1.29687 0.32813,-0.59375 0.84375,-0.9375 0.53125,-0.35938 1.1875,-0.54688 0.46875,-0.125 1.45313,-0.25 1.98437,-0.23437 2.92187,-0.5625 0.0156,-0.34375 0.0156,-0.42187 0,-1 -0.46875,-1.42188 -0.625,-0.54687 -1.875,-0.54687 -1.15625,0 -1.70313,0.40625 -0.54687,0.40625 -0.8125,1.42187 l -1.60937,-0.21875 q 0.21875,-1.01562 0.71875,-1.64062 0.5,-0.64063 1.45312,-0.98438 0.95313,-0.34375 2.1875,-0.34375 1.25,0 2.01563,0.29688 0.78125,0.28125 1.14062,0.73437 0.375,0.4375 0.51563,1.10938 0.0781,0.42187 0.0781,1.51562 v 2.1875 q 0,2.28125 0.10938,2.89063 0.10937,0.59375 0.40625,1.15625 h -1.70313 q -0.26562,-0.51563 -0.32812,-1.1875 z m -0.14063,-3.67188 q -0.89062,0.375 -2.67187,0.625 -1.01563,0.14063 -1.4375,0.32813 -0.42188,0.1875 -0.65625,0.53125 -0.21875,0.34375 -0.21875,0.78125 0,0.65625 0.5,1.09375 0.5,0.4375 1.45312,0.4375 0.9375,0 1.67188,-0.40625 0.75,-0.42188 1.09375,-1.14063 0.26562,-0.5625 0.26562,-1.64062 z m 7.78196,3.39063 0.23437,1.45312 q -0.6875,0.14063 -1.23437,0.14063 -0.89063,0 -1.39063,-0.28125 -0.48437,-0.28125 -0.6875,-0.73438 -0.20312,-0.46875 -0.20312,-1.9375 v -5.57812 h -1.20313 v -1.26563 h 1.20313 v -2.39062 l 1.625,-0.98438 v 3.375 h 1.65625 v 1.26563 h -1.65625 v 5.67187 q 0,0.6875 0.0781,0.89063 0.0937,0.20312 0.28125,0.32812 0.20313,0.10938 0.57813,0.10938 0.26562,0 0.71875,-0.0625 z m 1.60519,-10 v -1.89063 h 1.64063 v 1.89063 z m 0,11.46875 v -9.67188 h 1.64063 v 9.67188 z m 3.53543,-4.84375 q 0,-2.6875 1.48438,-3.96875 1.25,-1.07813 3.04687,-1.07813 2,0 3.26563,1.3125 1.26562,1.29688 1.26562,3.60938 0,1.85937 -0.5625,2.9375 -0.5625,1.0625 -1.64062,1.65625 -1.0625,0.59375 -2.32813,0.59375 -2.03125,0 -3.28125,-1.29688 -1.25,-1.3125 -1.25,-3.76562 z m 1.6875,0 q 0,1.85937 0.79688,2.79687 0.8125,0.92188 2.04687,0.92188 1.21875,0 2.03125,-0.92188 0.8125,-0.9375 0.8125,-2.84375 0,-1.79687 -0.8125,-2.71875 -0.8125,-0.92187 -2.03125,-0.92187 -1.23437,0 -2.04687,0.92187 -0.79688,0.90625 -0.79688,2.76563 z m 9.29761,4.84375 v -9.67188 h 1.46875 v 1.375 q 1.0625,-1.59375 3.07812,-1.59375 0.875,0 1.60938,0.3125 0.73437,0.3125 1.09375,0.82813 0.375,0.5 0.51562,1.20312 0.0937,0.45313 0.0937,1.59375 v 5.95313 h -1.64062 v -5.89063 q 0,-1 -0.20313,-1.48437 -0.1875,-0.5 -0.67187,-0.79688 -0.48438,-0.29687 -1.14063,-0.29687 -1.04687,0 -1.8125,0.67187 -0.75,0.65625 -0.75,2.51563 v 5.28125 z m 21.27777,0 h -1.64062 v -10.45313 q -0.59375,0.5625 -1.5625,1.14063 -0.95313,0.5625 -1.71875,0.84375 v -1.59375 q 1.375,-0.64063 2.40625,-1.5625 1.03125,-0.92188 1.45312,-1.78125 h 1.0625 z"
     fill-rule="nonzero"
     id="path41" />
  <path
     fill="#000000"
     fill-opacity="0"
     d="M 268.50171,0.58662 V 78.75984"
     fill-rule="evenodd"
     id="path43" />
  <path
     stroke="#000000"
     stroke-width="1"
     stroke-linejoin="round"
     stroke-linecap="butt"
     d="M 268.50171,0.58662 V 78.75984"
     fill-rule="evenodd"
     id="path45" />
  <path
     fill="#000000"
     fill-opacity="0"
     d="m 503.07917,0.58662 -0.62994,77.5433"
     fill-rule="evenodd"
     id="path47" />
  <path
     stroke="#000000"
     stroke-width="1"
     stroke-linejoin="round"
     stroke-linecap="butt"
     d="m 503.07917,0.58662 -0.62994,77.5433"
     fill-rule="evenodd"
     id="path49" />
  <path
     fill="#000000"
     fill-opacity="0"
     d="m 268.50171,78.85432 h 43.52756"
     fill-rule="evenodd"
     id="path51" />
  <path
     stroke="#000000"
     stroke-width="1"
     stroke-linejoin="round"
     stroke-linecap="butt"
     d="m 268.50171,78.85432 h 43.52756"
     fill-rule="evenodd"
     id="path53" />
  <path
     fill="#000000"
     fill-opacity="0"
     d="m 338.02757,61.2005 v 0 c 14.35941,0 26,7.90398 26,17.65401 h -26 z"
     fill-rule="evenodd"
     id="path55" />
  <path
     fill="#000000"
     fill-opacity="0"
     d="m 338.02757,61.2005 v 0 c 14.35941,0 26,7.90398 26,17.65401"
     fill-rule="evenodd"
     id="path57" />
  <path
     stroke="#000000"
     stroke-width="1"
     stroke-linejoin="round"
     stroke-linecap="butt"
     d="m 338.02757,61.2005 v 0 c 14.35941,0 26,7.90398 26,17.65401"
     fill-rule="evenodd"
     id="path59" />
  <path
     fill="#000000"
     fill-opacity="0"
     d="m 338.02757,61.2005 v 0 c -14.35941,0 -26,7.90398 -26,17.65401 h 26 z"
     fill-rule="evenodd"
     id="path61" />
  <path
     fill="#000000"
     fill-opacity="0"
     d="m 338.02757,61.2005 v 0 c -14.35941,0 -26,7.90398 -26,17.65401"
     fill-rule="evenodd"
     id="path63" />
  <path
     stroke="#000000"
     stroke-width="1"
     stroke-linejoin="round"
     stroke-linecap="butt"
     d="m 338.02757,61.2005 v 0 c -14.35941,0 -26,7.90398 -26,17.65401"
     fill-rule="evenodd"
     id="path65" />
  <path
     fill="#000000"
     fill-opacity="0"
     d="M 364.02664,78.85432 H 407.5542"
     fill-rule="evenodd"
     id="path67" />
  <path
     stroke="#000000"
     stroke-width="1"
     stroke-linejoin="round"
     stroke-linecap="butt"
     d="M 364.02664,78.85432 H 407.5542"
     fill-rule="evenodd"
     id="path69" />
  <path
     fill="#000000"
     fill-opacity="0"
     d="m 459.55157,78.85432 h 43.52759"
     fill-rule="evenodd"
     id="path71" />
  <path
     stroke="#000000"
     stroke-width="1"
     stroke-linejoin="round"
     stroke-linecap="butt"
     d="m 459.55157,78.85432 h 43.52759"
     fill-rule="evenodd"
     id="path73" />
  <path
     fill="#000000"
     fill-opacity="0"
     d="M 268.81497,8.58662 H 502.7677 V 50.60236 H 268.81497 Z"
     fill-rule="evenodd"
     id="path75" />
  <path
     fill="#000000"
     d="m 340.01425,33.27224 h 0.34375 q 0.51562,0 0.89062,0.375 0.375,0.35938 0.375,0.875 0,0.53125 -0.375,0.90625 -0.375,0.35938 -0.89062,0.35938 h -0.34375 q -0.51563,0 -0.89063,-0.35938 -0.35937,-0.375 -0.35937,-0.89062 0,-0.54688 0.375,-0.90625 0.375,-0.35938 0.875,-0.35938 z m 14.15185,-5.29687 q 0,-0.26563 0.10938,-0.375 0.10937,-0.125 0.28125,-0.125 0.17187,0 0.28125,0.125 0.10937,0.10937 0.10937,0.40625 v 1.32812 q 0,0.28125 -0.10937,0.40625 -0.10938,0.10938 -0.28125,0.10938 -0.17188,0 -0.28125,-0.0937 -0.0937,-0.10938 -0.10938,-0.34375 -0.0625,-0.54688 -0.57812,-0.90625 -0.76563,-0.53125 -2.01563,-0.53125 -1.3125,0 -2.03125,0.53125 -0.54687,0.40625 -0.54687,0.89062 0,0.5625 0.64062,0.9375 0.45313,0.25 1.70313,0.39063 1.60937,0.17187 2.25,0.40625 0.89062,0.32812 1.32812,0.90625 0.45313,0.5625 0.45313,1.23437 0,0.98438 -0.95313,1.76563 -0.95312,0.78125 -2.8125,0.78125 -1.84375,0 -3.01562,-0.9375 0,0.3125 -0.0469,0.40625 -0.0312,0.0937 -0.125,0.15625 -0.0937,0.0625 -0.21875,0.0625 -0.17187,0 -0.28125,-0.10938 -0.10937,-0.125 -0.10937,-0.40625 v -1.60937 q 0,-0.28125 0.10937,-0.39063 0.10938,-0.125 0.28125,-0.125 0.17188,0 0.28125,0.125 0.10938,0.10938 0.10938,0.29688 0,0.42187 0.21875,0.71875 0.32812,0.4375 1.03125,0.73437 0.71875,0.29688 1.75,0.29688 1.51562,0 2.25,-0.5625 0.75,-0.57813 0.75,-1.20313 0,-0.71875 -0.75,-1.15625 -0.76563,-0.4375 -2.21875,-0.57812 -1.45313,-0.15625 -2.07813,-0.39063 -0.625,-0.25 -0.98437,-0.73437 -0.35938,-0.48438 -0.35938,-1.03125 0,-1.01563 0.98438,-1.59375 0.98437,-0.59375 2.35937,-0.59375 1.60938,0 2.625,0.78125 z m 7.21436,-0.5 h 4.23438 q 0.28125,0 0.39062,0.10937 0.125,0.10938 0.125,0.28125 0,0.17188 -0.125,0.28125 -0.10937,0.10938 -0.39062,0.10938 h -4.23438 v 5.1875 q 0,0.6875 0.54688,1.14062 0.54687,0.45313 1.59375,0.45313 0.78125,0 1.70312,-0.23438 0.92188,-0.25 1.4375,-0.54687 0.1875,-0.10938 0.29688,-0.10938 0.15625,0 0.26562,0.125 0.10938,0.10938 0.10938,0.26563 0,0.14062 -0.125,0.25 -0.29688,0.3125 -1.4375,0.67187 -1.14063,0.35938 -2.1875,0.35938 -1.375,0 -2.1875,-0.64063 -0.79688,-0.64062 -0.79688,-1.73437 v -5.1875 h -1.4375 q -0.28125,0 -0.40625,-0.10938 -0.10937,-0.10937 -0.10937,-0.28125 0,-0.17187 0.10937,-0.28125 0.125,-0.10937 0.40625,-0.10937 h 1.4375 v -2.29688 q 0,-0.28125 0.10938,-0.40625 0.10937,-0.125 0.28125,-0.125 0.17187,0 0.28125,0.125 0.10937,0.125 0.10937,0.40625 z m 12.07373,0 v 1.96875 q 1.53125,-1.375 2.28125,-1.76563 0.75,-0.40625 1.39063,-0.40625 0.70312,0 1.29687,0.46875 0.59375,0.46875 0.59375,0.71875 0,0.17188 -0.10937,0.29688 -0.10938,0.10937 -0.29688,0.10937 -0.0937,0 -0.15625,-0.0312 -0.0625,-0.0312 -0.23437,-0.21875 -0.32813,-0.3125 -0.57813,-0.4375 -0.23437,-0.125 -0.46875,-0.125 -0.5,0 -1.21875,0.40625 -0.71875,0.40625 -2.5,2 v 4.26563 h 3.45313 q 0.28125,0 0.40625,0.10937 0.125,0.10938 0.125,0.28125 0,0.17188 -0.125,0.28125 -0.125,0.10938 -0.40625,0.10938 h -6.10938 q -0.28125,0 -0.40625,-0.10938 -0.10937,-0.10937 -0.10937,-0.26562 0,-0.15625 0.10937,-0.26563 0.10938,-0.10937 0.40625,-0.10937 h 1.875 v -6.5 h -1.4375 q -0.28125,0 -0.40625,-0.10938 -0.10937,-0.10937 -0.10937,-0.28125 0,-0.17187 0.10937,-0.28125 0.125,-0.10937 0.40625,-0.10937 z m 16.55811,4.20312 h -7.95313 q 0.21875,1.51563 1.28125,2.4375 1.0625,0.92188 2.625,0.92188 0.875,0 1.82813,-0.28125 0.95312,-0.29688 1.5625,-0.76563 0.17187,-0.14062 0.29687,-0.14062 0.15625,0 0.26563,0.125 0.10937,0.10937 0.10937,0.26562 0,0.15625 -0.15625,0.29688 -0.4375,0.46875 -1.57812,0.875 -1.14063,0.40625 -2.32813,0.40625 -2,0 -3.34375,-1.3125 -1.34375,-1.3125 -1.34375,-3.1875 0,-1.6875 1.25,-2.90625 1.26563,-1.21875 3.125,-1.21875 1.90625,0 3.14063,1.25 1.23437,1.25 1.21875,3.23437 z m -0.79688,-0.79687 q -0.23437,-1.28125 -1.21875,-2.09375 -0.98437,-0.8125 -2.34375,-0.8125 -1.375,0 -2.35937,0.8125 -0.96875,0.79687 -1.21875,2.09375 z m 10.21436,4.625 v -1.125 q -1.6875,1.4375 -3.625,1.4375 -1.40625,0 -2.1875,-0.70313 -0.78125,-0.71875 -0.78125,-1.75 0,-1.14062 1.03125,-1.98437 1.04687,-0.84375 3.03125,-0.84375 0.54687,0 1.17187,0.0781 0.625,0.0625 1.35938,0.21875 V 29.5691 q 0,-0.64063 -0.59375,-1.10938 -0.59375,-0.48437 -1.78125,-0.48437 -0.90625,0 -2.54688,0.53125 -0.29687,0.0937 -0.375,0.0937 -0.15625,0 -0.26562,-0.10938 -0.10938,-0.10937 -0.10938,-0.28125 0,-0.15625 0.0937,-0.25 0.14063,-0.14062 1.0625,-0.375 1.4375,-0.39062 2.1875,-0.39062 1.46875,0 2.29688,0.73437 0.82812,0.71875 0.82812,1.64063 v 5.15625 h 1.03125 q 0.29688,0 0.40625,0.10937 0.125,0.10938 0.125,0.28125 0,0.17188 -0.125,0.28125 -0.10937,0.10938 -0.40625,0.10938 z m 0,-3.875 q -0.54688,-0.15625 -1.15625,-0.23438 -0.60938,-0.0781 -1.28125,-0.0781 -1.70313,0 -2.65625,0.73437 -0.73438,0.54688 -0.73438,1.3125 0,0.70313 0.54688,1.1875 0.5625,0.48438 1.625,0.48438 1,0 1.85937,-0.40625 0.875,-0.40625 1.79688,-1.28125 z m 5.6206,-4.15625 v 0.78125 q 0.98438,-1.0625 1.98438,-1.0625 0.60937,0 1.0625,0.32812 0.45312,0.3125 0.76562,0.96875 0.51563,-0.65625 1.04688,-0.96875 0.53125,-0.32812 1.07812,-0.32812 0.84375,0 1.34375,0.54687 0.65625,0.70313 0.65625,1.54688 v 5.4375 h 0.65625 q 0.28125,0 0.39063,0.10937 0.125,0.10938 0.125,0.28125 0,0.17188 -0.125,0.28125 -0.10938,0.10938 -0.39063,0.10938 h -1.4375 v -6.15625 q 0,-0.59375 -0.35937,-0.98438 -0.35938,-0.39062 -0.82813,-0.39062 -0.4375,0 -0.90625,0.32812 -0.46875,0.3125 -1.07812,1.25 v 5.17188 h 0.65625 q 0.26562,0 0.39062,0.10937 0.125,0.10938 0.125,0.28125 0,0.17188 -0.125,0.28125 -0.125,0.10938 -0.39062,0.10938 h -1.4375 v -6.09375 q 0,-0.625 -0.375,-1.03125 -0.35938,-0.40625 -0.8125,-0.40625 -0.42188,0 -0.82813,0.28125 -0.5625,0.375 -1.1875,1.29687 v 5.17188 h 0.65625 q 0.28125,0 0.39063,0.10937 0.125,0.10938 0.125,0.28125 0,0.17188 -0.125,0.28125 -0.10938,0.10938 -0.39063,0.10938 h -2.09375 q -0.28125,0 -0.40625,-0.10938 -0.125,-0.10937 -0.125,-0.28125 0,-0.17187 0.125,-0.28125 0.125,-0.10937 0.40625,-0.10937 h 0.65625 v -6.46875 h -0.65625 q -0.28125,0 -0.40625,-0.10938 -0.125,-0.10937 -0.125,-0.28125 0,-0.17187 0.125,-0.28125 0.125,-0.10937 0.40625,-0.10937 z m 14.85498,3.40625 q 0,-1.0625 0.28125,-2.25 0.28125,-1.20313 1.0625,-2.76563 0.79688,-1.57812 1.15625,-1.90625 0.10938,-0.0937 0.23438,-0.0937 0.17187,0 0.28125,0.10938 0.125,0.10937 0.125,0.26562 0,0.0937 -0.0625,0.20313 -1.03125,1.875 -1.46875,3.40625 -0.42188,1.51562 -0.42188,3.03125 0,1.53125 0.42188,3.0625 0.4375,1.51562 1.46875,3.375 0.0625,0.125 0.0625,0.20312 0,0.17188 -0.125,0.28125 -0.10938,0.10938 -0.28125,0.10938 -0.125,0 -0.23438,-0.0937 -0.34375,-0.3125 -1.125,-1.84375 -0.78125,-1.53125 -1.07812,-2.70313 -0.29688,-1.1875 -0.29688,-2.39062 z m 11.71436,0.0156 q 0,1.0625 -0.28125,2.26563 -0.26563,1.1875 -1.0625,2.75 -0.78125,1.57812 -1.14063,1.89062 -0.10937,0.10938 -0.25,0.10938 -0.15625,0 -0.28125,-0.10938 -0.10937,-0.10937 -0.10937,-0.28125 0,-0.0781 0.0625,-0.20312 1.01562,-1.85938 1.45312,-3.375 0.4375,-1.53125 0.4375,-3.04688 0,-1.53125 -0.4375,-3.04687 -0.4375,-1.53125 -1.45312,-3.40625 -0.0625,-0.10938 -0.0625,-0.20313 0,-0.15625 0.10937,-0.26562 0.125,-0.10938 0.28125,-0.10938 0.14063,0 0.25,0.0937 0.34375,0.32813 1.10938,1.85938 0.78125,1.51562 1.07812,2.70312 0.29688,1.17188 0.29688,2.375 z"
     fill-rule="nonzero"
     id="path77" />
  <path
     fill="#000000"
     fill-opacity="0"
     d="M 268.3399,0.5 H 503.4895"
     fill-rule="evenodd"
     id="path79" />
  <path
     stroke="#000000"
     stroke-width="1"
     stroke-linejoin="round"
     stroke-linecap="butt"
     d="M 268.3399,0.5 H 503.4895"
     fill-rule="evenodd"
     id="path81" />
  <path
     fill="#000000"
     fill-opacity="0"
     d="m 433.23883,61.2005 v 0 c 14.35941,0 26,7.90398 26,17.65401 h -26 z"
     fill-rule="evenodd"
     id="path83" />
  <path
     fill="#000000"
     fill-opacity="0"
     d="m 433.23883,61.2005 v 0 c 14.35941,0 26,7.90398 26,17.65401"
     fill-rule="evenodd"
     id="path85" />
  <path
     stroke="#000000"
     stroke-width="1"
     stroke-linejoin="round"
     stroke-linecap="butt"
     d="m 433.23883,61.2005 v 0 c 14.35941,0 26,7.90398 26,17.65401"
     fill-rule="evenodd"
     id="path87" />
  <path
     fill="#000000"
     fill-opacity="0"
     d="m 433.23883,61.2005 v 0 c -14.35938,0 -26,7.90398 -26,17.65401 h 26 z"
     fill-rule="evenodd"
     id="path89" />
  <path
     fill="#000000"
     fill-opacity="0"
     d="m 433.23883,61.2005 v 0 c -14.35938,0 -26,7.90398 -26,17.65401"
     fill-rule="evenodd"
     id="path91" />
  <path
     stroke="#000000"
     stroke-width="1"
     stroke-linejoin="round"
     stroke-linecap="butt"
     d="m 433.23883,61.2005 v 0 c -14.35938,0 -26,7.90398 -26,17.65401"
     fill-rule="evenodd"
     id="path93" />
  <path
     fill="#000000"
     fill-opacity="0"
     d="m 337.8714,95.07452 v 0 c 14.35941,0 26,7.90396 26,17.65399 h -26 z"
     fill-rule="evenodd"
     id="path95" />
  <path
     fill="#000000"
     fill-opacity="0"
     d="m 337.8714,95.07452 v 0 c 14.35941,0 26,7.90396 26,17.65399"
     fill-rule="evenodd"
     id="path97" />
  <path
     stroke="#000000"
     stroke-width="1"
     stroke-linejoin="round"
     stroke-linecap="butt"
     d="m 337.8714,95.07452 v 0 c 14.35941,0 26,7.90396 26,17.65399"
     fill-rule="evenodd"
     id="path99" />
  <path
     fill="#000000"
     fill-opacity="0"
     d="m 337.8714,95.07452 v 0 c -14.35941,0 -26,7.90396 -26,17.65399 h 26 z"
     fill-rule="evenodd"
     id="path101" />
  <path
     fill="#000000"
     fill-opacity="0"
     d="m 337.8714,95.07452 v 0 c -14.35941,0 -26,7.90396 -26,17.65399"
     fill-rule="evenodd"
     id="path103" />
  <path
     stroke="#000000"
     stroke-width="1"
     stroke-linejoin="round"
     stroke-linecap="butt"
     d="m 337.8714,95.07452 v 0 c -14.35941,0 -26,7.90396 -26,17.65399"
     fill-rule="evenodd"
     id="path105" />
  <path
     fill="#000000"
     fill-opacity="0"
     d="m 433.23883,95.07452 v 0 c 14.35941,0 26,7.90396 26,17.65399 h -26 z"
     fill-rule="evenodd"
     id="path107" />
  <path
     fill="#000000"
     fill-opacity="0"
     d="m 433.23883,95.07452 v 0 c 14.35941,0 26,7.90396 26,17.65399"
     fill-rule="evenodd"
     id="path109" />
  <path
     stroke="#000000"
     stroke-width="1"
     stroke-linejoin="round"
     stroke-linecap="butt"
     d="m 433.23883,95.07452 v 0 c 14.35941,0 26,7.90396 26,17.65399"
     fill-rule="evenodd"
     id="path111" />
  <path
     fill="#000000"
     fill-opacity="0"
     d="m 433.23883,95.07452 v 0 c -14.35938,0 -26,7.90396 -26,17.65399 h 26 z"
     fill-rule="evenodd"
     id="path113" />
  <path
     fill="#000000"
     fill-opacity="0"
     d="m 433.23883,95.07452 v 0 c -14.35938,0 -26,7.90396 -26,17.65399"
     fill-rule="evenodd"
     id="path115" />
  <path
     stroke="#000000"
     stroke-width="1"
     stroke-linejoin="round"
     stroke-linecap="butt"
     d="m 433.23883,95.07452 v 0 c -14.35938,0 -26,7.90396 -26,17.65399"
     fill-rule="evenodd"
     id="path117" />
  <path
     fill="#000000"
     fill-opacity="0"
     d="m 338.02624,173.2005 v 0 c 14.35941,0 26,7.90398 26,17.65401 h -26 z"
     fill-rule="evenodd"
     id="path119" />
  <path
     fill="#000000"
     fill-opacity="0"
     d="m 338.02624,173.2005 v 0 c 14.35941,0 26,7.90398 26,17.65401"
     fill-rule="evenodd"
     id="path121" />
  <path
     stroke="#000000"
     stroke-width="1"
     stroke-linejoin="round"
     stroke-linecap="butt"
     d="m 338.02624,173.2005 v 0 c 14.35941,0 26,7.90398 26,17.65401"
     fill-rule="evenodd"
     id="path123" />
  <path
     fill="#000000"
     fill-opacity="0"
     d="m 338.02624,173.2005 v 0 c -14.35941,0 -26,7.90398 -26,17.65401 h 26 z"
     fill-rule="evenodd"
     id="path125" />
  <path
     fill="#000000"
     fill-opacity="0"
     d="m 338.02624,173.2005 v 0 c -14.35941,0 -26,7.90398 -26,17.65401"
     fill-rule="evenodd"
     id="path127" />
  <path
     stroke="#000000"
     stroke-width="1"
     stroke-linejoin="round"
     stroke-linecap="butt"
     d="m 338.02624,173.2005 v 0 c -14.35941,0 -26,7.90398 -26,17.65401"
     fill-rule="evenodd"
     id="path129" />
  <path
     fill="#000000"
     fill-opacity="0"
     d="m 433.23752,173.2005 v 0 c 14.35941,0 26.00003,7.90398 26.00003,17.65401 h -26.00003 z"
     fill-rule="evenodd"
     id="path131" />
  <path
     fill="#000000"
     fill-opacity="0"
     d="m 433.23752,173.2005 v 0 c 14.35941,0 26.00003,7.90398 26.00003,17.65401"
     fill-rule="evenodd"
     id="path133" />
  <path
     stroke="#000000"
     stroke-width="1"
     stroke-linejoin="round"
     stroke-linecap="butt"
     d="m 433.23752,173.2005 v 0 c 14.35941,0 26.00003,7.90398 26.00003,17.65401"
     fill-rule="evenodd"
     id="path135" />
  <path
     fill="#000000"
     fill-opacity="0"
     d="m 433.23752,173.2005 v 0 c -14.35937,0 -26,7.90398 -26,17.65401 h 26 z"
     fill-rule="evenodd"
     id="path137" />
  <path
     fill="#000000"
     fill-opacity="0"
     d="m 433.23752,173.2005 v 0 c -14.35937,0 -26,7.90398 -26,17.65401"
     fill-rule="evenodd"
     id="path139" />
  <path
     stroke="#000000"
     stroke-width="1"
     stroke-linejoin="round"
     stroke-linecap="butt"
     d="m 433.23752,173.2005 v 0 c -14.35937,0 -26,7.90398 -26,17.65401"
     fill-rule="evenodd"
     id="path141" />
  <path
     fill="#000000"
     fill-opacity="0"
     d="m 268.50171,224.58662 h 43.52756"
     fill-rule="evenodd"
     id="path143" />
  <path
     stroke="#000000"
     stroke-width="1"
     stroke-linejoin="round"
     stroke-linecap="butt"
     d="m 268.50171,224.58662 h 43.52756"
     fill-rule="evenodd"
     id="path145" />
  <path
     fill="#000000"
     fill-opacity="0"
     d="M 364.02664,224.58662 H 407.5542"
     fill-rule="evenodd"
     id="path147" />
  <path
     stroke="#000000"
     stroke-width="1"
     stroke-linejoin="round"
     stroke-linecap="butt"
     d="M 364.02664,224.58662 H 407.5542"
     fill-rule="evenodd"
     id="path149" />
  <path
     fill="#000000"
     fill-opacity="0"
     d="m 459.55157,224.58662 h 43.52759"
     fill-rule="evenodd"
     id="path151" />
  <path
     stroke="#000000"
     stroke-width="1"
     stroke-linejoin="round"
     stroke-linecap="butt"
     d="m 459.55157,224.58662 h 43.52759"
     fill-rule="evenodd"
     id="path153" />
  <path
     fill="#000000"
     fill-opacity="0"
     d="m 268.50171,224.58662 v 78.17322"
     fill-rule="evenodd"
     id="path155" />
  <path
     stroke="#000000"
     stroke-width="1"
     stroke-linejoin="round"
     stroke-linecap="butt"
     d="m 268.50171,224.58662 v 78.17322"
     fill-rule="evenodd"
     id="path157" />
  <path
     fill="#000000"
     fill-opacity="0"
     d="m 503.07917,224.58662 -0.62994,77.5433"
     fill-rule="evenodd"
     id="path159" />
  <path
     stroke="#000000"
     stroke-width="1"
     stroke-linejoin="round"
     stroke-linecap="butt"
     d="m 503.07917,224.58662 -0.62994,77.5433"
     fill-rule="evenodd"
     id="path161" />
  <path
     fill="#000000"
     fill-opacity="0"
     d="m 268.50171,302.85432 h 43.52756"
     fill-rule="evenodd"
     id="path163" />
  <path
     stroke="#000000"
     stroke-width="1"
     stroke-linejoin="round"
     stroke-linecap="butt"
     d="m 268.50171,302.85432 h 43.52756"
     fill-rule="evenodd"
     id="path165" />
  <path
     fill="#000000"
     fill-opacity="0"
     d="M 364.02664,302.85432 H 407.5542"
     fill-rule="evenodd"
     id="path167" />
  <path
     stroke="#000000"
     stroke-width="1"
     stroke-linejoin="round"
     stroke-linecap="butt"
     d="M 364.02664,302.85432 H 407.5542"
     fill-rule="evenodd"
     id="path169" />
  <path
     fill="#000000"
     fill-opacity="0"
     d="m 459.55157,302.85432 h 43.52759"
     fill-rule="evenodd"
     id="path171" />
  <path
     stroke="#000000"
     stroke-width="1"
     stroke-linejoin="round"
     stroke-linecap="butt"
     d="m 459.55157,302.85432 h 43.52759"
     fill-rule="evenodd"
     id="path173" />
  <path
     fill="#000000"
     fill-opacity="0"
     d="M 268.81497,232.58662 H 502.7677 v 42.01575 H 268.81497 Z"
     fill-rule="evenodd"
     id="path175" />
  <path
     fill="#000000"
     d="m 337.95267,253.00661 q 0,-3.32813 1.78125,-5.20313 1.78125,-1.89062 4.60937,-1.89062 1.84375,0 3.32813,0.89062 1.48437,0.875 2.26562,2.46875 0.78125,1.57813 0.78125,3.57813 0,2.03125 -0.82812,3.64062 -0.8125,1.59375 -2.3125,2.42188 -1.5,0.82812 -3.25,0.82812 -1.875,0 -3.35938,-0.90625 -1.48437,-0.92187 -2.25,-2.5 -0.76562,-1.57812 -0.76562,-3.32812 z m 1.8125,0.0156 q 0,2.42188 1.29687,3.8125 1.29688,1.39063 3.26563,1.39063 2,0 3.28125,-1.40625 1.28125,-1.40625 1.28125,-3.98438 0,-1.625 -0.54688,-2.84375 -0.54687,-1.21875 -1.60937,-1.875 -1.0625,-0.67187 -2.375,-0.67187 -1.89063,0 -3.25,1.29687 -1.34375,1.28125 -1.34375,4.28125 z m 13.02707,10.1875 v -13.375 h 1.48437 v 1.25 q 0.53125,-0.73437 1.1875,-1.09375 0.67188,-0.375 1.625,-0.375 1.23438,0 2.17188,0.64063 0.95312,0.625 1.4375,1.79687 0.48437,1.15625 0.48437,2.54688 0,1.48437 -0.53125,2.67187 -0.53125,1.1875 -1.54687,1.82813 -1.01563,0.625 -2.14063,0.625 -0.8125,0 -1.46875,-0.34375 -0.65625,-0.34375 -1.0625,-0.875 v 4.70312 z m 1.48437,-8.48437 q 0,1.85937 0.75,2.76562 0.76563,0.89063 1.82813,0.89063 1.09375,0 1.875,-0.92188 0.78125,-0.9375 0.78125,-2.875 0,-1.84375 -0.76563,-2.76562 -0.75,-0.92188 -1.8125,-0.92188 -1.04687,0 -1.85937,0.98438 -0.79688,0.96875 -0.79688,2.84375 z m 15.51633,1.67187 1.6875,0.20313 q -0.40625,1.48437 -1.48437,2.3125 -1.07813,0.8125 -2.76563,0.8125 -2.125,0 -3.375,-1.29688 -1.23437,-1.3125 -1.23437,-3.67187 0,-2.45313 1.25,-3.79688 1.26562,-1.34375 3.26562,-1.34375 1.9375,0 3.15625,1.32813 1.23438,1.3125 1.23438,3.70312 0,0.15625 0,0.4375 h -7.21875 q 0.0937,1.59375 0.90625,2.45313 0.8125,0.84375 2.01562,0.84375 0.90625,0 1.54688,-0.46875 0.64062,-0.48438 1.01562,-1.51563 z m -5.39062,-2.65625 h 5.40625 q -0.10938,-1.21875 -0.625,-1.82812 -0.78125,-0.95313 -2.03125,-0.95313 -1.125,0 -1.90625,0.76563 -0.76563,0.75 -0.84375,2.01562 z m 9.12573,5.76563 v -9.67188 h 1.46875 v 1.46875 q 0.5625,-1.03125 1.03125,-1.35937 0.48437,-0.32813 1.0625,-0.32813 0.82812,0 1.6875,0.53125 l -0.5625,1.51563 q -0.60938,-0.35938 -1.20313,-0.35938 -0.54687,0 -0.96875,0.32813 -0.42187,0.32812 -0.60937,0.89062 -0.28125,0.875 -0.28125,1.92188 v 5.0625 z m 12.5408,-1.1875 q -0.92188,0.76562 -1.76563,1.09375 -0.82812,0.3125 -1.79687,0.3125 -1.59375,0 -2.45313,-0.78125 -0.85937,-0.78125 -0.85937,-1.98438 0,-0.71875 0.32812,-1.29687 0.32813,-0.59375 0.84375,-0.9375 0.53125,-0.35938 1.1875,-0.54688 0.46875,-0.125 1.45313,-0.25 1.98437,-0.23437 2.92187,-0.5625 0.0156,-0.34375 0.0156,-0.42187 0,-1 -0.46875,-1.42188 -0.625,-0.54687 -1.875,-0.54687 -1.15625,0 -1.70313,0.40625 -0.54687,0.40625 -0.8125,1.42187 l -1.60937,-0.21875 q 0.21875,-1.01562 0.71875,-1.64062 0.5,-0.64063 1.45312,-0.98438 0.95313,-0.34375 2.1875,-0.34375 1.25,0 2.01563,0.29688 0.78125,0.28125 1.14062,0.73437 0.375,0.4375 0.51563,1.10938 0.0781,0.42187 0.0781,1.51562 v 2.1875 q 0,2.28125 0.10938,2.89063 0.10937,0.59375 0.40625,1.15625 h -1.70313 q -0.26562,-0.51563 -0.32812,-1.1875 z m -0.14063,-3.67188 q -0.89062,0.375 -2.67187,0.625 -1.01563,0.14063 -1.4375,0.32813 -0.42188,0.1875 -0.65625,0.53125 -0.21875,0.34375 -0.21875,0.78125 0,0.65625 0.5,1.09375 0.5,0.4375 1.45312,0.4375 0.9375,0 1.67188,-0.40625 0.75,-0.42188 1.09375,-1.14063 0.26562,-0.5625 0.26562,-1.64062 z m 7.78196,3.39063 0.23437,1.45312 q -0.6875,0.14063 -1.23437,0.14063 -0.89063,0 -1.39063,-0.28125 -0.48437,-0.28125 -0.6875,-0.73438 -0.20312,-0.46875 -0.20312,-1.9375 v -5.57812 h -1.20313 v -1.26563 h 1.20313 v -2.39062 l 1.625,-0.98438 v 3.375 h 1.65625 v 1.26563 h -1.65625 v 5.67187 q 0,0.6875 0.0781,0.89063 0.0937,0.20312 0.28125,0.32812 0.20313,0.10938 0.57813,0.10938 0.26562,0 0.71875,-0.0625 z m 1.60519,-10 v -1.89063 h 1.64063 v 1.89063 z m 0,11.46875 v -9.67188 h 1.64063 v 9.67188 z m 3.53543,-4.84375 q 0,-2.6875 1.48438,-3.96875 1.25,-1.07813 3.04687,-1.07813 2,0 3.26563,1.3125 1.26562,1.29688 1.26562,3.60938 0,1.85937 -0.5625,2.9375 -0.5625,1.0625 -1.64062,1.65625 -1.0625,0.59375 -2.32813,0.59375 -2.03125,0 -3.28125,-1.29688 -1.25,-1.3125 -1.25,-3.76562 z m 1.6875,0 q 0,1.85937 0.79688,2.79687 0.8125,0.92188 2.04687,0.92188 1.21875,0 2.03125,-0.92188 0.8125,-0.9375 0.8125,-2.84375 0,-1.79687 -0.8125,-2.71875 -0.8125,-0.92187 -2.03125,-0.92187 -1.23437,0 -2.04687,0.92187 -0.79688,0.90625 -0.79688,2.76563 z m 9.29761,4.84375 v -9.67188 h 1.46875 v 1.375 q 1.0625,-1.59375 3.07812,-1.59375 0.875,0 1.60938,0.3125 0.73437,0.3125 1.09375,0.82813 0.375,0.5 0.51562,1.20312 0.0937,0.45313 0.0937,1.59375 v 5.95313 h -1.64062 v -5.89063 q 0,-1 -0.20313,-1.48437 -0.1875,-0.5 -0.67187,-0.79688 -0.48438,-0.29687 -1.14063,-0.29687 -1.04687,0 -1.8125,0.67187 -0.75,0.65625 -0.75,2.51563 v 5.28125 z m 23.71527,-1.57813 v 1.57813 h -8.82812 q -0.0156,-0.59375 0.1875,-1.14063 0.34375,-0.90625 1.07812,-1.78125 0.75,-0.875 2.15625,-2.01562 2.17188,-1.78125 2.9375,-2.82813 0.76563,-1.04687 0.76563,-1.96875 0,-0.98437 -0.70313,-1.64062 -0.6875,-0.67188 -1.8125,-0.67188 -1.1875,0 -1.90625,0.71875 -0.70312,0.70313 -0.70312,1.95313 l -1.6875,-0.17188 q 0.17187,-1.89062 1.29687,-2.875 1.14063,-0.98437 3.03125,-0.98437 1.92188,0 3.04688,1.0625 1.125,1.0625 1.125,2.64062 0,0.79688 -0.32813,1.57813 -0.32812,0.78125 -1.09375,1.64062 -0.75,0.84375 -2.53125,2.34375 -1.46875,1.23438 -1.89062,1.6875 -0.42188,0.4375 -0.6875,0.875 z"
     fill-rule="nonzero"
     id="path177" />
  <path
     fill="#000000"
     fill-opacity="0"
     d="m 337.8714,207.07451 v 0 c 14.35941,0 26,7.90399 26,17.65402 h -26 z"
     fill-rule="evenodd"
     id="path179" />
  <path
     fill="#000000"
     fill-opacity="0"
     d="m 337.8714,207.07451 v 0 c 14.35941,0 26,7.90399 26,17.65402"
     fill-rule="evenodd"
     id="path181" />
  <path
     stroke="#000000"
     stroke-width="1"
     stroke-linejoin="round"
     stroke-linecap="butt"
     d="m 337.8714,207.07451 v 0 c 14.35941,0 26,7.90399 26,17.65402"
     fill-rule="evenodd"
     id="path183" />
  <path
     fill="#000000"
     fill-opacity="0"
     d="m 337.8714,207.07451 v 0 c -14.35941,0 -26,7.90399 -26,17.65402 h 26 z"
     fill-rule="evenodd"
     id="path185" />
  <path
     fill="#000000"
     fill-opacity="0"
     d="m 337.8714,207.07451 v 0 c -14.35941,0 -26,7.90399 -26,17.65402"
     fill-rule="evenodd"
     id="path187" />
  <path
     stroke="#000000"
     stroke-width="1"
     stroke-linejoin="round"
     stroke-linecap="butt"
     d="m 337.8714,207.07451 v 0 c -14.35941,0 -26,7.90399 -26,17.65402"
     fill-rule="evenodd"
     id="path189" />
  <path
     fill="#000000"
     fill-opacity="0"
     d="m 433.23883,207.07451 v 0 c 14.35941,0 26,7.90399 26,17.65402 h -26 z"
     fill-rule="evenodd"
     id="path191" />
  <path
     fill="#000000"
     fill-opacity="0"
     d="m 433.23883,207.07451 v 0 c 14.35941,0 26,7.90399 26,17.65402"
     fill-rule="evenodd"
     id="path193" />
  <path
     stroke="#000000"
     stroke-width="1"
     stroke-linejoin="round"
     stroke-linecap="butt"
     d="m 433.23883,207.07451 v 0 c 14.35941,0 26,7.90399 26,17.65402"
     fill-rule="evenodd"
     id="path195" />
  <path
     fill="#000000"
     fill-opacity="0"
     d="m 433.23883,207.07451 v 0 c -14.35938,0 -26,7.90399 -26,17.65402 h 26 z"
     fill-rule="evenodd"
     id="path197" />
  <path
     fill="#000000"
     fill-opacity="0"
     d="m 433.23883,207.07451 v 0 c -14.35938,0 -26,7.90399 -26,17.65402"
     fill-rule="evenodd"
     id="path199" />
  <path
     stroke="#000000"
     stroke-width="1"
     stroke-linejoin="round"
     stroke-linecap="butt"
     d="m 433.23883,207.07451 v 0 c -14.35938,0 -26,7.90399 -26,17.65402"
     fill-rule="evenodd"
     id="path201" />
  <path
     fill="#000000"
     fill-opacity="0"
     d="m 338.02624,285.20052 v 0 c 14.35941,0 26,7.90396 26,17.65399 h -26 z"
     fill-rule="evenodd"
     id="path203" />
  <path
     fill="#000000"
     fill-opacity="0"
     d="m 338.02624,285.20052 v 0 c 14.35941,0 26,7.90396 26,17.65399"
     fill-rule="evenodd"
     id="path205" />
  <path
     stroke="#000000"
     stroke-width="1"
     stroke-linejoin="round"
     stroke-linecap="butt"
     d="m 338.02624,285.20052 v 0 c 14.35941,0 26,7.90396 26,17.65399"
     fill-rule="evenodd"
     id="path207" />
  <path
     fill="#000000"
     fill-opacity="0"
     d="m 338.02624,285.20052 v 0 c -14.35941,0 -26,7.90396 -26,17.65399 h 26 z"
     fill-rule="evenodd"
     id="path209" />
  <path
     fill="#000000"
     fill-opacity="0"
     d="m 338.02624,285.20052 v 0 c -14.35941,0 -26,7.90396 -26,17.65399"
     fill-rule="evenodd"
     id="path211" />
  <path
     stroke="#000000"
     stroke-width="1"
     stroke-linejoin="round"
     stroke-linecap="butt"
     d="m 338.02624,285.20052 v 0 c -14.35941,0 -26,7.90396 -26,17.65399"
     fill-rule="evenodd"
     id="path213" />
  <path
     fill="#000000"
     fill-opacity="0"
     d="m 433.23752,285.20052 v 0 c 14.35941,0 26.00003,7.90396 26.00003,17.65399 h -26.00003 z"
     fill-rule="evenodd"
     id="path215" />
  <path
     fill="#000000"
     fill-opacity="0"
     d="m 433.23752,285.20052 v 0 c 14.35941,0 26.00003,7.90396 26.00003,17.65399"
     fill-rule="evenodd"
     id="path217" />
  <path
     stroke="#000000"
     stroke-width="1"
     stroke-linejoin="round"
     stroke-linecap="butt"
     d="m 433.23752,285.20052 v 0 c 14.35941,0 26.00003,7.90396 26.00003,17.65399"
     fill-rule="evenodd"
     id="path219" />
  <path
     fill="#000000"
     fill-opacity="0"
     d="m 433.23752,285.20052 v 0 c -14.35937,0 -26,7.90396 -26,17.65399 h 26 z"
     fill-rule="evenodd"
     id="path221" />
  <path
     fill="#000000"
     fill-opacity="0"
     d="m 433.23752,285.20052 v 0 c -14.35937,0 -26,7.90396 -26,17.65399"
     fill-rule="evenodd"
     id="path223" />
  <path
     stroke="#000000"
     stroke-width="1"
     stroke-linejoin="round"
     stroke-linecap="butt"
     d="m 433.23752,285.20052 v 0 c -14.35937,0 -26,7.90396 -26,17.65399"
     fill-rule="evenodd"
     id="path225" />
  <path
     fill="#000000"
     fill-opacity="0"
     d="m 268.50171,368.58662 h 43.52756"
     fill-rule="evenodd"
     id="path227" />
  <path
     stroke="#000000"
     stroke-width="1"
     stroke-linejoin="round"
     stroke-linecap="butt"
     d="m 268.50171,368.58662 h 43.52756"
     fill-rule="evenodd"
     id="path229" />
  <path
     fill="#000000"
     fill-opacity="0"
     d="M 364.02664,368.58662 H 407.5542"
     fill-rule="evenodd"
     id="path231" />
  <path
     stroke="#000000"
     stroke-width="1"
     stroke-linejoin="round"
     stroke-linecap="butt"
     d="M 364.02664,368.58662 H 407.5542"
     fill-rule="evenodd"
     id="path233" />
  <path
     fill="#000000"
     fill-opacity="0"
     d="m 459.55157,368.58662 h 43.52759"
     fill-rule="evenodd"
     id="path235" />
  <path
     stroke="#000000"
     stroke-width="1"
     stroke-linejoin="round"
     stroke-linecap="butt"
     d="m 459.55157,368.58662 h 43.52759"
     fill-rule="evenodd"
     id="path237" />
  <path
     fill="#000000"
     fill-opacity="0"
     d="m 268.50171,368.58662 v 78.17322"
     fill-rule="evenodd"
     id="path239" />
  <path
     stroke="#000000"
     stroke-width="1"
     stroke-linejoin="round"
     stroke-linecap="butt"
     d="m 268.50171,368.58662 v 78.17322"
     fill-rule="evenodd"
     id="path241" />
  <path
     fill="#000000"
     fill-opacity="0"
     d="m 503.07917,368.58662 -0.62994,77.54327"
     fill-rule="evenodd"
     id="path243" />
  <path
     stroke="#000000"
     stroke-width="1"
     stroke-linejoin="round"
     stroke-linecap="butt"
     d="m 503.07917,368.58662 -0.62994,77.54327"
     fill-rule="evenodd"
     id="path245" />
  <path
     fill="#000000"
     fill-opacity="0"
     d="M 268.81497,384.58662 H 502.7677 v 42.01575 H 268.81497 Z"
     fill-rule="evenodd"
     id="path247" />
  <path
     fill="#000000"
     d="m 334.31332,409.27224 h 0.34375 q 0.51562,0 0.89062,0.375 0.375,0.35937 0.375,0.875 0,0.53125 -0.375,0.90625 -0.375,0.35937 -0.89062,0.35937 h -0.34375 q -0.51563,0 -0.89063,-0.35937 -0.35937,-0.375 -0.35937,-0.89063 0,-0.54687 0.375,-0.90625 0.375,-0.35937 0.875,-0.35937 z m 14.82373,-5.01563 v -0.25 q 0,-0.29687 0.10937,-0.40625 0.10938,-0.125 0.28125,-0.125 0.17188,0 0.28125,0.125 0.10938,0.10938 0.10938,0.40625 v 1.75 q 0,0.29688 -0.10938,0.42188 -0.10937,0.10937 -0.28125,0.10937 -0.15625,0 -0.26562,-0.0937 -0.10938,-0.10937 -0.125,-0.35937 -0.0625,-0.67188 -0.875,-1.26563 -0.79688,-0.59375 -2.17188,-0.59375 -1.73437,0 -2.64062,1.09375 -0.90625,1.07813 -0.90625,2.48438 0,1.51562 0.98437,2.5 1,0.98437 2.57813,0.98437 0.92187,0 1.85937,-0.32812 0.9375,-0.34375 1.70313,-1.09375 0.1875,-0.17188 0.34375,-0.17188 0.15625,0 0.26562,0.10938 0.10938,0.0937 0.10938,0.25 0,0.40625 -0.9375,1.01562 -1.51563,1 -3.375,1 -1.875,0 -3.09375,-1.20312 -1.20313,-1.20313 -1.20313,-3.04688 0,-1.89062 1.23438,-3.125 1.23437,-1.25 3.125,-1.25 1.78125,0 3,1.0625 z m 12.51123,3.25 q 0,1.78125 -1.28125,3.04688 -1.28125,1.26562 -3.07813,1.26562 -1.8125,0 -3.09375,-1.26562 -1.26562,-1.28125 -1.26562,-3.04688 0,-1.78125 1.26562,-3.04687 1.28125,-1.26563 3.09375,-1.26563 1.79688,0 3.07813,1.26563 1.28125,1.25 1.28125,3.04687 z m -0.79688,0 q 0,-1.46875 -1.04687,-2.5 -1.03125,-1.03125 -2.51563,-1.03125 -1.48437,0 -2.53125,1.04688 -1.04687,1.03125 -1.04687,2.48437 0,1.45313 1.04687,2.5 1.04688,1.03125 2.53125,1.03125 1.48438,0 2.51563,-1.03125 1.04687,-1.04687 1.04687,-2.5 z m 8.22998,-7.64062 v 10.85937 h 3.0625 q 0.28125,0 0.40625,0.10938 0.125,0.10937 0.125,0.28125 0,0.17187 -0.125,0.28125 -0.125,0.10937 -0.40625,0.10937 h -6.90625 q -0.28125,0 -0.40625,-0.10937 -0.10937,-0.10938 -0.10937,-0.28125 0,-0.17188 0.10937,-0.28125 0.125,-0.10938 0.40625,-0.10938 h 3.0625 v -10.07812 h -2.23437 q -0.28125,0 -0.40625,-0.10938 -0.125,-0.10937 -0.125,-0.28125 0,-0.17187 0.10937,-0.28125 0.125,-0.10937 0.42188,-0.10937 z m 11.40186,0 v 10.85937 h 3.0625 q 0.28125,0 0.40625,0.10938 0.125,0.10937 0.125,0.28125 0,0.17187 -0.125,0.28125 -0.125,0.10937 -0.40625,0.10937 h -6.90625 q -0.28125,0 -0.40625,-0.10937 -0.10937,-0.10938 -0.10937,-0.28125 0,-0.17188 0.10937,-0.28125 0.125,-0.10938 0.40625,-0.10938 h 3.0625 v -10.07812 h -2.23437 q -0.28125,0 -0.40625,-0.10938 -0.125,-0.10937 -0.125,-0.28125 0,-0.17187 0.10937,-0.28125 0.125,-0.10937 0.42188,-0.10937 z m 15.22998,7.8125 h -7.95312 q 0.21875,1.51562 1.28125,2.4375 1.0625,0.92187 2.625,0.92187 0.875,0 1.82812,-0.28125 0.95313,-0.29687 1.5625,-0.76562 0.17188,-0.14063 0.29688,-0.14063 0.15625,0 0.26562,0.125 0.10938,0.10938 0.10938,0.26563 0,0.15625 -0.15625,0.29687 -0.4375,0.46875 -1.57813,0.875 -1.14062,0.40625 -2.32812,0.40625 -2,0 -3.34375,-1.3125 -1.34375,-1.3125 -1.34375,-3.1875 0,-1.6875 1.25,-2.90625 1.26562,-1.21875 3.125,-1.21875 1.90625,0 3.14062,1.25 1.23438,1.25 1.21875,3.23438 z m -0.79687,-0.79688 q -0.23438,-1.28125 -1.21875,-2.09375 -0.98438,-0.8125 -2.34375,-0.8125 -1.375,0 -2.35938,0.8125 -0.96875,0.79688 -1.21875,2.09375 z m 11.22998,-2.625 v -0.25 q 0,-0.29687 0.10937,-0.40625 0.10938,-0.125 0.28125,-0.125 0.17188,0 0.28125,0.125 0.10938,0.10938 0.10938,0.40625 v 1.75 q 0,0.29688 -0.10938,0.42188 -0.10937,0.10937 -0.28125,0.10937 -0.15625,0 -0.26562,-0.0937 -0.10938,-0.10937 -0.125,-0.35937 -0.0625,-0.67188 -0.875,-1.26563 -0.79688,-0.59375 -2.17188,-0.59375 -1.73437,0 -2.64062,1.09375 -0.90625,1.07813 -0.90625,2.48438 0,1.51562 0.98437,2.5 1,0.98437 2.57813,0.98437 0.92187,0 1.85937,-0.32812 0.9375,-0.34375 1.70313,-1.09375 0.1875,-0.17188 0.34375,-0.17188 0.15625,0 0.26562,0.10938 0.10938,0.0937 0.10938,0.25 0,0.40625 -0.9375,1.01562 -1.51563,1 -3.375,1 -1.875,0 -3.09375,-1.20312 -1.20313,-1.20313 -1.20313,-3.04688 0,-1.89062 1.23438,-3.125 1.23437,-1.25 3.125,-1.25 1.78125,0 3,1.0625 z m 6.54248,-0.78125 h 4.23437 q 0.28125,0 0.39063,0.10938 0.125,0.10937 0.125,0.28125 0,0.17187 -0.125,0.28125 -0.10938,0.10937 -0.39063,0.10937 h -4.23437 v 5.1875 q 0,0.6875 0.54687,1.14063 0.54688,0.45312 1.59375,0.45312 0.78125,0 1.70313,-0.23437 0.92187,-0.25 1.4375,-0.54688 0.1875,-0.10937 0.29687,-0.10937 0.15625,0 0.26563,0.125 0.10937,0.10937 0.10937,0.26562 0,0.14063 -0.125,0.25 -0.29687,0.3125 -1.4375,0.67188 -1.14062,0.35937 -2.1875,0.35937 -1.375,0 -2.1875,-0.64062 -0.79687,-0.64063 -0.79687,-1.73438 v -5.1875 h -1.4375 q -0.28125,0 -0.40625,-0.10937 -0.10938,-0.10938 -0.10938,-0.28125 0,-0.17188 0.10938,-0.28125 0.125,-0.10938 0.40625,-0.10938 h 1.4375 v -2.29687 q 0,-0.28125 0.10937,-0.40625 0.10938,-0.125 0.28125,-0.125 0.17188,0 0.28125,0.125 0.10938,0.125 0.10938,0.40625 z m 12.91748,3.40625 q 0,-1.0625 0.28125,-2.25 0.28125,-1.20312 1.0625,-2.76562 0.79687,-1.57813 1.15625,-1.90625 0.10937,-0.0937 0.23437,-0.0937 0.17188,0 0.28125,0.10937 0.125,0.10938 0.125,0.26563 0,0.0937 -0.0625,0.20312 -1.03125,1.875 -1.46875,3.40625 -0.42187,1.51563 -0.42187,3.03125 0,1.53125 0.42187,3.0625 0.4375,1.51563 1.46875,3.375 0.0625,0.125 0.0625,0.20313 0,0.17187 -0.125,0.28125 -0.10937,0.10937 -0.28125,0.10937 -0.125,0 -0.23437,-0.0937 -0.34375,-0.3125 -1.125,-1.84375 -0.78125,-1.53125 -1.07813,-2.70312 -0.29687,-1.1875 -0.29687,-2.39063 z m 11.71435,0.0156 q 0,1.0625 -0.28125,2.26562 -0.26562,1.1875 -1.0625,2.75 -0.78125,1.57813 -1.14062,1.89063 -0.10938,0.10937 -0.25,0.10937 -0.15625,0 -0.28125,-0.10937 -0.10938,-0.10938 -0.10938,-0.28125 0,-0.0781 0.0625,-0.20313 1.01563,-1.85937 1.45313,-3.375 0.4375,-1.53125 0.4375,-3.04687 0,-1.53125 -0.4375,-3.04688 -0.4375,-1.53125 -1.45313,-3.40625 -0.0625,-0.10937 -0.0625,-0.20312 0,-0.15625 0.10938,-0.26563 0.125,-0.10937 0.28125,-0.10937 0.14062,0 0.25,0.0937 0.34375,0.32812 1.10937,1.85937 0.78125,1.51563 1.07813,2.70313 0.29687,1.17187 0.29687,2.375 z"
     fill-rule="nonzero"
     id="path249" />
  <path
     fill="#000000"
     fill-opacity="0"
     d="m 337.8714,351.07451 v 0 c 14.35941,0 26,7.90399 26,17.65402 h -26 z"
     fill-rule="evenodd"
     id="path251" />
  <path
     fill="#000000"
     fill-opacity="0"
     d="m 337.8714,351.07451 v 0 c 14.35941,0 26,7.90399 26,17.65402"
     fill-rule="evenodd"
     id="path253" />
  <path
     stroke="#000000"
     stroke-width="1"
     stroke-linejoin="round"
     stroke-linecap="butt"
     d="m 337.8714,351.07451 v 0 c 14.35941,0 26,7.90399 26,17.65402"
     fill-rule="evenodd"
     id="path255" />
  <path
     fill="#000000"
     fill-opacity="0"
     d="m 337.8714,351.07451 v 0 c -14.35941,0 -26,7.90399 -26,17.65402 h 26 z"
     fill-rule="evenodd"
     id="path257" />
  <path
     fill="#000000"
     fill-opacity="0"
     d="m 337.8714,351.07451 v 0 c -14.35941,0 -26,7.90399 -26,17.65402"
     fill-rule="evenodd"
     id="path259" />
  <path
     stroke="#000000"
     stroke-width="1"
     stroke-linejoin="round"
     stroke-linecap="butt"
     d="m 337.8714,351.07451 v 0 c -14.35941,0 -26,7.90399 -26,17.65402"
     fill-rule="evenodd"
     id="path261" />
  <path
     fill="#000000"
     fill-opacity="0"
     d="m 433.23883,351.07451 v 0 c 14.35941,0 26,7.90399 26,17.65402 h -26 z"
     fill-rule="evenodd"
     id="path263" />
  <path
     fill="#000000"
     fill-opacity="0"
     d="m 433.23883,351.07451 v 0 c 14.35941,0 26,7.90399 26,17.65402"
     fill-rule="evenodd"
     id="path265" />
  <path
     stroke="#000000"
     stroke-width="1"
     stroke-linejoin="round"
     stroke-linecap="butt"
     d="m 433.23883,351.07451 v 0 c 14.35941,0 26,7.90399 26,17.65402"
     fill-rule="evenodd"
     id="path267" />
  <path
     fill="#000000"
     fill-opacity="0"
     d="m 433.23883,351.07451 v 0 c -14.35938,0 -26,7.90399 -26,17.65402 h 26 z"
     fill-rule="evenodd"
     id="path269" />
  <path
     fill="#000000"
     fill-opacity="0"
     d="m 433.23883,351.07451 v 0 c -14.35938,0 -26,7.90399 -26,17.65402"
     fill-rule="evenodd"
     id="path271" />
  <path
     stroke="#000000"
     stroke-width="1"
     stroke-linejoin="round"
     stroke-linecap="butt"
     d="m 433.23883,351.07451 v 0 c -14.35938,0 -26,7.90399 -26,17.65402"
     fill-rule="evenodd"
     id="path273" />
  <path
     fill="#000000"
     fill-opacity="0"
     d="m 269.42127,446.61024 h 232.5354"
     fill-rule="evenodd"
     id="path275" />
  <path
     stroke="#000000"
     stroke-width="1"
     stroke-linejoin="round"
     stroke-linecap="butt"
     d="m 269.42127,446.61024 h 232.5354"
     fill-rule="evenodd"
     id="path277" />
  <path
     fill="#000000"
     fill-opacity="0"
     d="m 367.03412,309.05907 h 37.19684 v 42.01575 h -37.19684 z"
     fill-rule="evenodd"
     id="path279" />
  <path
     fill="#000000"
     d="m 378.20599,335.97904 v -1.875 h 1.875 v 1.875 z m 6.23437,0 v -1.875 h 1.85938 v 1.875 z m 6.20313,0 v -1.875 h 1.875 v 1.875 z"
     fill-rule="nonzero"
     id="path281" />
  <path
     fill="#000000"
     fill-opacity="0"
     d="m 142.2874,21.70472 h 85.84251 l 17.65357,17.65355 -17.65357,17.65354 H 142.2874 Z"
     fill-rule="evenodd"
     id="path283" />
  <path
     stroke="#000000"
     stroke-width="1"
     stroke-linejoin="round"
     stroke-linecap="butt"
     d="m 142.2874,21.70472 h 85.84251 l 17.65357,17.65355 -17.65357,17.65354 H 142.2874 Z"
     fill-rule="evenodd"
     id="path285" />
  <path
     fill="#000000"
     fill-opacity="0"
     d="m 527.54987,390.01967 h 85.84253 l 17.65356,17.65356 -17.65356,17.65354 h -85.84253 z"
     fill-rule="evenodd"
     id="path287" />
  <path
     stroke="#000000"
     stroke-width="1"
     stroke-linejoin="round"
     stroke-linecap="butt"
     d="m 527.54987,390.01967 h 85.84253 l 17.65356,17.65356 -17.65356,17.65354 h -85.84253 z"
     fill-rule="evenodd"
     id="path289" />
  <path
     fill="#d9ead3"
     d="m 0.5,24.80446 v 0 C 0.5,14.532838 8.826797,6.206033 19.098427,6.206033 v 0 c 4.93261,0 9.663185,1.959473 13.15107,5.447357 3.487885,3.487877 5.44735,8.21846 5.44735,13.15107 v 0 c 0,10.27163 -8.326798,18.59843 -18.59842,18.59843 v 0 C 8.826798,43.40289 0.5,35.07609 0.5,24.80446 Z"
     fill-rule="evenodd"
     id="path291" />
  <path
     stroke="#000000"
     stroke-width="1"
     stroke-linejoin="round"
     stroke-linecap="butt"
     d="m 0.5,24.80446 v 0 C 0.5,14.532838 8.826797,6.206033 19.098427,6.206033 v 0 c 4.93261,0 9.663185,1.959473 13.15107,5.447357 3.487885,3.487877 5.44735,8.21846 5.44735,13.15107 v 0 c 0,10.27163 -8.326798,18.59843 -18.59842,18.59843 v 0 C 8.826798,43.40289 0.5,35.07609 0.5,24.80446 Z"
     fill-rule="evenodd"
     id="path293" />
  <path
     fill="#d9d2e9"
     d="m 25.009184,69.20079 v 0 c 0,-10.27164 8.326797,-18.59843 18.598427,-18.59843 v 0 c 4.932609,0 9.663189,1.95947 13.151069,5.44735 3.48789,3.48789 5.44736,8.21846 5.44736,13.15108 v 0 c 0,10.27162 -8.32681,18.59842 -18.598429,18.59842 v 0 c -10.271629,0 -18.598427,-8.3268 -18.598427,-18.59842 z"
     fill-rule="evenodd"
     id="path295" />
  <path
     stroke="#000000"
     stroke-width="1"
     stroke-linejoin="round"
     stroke-linecap="butt"
     d="m 25.009184,69.20079 v 0 c 0,-10.27164 8.326797,-18.59843 18.598427,-18.59843 v 0 c 4.932609,0 9.663189,1.95947 13.151069,5.44735 3.48789,3.48789 5.44736,8.21846 5.44736,13.15108 v 0 c 0,10.27162 -8.32681,18.59842 -18.598429,18.59842 v 0 c -10.271629,0 -18.598427,-8.3268 -18.598427,-18.59842 z"
     fill-rule="evenodd"
     id="path297" />
  <path
     fill="#cfe2f3"
     d="m 55.40813,24.80446 v 0 c 0,-10.271622 8.3268,-18.598427 18.59843,-18.598427 v 0 c 4.9326,0 9.66319,1.959473 13.15107,5.447357 3.48787,3.487877 5.44735,8.21846 5.44735,13.15107 v 0 c 0,10.27163 -8.3268,18.59843 -18.59842,18.59843 v 0 c -10.27163,0 -18.59843,-8.3268 -18.59843,-18.59843 z"
     fill-rule="evenodd"
     id="path299" />
  <path
     stroke="#000000"
     stroke-width="1"
     stroke-linejoin="round"
     stroke-linecap="butt"
     d="m 55.40813,24.80446 v 0 c 0,-10.271622 8.3268,-18.598427 18.59843,-18.598427 v 0 c 4.9326,0 9.66319,1.959473 13.15107,5.447357 3.48787,3.487877 5.44735,8.21846 5.44735,13.15107 v 0 c 0,10.27163 -8.3268,18.59843 -18.59842,18.59843 v 0 c -10.27163,0 -18.59843,-8.3268 -18.59843,-18.59843 z"
     fill-rule="evenodd"
     id="path301" />
  <path
     fill="#e6b8af"
     d="m 86.46326,69.20079 v 0 c 0,-10.27164 8.3268,-18.59843 18.59842,-18.59843 v 0 c 4.93262,0 9.66319,1.95947 13.15108,5.44735 3.48788,3.48789 5.44735,8.21846 5.44735,13.15108 v 0 c 0,10.27162 -8.32681,18.59842 -18.59843,18.59842 v 0 c -10.27162,0 -18.59842,-8.3268 -18.59842,-18.59842 z"
     fill-rule="evenodd"
     id="path303" />
  <path
     stroke="#000000"
     stroke-width="1"
     stroke-linejoin="round"
     stroke-linecap="butt"
     d="m 86.46326,69.20079 v 0 c 0,-10.27164 8.3268,-18.59843 18.59842,-18.59843 v 0 c 4.93262,0 9.66319,1.95947 13.15108,5.44735 3.48788,3.48789 5.44735,8.21846 5.44735,13.15108 v 0 c 0,10.27162 -8.32681,18.59842 -18.59843,18.59842 v 0 c -10.27162,0 -18.59842,-8.3268 -18.59842,-18.59842 z"
     fill-rule="evenodd"
     id="path305" />
  <path
     fill="#cfe2f3"
     d="m 661.59187,408.22179 19.96851,-42.01575 19.9685,42.01575 z"
     fill-rule="evenodd"
     id="path307" />
  <path
     stroke="#000000"
     stroke-width="1"
     stroke-linejoin="round"
     stroke-linecap="butt"
     d="m 661.59187,408.22179 19.96851,-42.01575 19.9685,42.01575 z"
     fill-rule="evenodd"
     id="path309" />
  <path
     fill="#d9ead3"
     d="m 747.62597,408.22179 19.96851,-42.01575 19.9685,42.01575 z"
     fill-rule="evenodd"
     id="path311" />
  <path
     stroke="#000000"
     stroke-width="1"
     stroke-linejoin="round"
     stroke-linecap="butt"
     d="m 747.62597,408.22179 19.96851,-42.01575 19.9685,42.01575 z"
     fill-rule="evenodd"
     id="path313" />
  <path
     fill="#fce5cd"
     d="m 707.68897,440.51314 19.96851,-42.01578 19.9685,42.01578 z"
     fill-rule="evenodd"
     id="path315" />
  <path
     stroke="#000000"
     stroke-width="1"
     stroke-linejoin="round"
     stroke-linecap="butt"
     d="m 707.68897,440.51314 19.96851,-42.01578 19.9685,42.01578 z"
     fill-rule="evenodd"
     id="path317" />
</svg>
