<svg width="2617" height="1561" xmlns="http://www.w3.org/2000/svg" xmlns:xlink="http://www.w3.org/1999/xlink" xml:space="preserve" overflow="hidden"><g transform="translate(-476 -177)"><text font-family="Calibri,Calibri_MSFontService,sans-serif" font-weight="400" font-size="165" transform="matrix(1 0 0 1 1623.84 381)">Object</text><text font-family="Calibri,Calibri_MSFontService,sans-serif" font-weight="400" font-size="165" transform="matrix(1 0 0 1 1563.54 778)">Weapon</text><text font-family="Calibri,Calibri_MSFontService,sans-serif" font-weight="400" font-size="165" transform="matrix(1 0 0 1 575.434 1181)">ExpensiveWeapon</text><text font-family="Calibri,Calibri_MSFontService,sans-serif" font-weight="400" font-size="165" transform="matrix(1 0 0 1 2102.62 1181)">MightySword</text><text font-family="Calibri,Calibri_MSFontService,sans-serif" font-weight="400" font-size="165" transform="matrix(1 0 0 1 2135.69 1594)">MagicSword</text><path d="M1847.5 443.5 1847.5 607.249" stroke="#000000" stroke-width="22.9167" stroke-miterlimit="8" fill="none" fill-rule="evenodd"/><path d="M0 0 652.515 169.742" stroke="#000000" stroke-width="22.9167" stroke-miterlimit="8" fill="none" fill-rule="evenodd" transform="matrix(-1 0 0 1 1848.01 840.5)"/><path d="M1847.5 840.5 2552.57 1010.24" stroke="#000000" stroke-width="22.9167" stroke-miterlimit="8" fill="none" fill-rule="evenodd"/><path d="M0 0 0.000360892 180.477" stroke="#000000" stroke-width="22.9167" stroke-miterlimit="8" fill="none" fill-rule="evenodd" transform="matrix(-1 0 0 1 2553.5 1243.5)"/></g></svg>