<svg width="1014" height="871" xmlns="http://www.w3.org/2000/svg" xmlns:xlink="http://www.w3.org/1999/xlink" xml:space="preserve" overflow="hidden"><defs><clipPath id="clip0"><rect x="1622" y="538" width="1014" height="871"/></clipPath></defs><g clip-path="url(#clip0)" transform="translate(-1622 -538)"><path d="M2092.5 742C2092.5 696.437 2129.44 659.5 2175 659.5 2220.56 659.5 2257.5 696.437 2257.5 742 2257.5 787.564 2220.56 824.5 2175 824.5 2129.44 824.5 2092.5 787.564 2092.5 742Z" stroke="#000000" stroke-width="4.58333" stroke-miterlimit="8" fill="#FFFFFF" fill-rule="evenodd"/><text font-family="Calibri,Calibri_MSFontService,sans-serif" font-weight="400" font-size="64" transform="matrix(1 0 0 1 2157.74 763)">0</text><path d="M1861.5 1034C1861.5 988.437 1898.44 951.5 1944 951.5 1989.56 951.5 2026.5 988.437 2026.5 1034 2026.5 1079.56 1989.56 1116.5 1944 1116.5 1898.44 1116.5 1861.5 1079.56 1861.5 1034Z" stroke="#000000" stroke-width="4.58333" stroke-miterlimit="8" fill="#FFFFFF" fill-rule="evenodd"/><text font-family="Calibri,Calibri_MSFontService,sans-serif" font-weight="400" font-size="64" transform="matrix(1 0 0 1 1927.1 1055)">1</text><path d="M2092.5 1324C2092.5 1278.44 2129.44 1241.5 2175 1241.5 2220.56 1241.5 2257.5 1278.44 2257.5 1324 2257.5 1369.56 2220.56 1406.5 2175 1406.5 2129.44 1406.5 2092.5 1369.56 2092.5 1324Z" stroke="#000000" stroke-width="4.58333" stroke-miterlimit="8" fill="#FFFFFF" fill-rule="evenodd"/><text font-family="Calibri,Calibri_MSFontService,sans-serif" font-weight="400" font-size="64" transform="matrix(1 0 0 1 2157.74 1345)">2</text><path d="M3.40102-3.87556 168.031 140.596 161.229 148.347-3.40102 3.87556ZM158.17 108.866 172.321 151.221 128.487 142.691C125.692 142.147 123.867 139.44 124.411 136.644 124.955 133.849 127.662 132.024 130.457 132.568L165.614 139.41 159.739 146.105 148.389 112.134C147.486 109.433 148.944 106.512 151.645 105.61 154.346 104.707 157.267 106.165 158.17 108.866Z" transform="matrix(-1 0 0 1 2115.3 800)"/><path d="M2179.16 824 2179.16 1230.78 2168.84 1230.78 2168.84 824ZM2196.5 1202.44 2174 1241.01 2151.5 1202.44C2150.06 1199.98 2150.9 1196.82 2153.36 1195.39 2155.81 1193.95 2158.97 1194.78 2160.41 1197.24L2178.45 1228.18 2169.55 1228.18 2187.59 1197.24C2189.03 1194.78 2192.19 1193.95 2194.65 1195.39 2197.1 1196.82 2197.94 1199.98 2196.5 1202.44Z"/><path d="M1946.37 1112.1 2110.96 1254.53 2104.21 1262.33 1939.63 1119.9ZM2100.88 1222.87 2115.32 1265.12 2071.43 1256.9C2068.63 1256.37 2066.79 1253.68 2067.31 1250.88 2067.84 1248.08 2070.53 1246.24 2073.33 1246.76L2108.53 1253.36 2102.7 1260.1 2091.12 1226.2C2090.2 1223.51 2091.64 1220.58 2094.33 1219.66 2097.02 1218.74 2099.96 1220.17 2100.88 1222.87Z"/><text font-family="Calibri,Calibri_MSFontService,sans-serif" font-weight="400" font-size="83" transform="matrix(1 0 0 1 2289.56 1336)">return</text><text font-family="Calibri,Calibri_MSFontService,sans-serif" font-weight="400" font-size="83" transform="matrix(1 0 0 1 2520.08 1336)">m</text><text font-family="Calibri,Calibri_MSFontService,sans-serif" font-weight="400" font-size="83" transform="matrix(1 0 0 1 1671.52 1059)">m=a</text><text font-family="Calibri,Calibri_MSFontService,sans-serif" font-weight="400" font-size="83" transform="matrix(1 0 0 1 1872.18 852)">a</text><path d="M1967.84 802.979 1967.84 809.059 1923.83 828.147 1967.84 847.235 1967.84 853.314 1917.75 830.984 1917.75 825.31Z" fill-rule="evenodd"/><text fill="#000000" fill-opacity="0" font-family="Arial,Arial_MSFontService,sans-serif" font-size="50.335" x="1917.75" y="847.023">&lt;</text><text font-family="Calibri,Calibri_MSFontService,sans-serif" font-weight="400" font-size="83" transform="matrix(1 0 0 1 1973.59 852)">b</text><path d="M2179.16 538 2179.16 648.249 2168.84 648.249 2168.84 538ZM2196.5 619.91 2174 658.482 2151.5 619.91C2150.06 617.45 2150.9 614.293 2153.35 612.858 2155.81 611.423 2158.97 612.254 2160.41 614.714L2178.45 645.651 2169.55 645.651 2187.59 614.714C2189.03 612.254 2192.19 611.423 2194.65 612.858 2197.1 614.293 2197.94 617.45 2196.5 619.91Z"/><text font-family="Calibri,Calibri_MSFontService,sans-serif" font-weight="400" font-size="83" transform="matrix(1 0 0 1 2294.27 752)">m=0</text><text font-family="Calibri,Calibri_MSFontService,sans-serif" font-weight="400" font-size="83" transform="matrix(1 0 0 1 2220.66 1023)">a</text><path d="M2266.23 1022.48 2316.16 1022.48 2316.16 1027.87 2266.23 1027.87ZM2266.23 971.533 2316.32 991.027 2316.32 996.701 2266.23 1016.19 2266.23 1010.12 2309.64 993.864 2266.23 977.612Z" fill-rule="evenodd"/><text fill="#000000" fill-opacity="0" font-family="Arial,Arial_MSFontService,sans-serif" font-size="56.3329" x="2266.23" y="1020.82">≥</text><text font-family="Calibri,Calibri_MSFontService,sans-serif" font-weight="400" font-size="83" transform="matrix(1 0 0 1 2322.07 1023)">b</text></g></svg>