<svg width="1477" height="965" xmlns="http://www.w3.org/2000/svg" xmlns:xlink="http://www.w3.org/1999/xlink" xml:space="preserve" overflow="hidden"><defs><clipPath id="clip0"><rect x="1592" y="549" width="1477" height="965"/></clipPath></defs><g clip-path="url(#clip0)" transform="translate(-1592 -549)"><path d="M2268.5 1074C2268.5 1028.44 2305.44 991.5 2351 991.5 2396.56 991.5 2433.5 1028.44 2433.5 1074 2433.5 1119.56 2396.56 1156.5 2351 1156.5 2305.44 1156.5 2268.5 1119.56 2268.5 1074Z" stroke="#000000" stroke-width="4.58333" stroke-miterlimit="8" fill="#FFFFFF" fill-rule="evenodd"/><text font-family="Calibri,Calibri_MSFontService,sans-serif" font-weight="400" font-size="64" transform="matrix(1 0 0 1 2334.44 1095)">1</text><path d="M2429.5 1343C2429.5 1297.44 2466.44 1260.5 2512 1260.5 2557.56 1260.5 2594.5 1297.44 2594.5 1343 2594.5 1388.56 2557.56 1425.5 2512 1425.5 2466.44 1425.5 2429.5 1388.56 2429.5 1343Z" stroke="#000000" stroke-width="4.58333" stroke-miterlimit="8" fill="#FFFFFF" fill-rule="evenodd"/><text font-family="Calibri,Calibri_MSFontService,sans-serif" font-weight="400" font-size="64" transform="matrix(1 0 0 1 2495.54 1364)">2</text><path d="M2060.5 1412C2060.5 1366.44 2097.44 1329.5 2143 1329.5 2188.56 1329.5 2225.5 1366.44 2225.5 1412 2225.5 1457.56 2188.56 1494.5 2143 1494.5 2097.44 1494.5 2060.5 1457.56 2060.5 1412Z" stroke="#000000" stroke-width="4.58333" stroke-miterlimit="8" fill="#FFFFFF" fill-rule="evenodd"/><text font-family="Calibri,Calibri_MSFontService,sans-serif" font-weight="400" font-size="64" transform="matrix(1 0 0 1 2125.82 1433)">3</text><path d="M4.29325-2.85567 134.206 192.457 125.62 198.168-4.29325 2.85567ZM132.953 159.255 135.581 203.834 95.4832 184.178C92.9262 182.925 91.8694 179.836 93.1228 177.279 94.3763 174.722 97.4652 173.665 100.022 174.918L132.183 190.683 124.766 195.616 122.658 159.862C122.491 157.019 124.659 154.579 127.502 154.411 130.345 154.244 132.785 156.412 132.953 159.255Z" transform="matrix(-1 0 0 1 2292.57 1132)"/><path d="M2413.02 1128.77 2509.39 1248.81 2501.35 1255.27 2404.98 1135.23ZM2505.17 1215.85 2511.77 1260.02 2470.08 1244.03C2467.42 1243.01 2466.09 1240.02 2467.11 1237.37 2468.13 1234.71 2471.11 1233.38 2473.77 1234.4L2507.21 1247.23 2500.27 1252.8 2494.97 1217.38C2494.55 1214.56 2496.49 1211.94 2499.31 1211.52 2502.13 1211.1 2504.75 1213.04 2505.17 1215.85Z"/><path d="M-0.530298 5.12891-4.89612 4.67751-9.65519 3.2192-14.2202 0.915297-18.5923-2.14211-22.7959-5.88906-26.8578-10.2839-30.7987-15.2978-34.6322-20.9075-38.3657-27.0921-42.0021-33.831-45.5415-41.1032-48.9814-48.8871-52.3183-57.1607-55.5472-65.9012-58.6627-75.0858-61.6588-84.6908-64.529-94.6926-67.2733-105.092-72.3176-126.837-76.7539-149.807-80.5177-173.781-83.5501-198.559-85.7912-223.945-87.1805-249.74-87.6582-275.793-87.1609-289.047-85.6857-302.311-83.2689-315.506-79.9444-328.605-75.7464-341.582-70.7084-354.412-64.8638-367.07-58.2454-379.532-50.8856-391.774-42.8164-403.772-34.0694-415.502-24.6759-426.941-14.667-438.063-4.07365-448.846 7.07353-459.265 18.744-469.296 30.9074-478.914 43.5332-488.094 56.5914-496.813 70.0517-505.045 83.884-512.765 98.0582-519.948 112.544-526.569 127.312-532.603 142.332-538.024 157.573-542.807 173.005-546.926 188.6-550.354 204.325-553.066 220.151-555.036 236.047-556.238 251.993-556.645 267.962-556.161 283.904-554.732 299.773-552.388 315.537-549.163 331.166-545.086 346.629-540.191 361.896-534.507 376.938-528.067 391.723-520.9 406.223-513.038 420.407-504.51 434.245-495.348 447.707-485.58 460.764-475.238 473.386-464.351 485.541-452.948 497.201-441.059 508.335-428.714 518.911-415.942 528.901-402.772 538.273-389.234 546.996-375.356 555.039-361.168 562.372-346.699 568.961-331.979 574.778-317.036 579.788-301.899 583.96-286.599 587.262-271.165 589.661-255.627 591.124-240.016 591.618-224.402 591.358-208.864 590.592-193.399 589.335-177.998 587.604-162.69 585.416-147.506 582.786-132.475 579.732-117.626 576.268-102.988 572.412-88.5905 568.168-74.4267 558.661-47.1732 553.378-33.9963 547.796-21.2427 541.915-8.90566 535.751 2.98567 529.319 14.4021 522.633 25.3144 515.707 35.6933 508.556 45.5096 501.193 54.7337 493.63 63.3359 485.881 71.2861 477.957 78.5535 469.868 85.1064 461.626 90.9116 453.241 95.9341 444.48 100.257 436.259 102.48 433.568 92.5252 441.303 90.4337 440.367 90.7873 448.489 86.7791 448.122 86.9796 456.163 82.1628 455.843 82.3707 463.788 76.7752 463.511 76.9843 471.342 70.6401 471.103 70.8464 478.804 63.7835 478.597 63.9846 486.153 56.2328 485.973 56.4274 493.367 48.0167 493.209 48.2044 500.425 39.1648 500.288 39.3455 507.309 29.7069 507.188 29.881 513.999 19.6734 513.892 19.8415 520.476 9.09485 520.381 9.25763 526.723-1.99819 526.637-1.84004 532.72-13.575 532.643-13.4207 538.451-25.605 538.382-25.4538 543.898-38.0573 543.836-37.9086 549.045-50.9014 548.962-50.6811 558.393-77.715 558.322-77.4967 562.512-91.4778 562.47-91.3319 566.287-105.583 566.25-105.436 569.679-119.926 569.646-119.778 572.67-134.478 572.641-134.327 575.244-149.207 575.22-149.054 577.386-164.083 577.366-163.927 579.079-179.076 579.063-178.916 580.307-194.156 580.296-193.991 581.054-209.29 581.049-209.121 581.305-224.45 581.307-224.201 580.822-239.53 580.842-239.212 579.408-254.511 579.446-254.205 577.093-269.444 577.146-269.152 573.906-284.301 573.973-284.024 569.875-299.053 569.954-298.789 565.029-313.669 565.119-313.419 559.398-328.119 559.497-327.882 553.01-342.373 553.117-342.149 545.895-356.399 546.009-356.187 538.083-370.168 538.203-369.967 529.603-383.649 529.729-383.458 520.486-396.81 520.617-396.629 510.762-409.622 510.899-409.449 500.461-422.053 500.604-421.888 489.615-434.072 489.763-433.915 478.254-445.65 478.408-445.5 466.409-456.756 466.568-456.612 454.11-467.359 454.277-467.221 441.39-477.429 441.563-477.297 428.278-486.936 428.459-486.81 414.807-495.85 414.997-495.73 401.007-504.14 401.206-504.027 386.911-511.779 387.119-511.671 372.548-518.734 372.768-518.634 357.951-524.978 358.182-524.886 343.151-530.482 343.394-530.398 328.18-535.215 328.435-535.141 313.067-539.149 313.335-539.087 297.845-542.257 298.125-542.207 282.544-544.509 282.837-544.474 267.194-545.876 267.498-545.858 251.824-546.332 252.112-546.332 236.438-545.932 236.695-545.945 221.052-544.763 221.301-544.787 205.719-542.848 205.958-542.883 190.468-540.211 190.699-540.257 175.332-536.878 175.554-536.932 160.34-532.872 160.554-532.934 145.523-528.218 145.73-528.287 130.914-522.94 131.113-523.016 116.542-517.063 116.735-517.146 102.44-510.612 102.627-510.702 88.6378-503.613 88.8198-503.71 75.1672-496.09 75.3445-496.193 62.0594-488.069 62.2324-488.179 49.3453-479.575 49.5145-479.693 37.0562-470.634 37.222-470.76 25.2231-461.272 25.3859-461.406 13.8769-451.514 14.0368-451.658 3.04841-441.387 3.20573-441.541-7.23148-430.917-7.0768-431.081-16.9322-420.129-16.7803-420.306-26.0232-409.051-25.8744-409.241-34.4743-397.708-34.3292-397.913-42.2554-386.128-42.1148-386.348-49.3367-374.336-49.2019-374.574-55.6888-362.36-55.5613-362.617-61.2827-350.226-61.1645-350.503-66.0896-337.96-65.9832-338.258-70.0815-325.589-69.9896-325.907-73.2305-313.138-73.1564-313.477-75.5093-300.631-75.4565-300.991-76.8907-288.095-76.8627-288.471-77.3475-275.55-77.3448-275.838-76.8715-250.021-76.8781-250.203-75.4984-224.588-75.5109-224.764-73.2852-199.553-73.3034-199.726-70.2922-175.12-70.3165-175.294-66.5802-151.496-66.6113-151.674-62.2104-128.886-62.2502-129.074-57.245-107.497-57.2823-107.648-54.572-97.3774-54.6014-97.484-51.7627-87.5922-51.7965-87.7053-48.837-78.2173-48.8763-78.3383-45.8035-69.2795-45.8497-69.4099-42.6711-60.8056-42.7259-60.9474-39.4491-52.8227-39.5148-52.9783-36.1474-45.3585-36.2273-45.5307-32.7768-38.4411-32.8754-38.6333-29.3493-32.099-29.4728-32.3151-25.8787-26.3615-26.0359-26.6059-22.3814-21.2582-22.5847-21.5354-18.8774-16.8187-19.1446-17.1321-15.392-13.0719-15.7477-13.4212-11.9573-10.0426-12.4333-10.419-8.61266-7.74724-9.2444-8.12491-5.40112-6.18525-6.21364-6.51201-2.35526-5.3297-3.33564-5.52862 0.530298-5.12891ZM445.218 121.691 409.674 102.759 434.706 71.2117Z" transform="matrix(-6.12323e-17 -1 -1 6.12323e-17 2511.76 1425.67)"/><text font-family="Calibri,Calibri_MSFontService,sans-serif" font-weight="400" font-size="83" transform="matrix(1 0 0 1 1641.88 1437)">return</text><text font-family="Calibri,Calibri_MSFontService,sans-serif" font-weight="400" font-size="83" transform="matrix(1 0 0 1 1872.4 1437)">sum</text><text font-family="Calibri,Calibri_MSFontService,sans-serif" font-weight="400" font-size="83" transform="matrix(1 0 0 1 2625.69 1313)">sum</text><text font-family="Calibri,Calibri_MSFontService,sans-serif" font-weight="400" font-size="83" transform="matrix(1 0 0 1 2767.2 1313)">=i</text><text font-family="Calibri,Calibri_MSFontService,sans-serif" font-weight="400" font-size="83" transform="matrix(1 0 0 1 2625.69 1412)">i++</text><text font-family="Calibri,Calibri_MSFontService,sans-serif" font-weight="400" font-size="83" transform="matrix(1 0 0 1 2033.17 1243)">i</text><path d="M2058.12 1193.92 2108.21 1216.25 2108.21 1221.92 2058.12 1244.25 2058.12 1238.17 2102.13 1219.08 2058.12 1200Z" fill-rule="evenodd"/><text fill="#000000" fill-opacity="0" font-family="Arial,Arial_MSFontService,sans-serif" font-size="50.335" x="2058.12" y="1237.96">&gt;</text><text font-family="Calibri,Calibri_MSFontService,sans-serif" font-weight="400" font-size="83" transform="matrix(1 0 0 1 2113.96 1243)">n</text><text font-family="Calibri,Calibri_MSFontService,sans-serif" font-weight="400" font-size="83" transform="matrix(1 0 0 1 2479.37 1171)">i</text><path d="M2504.48 1170.44 2554.41 1170.44 2554.41 1175.83 2504.48 1175.83ZM2554.41 1119.49 2554.41 1125.57 2511.01 1141.82 2554.41 1158.07 2554.41 1164.15 2504.32 1144.66 2504.32 1138.99Z" fill-rule="evenodd"/><text fill="#000000" fill-opacity="0" font-family="Arial,Arial_MSFontService,sans-serif" font-size="56.333" x="2504.32" y="1168.78">≤</text><text font-family="Calibri,Calibri_MSFontService,sans-serif" font-weight="400" font-size="83" transform="matrix(1 0 0 1 2560.15 1171)">n</text><path d="M5.15625-1.69168e-05 5.15658 99.7907-5.15592 99.7907-5.15625 1.69168e-05ZM22.501 71.4511 0.000360586 110.024-22.5005 71.4513C-23.9354 68.9915-23.1045 65.8342-20.6447 64.3993-18.185 62.9644-15.0277 63.7953-13.5928 66.2551L4.45418 97.1925-4.45354 97.1926 13.5932 66.255C15.0281 63.7952 18.1854 62.9643 20.6452 64.3992 23.105 65.8341 23.9358 68.9913 22.501 71.4511Z" transform="matrix(-1 0 0 1 2351 549)"/><path d="M2268.5 742C2268.5 696.437 2305.44 659.5 2351 659.5 2396.56 659.5 2433.5 696.437 2433.5 742 2433.5 787.564 2396.56 824.5 2351 824.5 2305.44 824.5 2268.5 787.564 2268.5 742Z" stroke="#000000" stroke-width="4.58333" stroke-miterlimit="8" fill="#FFFFFF" fill-rule="evenodd"/><text font-family="Calibri,Calibri_MSFontService,sans-serif" font-weight="400" font-size="64" transform="matrix(1 0 0 1 2334.44 763)">0</text><text font-family="Calibri,Calibri_MSFontService,sans-serif" font-weight="400" font-size="83" transform="matrix(1 0 0 1 2480.5 726)">sum</text><text font-family="Calibri,Calibri_MSFontService,sans-serif" font-weight="400" font-size="83" transform="matrix(1 0 0 1 2622.01 726)">=0</text><text font-family="Calibri,Calibri_MSFontService,sans-serif" font-weight="400" font-size="83" transform="matrix(1 0 0 1 2480.5 825)">i=1</text><path d="M5.15625-4.4843e-05 5.1576 155.779-5.1549 155.779-5.15625 4.4843e-05ZM22.5018 127.439 0.00144375 166.012-22.4996 127.44C-23.9345 124.98-23.1037 121.822-20.6439 120.388-18.1841 118.953-15.0269 119.784-13.592 122.243L4.45519 153.181-4.45253 153.181 13.5941 122.243C15.0289 119.783 18.1862 118.952 20.646 120.387 23.1058 121.822 23.9367 124.979 22.5018 127.439Z" transform="matrix(-1 0 0 1 2351 825)"/></g></svg>