<svg width="1112" height="923" xmlns="http://www.w3.org/2000/svg" xmlns:xlink="http://www.w3.org/1999/xlink" xml:space="preserve" overflow="hidden"><defs><clipPath id="clip0"><rect x="1512" y="413" width="1112" height="923"/></clipPath></defs><g clip-path="url(#clip0)" transform="translate(-1512 -413)"><path d="M1982.5 616C1982.5 570.437 2019.44 533.5 2065 533.5 2110.56 533.5 2147.5 570.437 2147.5 616 2147.5 661.563 2110.56 698.5 2065 698.5 2019.44 698.5 1982.5 661.563 1982.5 616Z" stroke="#000000" stroke-width="4.58333" stroke-miterlimit="8" fill="#FFFFFF" fill-rule="evenodd"/><text font-family="Calibri,Calibri_MSFontService,sans-serif" font-weight="400" font-size="64" transform="matrix(1 0 0 1 2048.28 637)">0</text><path d="M1751.5 908C1751.5 862.436 1788.44 825.5 1834 825.5 1879.56 825.5 1916.5 862.436 1916.5 908 1916.5 953.563 1879.56 990.5 1834 990.5 1788.44 990.5 1751.5 953.563 1751.5 908Z" stroke="#000000" stroke-width="4.58333" stroke-miterlimit="8" fill="#FFFFFF" fill-rule="evenodd"/><text font-family="Calibri,Calibri_MSFontService,sans-serif" font-weight="400" font-size="64" transform="matrix(1 0 0 1 1817.64 929)">1</text><path d="M2228.5 908C2228.5 862.436 2265.44 825.5 2311 825.5 2356.56 825.5 2393.5 862.436 2393.5 908 2393.5 953.563 2356.56 990.5 2311 990.5 2265.44 990.5 2228.5 953.563 2228.5 908Z" stroke="#000000" stroke-width="4.58333" stroke-miterlimit="8" fill="#FFFFFF" fill-rule="evenodd"/><text font-family="Calibri,Calibri_MSFontService,sans-serif" font-weight="400" font-size="64" transform="matrix(1 0 0 1 2293.67 929)">2</text><path d="M1982.5 1198C1982.5 1152.44 2019.44 1115.5 2065 1115.5 2110.56 1115.5 2147.5 1152.44 2147.5 1198 2147.5 1243.56 2110.56 1280.5 2065 1280.5 2019.44 1280.5 1982.5 1243.56 1982.5 1198Z" stroke="#000000" stroke-width="4.58333" stroke-miterlimit="8" fill="#FFFFFF" fill-rule="evenodd"/><text font-family="Calibri,Calibri_MSFontService,sans-serif" font-weight="400" font-size="64" transform="matrix(1 0 0 1 2048.28 1219)">3</text><path d="M3.40102-3.87556 168.031 140.596 161.229 148.347-3.40102 3.87556ZM158.17 108.866 172.321 151.221 128.487 142.691C125.692 142.147 123.867 139.44 124.411 136.644 124.955 133.849 127.662 132.024 130.457 132.568L165.614 139.41 159.739 146.105 148.389 112.134C147.486 109.433 148.944 106.512 151.645 105.61 154.346 104.707 157.267 106.165 158.17 108.866Z" transform="matrix(-1 0 0 1 2006.3 674)"/><path d="M2126.24 669.99 2305.36 814.777 2298.88 822.797 2119.76 678.01ZM2294.22 783.473 2310.08 825.22 2265.93 818.471C2263.12 818.04 2261.19 815.409 2261.62 812.594 2262.05 809.779 2264.68 807.846 2267.49 808.277L2302.9 813.69 2297.3 820.618 2284.58 787.134C2283.57 784.472 2284.91 781.494 2287.57 780.483 2290.24 779.472 2293.21 780.811 2294.22 783.473Z"/><path d="M1837.37 986.101 2001.96 1128.53 1995.21 1136.33 1830.63 993.899ZM1991.88 1096.87 2006.32 1139.12 1962.43 1130.9C1959.63 1130.37 1957.79 1127.68 1958.31 1124.88 1958.84 1122.08 1961.53 1120.24 1964.33 1120.76L1999.53 1127.36 1993.7 1134.1 1982.12 1100.2C1981.2 1097.51 1982.64 1094.58 1985.33 1093.66 1988.03 1092.74 1990.96 1094.17 1991.88 1096.87Z"/><path d="M3.214-4.03201 182.289 138.713 175.861 146.777-3.214 4.03201ZM170.94 107.485 187.077 149.123 142.889 142.675C140.072 142.264 138.121 139.646 138.532 136.828 138.943 134.01 141.561 132.059 144.379 132.471L179.82 137.643 174.267 144.608 161.324 111.212C160.295 108.557 161.613 105.57 164.269 104.541 166.924 103.512 169.911 104.83 170.94 107.485Z" transform="matrix(-1 0 0 1 2310.06 990)"/><text font-family="Calibri,Calibri_MSFontService,sans-serif" font-weight="400" font-size="83" transform="matrix(1 0 0 1 2164.53 1264)">return</text><text font-family="Calibri,Calibri_MSFontService,sans-serif" font-weight="400" font-size="83" transform="matrix(1 0 0 1 2395.05 1264)">m</text><text font-family="Calibri,Calibri_MSFontService,sans-serif" font-weight="400" font-size="83" transform="matrix(1 0 0 1 2425.78 928)">m=a</text><text font-family="Calibri,Calibri_MSFontService,sans-serif" font-weight="400" font-size="83" transform="matrix(1 0 0 1 1562.06 933)">m=a</text><text font-family="Calibri,Calibri_MSFontService,sans-serif" font-weight="400" font-size="83" transform="matrix(1 0 0 1 1758.74 738)">a</text><path d="M1854.4 689.61 1854.4 695.689 1810.39 714.777 1854.4 733.866 1854.4 739.945 1804.31 717.614 1804.31 711.94Z" fill-rule="evenodd"/><text fill="#000000" fill-opacity="0" font-family="Arial,Arial_MSFontService,sans-serif" font-size="50.335" x="1804.31" y="733.653">&lt;</text><text font-family="Calibri,Calibri_MSFontService,sans-serif" font-weight="400" font-size="83" transform="matrix(1 0 0 1 1860.14 738)">b</text><text font-family="Calibri,Calibri_MSFontService,sans-serif" font-weight="400" font-size="83" transform="matrix(1 0 0 1 2249.47 734)">a</text><path d="M2295.04 732.579 2344.97 732.579 2344.97 737.969 2295.04 737.969ZM2295.04 681.636 2345.13 701.13 2345.13 706.804 2295.04 726.297 2295.04 720.218 2338.45 703.967 2295.04 687.715Z" fill-rule="evenodd"/><text fill="#000000" fill-opacity="0" font-family="Arial,Arial_MSFontService,sans-serif" font-size="56.333" x="2295.04" y="730.928">≥</text><text font-family="Calibri,Calibri_MSFontService,sans-serif" font-weight="400" font-size="83" transform="matrix(1 0 0 1 2350.88 734)">b</text><path d="M2070.16 413 2070.16 523.249 2059.84 523.249 2059.84 413ZM2087.5 494.91 2065 533.482 2042.5 494.91C2041.06 492.45 2041.9 489.293 2044.36 487.858 2046.82 486.423 2049.97 487.254 2051.41 489.714L2069.45 520.651 2060.55 520.651 2078.59 489.714C2080.03 487.254 2083.19 486.423 2085.65 487.858 2088.1 489.293 2088.94 492.45 2087.5 494.91Z"/></g></svg>