<svg width="2029" height="1245" xmlns="http://www.w3.org/2000/svg" xmlns:xlink="http://www.w3.org/1999/xlink" xml:space="preserve" overflow="hidden"><g transform="translate(-1107 -574)"><text font-family="Calibri,Calibri_MSFontService,sans-serif" font-weight="400" font-size="165" transform="matrix(1 0 0 1 1563.54 778)">Throwable</text><text font-family="Calibri,Calibri_MSFontService,sans-serif" font-weight="400" font-size="165" transform="matrix(1 0 0 1 1249.8 1207)">Error</text><text font-family="Calibri,Calibri_MSFontService,sans-serif" font-weight="400" font-size="165" transform="matrix(1 0 0 1 2102.62 1181)">Exception</text><path d="M0 0 501.655 195.506" stroke="#000000" stroke-width="22.9167" stroke-miterlimit="8" fill="none" fill-rule="evenodd" transform="matrix(-1 0 0 1 1922.15 840.5)"/><path d="M1922.5 840.5 2433.01 1010.24" stroke="#000000" stroke-width="22.9167" stroke-miterlimit="8" fill="none" fill-rule="evenodd"/><text font-family="Calibri,Calibri_MSFontService,sans-serif" font-weight="400" font-size="165" transform="matrix(1 0 0 1 1816.16 1635)">RuntimeException</text><path d="M2432.5 1243.5 2432.5 1464.77" stroke="#000000" stroke-width="22.9167" stroke-miterlimit="8" fill="none" fill-rule="evenodd"/><text fill="#FF0000" font-family="Calibri,Calibri_MSFontService,sans-serif" font-weight="400" font-size="101" transform="matrix(1 0 0 1 1167.66 1302)">(</text><text fill="#FF0000" font-family="Calibri,Calibri_MSFontService,sans-serif" font-weight="400" font-size="101" transform="matrix(1 0 0 1 1198.03 1302)">unchecked</text><text fill="#FF0000" font-family="Calibri,Calibri_MSFontService,sans-serif" font-weight="400" font-size="101" transform="matrix(1 0 0 1 1637.06 1302)">)</text><text fill="#FF0000" font-family="Calibri,Calibri_MSFontService,sans-serif" font-weight="400" font-size="101" transform="matrix(1 0 0 1 2179.83 1731)">(</text><text fill="#FF0000" font-family="Calibri,Calibri_MSFontService,sans-serif" font-weight="400" font-size="101" transform="matrix(1 0 0 1 2210.19 1731)">unchecked</text><text fill="#FF0000" font-family="Calibri,Calibri_MSFontService,sans-serif" font-weight="400" font-size="101" transform="matrix(1 0 0 1 2649.23 1731)">)</text></g></svg>