<svg width="2153" height="1752" xmlns="http://www.w3.org/2000/svg" xmlns:xlink="http://www.w3.org/1999/xlink" xml:space="preserve" overflow="hidden"><g transform="translate(-871 -329)"><text font-family="Calibri,Calibri_MSFontService,sans-serif" font-weight="400" font-size="165" transform="matrix(1 0 0 1 1318.54 533)">main</text><text font-family="Calibri,Calibri_MSFontService,sans-serif" font-weight="400" font-size="165" transform="matrix(1 0 0 1 1690.93 533)">method</text><text font-family="Calibri,Calibri_MSFontService,sans-serif" font-weight="400" font-size="165" transform="matrix(1 0 0 1 970.029 1247)">setBossOfTeam</text><text font-family="Calibri,Calibri_MSFontService,sans-serif" font-weight="400" font-size="165" transform="matrix(1 0 0 1 2032.7 1247)">method</text><text font-family="Calibri,Calibri_MSFontService,sans-serif" font-weight="400" font-size="165" transform="matrix(1 0 0 1 1231.63 1933)">setBoss</text><text font-family="Calibri,Calibri_MSFontService,sans-serif" font-weight="400" font-size="165" transform="matrix(1 0 0 1 1776.15 1933)">method</text><path d="M1555.96 647.5 1555.96 974.5 1533.04 974.5 1533.04 647.5ZM1601.79 963.042 1544.5 1077.63 1487.21 963.042Z" fill="#0070C0"/><path d="M1555.96 1310.5 1555.96 1637.5 1533.04 1637.5 1533.04 1310.5ZM1601.79 1626.04 1544.5 1740.63 1487.21 1626.04Z" fill="#0070C0"/><text fill="#0070C0" font-family="Calibri,Calibri_MSFontService,sans-serif" font-weight="400" font-size="165" transform="matrix(1 0 0 1 1172.52 916)">call</text><text fill="#0070C0" font-family="Calibri,Calibri_MSFontService,sans-serif" font-weight="400" font-size="165" transform="matrix(1 0 0 1 1171.06 1579)">call</text><path d="M11.4583-9.13609e-06 11.4586 349.5-11.4581 349.5-11.4583 9.13609e-06ZM57.2919 338.042 0.000360892 452.625-57.2914 338.042Z" fill="#FFC000" transform="matrix(1 0 0 -1 2105.5 1752.12)"/><path d="M11.4583-9.13609e-06 11.4586 349.5-11.4581 349.5-11.4583 9.13609e-06ZM57.2919 338.042 0.000360892 452.625-57.2914 338.042Z" fill="#FFC000" transform="matrix(1 0 0 -1 2105.5 1077.13)"/><path d="M2586.63 1525.13C2584.9 1525.13 2583.2 1525.38 2581.52 1525.89 2579.85 1526.4 2578.14 1527.21 2576.41 1528.31 2574.69 1529.41 2572.88 1530.86 2570.98 1532.66 2569.09 1534.46 2567.09 1536.68 2564.99 1539.31L2564.99 1568.15C2568.66 1572.61 2572.15 1576.02 2575.44 1578.38 2578.74 1580.75 2582.2 1581.93 2585.82 1581.93 2589.17 1581.93 2592.05 1581.12 2594.45 1579.51 2596.86 1577.9 2598.8 1575.75 2600.29 1573.07 2601.77 1570.38 2602.87 1567.37 2603.57 1564.04 2604.27 1560.71 2604.62 1557.35 2604.62 1553.97 2604.62 1550.27 2604.34 1546.68 2603.77 1543.22 2603.21 1539.75 2602.23 1536.68 2600.85 1533.99 2599.48 1531.31 2597.63 1529.16 2595.3 1527.55 2592.98 1525.93 2590.09 1525.13 2586.63 1525.13ZM2762.07 1524.81C2758.12 1524.81 2754.72 1525.5 2751.87 1526.9 2749.03 1528.3 2746.68 1530.27 2744.84 1532.82 2743 1535.37 2741.63 1538.4 2740.73 1541.89 2739.84 1545.38 2739.39 1549.19 2739.39 1553.33 2739.39 1557.3 2739.76 1561.03 2740.49 1564.53 2741.22 1568.02 2742.44 1571.06 2744.15 1573.67 2745.86 1576.27 2748.15 1578.34 2751.02 1579.87 2753.89 1581.4 2757.47 1582.17 2761.75 1582.17 2765.65 1582.17 2769.04 1581.47 2771.91 1580.07 2774.78 1578.68 2777.14 1576.72 2778.98 1574.19 2780.83 1571.67 2782.18 1568.66 2783.05 1565.17 2783.92 1561.68 2784.35 1557.84 2784.35 1553.65 2784.35 1549.73 2783.98 1546.02 2783.25 1542.53 2782.52 1539.04 2781.31 1535.98 2779.63 1533.35 2777.95 1530.71 2775.68 1528.63 2772.8 1527.1 2769.93 1525.57 2766.36 1524.81 2762.07 1524.81ZM2498.98 1524.08C2495.68 1524.08 2492.79 1524.7 2490.31 1525.93 2487.82 1527.17 2485.74 1528.81 2484.07 1530.85 2482.39 1532.89 2481.09 1535.27 2480.17 1537.98 2479.26 1540.69 2478.74 1543.52 2478.63 1546.48L2518.19 1546.48C2518.35 1539.5 2516.8 1534.02 2513.53 1530.04 2510.26 1526.07 2505.41 1524.08 2498.98 1524.08ZM2281.98 1524.08C2278.68 1524.08 2275.79 1524.7 2273.31 1525.93 2270.82 1527.17 2268.74 1528.81 2267.07 1530.85 2265.39 1532.89 2264.09 1535.27 2263.17 1537.98 2262.26 1540.69 2261.74 1543.52 2261.63 1546.48L2301.19 1546.48C2301.35 1539.5 2299.8 1534.02 2296.53 1530.04 2293.26 1526.07 2288.41 1524.08 2281.98 1524.08ZM2699.3 1514.82C2700.64 1514.82 2701.74 1514.87 2702.6 1514.98 2703.46 1515.08 2704.13 1515.25 2704.62 1515.46 2705.1 1515.68 2705.45 1515.94 2705.66 1516.27 2705.88 1516.59 2705.99 1516.94 2705.99 1517.31L2705.99 1589.82C2705.99 1590.25 2705.88 1590.62 2705.66 1590.91 2705.45 1591.21 2705.1 1591.46 2704.62 1591.68 2704.13 1591.89 2703.46 1592.05 2702.6 1592.16 2701.74 1592.27 2700.64 1592.32 2699.3 1592.32 2698.01 1592.32 2696.93 1592.27 2696.08 1592.16 2695.22 1592.05 2694.53 1591.89 2694.02 1591.68 2693.51 1591.46 2693.16 1591.21 2692.97 1590.91 2692.79 1590.62 2692.69 1590.25 2692.69 1589.82L2692.69 1517.31C2692.69 1516.94 2692.79 1516.59 2692.97 1516.27 2693.16 1515.94 2693.51 1515.68 2694.02 1515.46 2694.53 1515.25 2695.22 1515.08 2696.08 1514.98 2696.93 1514.87 2698.01 1514.82 2699.3 1514.82ZM2331.21 1514.82C2332.77 1514.82 2334.01 1514.86 2334.95 1514.94 2335.89 1515.02 2336.63 1515.14 2337.17 1515.3 2337.71 1515.46 2338.11 1515.68 2338.38 1515.94 2338.65 1516.21 2338.89 1516.53 2339.1 1516.91L2355.62 1543.9 2372.38 1516.91C2372.59 1516.59 2372.83 1516.29 2373.1 1516.02 2373.37 1515.76 2373.73 1515.53 2374.19 1515.34 2374.65 1515.15 2375.29 1515.02 2376.12 1514.94 2376.96 1514.86 2378.1 1514.82 2379.55 1514.82 2381.11 1514.82 2382.38 1514.87 2383.38 1514.98 2384.37 1515.08 2385.11 1515.29 2385.59 1515.58 2386.07 1515.88 2386.29 1516.29 2386.24 1516.83 2386.18 1517.37 2385.91 1518.04 2385.43 1518.84L2364.24 1552.52 2386.64 1588.29C2387.07 1589.04 2387.28 1589.68 2387.28 1590.19 2387.28 1590.7 2387.03 1591.11 2386.52 1591.43 2386.01 1591.76 2385.23 1591.99 2384.18 1592.12 2383.13 1592.25 2381.78 1592.32 2380.11 1592.32 2378.5 1592.32 2377.23 1592.28 2376.29 1592.2 2375.35 1592.12 2374.59 1591.99 2374.03 1591.8 2373.47 1591.61 2373.04 1591.37 2372.74 1591.07 2372.44 1590.78 2372.19 1590.44 2371.97 1590.06L2354.57 1561.3 2337.25 1590.06C2337.04 1590.44 2336.78 1590.78 2336.49 1591.07 2336.19 1591.37 2335.76 1591.61 2335.2 1591.8 2334.63 1591.99 2333.89 1592.12 2332.98 1592.2 2332.07 1592.28 2330.86 1592.32 2329.36 1592.32 2327.8 1592.32 2326.52 1592.25 2325.53 1592.12 2324.53 1591.99 2323.81 1591.76 2323.35 1591.43 2322.9 1591.11 2322.68 1590.7 2322.71 1590.19 2322.74 1589.68 2322.99 1589.04 2323.47 1588.29L2346.03 1552.92 2324.68 1518.84C2324.25 1518.09 2324.02 1517.46 2324 1516.95 2323.97 1516.44 2324.21 1516.01 2324.72 1515.66 2325.23 1515.31 2326.01 1515.08 2327.06 1514.98 2328.11 1514.87 2329.49 1514.82 2331.21 1514.82ZM2428.45 1513.77C2430.76 1513.77 2433.01 1513.98 2435.18 1514.41 2437.36 1514.84 2439.36 1515.41 2441.18 1516.1 2443.01 1516.8 2444.63 1517.61 2446.06 1518.52 2447.48 1519.44 2448.51 1520.21 2449.16 1520.86 2449.8 1521.5 2450.25 1522.01 2450.49 1522.39 2450.73 1522.77 2450.93 1523.21 2451.09 1523.72 2451.25 1524.23 2451.36 1524.81 2451.42 1525.45 2451.47 1526.1 2451.5 1526.9 2451.5 1527.87 2451.5 1529.96 2451.25 1531.43 2450.77 1532.26 2450.29 1533.09 2449.7 1533.51 2449 1533.51 2448.19 1533.51 2447.27 1533.06 2446.22 1532.18 2445.17 1531.29 2443.84 1530.31 2442.23 1529.24 2440.62 1528.16 2438.67 1527.18 2436.39 1526.3 2434.11 1525.41 2431.41 1524.97 2428.29 1524.97 2421.9 1524.97 2417 1527.42 2413.59 1532.34 2410.18 1537.25 2408.47 1544.38 2408.47 1553.73 2408.47 1558.4 2408.92 1562.5 2409.8 1566.02 2410.69 1569.53 2411.99 1572.47 2413.71 1574.84 2415.43 1577.2 2417.54 1578.96 2420.03 1580.11 2422.53 1581.27 2425.39 1581.85 2428.61 1581.85 2431.68 1581.85 2434.36 1581.36 2436.67 1580.4 2438.98 1579.43 2440.98 1578.37 2442.67 1577.21 2444.37 1576.06 2445.79 1575.01 2446.94 1574.07 2448.1 1573.13 2449 1572.66 2449.64 1572.66 2450.02 1572.66 2450.34 1572.77 2450.61 1572.98 2450.88 1573.2 2451.11 1573.56 2451.29 1574.07 2451.48 1574.58 2451.62 1575.23 2451.7 1576.01 2451.78 1576.78 2451.82 1577.71 2451.82 1578.79 2451.82 1579.7 2451.79 1580.49 2451.74 1581.16 2451.68 1581.83 2451.59 1582.4 2451.46 1582.85 2451.32 1583.31 2451.16 1583.71 2450.97 1584.06 2450.78 1584.41 2450.35 1584.92 2449.68 1585.59 2449.01 1586.26 2447.87 1587.1 2446.26 1588.09 2444.65 1589.08 2442.83 1589.97 2440.82 1590.75 2438.81 1591.53 2436.62 1592.16 2434.25 1592.64 2431.89 1593.13 2429.45 1593.37 2426.92 1593.37 2421.71 1593.37 2417.09 1592.51 2413.07 1590.79 2409.04 1589.07 2405.67 1586.56 2402.95 1583.26 2400.24 1579.95 2398.17 1575.9 2396.75 1571.09 2395.33 1566.28 2394.62 1560.74 2394.62 1554.45 2394.62 1547.31 2395.49 1541.17 2397.23 1536.05 2398.98 1530.92 2401.37 1526.71 2404.4 1523.44 2407.44 1520.16 2411.01 1517.73 2415.12 1516.15 2419.23 1514.56 2423.67 1513.77 2428.45 1513.77ZM2854.19 1513.69C2859.02 1513.69 2863.09 1514.51 2866.39 1516.15 2869.7 1517.78 2872.37 1519.97 2874.41 1522.71 2876.45 1525.45 2877.92 1528.66 2878.8 1532.34 2879.69 1536.02 2880.13 1540.44 2880.13 1545.59L2880.13 1589.82C2880.13 1590.25 2880.02 1590.62 2879.81 1590.91 2879.59 1591.21 2879.24 1591.46 2878.76 1591.68 2878.28 1591.89 2877.61 1592.05 2876.75 1592.16 2875.89 1592.27 2874.81 1592.32 2873.52 1592.32 2872.18 1592.32 2871.08 1592.27 2870.22 1592.16 2869.36 1592.05 2868.69 1591.89 2868.21 1591.68 2867.72 1591.46 2867.37 1591.21 2867.16 1590.91 2866.94 1590.62 2866.84 1590.25 2866.84 1589.82L2866.84 1547.36C2866.84 1543.23 2866.51 1539.9 2865.87 1537.37 2865.23 1534.85 2864.29 1532.67 2863.05 1530.85 2861.82 1529.02 2860.22 1527.63 2858.26 1526.66 2856.3 1525.69 2854.03 1525.21 2851.45 1525.21 2848.12 1525.21 2844.79 1526.39 2841.46 1528.75 2838.13 1531.12 2834.64 1534.58 2830.99 1539.15L2830.99 1589.82C2830.99 1590.25 2830.88 1590.62 2830.66 1590.91 2830.45 1591.21 2830.1 1591.46 2829.62 1591.68 2829.13 1591.89 2828.46 1592.05 2827.6 1592.16 2826.74 1592.27 2825.64 1592.32 2824.3 1592.32 2823.01 1592.32 2821.93 1592.27 2821.08 1592.16 2820.22 1592.05 2819.53 1591.89 2819.02 1591.68 2818.51 1591.46 2818.16 1591.21 2817.97 1590.91 2817.79 1590.62 2817.69 1590.25 2817.69 1589.82L2817.69 1517.31C2817.69 1516.88 2817.77 1516.52 2817.93 1516.23 2818.09 1515.93 2818.42 1515.66 2818.9 1515.42 2819.38 1515.18 2820 1515.02 2820.75 1514.94 2821.51 1514.86 2822.5 1514.82 2823.73 1514.82 2824.92 1514.82 2825.9 1514.86 2826.67 1514.94 2827.45 1515.02 2828.06 1515.18 2828.49 1515.42 2828.92 1515.66 2829.23 1515.93 2829.41 1516.23 2829.6 1516.52 2829.7 1516.88 2829.7 1517.31L2829.7 1526.9C2833.78 1522.34 2837.85 1518.99 2841.9 1516.87 2845.96 1514.75 2850.05 1513.69 2854.19 1513.69ZM2762.6 1513.69C2768.56 1513.69 2773.75 1514.57 2778.19 1516.35 2782.62 1518.12 2786.31 1520.7 2789.26 1524.08 2792.22 1527.46 2794.43 1531.57 2795.91 1536.41 2797.39 1541.24 2798.13 1546.69 2798.13 1552.76 2798.13 1558.67 2797.35 1564.11 2795.79 1569.08 2794.23 1574.05 2791.91 1578.33 2788.82 1581.93 2785.73 1585.53 2781.86 1588.33 2777.22 1590.35 2772.57 1592.36 2767.19 1593.37 2761.07 1593.37 2755.1 1593.37 2749.91 1592.48 2745.48 1590.71 2741.04 1588.94 2737.35 1586.36 2734.4 1582.98 2731.44 1579.59 2729.24 1575.48 2727.79 1570.65 2726.34 1565.81 2725.62 1560.34 2725.62 1554.21 2725.62 1548.3 2726.38 1542.87 2727.91 1537.9 2729.44 1532.93 2731.75 1528.65 2734.84 1525.05 2737.93 1521.45 2741.78 1518.66 2746.4 1516.67 2751.02 1514.68 2756.42 1513.69 2762.6 1513.69ZM2589.16 1513.69C2594.42 1513.69 2598.9 1514.71 2602.61 1516.75 2606.32 1518.79 2609.34 1521.58 2611.67 1525.13 2614.01 1528.67 2615.72 1532.8 2616.79 1537.5 2617.86 1542.2 2618.4 1547.18 2618.4 1552.44 2618.4 1558.78 2617.72 1564.47 2616.35 1569.52 2614.98 1574.57 2612.96 1578.85 2610.3 1582.37 2607.65 1585.89 2604.36 1588.6 2600.43 1590.51 2596.51 1592.41 2592.03 1593.37 2586.98 1593.37 2584.83 1593.37 2582.84 1593.15 2581.02 1592.72 2579.19 1592.29 2577.41 1591.62 2575.66 1590.71 2573.91 1589.8 2572.18 1588.64 2570.46 1587.25 2568.74 1585.85 2566.92 1584.21 2564.99 1582.33L2564.99 1618.59C2564.99 1619.02 2564.88 1619.39 2564.66 1619.71 2564.45 1620.04 2564.1 1620.3 2563.62 1620.52 2563.13 1620.73 2562.46 1620.9 2561.6 1621 2560.74 1621.11 2559.64 1621.16 2558.3 1621.16 2557.01 1621.16 2555.93 1621.11 2555.08 1621 2554.22 1620.9 2553.53 1620.73 2553.02 1620.52 2552.51 1620.3 2552.16 1620.04 2551.97 1619.71 2551.79 1619.39 2551.69 1619.02 2551.69 1618.59L2551.69 1517.31C2551.69 1516.83 2551.77 1516.44 2551.93 1516.15 2552.09 1515.85 2552.42 1515.59 2552.9 1515.38 2553.38 1515.17 2554 1515.02 2554.75 1514.94 2555.51 1514.86 2556.42 1514.82 2557.49 1514.82 2558.62 1514.82 2559.55 1514.86 2560.27 1514.94 2561 1515.02 2561.6 1515.17 2562.08 1515.38 2562.57 1515.59 2562.9 1515.85 2563.09 1516.15 2563.28 1516.44 2563.37 1516.83 2563.37 1517.31L2563.37 1527.06C2565.58 1524.81 2567.7 1522.85 2569.74 1521.18 2571.78 1519.52 2573.83 1518.13 2575.9 1517.03 2577.97 1515.93 2580.09 1515.1 2582.27 1514.53 2584.44 1513.97 2586.74 1513.69 2589.16 1513.69ZM2499.66 1513.69C2505.36 1513.69 2510.2 1514.6 2514.2 1516.43 2518.21 1518.25 2521.5 1520.71 2524.07 1523.8 2526.65 1526.89 2528.55 1530.51 2529.75 1534.68 2530.96 1538.84 2531.57 1543.28 2531.57 1548.01L2531.57 1550.43C2531.57 1552.52 2531.04 1554.01 2529.99 1554.9 2528.94 1555.78 2527.74 1556.23 2526.39 1556.23L2478.63 1556.23C2478.63 1560.26 2479.04 1563.88 2479.85 1567.1 2480.66 1570.33 2482.01 1573.09 2483.9 1575.4 2485.79 1577.71 2488.24 1579.48 2491.26 1580.72 2494.29 1581.95 2497.98 1582.57 2502.35 1582.57 2505.81 1582.57 2508.89 1582.29 2511.58 1581.73 2514.28 1581.16 2516.62 1580.53 2518.59 1579.83 2520.56 1579.13 2522.18 1578.5 2523.45 1577.94 2524.71 1577.38 2525.67 1577.09 2526.32 1577.09 2526.7 1577.09 2527.03 1577.19 2527.33 1577.38 2527.63 1577.56 2527.86 1577.85 2528.02 1578.22 2528.18 1578.6 2528.3 1579.12 2528.38 1579.79 2528.46 1580.46 2528.51 1581.28 2528.51 1582.25 2528.51 1582.95 2528.48 1583.55 2528.42 1584.06 2528.37 1584.57 2528.3 1585.03 2528.22 1585.43 2528.14 1585.84 2528.01 1586.2 2527.82 1586.52 2527.63 1586.84 2527.39 1587.15 2527.1 1587.45 2526.8 1587.74 2525.93 1588.23 2524.48 1588.9 2523.03 1589.57 2521.15 1590.23 2518.84 1590.87 2516.53 1591.52 2513.86 1592.09 2510.82 1592.6 2507.79 1593.11 2504.55 1593.37 2501.11 1593.37 2495.15 1593.37 2489.93 1592.54 2485.44 1590.87 2480.96 1589.21 2477.18 1586.73 2474.12 1583.46 2471.06 1580.18 2468.75 1576.07 2467.19 1571.13 2465.64 1566.19 2464.86 1560.44 2464.86 1553.89 2464.86 1547.66 2465.66 1542.06 2467.27 1537.09 2468.89 1532.12 2471.21 1527.91 2474.24 1524.44 2477.28 1520.98 2480.94 1518.32 2485.24 1516.47 2489.54 1514.61 2494.34 1513.69 2499.66 1513.69ZM2282.66 1513.69C2288.36 1513.69 2293.2 1514.6 2297.2 1516.43 2301.21 1518.25 2304.5 1520.71 2307.07 1523.8 2309.65 1526.89 2311.55 1530.51 2312.75 1534.68 2313.96 1538.84 2314.57 1543.28 2314.57 1548.01L2314.57 1550.43C2314.57 1552.52 2314.04 1554.01 2312.99 1554.9 2311.94 1555.78 2310.74 1556.23 2309.39 1556.23L2261.63 1556.23C2261.63 1560.26 2262.04 1563.88 2262.85 1567.1 2263.66 1570.33 2265.01 1573.09 2266.9 1575.4 2268.79 1577.71 2271.24 1579.48 2274.26 1580.72 2277.29 1581.95 2280.98 1582.57 2285.35 1582.57 2288.81 1582.57 2291.89 1582.29 2294.58 1581.73 2297.28 1581.16 2299.62 1580.53 2301.59 1579.83 2303.56 1579.13 2305.18 1578.5 2306.45 1577.94 2307.71 1577.38 2308.67 1577.09 2309.32 1577.09 2309.7 1577.09 2310.03 1577.19 2310.33 1577.38 2310.63 1577.56 2310.86 1577.85 2311.02 1578.22 2311.18 1578.6 2311.3 1579.12 2311.38 1579.79 2311.46 1580.46 2311.51 1581.28 2311.51 1582.25 2311.51 1582.95 2311.48 1583.55 2311.42 1584.06 2311.37 1584.57 2311.3 1585.03 2311.22 1585.43 2311.14 1585.84 2311.01 1586.2 2310.82 1586.52 2310.63 1586.84 2310.39 1587.15 2310.1 1587.45 2309.8 1587.74 2308.93 1588.23 2307.48 1588.9 2306.03 1589.57 2304.15 1590.23 2301.84 1590.87 2299.53 1591.52 2296.86 1592.09 2293.82 1592.6 2290.79 1593.11 2287.55 1593.37 2284.11 1593.37 2278.15 1593.37 2272.93 1592.54 2268.44 1590.87 2263.96 1589.21 2260.18 1586.73 2257.12 1583.46 2254.06 1580.18 2251.75 1576.07 2250.19 1571.13 2248.64 1566.19 2247.86 1560.44 2247.86 1553.89 2247.86 1547.66 2248.66 1542.06 2250.27 1537.09 2251.89 1532.12 2254.21 1527.91 2257.24 1524.44 2260.28 1520.98 2263.94 1518.32 2268.24 1516.47 2272.54 1514.61 2277.34 1513.69 2282.66 1513.69ZM2647.44 1495.4C2648.78 1495.4 2649.88 1495.45 2650.74 1495.56 2651.6 1495.67 2652.27 1495.84 2652.76 1496.08 2653.24 1496.33 2653.59 1496.61 2653.8 1496.93 2654.02 1497.25 2654.13 1497.6 2654.13 1497.98L2654.13 1515.22 2672.74 1515.22C2673.17 1515.22 2673.54 1515.31 2673.87 1515.5 2674.19 1515.69 2674.47 1516.01 2674.71 1516.47 2674.95 1516.92 2675.13 1517.5 2675.24 1518.2 2675.34 1518.9 2675.4 1519.76 2675.4 1520.78 2675.4 1522.71 2675.16 1524.11 2674.67 1524.97 2674.19 1525.83 2673.54 1526.26 2672.74 1526.26L2654.13 1526.26 2654.13 1566.7C2654.13 1571.7 2654.87 1575.47 2656.34 1578.02 2657.82 1580.57 2660.47 1581.85 2664.28 1581.85 2665.51 1581.85 2666.61 1581.73 2667.58 1581.48 2668.55 1581.24 2669.41 1580.99 2670.16 1580.72 2670.91 1580.45 2671.56 1580.2 2672.09 1579.95 2672.63 1579.71 2673.11 1579.59 2673.54 1579.59 2673.81 1579.59 2674.07 1579.66 2674.31 1579.79 2674.55 1579.93 2674.74 1580.18 2674.87 1580.56 2675.01 1580.93 2675.13 1581.44 2675.24 1582.09 2675.34 1582.73 2675.4 1583.54 2675.4 1584.51 2675.4 1586.06 2675.29 1587.3 2675.07 1588.21 2674.86 1589.12 2674.54 1589.8 2674.11 1590.23 2673.68 1590.66 2673.03 1591.06 2672.17 1591.43 2671.31 1591.81 2670.33 1592.12 2669.23 1592.36 2668.13 1592.6 2666.96 1592.8 2665.73 1592.97 2664.49 1593.13 2663.26 1593.21 2662.02 1593.21 2658.26 1593.21 2655.04 1592.71 2652.35 1591.72 2649.67 1590.72 2647.47 1589.22 2645.75 1587.2 2644.03 1585.19 2642.78 1582.64 2642 1579.55 2641.22 1576.46 2640.83 1572.82 2640.83 1568.63L2640.83 1526.26 2630.68 1526.26C2629.88 1526.26 2629.23 1525.83 2628.75 1524.97 2628.27 1524.11 2628.02 1522.71 2628.02 1520.78 2628.02 1519.76 2628.09 1518.9 2628.23 1518.2 2628.36 1517.5 2628.53 1516.92 2628.75 1516.47 2628.96 1516.01 2629.25 1515.69 2629.59 1515.5 2629.94 1515.31 2630.33 1515.22 2630.76 1515.22L2640.83 1515.22 2640.83 1497.98C2640.83 1497.6 2640.93 1497.25 2641.12 1496.93 2641.3 1496.61 2641.65 1496.33 2642.16 1496.08 2642.67 1495.84 2643.36 1495.67 2644.22 1495.56 2645.08 1495.45 2646.15 1495.4 2647.44 1495.4ZM2699.38 1484.93C2702.49 1484.93 2704.63 1485.48 2705.78 1486.58 2706.94 1487.68 2707.52 1489.76 2707.52 1492.82 2707.52 1495.94 2706.93 1498.06 2705.74 1499.19 2704.56 1500.31 2702.39 1500.88 2699.22 1500.88 2696.1 1500.88 2693.97 1500.33 2692.81 1499.23 2691.66 1498.13 2691.08 1496.04 2691.08 1492.98 2691.08 1489.87 2691.67 1487.75 2692.85 1486.62 2694.03 1485.49 2696.21 1484.93 2699.38 1484.93Z" stroke="#FFC000" stroke-width="3" stroke-linejoin="round" stroke-miterlimit="10" fill="#FFC000" fill-rule="evenodd"/><text fill="#000000" fill-opacity="0" font-family="Arial,Arial_MSFontService,sans-serif" font-size="136.238" x="2247.86" y="1604.13">exception</text><path d="M2586.63 852.25C2584.9 852.25 2583.2 852.505 2581.52 853.016 2579.85 853.526 2578.14 854.332 2576.41 855.433 2574.69 856.534 2572.88 857.984 2570.98 859.783 2569.09 861.583 2567.09 863.798 2564.99 866.43L2564.99 895.273C2568.66 899.731 2572.15 903.141 2575.44 905.505 2578.74 907.868 2582.2 909.05 2585.82 909.05 2589.17 909.05 2592.05 908.244 2594.45 906.633 2596.86 905.021 2598.8 902.873 2600.29 900.187 2601.77 897.502 2602.87 894.494 2603.57 891.164 2604.27 887.834 2604.62 884.477 2604.62 881.093 2604.62 877.387 2604.34 873.802 2603.77 870.338 2603.21 866.873 2602.23 863.798 2600.85 861.113 2599.48 858.427 2597.63 856.279 2595.3 854.667 2592.98 853.056 2590.09 852.25 2586.63 852.25ZM2762.07 851.928C2758.12 851.928 2754.72 852.626 2751.87 854.023 2749.03 855.419 2746.68 857.393 2744.84 859.944 2743 862.496 2741.63 865.517 2740.73 869.008 2739.84 872.499 2739.39 876.313 2739.39 880.449 2739.39 884.423 2739.76 888.156 2740.49 891.647 2741.22 895.139 2742.44 898.187 2744.15 900.792 2745.86 903.397 2748.15 905.464 2751.02 906.995 2753.89 908.526 2757.47 909.291 2761.75 909.291 2765.65 909.291 2769.04 908.593 2771.91 907.197 2774.78 905.8 2777.14 903.84 2778.98 901.315 2780.83 898.791 2782.18 895.783 2783.05 892.292 2783.92 888.801 2784.35 884.96 2784.35 880.771 2784.35 876.85 2783.98 873.144 2783.25 869.653 2782.52 866.161 2781.31 863.1 2779.63 860.468 2777.95 857.836 2775.68 855.755 2772.8 854.224 2769.93 852.693 2766.36 851.928 2762.07 851.928ZM2498.98 851.203C2495.68 851.203 2492.79 851.821 2490.31 853.056 2487.82 854.291 2485.74 855.93 2484.07 857.971 2482.39 860.012 2481.09 862.388 2480.17 865.101 2479.26 867.813 2478.74 870.646 2478.63 873.6L2518.19 873.6C2518.35 866.618 2516.8 861.14 2513.53 857.165 2510.26 853.19 2505.41 851.203 2498.98 851.203ZM2281.98 851.203C2278.68 851.203 2275.79 851.821 2273.31 853.056 2270.82 854.291 2268.74 855.93 2267.07 857.971 2265.39 860.012 2264.09 862.388 2263.17 865.101 2262.26 867.813 2261.74 870.646 2261.63 873.6L2301.19 873.6C2301.35 866.618 2299.8 861.14 2296.53 857.165 2293.26 853.19 2288.41 851.203 2281.98 851.203ZM2699.3 841.938C2700.64 841.938 2701.74 841.992 2702.6 842.099 2703.46 842.206 2704.13 842.368 2704.62 842.582 2705.1 842.797 2705.45 843.066 2705.66 843.388 2705.88 843.71 2705.99 844.059 2705.99 844.435L2705.99 916.945C2705.99 917.375 2705.88 917.737 2705.66 918.033 2705.45 918.328 2705.1 918.583 2704.62 918.798 2704.13 919.013 2703.46 919.174 2702.6 919.282 2701.74 919.389 2700.64 919.443 2699.3 919.443 2698.01 919.443 2696.93 919.389 2696.08 919.282 2695.22 919.174 2694.53 919.013 2694.02 918.798 2693.51 918.583 2693.16 918.328 2692.97 918.033 2692.79 917.737 2692.69 917.375 2692.69 916.945L2692.69 844.435C2692.69 844.059 2692.79 843.71 2692.97 843.388 2693.16 843.066 2693.51 842.797 2694.02 842.582 2694.53 842.368 2695.22 842.206 2696.08 842.099 2696.93 841.992 2698.01 841.938 2699.3 841.938ZM2331.21 841.938C2332.77 841.938 2334.01 841.978 2334.95 842.059 2335.89 842.139 2336.63 842.26 2337.17 842.421 2337.71 842.582 2338.11 842.797 2338.38 843.066 2338.65 843.334 2338.89 843.657 2339.1 844.033L2355.62 871.022 2372.38 844.033C2372.59 843.71 2372.83 843.415 2373.1 843.146 2373.37 842.878 2373.73 842.65 2374.19 842.462 2374.65 842.274 2375.29 842.139 2376.12 842.059 2376.96 841.978 2378.1 841.938 2379.55 841.938 2381.11 841.938 2382.38 841.992 2383.38 842.099 2384.37 842.206 2385.11 842.408 2385.59 842.703 2386.07 842.999 2386.29 843.415 2386.24 843.952 2386.18 844.489 2385.91 845.161 2385.43 845.966L2364.24 879.643 2386.64 915.414C2387.07 916.166 2387.28 916.797 2387.28 917.308 2387.28 917.818 2387.03 918.234 2386.52 918.557 2386.01 918.879 2385.23 919.107 2384.18 919.241 2383.13 919.376 2381.78 919.443 2380.11 919.443 2378.5 919.443 2377.23 919.402 2376.29 919.322 2375.35 919.241 2374.59 919.107 2374.03 918.919 2373.47 918.731 2373.04 918.489 2372.74 918.194 2372.44 917.899 2372.19 917.563 2371.97 917.187L2354.57 888.425 2337.25 917.187C2337.04 917.563 2336.78 917.899 2336.49 918.194 2336.19 918.489 2335.76 918.731 2335.2 918.919 2334.63 919.107 2333.89 919.241 2332.98 919.322 2332.07 919.402 2330.86 919.443 2329.36 919.443 2327.8 919.443 2326.52 919.376 2325.53 919.241 2324.53 919.107 2323.81 918.879 2323.35 918.557 2322.9 918.234 2322.68 917.818 2322.71 917.308 2322.74 916.797 2322.99 916.166 2323.47 915.414L2346.03 880.046 2324.68 845.966C2324.25 845.214 2324.02 844.583 2324 844.073 2323.97 843.563 2324.21 843.133 2324.72 842.784 2325.23 842.435 2326.01 842.206 2327.06 842.099 2328.11 841.992 2329.49 841.938 2331.21 841.938ZM2428.45 840.891C2430.76 840.891 2433.01 841.105 2435.18 841.535 2437.36 841.965 2439.36 842.529 2441.18 843.227 2443.01 843.925 2444.63 844.731 2446.06 845.644 2447.48 846.557 2448.51 847.336 2449.16 847.98 2449.8 848.625 2450.25 849.135 2450.49 849.511 2450.73 849.887 2450.93 850.33 2451.09 850.84 2451.25 851.351 2451.36 851.928 2451.42 852.573 2451.47 853.217 2451.5 854.023 2451.5 854.99 2451.5 857.084 2451.25 858.548 2450.77 859.38 2450.29 860.213 2449.7 860.629 2449 860.629 2448.19 860.629 2447.27 860.186 2446.22 859.3 2445.17 858.414 2443.84 857.433 2442.23 856.359 2440.62 855.285 2438.67 854.305 2436.39 853.419 2434.11 852.532 2431.41 852.089 2428.29 852.089 2421.9 852.089 2417 854.547 2413.59 859.461 2410.18 864.376 2408.47 871.506 2408.47 880.851 2408.47 885.524 2408.92 889.62 2409.8 893.138 2410.69 896.656 2411.99 899.597 2413.71 901.96 2415.43 904.323 2417.54 906.082 2420.03 907.237 2422.53 908.392 2425.39 908.969 2428.61 908.969 2431.68 908.969 2434.36 908.486 2436.67 907.519 2438.98 906.552 2440.98 905.491 2442.67 904.337 2444.37 903.182 2445.79 902.134 2446.94 901.194 2448.1 900.255 2449 899.785 2449.64 899.785 2450.02 899.785 2450.34 899.892 2450.61 900.107 2450.88 900.322 2451.11 900.684 2451.29 901.194 2451.48 901.705 2451.62 902.349 2451.7 903.128 2451.78 903.907 2451.82 904.833 2451.82 905.908 2451.82 906.821 2451.79 907.613 2451.74 908.284 2451.68 908.956 2451.59 909.52 2451.46 909.976 2451.32 910.433 2451.16 910.836 2450.97 911.185 2450.78 911.534 2450.35 912.044 2449.68 912.715 2449.01 913.387 2447.87 914.219 2446.26 915.213 2444.65 916.207 2442.83 917.093 2440.82 917.872 2438.81 918.651 2436.62 919.282 2434.25 919.765 2431.89 920.248 2429.45 920.49 2426.92 920.49 2421.71 920.49 2417.09 919.631 2413.07 917.912 2409.04 916.193 2405.67 913.682 2402.95 910.379 2400.24 907.076 2398.17 903.021 2396.75 898.214 2395.33 893.406 2394.62 887.861 2394.62 881.577 2394.62 874.433 2395.49 868.297 2397.23 863.167 2398.98 858.038 2401.37 853.835 2404.4 850.558 2407.44 847.282 2411.01 844.852 2415.12 843.267 2419.23 841.683 2423.67 840.891 2428.45 840.891ZM2854.19 840.81C2859.02 840.81 2863.09 841.629 2866.39 843.267 2869.7 844.905 2872.37 847.094 2874.41 849.833 2876.45 852.573 2877.92 855.782 2878.8 859.461 2879.69 863.14 2880.13 867.558 2880.13 872.714L2880.13 916.945C2880.13 917.375 2880.02 917.737 2879.81 918.033 2879.59 918.328 2879.24 918.583 2878.76 918.798 2878.28 919.013 2877.61 919.174 2876.75 919.282 2875.89 919.389 2874.81 919.443 2873.52 919.443 2872.18 919.443 2871.08 919.389 2870.22 919.282 2869.36 919.174 2868.69 919.013 2868.21 918.798 2867.72 918.583 2867.37 918.328 2867.16 918.033 2866.94 917.737 2866.84 917.375 2866.84 916.945L2866.84 874.487C2866.84 870.351 2866.51 867.021 2865.87 864.496 2865.23 861.972 2864.29 859.797 2863.05 857.971 2861.82 856.144 2860.22 854.748 2858.26 853.781 2856.3 852.814 2854.03 852.331 2851.45 852.331 2848.12 852.331 2844.79 853.513 2841.46 855.876 2838.13 858.239 2834.64 861.703 2830.99 866.269L2830.99 916.945C2830.99 917.375 2830.88 917.737 2830.66 918.033 2830.45 918.328 2830.1 918.583 2829.62 918.798 2829.13 919.013 2828.46 919.174 2827.6 919.282 2826.74 919.389 2825.64 919.443 2824.3 919.443 2823.01 919.443 2821.93 919.389 2821.08 919.282 2820.22 919.174 2819.53 919.013 2819.02 918.798 2818.51 918.583 2818.16 918.328 2817.97 918.033 2817.79 917.737 2817.69 917.375 2817.69 916.945L2817.69 844.435C2817.69 844.006 2817.77 843.643 2817.93 843.348 2818.09 843.052 2818.42 842.784 2818.9 842.542 2819.38 842.3 2820 842.139 2820.75 842.059 2821.51 841.978 2822.5 841.938 2823.73 841.938 2824.92 841.938 2825.9 841.978 2826.67 842.059 2827.45 842.139 2828.06 842.3 2828.49 842.542 2828.92 842.784 2829.23 843.052 2829.41 843.348 2829.6 843.643 2829.7 844.006 2829.7 844.435L2829.7 854.023C2833.78 849.457 2837.85 846.114 2841.9 843.992 2845.96 841.871 2850.05 840.81 2854.19 840.81ZM2762.6 840.81C2768.56 840.81 2773.75 841.696 2778.19 843.469 2782.62 845.241 2786.31 847.819 2789.26 851.203 2792.22 854.587 2794.43 858.696 2795.91 863.53 2797.39 868.364 2798.13 873.815 2798.13 879.885 2798.13 885.793 2797.35 891.231 2795.79 896.199 2794.23 901.168 2791.91 905.451 2788.82 909.05 2785.73 912.648 2781.86 915.455 2777.22 917.469 2772.57 919.483 2767.19 920.49 2761.07 920.49 2755.1 920.49 2749.91 919.604 2745.48 917.831 2741.04 916.059 2737.35 913.481 2734.4 910.097 2731.44 906.713 2729.24 902.604 2727.79 897.77 2726.34 892.936 2725.62 887.458 2725.62 881.335 2725.62 875.427 2726.38 869.988 2727.91 865.02 2729.44 860.052 2731.75 855.768 2734.84 852.17 2737.93 848.571 2741.78 845.778 2746.4 843.791 2751.02 841.804 2756.42 840.81 2762.6 840.81ZM2589.16 840.81C2594.42 840.81 2598.9 841.83 2602.61 843.871 2606.32 845.912 2609.34 848.705 2611.67 852.25 2614.01 855.795 2615.72 859.918 2616.79 864.617 2617.86 869.317 2618.4 874.299 2618.4 879.562 2618.4 885.9 2617.72 891.594 2616.35 896.642 2614.98 901.691 2612.96 905.975 2610.3 909.493 2607.65 913.011 2604.36 915.723 2600.43 917.63 2596.51 919.537 2592.03 920.49 2586.98 920.49 2584.83 920.49 2582.84 920.275 2581.02 919.846 2579.19 919.416 2577.41 918.745 2575.66 917.831 2573.91 916.918 2572.18 915.764 2570.46 914.367 2568.74 912.971 2566.92 911.332 2564.99 909.453L2564.99 945.707C2564.99 946.137 2564.88 946.513 2564.66 946.835 2564.45 947.158 2564.1 947.426 2563.62 947.641 2563.13 947.856 2562.46 948.017 2561.6 948.124 2560.74 948.232 2559.64 948.286 2558.3 948.286 2557.01 948.286 2555.93 948.232 2555.08 948.124 2554.22 948.017 2553.53 947.856 2553.02 947.641 2552.51 947.426 2552.16 947.158 2551.97 946.835 2551.79 946.513 2551.69 946.137 2551.69 945.707L2551.69 844.435C2551.69 843.952 2551.77 843.563 2551.93 843.267 2552.09 842.972 2552.42 842.717 2552.9 842.502 2553.38 842.287 2554 842.139 2554.75 842.059 2555.51 841.978 2556.42 841.938 2557.49 841.938 2558.62 841.938 2559.55 841.978 2560.27 842.059 2561 842.139 2561.6 842.287 2562.08 842.502 2562.57 842.717 2562.9 842.972 2563.09 843.267 2563.28 843.563 2563.37 843.952 2563.37 844.435L2563.37 854.184C2565.58 851.928 2567.7 849.968 2569.74 848.303 2571.78 846.638 2573.83 845.255 2575.9 844.153 2577.97 843.052 2580.09 842.22 2582.27 841.656 2584.44 841.092 2586.74 840.81 2589.16 840.81ZM2499.66 840.81C2505.36 840.81 2510.2 841.723 2514.2 843.549 2518.21 845.375 2521.5 847.833 2524.07 850.921 2526.65 854.009 2528.55 857.635 2529.75 861.797 2530.96 865.96 2531.57 870.405 2531.57 875.131L2531.57 877.548C2531.57 879.643 2531.04 881.133 2529.99 882.02 2528.94 882.906 2527.74 883.349 2526.39 883.349L2478.63 883.349C2478.63 887.377 2479.04 891.003 2479.85 894.225 2480.66 897.448 2482.01 900.214 2483.9 902.524 2485.79 904.833 2488.24 906.606 2491.26 907.841 2494.29 909.077 2497.98 909.694 2502.35 909.694 2505.81 909.694 2508.89 909.412 2511.58 908.848 2514.28 908.284 2516.62 907.653 2518.59 906.955 2520.56 906.257 2522.18 905.626 2523.45 905.062 2524.71 904.498 2525.67 904.216 2526.32 904.216 2526.7 904.216 2527.03 904.31 2527.33 904.498 2527.63 904.686 2527.86 904.968 2528.02 905.344 2528.18 905.72 2528.3 906.243 2528.38 906.915 2528.46 907.586 2528.51 908.405 2528.51 909.372 2528.51 910.07 2528.48 910.674 2528.42 911.185 2528.37 911.695 2528.3 912.151 2528.22 912.554 2528.14 912.957 2528.01 913.32 2527.82 913.642 2527.63 913.964 2527.39 914.273 2527.1 914.568 2526.8 914.864 2525.93 915.347 2524.48 916.019 2523.03 916.69 2521.15 917.348 2518.84 917.993 2516.53 918.637 2513.86 919.214 2510.82 919.725 2507.79 920.235 2504.55 920.49 2501.11 920.49 2495.15 920.49 2489.93 919.658 2485.44 917.993 2480.96 916.328 2477.18 913.857 2474.12 910.58 2471.06 907.304 2468.75 903.195 2467.19 898.254 2465.64 893.312 2464.86 887.565 2464.86 881.013 2464.86 874.782 2465.66 869.183 2467.27 864.214 2468.89 859.246 2471.21 855.03 2474.24 851.566 2477.28 848.101 2480.94 845.443 2485.24 843.589 2489.54 841.736 2494.34 840.81 2499.66 840.81ZM2282.66 840.81C2288.36 840.81 2293.2 841.723 2297.2 843.549 2301.21 845.375 2304.5 847.833 2307.07 850.921 2309.65 854.009 2311.55 857.635 2312.75 861.797 2313.96 865.96 2314.57 870.405 2314.57 875.131L2314.57 877.548C2314.57 879.643 2314.04 881.133 2312.99 882.02 2311.94 882.906 2310.74 883.349 2309.39 883.349L2261.63 883.349C2261.63 887.377 2262.04 891.003 2262.85 894.225 2263.66 897.448 2265.01 900.214 2266.9 902.524 2268.79 904.833 2271.24 906.606 2274.26 907.841 2277.29 909.077 2280.98 909.694 2285.35 909.694 2288.81 909.694 2291.89 909.412 2294.58 908.848 2297.28 908.284 2299.62 907.653 2301.59 906.955 2303.56 906.257 2305.18 905.626 2306.45 905.062 2307.71 904.498 2308.67 904.216 2309.32 904.216 2309.7 904.216 2310.03 904.31 2310.33 904.498 2310.63 904.686 2310.86 904.968 2311.02 905.344 2311.18 905.72 2311.3 906.243 2311.38 906.915 2311.46 907.586 2311.51 908.405 2311.51 909.372 2311.51 910.07 2311.48 910.674 2311.42 911.185 2311.37 911.695 2311.3 912.151 2311.22 912.554 2311.14 912.957 2311.01 913.32 2310.82 913.642 2310.63 913.964 2310.39 914.273 2310.1 914.568 2309.8 914.864 2308.93 915.347 2307.48 916.019 2306.03 916.69 2304.15 917.348 2301.84 917.993 2299.53 918.637 2296.86 919.214 2293.82 919.725 2290.79 920.235 2287.55 920.49 2284.11 920.49 2278.15 920.49 2272.93 919.658 2268.44 917.993 2263.96 916.328 2260.18 913.857 2257.12 910.58 2254.06 907.304 2251.75 903.195 2250.19 898.254 2248.64 893.312 2247.86 887.565 2247.86 881.013 2247.86 874.782 2248.66 869.183 2250.27 864.214 2251.89 859.246 2254.21 855.03 2257.24 851.566 2260.28 848.101 2263.94 845.443 2268.24 843.589 2272.54 841.736 2277.34 840.81 2282.66 840.81ZM2647.44 822.521C2648.78 822.521 2649.88 822.575 2650.74 822.682 2651.6 822.79 2652.27 822.964 2652.76 823.206 2653.24 823.448 2653.59 823.73 2653.8 824.052 2654.02 824.374 2654.13 824.724 2654.13 825.099L2654.13 842.341 2672.74 842.341C2673.17 842.341 2673.54 842.435 2673.87 842.623 2674.19 842.811 2674.47 843.133 2674.71 843.589 2674.95 844.046 2675.13 844.623 2675.24 845.322 2675.34 846.02 2675.4 846.879 2675.4 847.9 2675.4 849.833 2675.16 851.23 2674.67 852.089 2674.19 852.949 2673.54 853.378 2672.74 853.378L2654.13 853.378 2654.13 893.823C2654.13 898.818 2654.87 902.591 2656.34 905.142 2657.82 907.693 2660.47 908.969 2664.28 908.969 2665.51 908.969 2666.61 908.848 2667.58 908.607 2668.55 908.365 2669.41 908.11 2670.16 907.841 2670.91 907.573 2671.56 907.318 2672.09 907.076 2672.63 906.834 2673.11 906.713 2673.54 906.713 2673.81 906.713 2674.07 906.78 2674.31 906.915 2674.55 907.049 2674.74 907.304 2674.87 907.68 2675.01 908.056 2675.13 908.566 2675.24 909.211 2675.34 909.855 2675.4 910.661 2675.4 911.628 2675.4 913.185 2675.29 914.421 2675.07 915.334 2674.86 916.247 2674.54 916.918 2674.11 917.348 2673.68 917.778 2673.03 918.181 2672.17 918.557 2671.31 918.932 2670.33 919.241 2669.23 919.483 2668.13 919.725 2666.96 919.926 2665.73 920.087 2664.49 920.248 2663.26 920.329 2662.02 920.329 2658.26 920.329 2655.04 919.832 2652.35 918.839 2649.67 917.845 2647.47 916.341 2645.75 914.327 2644.03 912.313 2642.78 909.761 2642 906.673 2641.22 903.585 2640.83 899.946 2640.83 895.756L2640.83 853.378 2630.68 853.378C2629.88 853.378 2629.23 852.949 2628.75 852.089 2628.27 851.23 2628.02 849.833 2628.02 847.9 2628.02 846.879 2628.09 846.02 2628.23 845.322 2628.36 844.623 2628.53 844.046 2628.75 843.589 2628.96 843.133 2629.25 842.811 2629.59 842.623 2629.94 842.435 2630.33 842.341 2630.76 842.341L2640.83 842.341 2640.83 825.099C2640.83 824.724 2640.93 824.374 2641.12 824.052 2641.3 823.73 2641.65 823.448 2642.16 823.206 2642.67 822.964 2643.36 822.79 2644.22 822.682 2645.08 822.575 2646.15 822.521 2647.44 822.521ZM2699.38 812.048C2702.49 812.048 2704.63 812.598 2705.78 813.699 2706.94 814.8 2707.52 816.882 2707.52 819.943 2707.52 823.058 2706.93 825.18 2705.74 826.308 2704.56 827.436 2702.39 828 2699.22 828 2696.1 828 2693.97 827.449 2692.81 826.348 2691.66 825.247 2691.08 823.166 2691.08 820.104 2691.08 816.989 2691.67 814.868 2692.85 813.74 2694.03 812.612 2696.21 812.048 2699.38 812.048Z" stroke="#FFC000" stroke-width="3" stroke-linejoin="round" stroke-miterlimit="10" fill="#FFC000" fill-rule="evenodd"/><text fill="#000000" fill-opacity="0" font-family="Arial,Arial_MSFontService,sans-serif" font-size="136.238" x="2247.86" y="931.256">exception</text><text font-family="Courier New,Courier New_MSFontService,sans-serif" font-weight="700" font-size="165" transform="matrix(1 0 0 1 2429.38 531)">catch</text><text font-family="Courier New,Courier New_MSFontService,sans-serif" font-weight="700" font-size="165" transform="matrix(1 0 0 1 2429.38 1929)">throw</text></g></svg>