<svg width="3131" height="2202" xmlns="http://www.w3.org/2000/svg" xmlns:xlink="http://www.w3.org/1999/xlink" xml:space="preserve" overflow="hidden"><g transform="translate(5 -305)"><rect x="81.5" y="560.5" width="958" height="346" stroke="#00B0F0" stroke-width="20.625" stroke-miterlimit="8" fill="#FFFFFF"/><text font-family="Calibri,Calibri_MSFontService,sans-serif" font-weight="400" font-size="202" transform="matrix(1 0 0 1 116.364 801)">person1</text><rect x="1034.5" y="1288.5" width="843" height="407" stroke="#000000" stroke-width="22.9167" stroke-miterlimit="8" fill="#FFFFFF"/><text font-family="Calibri,Calibri_MSFontService,sans-serif" font-weight="400" font-size="202" transform="matrix(1 0 0 1 1223.41 1560)">name</text><rect x="1877.5" y="1288.5" width="1163" height="407" stroke="#000000" stroke-width="22.9167" stroke-miterlimit="8" fill="#FFFFFF"/><text font-family="Calibri,Calibri_MSFontService,sans-serif" font-weight="400" font-size="202" transform="matrix(1 0 0 1 1912.88 1560)">salary</text><text font-family="Calibri,Calibri_MSFontService,sans-serif" font-weight="400" font-size="202" transform="matrix(1 0 0 1 2394.54 1560)">: 42000</text><path d="M885.496 728.261 915.029 785.713 914.351 797.128 913.193 805.916 911.525 814.611 909.46 823.116 907.104 831.326 904.561 839.131 901.93 846.418 899.309 853.072 896.794 858.979 894.474 864.038 892.414 868.178 890.118 872.325 887.875 874.668 885.731 876.23 883.76 877.46 881.603 878.691 879.174 880.001 876.435 881.421 870.217 884.512 863.027 887.959 855.125 891.656 846.751 895.506 838.153 899.408 829.598 903.252 821.305 906.948 813.548 910.383 806.583 913.452 800.664 916.051 798.176 917.141 796.05 918.072 794.315 918.832 793.008 919.406 792.17 919.776 792.276 919.729 791.899 919.9 792.649 919.526 780.202 926.313 780.586 926.094 768.331 933.404 755.689 940.738 742.426 947.35 732.946 951.469 724.351 955.12 716.362 958.43 708.934 961.426 702.025 964.135 695.59 966.582 689.589 968.793 683.956 970.803 673.784 974.265 664.672 977.202 656.326 979.809 648.37 982.31 648.515 982.263 640.509 984.897 640.756 984.812 632.365 987.786 632.668 987.674 623.537 991.203 623.846 991.078 613.623 995.375 613.837 995.283 608.204 997.786 608.336 997.726 602.298 1000.5 602.419 1000.44 595.93 1003.52 596.04 1003.47 589.057 1006.86 589.156 1006.82 581.634 1010.57 581.723 1010.52 573.619 1014.65 573.698 1014.61 564.967 1019.15 565.037 1019.11 555.634 1024.08 555.734 1024.02 545.451 1029.59 545.612 1029.5 536.435 1034.65 536.632 1034.54 528.431 1039.37 528.667 1039.22 521.312 1043.79 521.584 1043.62 514.944 1048.01 515.244 1047.8 509.19 1052.09 509.504 1051.86 503.905 1056.11 504.214 1055.87 498.941 1060.17 499.346 1059.82 489.254 1068.87 489.558 1068.58 484.48 1073.48 484.607 1073.35 479.335 1078.6 479.407 1078.52 473.809 1084.19 467.781 1090.33 461.11 1097.1 453.736 1104.51 456.623 1099.6 455.482 1103.56 454.136 1108.2 452.632 1113.37 451.005 1119 451.018 1118.95 447.519 1131.23 447.545 1131.13 443.969 1144.1 444.009 1143.95 440.641 1156.84 440.683 1156.68 439.167 1162.85 439.203 1162.7 437.848 1168.56 437.892 1168.37 436.732 1173.82 436.786 1173.55 435.858 1178.51 435.924 1178.11 435.264 1182.47 435.339 1181.86 434.982 1185.53 435.033 1184.67 434.957 1188.04 434.954 1187.43 435.076 1191.37 435.054 1190.93 435.364 1195.37 435.334 1195.03 435.821 1199.88 435.772 1199.46 437.233 1210.08 437.157 1209.6 439.196 1220.88 439.101 1220.41 441.63 1231.68 441.495 1231.14 444.426 1241.75 444.27 1241.23 445.86 1246.09 445.705 1245.64 447.363 1250.08 447.136 1249.52 448.851 1253.46 448.495 1252.72 450.256 1256.08 449.607 1254.99 455.596 1263.88 454.922 1262.98 461.781 1271.27 461.381 1270.81 468.702 1278.76 468.633 1278.69 476.051 1286.6 483.657 1294.89 483.589 1294.82 490.566 1302.29 490.357 1302.07 497.043 1308.87 496.669 1308.5 503.358 1314.71 502.815 1314.24 509.802 1319.94 509.121 1319.43 516.701 1324.73 515.95 1324.25 524.417 1329.24 523.676 1328.84 533.325 1333.61 532.352 1333.18 540.469 1336.3 539.662 1336.02 548.016 1338.53 547.929 1338.51 556.633 1341.05 565.712 1344.29 574.88 1348.68 583.28 1353.32 583.152 1353.25 591.305 1357.62 590.44 1357.2 598.9 1360.86 597.616 1360.39 608.486 1363.62 607.728 1363.42 618.821 1365.91 618.71 1365.89 630.11 1368.32 641.612 1371.37 648.933 1373.67 655.209 1375.69 660.721 1377.5 665.529 1379.13 669.691 1380.58 673.267 1381.87 676.32 1383.03 678.913 1384.06 681.111 1384.99 683.075 1385.88 685.986 1387.39 688.081 1388.74 689.269 1389.63 688.637 1389.19 689.492 1389.74 687.904 1388.88 689.206 1389.46 688.073 1389.03 690.266 1389.74 689.811 1389.6 691.38 1390.04 691.19 1389.99 693.148 1390.5 693.018 1390.46 695.42 1391.06 695.33 1391.04 698.231 1391.73 698.169 1391.72 701.625 1392.52 701.581 1392.51 705.648 1393.45 710.35 1394.51 715.782 1395.73 721.998 1397.12 729.051 1398.68 736.155 1400.25 736.113 1400.24 742.683 1401.66 742.635 1401.65 748.721 1402.94 748.667 1402.92 754.343 1404.1 754.253 1404.08 764.665 1406.14 764.538 1406.12 774.184 1407.92 774.07 1407.9 783.535 1409.56 783.455 1409.55 793.324 1411.22 798.56 1412.08 804.141 1413 810.125 1413.99 817.954 1415.29 825.611 1418.58 831.231 1421.02 836.164 1423.18 840.446 1425.07 844.129 1426.7 847.265 1428.09 849.9 1429.24 849.832 1429.22 852.077 1430.19 851.839 1430.09 855.308 1431.49 854.55 1431.22 857.037 1432.03 855.502 1431.64 857.465 1431.99 855.62 1431.81 857.515 1431.84 856.557 1431.87 858.841 1431.71 862.162 1431.49 864.47 1431.4 867.134 1431.36 870.231 1431.38 873.807 1431.48 877.917 1431.67 882.922 1431.99 895.889 1433.73 892.847 1456.44 880.271 1454.76 881.058 1454.83 876.548 1454.54 876.749 1454.55 872.85 1454.37 873.072 1454.38 869.728 1454.29 869.969 1454.29 867.122 1454.28 867.377 1454.28 864.97 1454.31 865.227 1454.31 863.202 1454.39 863.512 1454.37 860.418 1454.57 857.656 1454.76 854.352 1454.71 850.693 1454.06 847.068 1452.88 843.105 1451.27 840.708 1450.24 837.986 1449.04 834.851 1447.65 831.202 1446.04 826.975 1444.17 822.108 1442.04 816.507 1439.61 816.543 1439.63 810.182 1436.89 812.833 1437.67 806.392 1436.6 800.411 1435.61 794.814 1434.69 789.512 1433.81 779.602 1432.14 770.038 1430.46 760.271 1428.63 749.751 1426.55 744.004 1425.36 737.866 1424.06 731.251 1422.63 724.081 1421.05 717.008 1419.48 710.763 1418.09 705.288 1416.86 700.525 1415.78 696.436 1414.84 692.927 1414.03 689.95 1413.31 687.438 1412.69 685.321 1412.14 683.429 1411.61 680.433 1410.64 677.747 1409.44 675.808 1408.18 674.647 1407.31 675.336 1407.79 674.044 1406.96 674.968 1407.49 672.792 1406.36 673.321 1406.62 671.764 1405.91 672.044 1406.04 670.099 1405.21 670.326 1405.31 667.939 1404.36 668.124 1404.43 665.239 1403.34 665.39 1403.39 661.952 1402.15 662.078 1402.19 658.031 1400.78 658.136 1400.82 653.425 1399.23 653.514 1399.25 648.083 1397.47 648.159 1397.49 641.953 1395.5 642.018 1395.52 634.983 1393.3 635.492 1393.45 624.514 1390.55 625.052 1390.67 613.866 1388.28 602.335 1385.7 590.434 1382.17 580.905 1378.05 572.264 1373.42 564.09 1368.9 564.679 1369.2 556.349 1365.21 557.45 1365.67 549.25 1362.75 549.888 1362.95 541.463 1360.49 532.657 1357.85 523.645 1354.39 513.142 1349.2 503.928 1343.76 495.633 1337.96 488.037 1331.75 480.893 1325.13 473.918 1318.04 466.803 1310.42 459.205 1302.14 459.289 1302.23 451.879 1294.32 444.318 1286.11 436.907 1277.16 430.248 1267.27 428.001 1262.98 426.001 1258.39 424.156 1253.44 422.409 1248.11 419.331 1236.97 416.688 1225.19 414.564 1213.44 413.04 1202.38 412.515 1197.14 412.177 1192.3 412.039 1187.83 412.132 1183.72 412.561 1179.34 413.297 1174.48 414.287 1169.2 415.497 1163.5 416.893 1157.46 418.447 1151.13 421.856 1138.09 425.467 1124.99 428.985 1112.65 430.625 1106.98 432.128 1101.81 433.462 1097.21 435.418 1090.43 444.845 1080.96 444.804 1081 451.429 1074.27 457.508 1068.08 463.142 1062.38 468.514 1057.04 473.805 1051.94 484.249 1042.58 489.882 1037.99 495.793 1033.49 502.155 1028.99 509.081 1024.41 516.691 1019.68 525.11 1014.73 534.466 1009.47 544.88 1003.84 554.368 998.828 563.174 994.254 571.362 990.081 578.977 986.284 586.064 982.834 592.668 979.706 598.832 976.873 604.636 974.293 615.121 969.887 624.557 966.24 633.223 963.168 641.426 960.47 649.492 957.935 657.789 955.343 657.692 955.374 666.665 952.482 666.488 952.541 676.492 949.135 676.334 949.191 681.834 947.229 681.722 947.269 687.611 945.099 687.5 945.141 693.824 942.736 693.715 942.778 700.518 940.111 700.413 940.153 707.739 937.197 707.64 937.238 715.533 933.968 715.439 934.007 723.944 930.395 723.856 930.432 733.017 926.452 732.471 926.706 745.141 920.39 744.503 920.734 756.772 913.617 756.651 913.688 769.036 906.3 782.046 899.205 782.858 898.837 783.797 898.422 785.119 897.842 786.856 897.081 788.978 896.151 791.452 895.067 797.341 892.482 804.268 889.429 811.976 886.016 820.207 882.347 828.742 878.513 828.703 878.531 837.255 874.65 837.204 874.673 845.517 870.851 845.448 870.883 853.266 867.225 853.169 867.271 860.235 863.883 860.087 863.956 866.146 860.943 865.976 861.03 868.547 859.697 868.38 859.786 870.603 858.587 870.361 858.721 872.204 857.669 871.822 857.897 873.253 857.005 872.566 857.468 873.553 856.748 872.028 858.082 872.538 857.549 870.789 859.925 872.242 857.299 872.008 857.746 873.875 853.993 873.719 854.318 875.899 849.567 875.771 849.857 878.162 844.239 878.044 844.528 880.547 838.173 880.431 838.481 882.945 831.518 882.828 831.859 885.252 824.419 885.133 824.809 887.367 817.022 887.246 817.478 889.19 809.474 889.072 810.019 890.624 801.928 890.517 802.59 891.577 794.542 891.499 795.359 891.967 787.484 893.215 793.402 865.114 738.739ZM825.3 761.462C809.857 733.845 819.726 698.938 847.343 683.495 874.96 668.052 909.867 677.921 925.31 705.538 940.753 733.155 930.884 768.062 903.267 783.505 875.65 798.948 840.743 789.079 825.3 761.462ZM890.951 1386.76 996.5 1459.36 875.089 1500.24Z" fill="#172C51"/><path d="M1766.71 1534.27 1796.19 1591.72 1795.51 1603.13 1794.36 1611.91 1792.69 1620.61 1790.63 1629.11 1788.28 1637.32 1785.74 1645.13 1783.12 1652.41 1780.5 1659.07 1777.99 1664.97 1775.67 1670.03 1773.62 1674.17 1771.33 1678.32 1769.09 1680.66 1766.94 1682.23 1764.97 1683.46 1762.82 1684.69 1760.4 1686 1757.66 1687.42 1751.45 1690.51 1744.28 1693.96 1736.39 1697.65 1728.03 1701.5 1719.44 1705.41 1710.9 1709.25 1702.63 1712.94 1694.88 1716.38 1687.93 1719.45 1682.02 1722.05 1679.54 1723.14 1677.41 1724.07 1675.68 1724.83 1674.38 1725.4 1673.54 1725.77 1673.65 1725.72 1673.27 1725.9 1674.02 1725.52 1661.6 1732.31 1661.98 1732.09 1649.75 1739.4 1637.13 1746.73 1623.89 1753.35 1614.42 1757.47 1605.84 1761.12 1597.87 1764.43 1590.45 1767.42 1583.55 1770.13 1577.13 1772.58 1571.14 1774.79 1565.51 1776.8 1555.36 1780.26 1546.26 1783.2 1537.93 1785.81 1529.99 1788.31 1530.13 1788.26 1522.14 1790.89 1522.39 1790.81 1514.01 1793.78 1514.32 1793.67 1505.2 1797.2 1505.51 1797.08 1495.31 1801.37 1495.52 1801.28 1489.9 1803.78 1490.03 1803.72 1484 1806.5 1484.12 1806.44 1477.65 1809.52 1477.75 1809.46 1470.78 1812.86 1470.88 1812.81 1463.37 1816.56 1463.46 1816.52 1455.37 1820.65 1455.45 1820.61 1446.74 1825.14 1446.81 1825.11 1437.42 1830.07 1437.52 1830.02 1427.26 1835.58 1427.42 1835.49 1418.26 1840.65 1418.45 1840.54 1410.27 1845.36 1410.5 1845.22 1403.16 1849.79 1403.43 1849.61 1396.8 1854 1397.1 1853.8 1391.06 1858.08 1391.37 1857.85 1385.78 1862.11 1386.09 1861.86 1380.83 1866.16 1381.23 1865.82 1371.16 1874.86 1371.46 1874.58 1366.39 1879.47 1366.52 1879.35 1361.26 1884.59 1361.33 1884.52 1355.74 1890.18 1349.73 1896.32 1343.07 1903.09 1335.7 1910.5 1338.59 1905.6 1337.45 1909.56 1336.1 1914.19 1334.6 1919.37 1332.98 1924.99 1332.99 1924.95 1329.5 1937.22 1329.52 1937.13 1325.95 1950.1 1325.99 1949.95 1322.63 1962.84 1322.67 1962.67 1321.16 1968.85 1321.2 1968.7 1319.84 1974.56 1319.89 1974.36 1318.73 1979.82 1318.78 1979.55 1317.86 1984.5 1317.92 1984.11 1317.26 1988.47 1317.34 1987.86 1316.98 1991.52 1317.03 1990.67 1316.96 1994.04 1316.95 1993.43 1317.08 1997.37 1317.05 1996.93 1317.36 2001.37 1317.33 2001.03 1317.82 2005.88 1317.77 2005.46 1319.23 2016.08 1319.15 2015.6 1321.19 2026.88 1321.09 2026.41 1323.62 2037.69 1323.48 2037.14 1326.41 2047.76 1326.26 2047.24 1327.84 2052.09 1327.69 2051.65 1329.34 2056.09 1329.12 2055.53 1330.83 2059.47 1330.47 2058.73 1332.23 2062.09 1331.58 2061 1337.56 2069.89 1336.89 2068.99 1343.74 2077.28 1343.34 2076.82 1350.64 2084.77 1350.58 2084.69 1357.98 2092.61 1365.57 2100.9 1365.51 2100.83 1372.47 2108.3 1372.26 2108.08 1378.94 2114.87 1378.56 2114.51 1385.24 2120.72 1384.7 2120.24 1391.67 2125.95 1390.99 2125.43 1398.56 2130.74 1397.81 2130.25 1406.26 2135.25 1405.52 2134.84 1415.15 2139.61 1414.18 2139.19 1422.28 2142.3 1421.47 2142.03 1429.81 2144.54 1429.72 2144.51 1438.41 2147.05 1447.48 2150.29 1456.63 2154.68 1465.02 2159.32 1464.89 2159.25 1473.03 2163.62 1472.16 2163.2 1480.61 2166.86 1479.32 2166.39 1490.17 2169.62 1489.41 2169.43 1500.49 2171.91 1500.38 2171.89 1511.76 2174.32 1523.24 2177.37 1530.55 2179.67 1536.82 2181.69 1542.32 2183.5 1547.12 2185.13 1551.27 2186.58 1554.84 2187.88 1557.89 2189.03 1560.48 2190.06 1562.68 2190.99 1564.64 2191.89 1567.55 2193.4 1569.64 2194.74 1570.82 2195.64 1570.19 2195.19 1571.05 2195.75 1569.46 2194.88 1570.76 2195.46 1569.62 2195.03 1571.81 2195.74 1571.36 2195.6 1572.92 2196.04 1572.73 2195.99 1574.69 2196.5 1574.56 2196.46 1576.95 2197.06 1576.86 2197.04 1579.76 2197.73 1579.7 2197.72 1583.15 2198.52 1583.1 2198.51 1587.16 2199.45 1591.86 2200.51 1597.28 2201.73 1603.49 2203.12 1610.53 2204.68 1617.62 2206.25 1617.58 2206.24 1624.13 2207.66 1624.09 2207.65 1630.16 2208.94 1630.11 2208.92 1635.77 2210.1 1635.68 2210.08 1646.08 2212.14 1645.95 2212.12 1655.58 2213.92 1655.46 2213.9 1664.91 2215.56 1664.83 2215.55 1674.69 2217.22 1679.91 2218.08 1685.48 2219 1691.46 2219.99 1699.28 2221.29 1706.92 2224.58 1712.55 2227.03 1717.46 2229.18 1721.73 2231.07 1725.41 2232.7 1728.54 2234.09 1731.17 2235.25 1731.1 2235.22 1733.34 2236.19 1733.11 2236.09 1736.57 2237.5 1735.81 2237.22 1738.29 2238.03 1736.76 2237.64 1738.71 2237.99 1736.87 2237.81 1738.76 2237.84 1737.8 2237.87 1740.1 2237.71 1743.39 2237.49 1745.7 2237.4 1748.36 2237.36 1751.45 2237.38 1755.02 2237.48 1759.13 2237.67 1764.13 2237.99 1776.9 2239.71 1773.84 2262.42 1761.46 2260.75 1762.26 2260.83 1757.76 2260.54 1757.96 2260.55 1754.06 2260.37 1754.29 2260.38 1750.95 2260.29 1751.19 2260.29 1748.35 2260.28 1748.6 2260.28 1746.2 2260.31 1746.46 2260.31 1744.44 2260.39 1744.75 2260.37 1741.62 2260.58 1741.66 2260.57 1738.9 2260.76 1735.6 2260.71 1731.94 2260.06 1728.32 2258.88 1724.36 2257.27 1721.97 2256.23 1719.25 2255.04 1716.12 2253.65 1712.48 2252.03 1708.26 2250.17 1703.36 2248.02 1703.4 2248.04 1697.81 2245.61 1697.84 2245.62 1691.49 2242.89 1694.15 2243.67 1687.72 2242.6 1681.75 2241.61 1676.16 2240.69 1670.87 2239.81 1660.97 2238.14 1651.43 2236.46 1641.68 2234.63 1631.17 2232.55 1625.44 2231.36 1619.31 2230.06 1612.71 2228.63 1605.55 2227.05 1598.49 2225.48 1592.25 2224.09 1586.79 2222.86 1582.03 2221.78 1577.95 2220.84 1574.45 2220.02 1571.48 2219.31 1568.97 2218.69 1566.85 2218.14 1564.96 2217.61 1561.97 2216.64 1559.29 2215.44 1557.35 2214.18 1556.19 2213.3 1556.88 2213.78 1555.59 2212.95 1556.51 2213.49 1554.34 2212.36 1554.87 2212.62 1553.32 2211.91 1553.6 2212.03 1551.65 2211.21 1551.88 2211.3 1549.5 2210.35 1549.68 2210.43 1546.8 2209.34 1546.96 2209.39 1543.52 2208.15 1543.65 2208.19 1539.61 2206.78 1539.71 2206.82 1535.01 2205.22 1535.1 2205.25 1529.68 2203.47 1529.76 2203.49 1523.56 2201.5 1523.63 2201.52 1516.6 2199.3 1517.11 2199.45 1506.15 2196.54 1506.69 2196.67 1495.53 2194.28 1484.01 2191.7 1472.13 2188.16 1462.61 2184.04 1453.99 2179.41 1445.83 2174.9 1446.42 2175.2 1438.1 2171.21 1439.2 2171.67 1431.02 2168.75 1431.66 2168.95 1423.25 2166.49 1414.45 2163.85 1405.46 2160.39 1394.97 2155.19 1385.77 2149.76 1377.49 2143.96 1369.9 2137.75 1362.77 2131.12 1355.81 2124.03 1348.71 2116.41 1341.12 2108.13 1341.21 2108.22 1333.81 2100.32 1326.26 2092.11 1318.86 2083.15 1312.21 2073.27 1309.97 2068.98 1307.98 2064.38 1306.13 2059.44 1304.39 2054.11 1301.32 2042.97 1298.68 2031.19 1296.56 2019.44 1295.04 2008.38 1294.51 2003.14 1294.18 1998.3 1294.04 1993.83 1294.13 1989.73 1294.56 1985.34 1295.29 1980.49 1296.28 1975.2 1297.49 1969.51 1298.88 1963.47 1300.44 1957.14 1303.84 1944.09 1307.44 1931 1310.95 1918.66 1312.59 1912.98 1314.09 1907.81 1315.42 1903.22 1317.38 1896.44 1326.79 1886.96 1326.75 1887.01 1333.36 1880.28 1339.43 1874.09 1345.05 1868.39 1350.41 1863.05 1355.7 1857.95 1366.12 1848.59 1371.75 1843.99 1377.65 1839.5 1384 1835 1390.91 1830.42 1398.51 1825.69 1406.92 1820.74 1416.26 1815.48 1426.65 1809.84 1436.12 1804.83 1444.91 1800.26 1453.09 1796.09 1460.69 1792.29 1467.77 1788.84 1474.36 1785.71 1480.51 1782.88 1486.31 1780.3 1496.77 1775.89 1506.19 1772.24 1514.85 1769.17 1523.03 1766.47 1531.09 1763.94 1539.37 1761.34 1539.27 1761.38 1548.23 1758.48 1548.05 1758.54 1558.04 1755.14 1557.88 1755.19 1563.37 1753.23 1563.26 1753.27 1569.14 1751.1 1569.03 1751.14 1575.34 1748.74 1575.23 1748.78 1582.02 1746.11 1581.92 1746.16 1589.23 1743.2 1589.13 1743.24 1597.01 1739.97 1596.92 1740.01 1605.41 1736.4 1605.32 1736.44 1614.46 1732.45 1613.92 1732.71 1626.56 1726.39 1625.93 1726.74 1638.17 1719.62 1638.05 1719.69 1650.42 1712.3 1663.4 1705.21 1664.21 1704.84 1665.15 1704.42 1666.47 1703.84 1668.21 1703.08 1670.33 1702.15 1672.79 1701.07 1678.67 1698.48 1685.59 1695.43 1693.28 1692.02 1701.5 1688.35 1710.02 1684.52 1709.98 1684.53 1718.52 1680.65 1718.47 1680.68 1726.77 1676.85 1726.7 1676.89 1734.5 1673.23 1734.4 1673.27 1741.46 1669.89 1741.31 1669.96 1747.36 1666.95 1747.19 1667.03 1749.75 1665.7 1749.59 1665.79 1751.81 1664.59 1751.56 1664.73 1753.4 1663.67 1753.02 1663.9 1754.45 1663.01 1753.76 1663.47 1754.75 1662.75 1753.22 1664.09 1753.73 1663.56 1751.99 1665.93 1753.44 1663.31 1753.2 1663.75 1755.07 1660 1754.91 1660.32 1757.09 1655.57 1756.96 1655.86 1759.35 1650.25 1759.23 1650.53 1761.73 1644.18 1761.61 1644.49 1764.12 1637.52 1764.01 1637.86 1766.43 1630.42 1766.31 1630.81 1768.54 1623.03 1768.42 1623.48 1770.36 1615.48 1770.24 1616.02 1771.79 1607.93 1771.68 1608.59 1772.74 1600.54 1772.66 1601.36 1773.13 1593.48 1774.37 1599.39 1746.32 1544.73ZM1706.49 1567.41C1691.07 1539.78 1700.97 1504.89 1728.6 1489.47 1756.23 1474.05 1791.13 1483.95 1806.55 1511.59 1821.96 1539.22 1812.06 1574.12 1784.43 1589.53 1756.8 1604.95 1721.9 1595.05 1706.49 1567.41ZM1771.96 2192.74 1877.5 2265.36 1756.08 2306.22Z" fill="#172C51"/><rect x="1900.5" y="2061.5" width="777" height="407" stroke="#000000" stroke-width="22.9167" stroke-miterlimit="8" fill="#FFFFFF"/><text font-family="Calibri,Calibri_MSFontService,sans-serif" font-weight="400" font-size="202" transform="matrix(1 0 0 1 1990.12 2333)">"Peter"</text><text font-family="Calibri,Calibri_MSFontService,sans-serif" font-weight="400" font-size="165" transform="matrix(1 0 0 1 1129.86 1235)">instance</text><text font-family="Calibri,Calibri_MSFontService,sans-serif" font-weight="400" font-size="165" transform="matrix(1 0 0 1 1724.68 1235)">of</text><text font-family="Calibri,Calibri_MSFontService,sans-serif" font-weight="400" font-size="165" transform="matrix(1 0 0 1 1899.42 1235)">class</text><text font-family="Calibri,Calibri_MSFontService,sans-serif" font-weight="400" font-size="165" transform="matrix(1 0 0 1 2252.91 1235)">Employee</text><text font-family="Calibri,Calibri_MSFontService,sans-serif" font-weight="400" font-size="165" transform="matrix(1 0 0 1 2097.81 2011)">string</text><text font-family="Calibri,Calibri_MSFontService,sans-serif" font-weight="400" font-size="165" transform="matrix(1 0 0 1 291.54 509)">variable</text></g></svg>