<svg width="3632" height="1181" xmlns="http://www.w3.org/2000/svg" xmlns:xlink="http://www.w3.org/1999/xlink" xml:space="preserve" overflow="hidden"><g transform="translate(-412 -557)"><rect x="424.5" y="567.5" width="671" height="346" stroke="#00B0F0" stroke-width="20.625" stroke-miterlimit="8" fill="#FFFFFF"/><text font-family="Calibri,Calibri_MSFontService,sans-serif" font-weight="400" font-size="202" transform="matrix(1 0 0 1 600.155 808)">a</text><rect x="1034.5" y="1293.5" width="600" height="407" stroke="#000000" stroke-width="22.9167" stroke-miterlimit="8" fill="#FFFFFF"/><text font-family="Calibri,Calibri_MSFontService,sans-serif" font-weight="400" font-size="202" transform="matrix(1 0 0 1 1271.02 1564)">H</text><rect x="1634.5" y="1293.5" width="599" height="407" stroke="#000000" stroke-width="22.9167" stroke-miterlimit="8" fill="#FFFFFF"/><text font-family="Calibri,Calibri_MSFontService,sans-serif" font-weight="400" font-size="202" transform="matrix(1 0 0 1 1883.12 1564)">e</text><rect x="2233.5" y="1293.5" width="600" height="407" stroke="#000000" stroke-width="22.9167" stroke-miterlimit="8" fill="#FFFFFF"/><text font-family="Calibri,Calibri_MSFontService,sans-serif" font-weight="400" font-size="202" transform="matrix(1 0 0 1 2509.55 1564)">l</text><rect x="2833.5" y="1293.5" width="599" height="407" stroke="#000000" stroke-width="22.9167" stroke-miterlimit="8" fill="#FFFFFF"/><text font-family="Calibri,Calibri_MSFontService,sans-serif" font-weight="400" font-size="202" transform="matrix(1 0 0 1 3109.05 1564)">l</text><path d="M885.496 732.261 915.029 789.713 914.351 801.128 913.193 809.916 911.525 818.611 909.46 827.115 907.104 835.326 904.561 843.131 901.93 850.418 899.309 857.071 896.794 862.979 894.474 868.037 892.414 872.177 890.118 876.325 887.875 878.667 885.731 880.23 883.76 881.46 881.603 882.691 879.174 884.001 876.435 885.421 870.217 888.512 863.027 891.959 855.125 895.656 846.751 899.506 838.153 903.408 829.598 907.251 821.305 910.947 813.548 914.383 806.583 917.452 800.664 920.05 798.176 921.141 796.05 922.072 794.315 922.832 793.008 923.406 792.17 923.776 792.276 923.729 791.899 923.9 792.649 923.525 780.202 930.313 780.586 930.094 768.331 937.404 755.689 944.738 742.426 951.349 732.946 955.469 724.351 959.119 716.362 962.43 708.934 965.426 702.025 968.135 695.59 970.582 689.589 972.793 683.956 974.803 673.784 978.265 664.672 981.201 656.326 983.809 648.37 986.31 648.515 986.263 640.509 988.896 640.756 988.812 632.365 991.786 632.668 991.674 623.537 995.203 623.846 995.078 613.623 999.375 613.837 999.282 608.204 1001.79 608.336 1001.73 602.298 1004.5 602.419 1004.44 595.93 1007.52 596.04 1007.47 589.057 1010.86 589.156 1010.82 581.634 1014.57 581.723 1014.52 573.619 1018.65 573.698 1018.61 564.967 1023.15 565.037 1023.11 555.634 1028.08 555.734 1028.02 545.451 1033.59 545.612 1033.5 536.435 1038.65 536.632 1038.54 528.431 1043.37 528.667 1043.22 521.312 1047.79 521.584 1047.62 514.944 1052.01 515.244 1051.8 509.19 1056.09 509.504 1055.86 503.905 1060.11 504.214 1059.87 498.941 1064.17 499.346 1063.82 489.254 1072.87 489.558 1072.58 484.48 1077.48 484.607 1077.35 479.335 1082.6 479.407 1082.52 473.809 1088.19 467.781 1094.33 461.11 1101.1 453.736 1108.51 456.623 1103.6 455.482 1107.56 454.136 1112.2 452.632 1117.37 451.005 1123 451.018 1122.95 447.519 1135.23 447.545 1135.13 443.969 1148.1 444.009 1147.95 440.641 1160.84 440.683 1160.68 439.167 1166.85 439.203 1166.7 437.848 1172.56 437.892 1172.36 436.732 1177.82 436.786 1177.55 435.858 1182.51 435.924 1182.11 435.264 1186.47 435.339 1185.86 434.982 1189.52 435.033 1188.67 434.957 1192.04 434.954 1191.43 435.076 1195.37 435.054 1194.93 435.364 1199.37 435.334 1199.02 435.821 1203.88 435.772 1203.46 437.233 1214.08 437.157 1213.6 439.196 1224.88 439.101 1224.41 441.63 1235.68 441.495 1235.14 444.426 1245.75 444.27 1245.23 445.86 1250.09 445.705 1249.64 447.363 1254.08 447.136 1253.52 448.851 1257.46 448.495 1256.72 450.256 1260.08 449.607 1258.99 455.596 1267.88 454.922 1266.98 461.781 1275.27 461.381 1274.81 468.702 1282.76 468.633 1282.69 476.051 1290.6 483.657 1298.89 483.589 1298.82 490.566 1306.29 490.357 1306.07 497.043 1312.87 496.669 1312.5 503.358 1318.71 502.815 1318.24 509.802 1323.94 509.121 1323.43 516.701 1328.73 515.95 1328.25 524.417 1333.24 523.676 1332.84 533.325 1337.61 532.352 1337.18 540.469 1340.3 539.662 1340.02 548.016 1342.53 547.929 1342.51 556.633 1345.05 565.712 1348.29 574.88 1352.68 583.28 1357.32 583.152 1357.25 591.305 1361.62 590.44 1361.2 598.9 1364.86 597.616 1364.39 608.486 1367.62 607.728 1367.42 618.821 1369.91 618.71 1369.89 630.11 1372.32 641.612 1375.36 648.933 1377.67 655.209 1379.69 660.721 1381.5 665.529 1383.13 669.691 1384.58 673.267 1385.87 676.32 1387.03 678.913 1388.06 681.111 1388.99 683.075 1389.88 685.986 1391.39 688.081 1392.74 689.269 1393.63 688.637 1393.19 689.492 1393.74 687.904 1392.88 689.206 1393.46 688.073 1393.03 690.266 1393.74 689.811 1393.6 691.38 1394.04 691.19 1393.99 693.148 1394.5 693.018 1394.46 695.42 1395.06 695.33 1395.04 698.231 1395.73 698.169 1395.72 701.625 1396.52 701.581 1396.51 705.648 1397.45 710.35 1398.51 715.782 1399.73 721.998 1401.12 729.051 1402.68 736.155 1404.25 736.113 1404.24 742.683 1405.66 742.635 1405.65 748.721 1406.94 748.667 1406.92 754.343 1408.1 754.253 1408.08 764.665 1410.14 764.538 1410.12 774.184 1411.92 774.07 1411.9 783.535 1413.56 783.455 1413.55 793.324 1415.21 798.56 1416.08 804.141 1417 810.125 1417.99 817.954 1419.29 825.611 1422.58 831.231 1425.02 836.164 1427.18 840.446 1429.07 844.129 1430.7 847.265 1432.09 849.9 1433.24 849.832 1433.21 852.077 1434.19 851.839 1434.09 855.308 1435.49 854.55 1435.22 857.037 1436.03 855.502 1435.64 857.465 1435.99 855.62 1435.81 857.515 1435.84 856.557 1435.87 858.841 1435.71 862.162 1435.49 864.47 1435.4 867.134 1435.36 870.231 1435.38 873.807 1435.48 877.917 1435.67 882.922 1435.99 895.889 1437.73 892.847 1460.44 880.271 1458.76 881.058 1458.83 876.548 1458.54 876.749 1458.55 872.85 1458.37 873.072 1458.38 869.728 1458.29 869.969 1458.29 867.122 1458.28 867.377 1458.28 864.97 1458.31 865.227 1458.31 863.202 1458.39 863.512 1458.37 860.418 1458.57 857.656 1458.76 854.352 1458.71 850.693 1458.06 847.068 1456.88 843.105 1455.27 840.708 1454.24 837.986 1453.04 834.851 1451.65 831.202 1450.04 826.975 1448.17 822.108 1446.04 816.507 1443.61 816.543 1443.63 810.182 1440.89 812.833 1441.67 806.392 1440.6 800.411 1439.61 794.814 1438.69 789.512 1437.81 779.602 1436.14 770.038 1434.46 760.271 1432.63 749.751 1430.55 744.004 1429.36 737.866 1428.06 731.251 1426.63 724.081 1425.05 717.008 1423.48 710.763 1422.09 705.288 1420.86 700.525 1419.78 696.436 1418.84 692.927 1418.02 689.95 1417.31 687.438 1416.69 685.321 1416.14 683.429 1415.61 680.433 1414.64 677.747 1413.44 675.808 1412.18 674.647 1411.31 675.336 1411.79 674.044 1410.96 674.968 1411.49 672.792 1410.36 673.321 1410.62 671.764 1409.91 672.044 1410.04 670.099 1409.21 670.326 1409.31 667.939 1408.36 668.124 1408.43 665.239 1407.34 665.39 1407.39 661.952 1406.15 662.078 1406.19 658.031 1404.78 658.136 1404.82 653.425 1403.23 653.514 1403.25 648.083 1401.47 648.159 1401.49 641.953 1399.5 642.018 1399.52 634.983 1397.3 635.492 1397.45 624.514 1394.55 625.052 1394.67 613.866 1392.28 602.335 1389.7 590.434 1386.17 580.905 1382.05 572.264 1377.42 564.09 1372.9 564.679 1373.2 556.349 1369.21 557.45 1369.67 549.25 1366.75 549.888 1366.95 541.463 1364.49 532.657 1361.85 523.645 1358.39 513.142 1353.2 503.928 1347.76 495.633 1341.96 488.037 1335.75 480.893 1329.13 473.918 1322.04 466.803 1314.42 459.205 1306.14 459.289 1306.23 451.879 1298.32 444.318 1290.11 436.907 1281.16 430.248 1271.27 428.001 1266.98 426.001 1262.38 424.156 1257.44 422.409 1252.11 419.331 1240.97 416.688 1229.19 414.564 1217.44 413.04 1206.38 412.515 1201.14 412.177 1196.3 412.039 1191.83 412.132 1187.72 412.561 1183.34 413.297 1178.48 414.287 1173.19 415.497 1167.5 416.893 1161.46 418.447 1155.13 421.856 1142.09 425.467 1128.99 428.985 1116.65 430.625 1110.98 432.128 1105.81 433.462 1101.21 435.418 1094.43 444.845 1084.96 444.804 1085 451.429 1078.27 457.508 1072.08 463.142 1066.38 468.514 1061.04 473.805 1055.94 484.249 1046.58 489.882 1041.98 495.793 1037.49 502.155 1032.99 509.081 1028.41 516.691 1023.68 525.11 1018.73 534.466 1013.47 544.88 1007.84 554.368 1002.83 563.174 998.254 571.362 994.081 578.977 990.283 586.064 986.834 592.668 983.706 598.832 980.873 604.636 978.293 615.121 973.887 624.557 970.24 633.223 967.168 641.426 964.47 649.492 961.935 657.789 959.343 657.692 959.374 666.665 956.482 666.488 956.54 676.492 953.135 676.334 953.19 681.834 951.229 681.722 951.269 687.611 949.099 687.5 949.141 693.824 946.736 693.715 946.778 700.518 944.111 700.413 944.152 707.739 941.197 707.64 941.238 715.533 937.967 715.439 938.007 723.944 934.394 723.856 934.432 733.017 930.451 732.471 930.706 745.141 924.39 744.503 924.733 756.772 917.616 756.651 917.687 769.036 910.3 782.046 903.205 782.858 902.836 783.797 902.422 785.119 901.841 786.856 901.08 788.978 900.151 791.452 899.067 797.341 896.481 804.268 893.429 811.976 890.016 820.207 886.347 828.742 882.513 828.703 882.531 837.255 878.649 837.204 878.673 845.517 874.851 845.448 874.883 853.266 871.225 853.169 871.271 860.235 867.883 860.087 867.955 866.146 864.943 865.976 865.029 868.547 863.697 868.38 863.785 870.603 862.586 870.361 862.721 872.204 861.669 871.822 861.897 873.253 861.004 872.566 861.468 873.553 860.748 872.028 862.082 872.538 861.549 870.789 863.925 872.242 861.299 872.008 861.746 873.875 857.993 873.719 858.318 875.899 853.567 875.771 853.857 878.162 848.239 878.044 848.528 880.547 842.173 880.431 842.48 882.945 835.518 882.828 835.859 885.252 828.419 885.133 828.809 887.367 821.022 887.246 821.478 889.19 813.474 889.072 814.019 890.624 805.928 890.517 806.59 891.577 798.542 891.499 799.359 891.967 791.484 893.215 797.402 865.114 742.738ZM825.3 765.462C809.857 737.845 819.726 702.938 847.343 687.495 874.96 672.052 909.867 681.921 925.31 709.538 940.753 737.155 930.884 772.062 903.267 787.505 875.65 802.947 840.743 793.078 825.3 765.462ZM890.951 1390.76 996.5 1463.36 875.089 1504.24Z" fill="#172C51"/><rect x="3432.5" y="1293.5" width="600" height="407" stroke="#000000" stroke-width="22.9167" stroke-miterlimit="8" fill="#FFFFFF"/><text font-family="Calibri,Calibri_MSFontService,sans-serif" font-weight="400" font-size="202" transform="matrix(1 0 0 1 3678.47 1564)">o</text></g></svg>