<?xml version="1.0" encoding="UTF-8" standalone="no"?>
<svg
   version="1.1"
   viewBox="0 0 775.84912 280.20209"
   fill="none"
   stroke="none"
   stroke-linecap="square"
   stroke-miterlimit="10"
   id="svg97"
   sodipodi:docname="array-threads.svg"
   width="775.84912"
   height="280.20209"
   inkscape:version="1.1.2 (0a00cf5339, 2022-02-04)"
   xmlns:inkscape="http://www.inkscape.org/namespaces/inkscape"
   xmlns:sodipodi="http://sodipodi.sourceforge.net/DTD/sodipodi-0.dtd"
   xmlns="http://www.w3.org/2000/svg"
   xmlns:svg="http://www.w3.org/2000/svg">
  <defs
     id="defs101" />
  <sodipodi:namedview
     id="namedview99"
     pagecolor="#ffffff"
     bordercolor="#666666"
     borderopacity="1.0"
     inkscape:pageshadow="2"
     inkscape:pageopacity="0.0"
     inkscape:pagecheckerboard="0"
     showgrid="false"
     fit-margin-top="0"
     fit-margin-left="0"
     fit-margin-right="0"
     fit-margin-bottom="0"
     inkscape:zoom="1.2125"
     inkscape:cx="365.7732"
     inkscape:cy="237.52577"
     inkscape:window-width="2490"
     inkscape:window-height="1403"
     inkscape:window-x="70"
     inkscape:window-y="0"
     inkscape:window-maximized="1"
     inkscape:current-layer="svg97" />
  <clipPath
     id="p.0">
    <path
       d="M 0,0 H 960 V 720 H 0 Z"
       clip-rule="nonzero"
       id="path2" />
  </clipPath>
  <path
     fill="#000000"
     fill-opacity="0"
     d="m -114.0433,-121.81365 h 960 v 720 h -960 z"
     fill-rule="evenodd"
     id="path5" />
  <path
     fill="#cfe2f3"
     d="M 66.10894,42.01574 H 365.95147 V 69.82677 H 66.10894 Z"
     fill-rule="evenodd"
     id="path7" />
  <path
     stroke="#000000"
     stroke-width="1"
     stroke-linejoin="round"
     stroke-linecap="butt"
     d="M 66.10894,42.01574 H 365.95147 V 69.82677 H 66.10894 Z"
     fill-rule="evenodd"
     id="path9" />
  <path
     fill="#000000"
     fill-opacity="0"
     d="M 66.10894,66.19685 V 9.37796"
     fill-rule="evenodd"
     id="path11" />
  <path
     stroke="#000000"
     stroke-width="1"
     stroke-linejoin="round"
     stroke-linecap="butt"
     d="M 66.10894,66.19685 V 9.37796"
     fill-rule="evenodd"
     id="path13" />
  <path
     fill="#000000"
     fill-opacity="0"
     d="M 365.9567,69.82678 V 13.00787"
     fill-rule="evenodd"
     id="path15" />
  <path
     stroke="#000000"
     stroke-width="1"
     stroke-linejoin="round"
     stroke-linecap="butt"
     d="M 365.9567,69.82678 V 13.00787"
     fill-rule="evenodd"
     id="path17" />
  <path
     fill="#000000"
     fill-opacity="0"
     d="m 66.10894,0 h 52 v 42.01574 h -52 z"
     fill-rule="evenodd"
     id="path19" />
  <path
     fill="#000000"
     d="m 75.89019,20.32625 q 0,-2.35938 0.48437,-3.79688 0.48438,-1.45312 1.4375,-2.23437 0.96875,-0.78125 2.42188,-0.78125 1.07812,0 1.89062,0.4375 0.8125,0.42187 1.32813,1.25 0.53125,0.8125 0.82812,1.98437 0.3125,1.15625 0.3125,3.14063 0,2.35937 -0.48437,3.8125 -0.48438,1.4375 -1.45313,2.23437 -0.95312,0.78125 -2.42187,0.78125 -1.92188,0 -3.03125,-1.39062 -1.3125,-1.67188 -1.3125,-5.4375 z m 1.67187,0 q 0,3.29687 0.76563,4.39062 0.78125,1.07813 1.90625,1.07813 1.14062,0 1.90625,-1.09375 0.76562,-1.09375 0.76562,-4.375 0,-3.29688 -0.76562,-4.375 -0.76563,-1.07813 -1.92188,-1.07813 -1.125,0 -1.79687,0.95313 -0.85938,1.21875 -0.85938,4.5 z"
     fill-rule="nonzero"
     id="path21" />
  <path
     fill="#000000"
     fill-opacity="0"
     d="m 365.9567,0 h 52 v 42.01574 h -52 z"
     fill-rule="evenodd"
     id="path23" />
  <path
     fill="#000000"
     d="M 376.37858,26.91999 V 13.56061 h 1.8125 l 7.01562,10.48438 V 13.56061 h 1.6875 v 13.35938 h -1.8125 l -7.01562,-10.5 v 10.5 z m 12.05109,0.23437 3.875,-13.8125 h 1.3125 l -3.85938,13.8125 z m 14.57391,-1.8125 v 1.57813 h -8.82813 q -0.0156,-0.59375 0.1875,-1.14063 0.34375,-0.90625 1.07813,-1.78125 0.75,-0.875 2.15625,-2.01562 2.17187,-1.78125 2.9375,-2.82813 0.76562,-1.04687 0.76562,-1.96875 0,-0.98437 -0.70312,-1.64062 -0.6875,-0.67188 -1.8125,-0.67188 -1.1875,0 -1.90625,0.71875 -0.70313,0.70313 -0.70313,1.95313 l -1.6875,-0.17188 q 0.17188,-1.89062 1.29688,-2.875 1.14062,-0.98437 3.03125,-0.98437 1.92187,0 3.04687,1.0625 1.125,1.0625 1.125,2.64062 0,0.79688 -0.32812,1.57813 -0.32813,0.78125 -1.09375,1.64062 -0.75,0.84375 -2.53125,2.34375 -1.46875,1.23438 -1.89063,1.6875 -0.42187,0.4375 -0.6875,0.875 z"
     fill-rule="nonzero"
     id="path25" />
  <path
     fill="#cfe2f3"
     d="M 365.95145,42.01574 H 665.79398 V 69.82677 H 365.95145 Z"
     fill-rule="evenodd"
     id="path27" />
  <path
     stroke="#000000"
     stroke-width="1"
     stroke-linejoin="round"
     stroke-linecap="butt"
     d="M 365.95145,42.01574 H 665.79398 V 69.82677 H 365.95145 Z"
     fill-rule="evenodd"
     id="path29" />
  <path
     fill="#000000"
     fill-opacity="0"
     d="M 665.7992,69.82678 V 13.00787"
     fill-rule="evenodd"
     id="path31" />
  <path
     stroke="#000000"
     stroke-width="1"
     stroke-linejoin="round"
     stroke-linecap="butt"
     d="M 665.7992,69.82678 V 13.00787"
     fill-rule="evenodd"
     id="path33" />
  <path
     fill="#000000"
     fill-opacity="0"
     d="m 665.7992,0 h 52 v 42.01574 h -52 z"
     fill-rule="evenodd"
     id="path35" />
  <path
     fill="#000000"
     d="M 676.2211,26.91999 V 13.56061 h 1.8125 l 7.01563,10.48438 V 13.56061 h 1.6875 v 13.35938 h -1.8125 l -7.01563,-10.5 v 10.5 z"
     fill-rule="nonzero"
     id="path37" />
  <path
     fill="#d9ead3"
     d="m 0.5,210.37531 h 299.84253 v 27.81104 H 0.5 Z"
     fill-rule="evenodd"
     id="path39" />
  <path
     stroke="#000000"
     stroke-width="1"
     stroke-linejoin="round"
     stroke-linecap="butt"
     d="m 0.5,210.37531 h 299.84253 v 27.81104 H 0.5 Z"
     fill-rule="evenodd"
     id="path41" />
  <path
     fill="#000000"
     fill-opacity="0"
     d="M 0.5,234.55645 V 177.73754"
     fill-rule="evenodd"
     id="path43" />
  <path
     stroke="#000000"
     stroke-width="1"
     stroke-linejoin="round"
     stroke-linecap="butt"
     d="M 0.5,234.55645 V 177.73754"
     fill-rule="evenodd"
     id="path45" />
  <path
     fill="#000000"
     fill-opacity="0"
     d="M 300.34778,238.18635 V 181.36744"
     fill-rule="evenodd"
     id="path47" />
  <path
     stroke="#000000"
     stroke-width="1"
     stroke-linejoin="round"
     stroke-linecap="butt"
     d="M 300.34778,238.18635 V 181.36744"
     fill-rule="evenodd"
     id="path49" />
  <path
     fill="#000000"
     fill-opacity="0"
     d="m 0.5,168.35957 h 52 v 42.01575 h -52 z"
     fill-rule="evenodd"
     id="path51" />
  <path
     fill="#000000"
     d="m 10.28125,188.68583 q 0,-2.35938 0.48438,-3.79688 0.48437,-1.45312 1.4375,-2.23437 0.96875,-0.78125 2.42187,-0.78125 1.07813,0 1.89063,0.4375 0.8125,0.42187 1.32812,1.25 0.53125,0.8125 0.82813,1.98437 0.3125,1.15625 0.3125,3.14063 0,2.35937 -0.48438,3.8125 -0.48437,1.4375 -1.45312,2.23437 -0.95313,0.78125 -2.42188,0.78125 -1.92187,0 -3.03125,-1.39062 -1.3125,-1.67188 -1.3125,-5.4375 z m 1.67188,0 q 0,3.29687 0.76562,4.39062 0.78125,1.07813 1.90625,1.07813 1.14063,0 1.90625,-1.09375 0.76563,-1.09375 0.76563,-4.375 0,-3.29688 -0.76563,-4.375 -0.76562,-1.07813 -1.92187,-1.07813 -1.125,0 -1.79688,0.95313 -0.85937,1.21875 -0.85937,4.5 z"
     fill-rule="nonzero"
     id="path53" />
  <path
     fill="#000000"
     fill-opacity="0"
     d="m 300.34778,168.35957 h 52 v 42.01575 h -52 z"
     fill-rule="evenodd"
     id="path55" />
  <path
     fill="#000000"
     d="M 310.76966,195.27958 V 181.9202 h 1.8125 l 7.01562,10.48438 V 181.9202 h 1.6875 v 13.35938 h -1.8125 l -7.01562,-10.5 v 10.5 z m 12.05106,0.23437 3.875,-13.8125 h 1.3125 l -3.85938,13.8125 z m 14.57394,-1.8125 v 1.57813 h -8.82813 q -0.0156,-0.59375 0.1875,-1.14063 0.34375,-0.90625 1.07813,-1.78125 0.75,-0.875 2.15625,-2.01562 2.17187,-1.78125 2.9375,-2.82813 0.76562,-1.04687 0.76562,-1.96875 0,-0.98437 -0.70312,-1.64062 -0.6875,-0.67188 -1.8125,-0.67188 -1.1875,0 -1.90625,0.71875 -0.70313,0.70313 -0.70313,1.95313 l -1.6875,-0.17188 q 0.17188,-1.89062 1.29688,-2.875 1.14062,-0.98437 3.03125,-0.98437 1.92187,0 3.04687,1.0625 1.125,1.0625 1.125,2.64062 0,0.79688 -0.32812,1.57813 -0.32813,0.78125 -1.09375,1.64062 -0.75,0.84375 -2.53125,2.34375 -1.46875,1.23438 -1.89063,1.6875 -0.42187,0.4375 -0.6875,0.875 z"
     fill-rule="nonzero"
     id="path57" />
  <path
     fill="#f4cccc"
     d="m 424.0013,210.37531 h 299.84253 v 27.81104 H 424.0013 Z"
     fill-rule="evenodd"
     id="path59" />
  <path
     stroke="#000000"
     stroke-width="1"
     stroke-linejoin="round"
     stroke-linecap="butt"
     d="m 424.0013,210.37531 h 299.84253 v 27.81104 H 424.0013 Z"
     fill-rule="evenodd"
     id="path61" />
  <path
     fill="#000000"
     fill-opacity="0"
     d="M 424.0013,234.55645 V 177.73754"
     fill-rule="evenodd"
     id="path63" />
  <path
     stroke="#000000"
     stroke-width="1"
     stroke-linejoin="round"
     stroke-linecap="butt"
     d="M 424.0013,234.55645 V 177.73754"
     fill-rule="evenodd"
     id="path65" />
  <path
     fill="#000000"
     fill-opacity="0"
     d="M 723.8491,238.18635 V 181.36744"
     fill-rule="evenodd"
     id="path67" />
  <path
     stroke="#000000"
     stroke-width="1"
     stroke-linejoin="round"
     stroke-linecap="butt"
     d="M 723.8491,238.18635 V 181.36744"
     fill-rule="evenodd"
     id="path69" />
  <path
     fill="#000000"
     fill-opacity="0"
     d="m 424.0013,168.35957 h 52 v 42.01575 h -52 z"
     fill-rule="evenodd"
     id="path71" />
  <path
     fill="#000000"
     d="M 434.4232,195.27958 V 181.9202 h 1.8125 l 7.01562,10.48438 V 181.9202 h 1.6875 v 13.35938 h -1.8125 l -7.01562,-10.5 v 10.5 z m 12.05109,0.23437 3.875,-13.8125 h 1.3125 l -3.85938,13.8125 z m 14.57391,-1.8125 v 1.57813 h -8.82813 q -0.0156,-0.59375 0.1875,-1.14063 0.34375,-0.90625 1.07813,-1.78125 0.75,-0.875 2.15625,-2.01562 2.17187,-1.78125 2.9375,-2.82813 0.76562,-1.04687 0.76562,-1.96875 0,-0.98437 -0.70312,-1.64062 -0.6875,-0.67188 -1.8125,-0.67188 -1.1875,0 -1.90625,0.71875 -0.70313,0.70313 -0.70313,1.95313 l -1.6875,-0.17188 q 0.17188,-1.89062 1.29688,-2.875 1.14062,-0.98437 3.03125,-0.98437 1.92187,0 3.04687,1.0625 1.125,1.0625 1.125,2.64062 0,0.79688 -0.32812,1.57813 -0.32813,0.78125 -1.09375,1.64062 -0.75,0.84375 -2.53125,2.34375 -1.46875,1.23438 -1.89063,1.6875 -0.42187,0.4375 -0.6875,0.875 z"
     fill-rule="nonzero"
     id="path73" />
  <path
     fill="#000000"
     fill-opacity="0"
     d="m 723.8491,168.35957 h 52 v 42.01575 h -52 z"
     fill-rule="evenodd"
     id="path75" />
  <path
     fill="#000000"
     d="M 734.271,195.27958 V 181.9202 h 1.8125 l 7.01562,10.48438 V 181.9202 h 1.6875 v 13.35938 h -1.8125 l -7.01562,-10.5 v 10.5 z"
     fill-rule="nonzero"
     id="path77" />
  <path
     fill="#d9ead3"
     d="m 219.10358,106.21234 -43.90503,62.9767 7.92914,5.52756 -26.91385,4.80282 -4.8027,-26.91305 7.92913,5.52756 43.90506,-62.9767 z"
     fill-rule="evenodd"
     id="path79" />
  <path
     stroke="#000000"
     stroke-width="1"
     stroke-linejoin="round"
     stroke-linecap="butt"
     d="m 219.10358,106.21234 -43.90503,62.9767 7.92914,5.52756 -26.91385,4.80282 -4.8027,-26.91305 7.92913,5.52756 43.90506,-62.9767 z"
     fill-rule="evenodd"
     id="path81" />
  <path
     fill="#f4cccc"
     d="m 533.0511,102.2622 43.90503,62.9767 -7.92914,5.52756 26.91388,4.80282 4.80268,-26.91305 -7.92914,5.52756 -43.90509,-62.9767 z"
     fill-rule="evenodd"
     id="path83" />
  <path
     stroke="#000000"
     stroke-width="1"
     stroke-linejoin="round"
     stroke-linecap="butt"
     d="m 533.0511,102.2622 43.90503,62.9767 -7.92914,5.52756 26.91388,4.80282 4.80268,-26.91305 -7.92914,5.52756 -43.90509,-62.9767 z"
     fill-rule="evenodd"
     id="path85" />
  <path
     fill="#000000"
     fill-opacity="0"
     d="M 99.33466,238.18635 H 201.50788 V 280.2021 H 99.33466 Z"
     fill-rule="evenodd"
     id="path87" />
  <path
     fill="#000000"
     d="m 113.17841,265.10633 v -11.78125 h -4.40625 v -1.57813 h 10.57812 v 1.57813 h -4.40625 v 11.78125 z m 7.78661,0 v -13.35938 h 1.64062 v 4.79688 q 1.14063,-1.32813 2.89063,-1.32813 1.07812,0 1.85937,0.42188 0.79688,0.42187 1.14063,1.17187 0.34375,0.75 0.34375,2.17188 v 6.125 h -1.64063 v -6.125 q 0,-1.23438 -0.53125,-1.79688 -0.53125,-0.5625 -1.51562,-0.5625 -0.71875,0 -1.35938,0.39063 -0.64062,0.375 -0.92187,1.01562 -0.26563,0.64063 -0.26563,1.78125 v 5.29688 z m 10.36009,0 v -9.67188 h 1.46875 v 1.46875 q 0.5625,-1.03125 1.03125,-1.35937 0.48437,-0.32813 1.0625,-0.32813 0.82812,0 1.6875,0.53125 l -0.5625,1.51563 q -0.60938,-0.35938 -1.20313,-0.35938 -0.54687,0 -0.96875,0.32813 -0.42187,0.32812 -0.60937,0.89062 -0.28125,0.875 -0.28125,1.92188 v 5.0625 z m 12.8533,-3.10938 1.6875,0.20313 q -0.40625,1.48437 -1.48437,2.3125 -1.07813,0.8125 -2.76563,0.8125 -2.125,0 -3.375,-1.29688 -1.23437,-1.3125 -1.23437,-3.67187 0,-2.45313 1.25,-3.79688 1.26562,-1.34375 3.26562,-1.34375 1.9375,0 3.15625,1.32813 1.23438,1.3125 1.23438,3.70312 0,0.15625 0,0.4375 h -7.21875 q 0.0937,1.59375 0.90625,2.45313 0.8125,0.84375 2.01562,0.84375 0.90625,0 1.54688,-0.46875 0.64062,-0.48438 1.01562,-1.51563 z m -5.39062,-2.65625 h 5.40625 q -0.10938,-1.21875 -0.625,-1.82812 -0.78125,-0.95313 -2.03125,-0.95313 -1.125,0 -1.90625,0.76563 -0.76563,0.75 -0.84375,2.01562 z m 15.45382,4.57813 q -0.92187,0.76562 -1.76562,1.09375 -0.82813,0.3125 -1.79688,0.3125 -1.59375,0 -2.45312,-0.78125 -0.85938,-0.78125 -0.85938,-1.98438 0,-0.71875 0.32813,-1.29687 0.32812,-0.59375 0.84375,-0.9375 0.53125,-0.35938 1.1875,-0.54688 0.46875,-0.125 1.45312,-0.25 1.98438,-0.23437 2.92188,-0.5625 0.0156,-0.34375 0.0156,-0.42187 0,-1 -0.46875,-1.42188 -0.625,-0.54687 -1.875,-0.54687 -1.15625,0 -1.70312,0.40625 -0.54688,0.40625 -0.8125,1.42187 l -1.60938,-0.21875 q 0.21875,-1.01562 0.71875,-1.64062 0.5,-0.64063 1.45313,-0.98438 0.95312,-0.34375 2.1875,-0.34375 1.25,0 2.01562,0.29688 0.78125,0.28125 1.14063,0.73437 0.375,0.4375 0.51562,1.10938 0.0781,0.42187 0.0781,1.51562 v 2.1875 q 0,2.28125 0.10937,2.89063 0.10938,0.59375 0.40625,1.15625 h -1.70312 q -0.26563,-0.51563 -0.32813,-1.1875 z m -0.14062,-3.67188 q -0.89063,0.375 -2.67188,0.625 -1.01562,0.14063 -1.4375,0.32813 -0.42187,0.1875 -0.65625,0.53125 -0.21875,0.34375 -0.21875,0.78125 0,0.65625 0.5,1.09375 0.5,0.4375 1.45313,0.4375 0.9375,0 1.67187,-0.40625 0.75,-0.42188 1.09375,-1.14063 0.26563,-0.5625 0.26563,-1.64062 z m 10.46948,4.85938 v -1.21875 q -0.90625,1.4375 -2.70313,1.4375 -1.15625,0 -2.125,-0.64063 -0.96875,-0.64062 -1.5,-1.78125 -0.53125,-1.14062 -0.53125,-2.625 0,-1.45312 0.48438,-2.625 0.48437,-1.1875 1.4375,-1.8125 0.96875,-0.625 2.17187,-0.625 0.875,0 1.54688,0.375 0.6875,0.35938 1.10937,0.95313 v -4.79688 h 1.64063 v 13.35938 z m -5.17188,-4.82813 q 0,1.85938 0.78125,2.78125 0.78125,0.92188 1.84375,0.92188 1.07813,0 1.82813,-0.875 0.75,-0.89063 0.75,-2.6875 0,-1.98438 -0.76563,-2.90625 -0.76562,-0.9375 -1.89062,-0.9375 -1.07813,0 -1.8125,0.89062 -0.73438,0.89063 -0.73438,2.8125 z m 20.18403,4.82813 h -1.64063 V 254.6532 q -0.59375,0.5625 -1.5625,1.14063 -0.95312,0.5625 -1.71875,0.84375 v -1.59375 q 1.375,-0.64063 2.40625,-1.5625 1.03125,-0.92188 1.45313,-1.78125 h 1.0625 z"
     fill-rule="nonzero"
     id="path89" />
  <path
     fill="#000000"
     fill-opacity="0"
     d="M 522.836,238.18635 H 625.00922 V 280.2021 H 522.836 Z"
     fill-rule="evenodd"
     id="path91" />
  <path
     fill="#000000"
     d="m 536.6797,265.10633 v -11.78125 h -4.40625 v -1.57813 h 10.57812 v 1.57813 h -4.40625 v 11.78125 z m 7.78662,0 v -13.35938 h 1.64063 v 4.79688 q 1.14062,-1.32813 2.89062,-1.32813 1.07813,0 1.85938,0.42188 0.79687,0.42187 1.14062,1.17187 0.34375,0.75 0.34375,2.17188 v 6.125 h -1.64062 v -6.125 q 0,-1.23438 -0.53125,-1.79688 -0.53125,-0.5625 -1.51563,-0.5625 -0.71875,0 -1.35937,0.39063 -0.64063,0.375 -0.92188,1.01562 -0.26562,0.64063 -0.26562,1.78125 v 5.29688 z m 10.36005,0 v -9.67188 h 1.46875 v 1.46875 q 0.5625,-1.03125 1.03125,-1.35937 0.48437,-0.32813 1.0625,-0.32813 0.82812,0 1.6875,0.53125 l -0.5625,1.51563 q -0.60938,-0.35938 -1.20313,-0.35938 -0.54687,0 -0.96875,0.32813 -0.42187,0.32812 -0.60937,0.89062 -0.28125,0.875 -0.28125,1.92188 v 5.0625 z m 12.85333,-3.10938 1.6875,0.20313 q -0.40625,1.48437 -1.48438,2.3125 -1.07812,0.8125 -2.76562,0.8125 -2.125,0 -3.375,-1.29688 -1.23438,-1.3125 -1.23438,-3.67187 0,-2.45313 1.25,-3.79688 1.26563,-1.34375 3.26563,-1.34375 1.9375,0 3.15625,1.32813 1.23437,1.3125 1.23437,3.70312 0,0.15625 0,0.4375 h -7.21875 q 0.0937,1.59375 0.90625,2.45313 0.8125,0.84375 2.01563,0.84375 0.90625,0 1.54687,-0.46875 0.64063,-0.48438 1.01563,-1.51563 z m -5.39063,-2.65625 h 5.40625 q -0.10937,-1.21875 -0.625,-1.82812 -0.78125,-0.95313 -2.03125,-0.95313 -1.125,0 -1.90625,0.76563 -0.76562,0.75 -0.84375,2.01562 z m 15.45386,4.57813 q -0.92187,0.76562 -1.76562,1.09375 -0.82813,0.3125 -1.79688,0.3125 -1.59375,0 -2.45312,-0.78125 -0.85938,-0.78125 -0.85938,-1.98438 0,-0.71875 0.32813,-1.29687 0.32812,-0.59375 0.84375,-0.9375 0.53125,-0.35938 1.1875,-0.54688 0.46875,-0.125 1.45312,-0.25 1.98438,-0.23437 2.92188,-0.5625 0.0156,-0.34375 0.0156,-0.42187 0,-1 -0.46875,-1.42188 -0.625,-0.54687 -1.875,-0.54687 -1.15625,0 -1.70312,0.40625 -0.54688,0.40625 -0.8125,1.42187 l -1.60938,-0.21875 q 0.21875,-1.01562 0.71875,-1.64062 0.5,-0.64063 1.45313,-0.98438 0.95312,-0.34375 2.1875,-0.34375 1.25,0 2.01562,0.29688 0.78125,0.28125 1.14063,0.73437 0.375,0.4375 0.51562,1.10938 0.0781,0.42187 0.0781,1.51562 v 2.1875 q 0,2.28125 0.10937,2.89063 0.10938,0.59375 0.40625,1.15625 h -1.70312 q -0.26563,-0.51563 -0.32813,-1.1875 z m -0.14062,-3.67188 q -0.89063,0.375 -2.67188,0.625 -1.01562,0.14063 -1.4375,0.32813 -0.42187,0.1875 -0.65625,0.53125 -0.21875,0.34375 -0.21875,0.78125 0,0.65625 0.5,1.09375 0.5,0.4375 1.45313,0.4375 0.9375,0 1.67187,-0.40625 0.75,-0.42188 1.09375,-1.14063 0.26563,-0.5625 0.26563,-1.64062 z m 10.46942,4.85938 v -1.21875 q -0.90625,1.4375 -2.70313,1.4375 -1.15625,0 -2.125,-0.64063 -0.96875,-0.64062 -1.5,-1.78125 -0.53125,-1.14062 -0.53125,-2.625 0,-1.45312 0.48438,-2.625 0.48437,-1.1875 1.4375,-1.8125 0.96875,-0.625 2.17187,-0.625 0.875,0 1.54688,0.375 0.6875,0.35938 1.10937,0.95313 v -4.79688 h 1.64063 v 13.35938 z m -5.17188,-4.82813 q 0,1.85938 0.78125,2.78125 0.78125,0.92188 1.84375,0.92188 1.07813,0 1.82813,-0.875 0.75,-0.89063 0.75,-2.6875 0,-1.98438 -0.76563,-2.90625 -0.76562,-0.9375 -1.89062,-0.9375 -1.07813,0 -1.8125,0.89062 -0.73438,0.89063 -0.73438,2.8125 z m 22.62152,3.25 v 1.57813 h -8.82812 q -0.0156,-0.59375 0.1875,-1.14063 0.34375,-0.90625 1.07812,-1.78125 0.75,-0.875 2.15625,-2.01562 2.17188,-1.78125 2.9375,-2.82813 0.76563,-1.04687 0.76563,-1.96875 0,-0.98437 -0.70313,-1.64062 -0.6875,-0.67188 -1.8125,-0.67188 -1.1875,0 -1.90625,0.71875 -0.70312,0.70313 -0.70312,1.95313 l -1.6875,-0.17188 q 0.17187,-1.89062 1.29687,-2.875 1.14063,-0.98437 3.03125,-0.98437 1.92188,0 3.04688,1.0625 1.125,1.0625 1.125,2.64062 0,0.79688 -0.32813,1.57813 -0.32812,0.78125 -1.09375,1.64062 -0.75,0.84375 -2.53125,2.34375 -1.46875,1.23438 -1.89062,1.6875 -0.42188,0.4375 -0.6875,0.875 z"
     fill-rule="nonzero"
     id="path93" />
</svg>
